<?xml version="1.0" encoding="UTF-8" standalone="no"?>
<!-- Created with Inkscape (http://www.inkscape.org/) -->

<svg
   width="182.84378"
   height="62.301823"
   viewBox="0 0 24.188706 8.2420114"
   version="1.1"
   id="svg5"
   inkscape:version="1.1.1 (3bf5ae0d25, 2021-09-20)"
   sodipodi:docname="coffee.svg"
   xmlns:inkscape="http://www.inkscape.org/namespaces/inkscape"
   xmlns:sodipodi="http://sodipodi.sourceforge.net/DTD/sodipodi-0.dtd"
   xmlns="http://www.w3.org/2000/svg"
   xmlns:svg="http://www.w3.org/2000/svg">
  <sodipodi:namedview
     id="namedview7"
     pagecolor="#ffffff"
     bordercolor="#666666"
     borderopacity="1.0"
     inkscape:pageshadow="2"
     inkscape:pageopacity="0.0"
     inkscape:pagecheckerboard="0"
     inkscape:document-units="mm"
     showgrid="false"
     inkscape:zoom="2.0208096"
     inkscape:cx="158.84723"
     inkscape:cy="80.908167"
     inkscape:window-width="1920"
     inkscape:window-height="991"
     inkscape:window-x="-9"
     inkscape:window-y="-9"
     inkscape:window-maximized="1"
     inkscape:current-layer="layer1"
     fit-margin-top="0"
     fit-margin-left="0"
     fit-margin-right="0"
     fit-margin-bottom="0"
     units="px" />
  <defs
     id="defs2" />
  <g
     inkscape:label="Capa 1"
     inkscape:groupmode="layer"
     id="layer1"
     transform="translate(156.09569,46.443636)">
    <path
       style="fill:#000000;stroke-width:0.0206758"
       d="m -143.63944,-38.241868 c -0.0254,-0.0254 -0.0413,-0.06892 -0.0413,-0.1128 0,-0.0393 -0.0279,-0.181185 -0.0619,-0.315307 -0.0988,-0.389383 -0.12642,-0.573629 -0.13891,-0.926102 -0.009,-0.247222 -0.0198,-0.343012 -0.0435,-0.37928 -0.0288,-0.04384 -0.0285,-0.05482 0.002,-0.113773 0.0264,-0.0512 0.0351,-0.143176 0.0404,-0.427076 0.008,-0.449721 0.0339,-0.516895 0.19675,-0.516895 0.0675,0 0.2323,0.104902 0.3179,0.202399 0.14319,0.16308 0.23761,0.468332 0.19608,0.633838 -0.0224,0.08905 -0.14043,0.201776 -0.27564,0.263154 -0.0708,0.03215 -0.14293,0.05845 -0.16024,0.05845 -0.0251,0 -0.032,0.03056 -0.0339,0.149899 -0.006,0.383074 0.0216,0.594956 0.13788,1.048077 0.0829,0.322894 0.0899,0.424048 0.0314,0.45536 -0.0613,0.0328 -0.12118,0.02564 -0.16676,-0.01995 z m 0.12419,-1.922917 c 0.13891,-0.07086 0.15769,-0.161293 0.0699,-0.336601 -0.0634,-0.126631 -0.14668,-0.242253 -0.17449,-0.242253 -0.0115,0 -0.0196,0.128249 -0.0196,0.310136 0,0.200895 0.008,0.310137 0.0215,0.310137 0.0118,0 0.058,-0.01864 0.1027,-0.04142 z m -10.83425,1.682626 c -0.0739,-0.02863 -0.21348,-0.07361 -0.31014,-0.09995 -0.0967,-0.02634 -0.21296,-0.06415 -0.25845,-0.08402 -0.0455,-0.01987 -0.13666,-0.04884 -0.20261,-0.06438 -0.0659,-0.01554 -0.14504,-0.04101 -0.17575,-0.05659 -0.0307,-0.01558 -0.0999,-0.03475 -0.15383,-0.04259 -0.0752,-0.01094 -0.12924,-0.03926 -0.23203,-0.121571 -0.0737,-0.05902 -0.17113,-0.132553 -0.2165,-0.163403 -0.0454,-0.03085 -0.10843,-0.09533 -0.14014,-0.143276 -0.0546,-0.08253 -0.0576,-0.0994 -0.0566,-0.316072 0.001,-0.256202 0.0336,-0.381286 0.14595,-0.561741 0.0817,-0.131235 0.35538,-0.374922 0.50772,-0.452057 0.063,-0.0319 0.13433,-0.07303 0.15852,-0.09141 l 0.044,-0.03341 -0.10975,-0.218678 c -0.0841,-0.16762 -0.11553,-0.256929 -0.13449,-0.382503 -0.0136,-0.0901 -0.0352,-0.205692 -0.0481,-0.256864 -0.0129,-0.05117 -0.0268,-0.148866 -0.0311,-0.217097 -0.004,-0.06823 -0.0237,-0.170575 -0.0433,-0.227434 -0.0292,-0.08463 -0.0355,-0.178811 -0.0351,-0.51944 4.7e-4,-0.450985 0.008,-0.483012 0.11062,-0.483698 0.0513,-3.44e-4 0.0484,-0.0059 -0.0542,-0.101357 -0.14283,-0.13289 -0.14091,-0.165413 0.0163,-0.275817 0.0686,-0.04822 0.1846,-0.131864 0.25769,-0.185879 0.0731,-0.05401 0.13878,-0.09821 0.14597,-0.09821 0.007,0 0.0377,-0.01661 0.068,-0.03692 0.0302,-0.02031 0.1107,-0.05335 0.17893,-0.07343 0.0682,-0.02008 0.16718,-0.04999 0.21987,-0.06646 0.0527,-0.01647 0.10658,-0.02995 0.11973,-0.02995 0.0132,0 0.0508,-0.01988 0.0836,-0.04418 0.0583,-0.04312 0.0619,-0.04332 0.14901,-0.0085 0.0989,0.03957 0.1196,0.06189 0.12007,0.129364 4.7e-4,0.07056 -0.0729,0.123516 -0.19215,0.138619 -0.059,0.0075 -0.1492,0.02619 -0.20038,0.04159 -0.0512,0.0154 -0.14886,0.04421 -0.21709,0.06404 -0.0682,0.01983 -0.13875,0.04876 -0.1567,0.06429 -0.018,0.01553 -0.0419,0.02825 -0.0532,0.02825 -0.0112,0 -0.0571,0.03075 -0.10175,0.06833 -0.0447,0.03758 -0.113,0.09046 -0.15179,0.117507 l -0.0705,0.04917 0.0705,0.0599 c 0.0696,0.05908 0.41471,0.242688 0.51489,0.27391 0.0283,0.0088 0.10741,0.04147 0.17574,0.07253 0.25634,0.116536 0.91692,0.239271 1.40613,0.261254 0.43261,0.01944 0.40912,0.01971 0.8994,-0.01029 0.43931,-0.02688 0.66114,-0.07156 0.84529,-0.170261 0.0408,-0.02187 0.0804,-0.03976 0.088,-0.03976 0.008,0 0.0944,-0.04885 0.1928,-0.108548 0.0984,-0.0597 0.22041,-0.132468 0.27109,-0.161706 0.0507,-0.02923 0.12224,-0.08142 0.159,-0.115961 0.0368,-0.03454 0.13196,-0.11043 0.21156,-0.16864 0.23765,-0.173785 0.25845,-0.191443 0.25845,-0.219446 0,-0.04777 -0.15165,-0.192698 -0.28751,-0.274756 -0.0728,-0.04399 -0.13949,-0.09908 -0.14812,-0.122414 -0.0259,-0.06998 0.0232,-0.140463 0.1032,-0.148151 0.16957,-0.01629 0.64257,0.430185 0.64257,0.606539 0,0.01809 0.0324,0.04643 0.072,0.06298 0.0885,0.03697 0.10382,0.0882 0.0743,0.247987 -0.0122,0.06614 -0.0222,0.150198 -0.0222,0.186798 v 0.06654 l 0.0879,-0.02684 c 0.0483,-0.01476 0.13439,-0.04509 0.19125,-0.0674 0.10545,-0.04137 0.32679,-0.07523 0.47554,-0.07275 0.0455,7.91e-4 0.16179,0.02646 0.25845,0.0571 0.30043,0.09526 0.53983,0.314224 0.61092,0.558776 0.0301,0.103529 0.0314,0.136715 0.009,0.235827 -0.0376,0.168803 -0.11002,0.297162 -0.21869,0.387259 -0.0528,0.04376 -0.13917,0.117331 -0.19194,0.163481 -0.23562,0.206032 -0.4342,0.351034 -0.56972,0.415999 -0.21474,0.102945 -0.40133,0.203897 -0.44182,0.239044 -0.0503,0.04368 -0.22566,0.126396 -0.33531,0.158178 -0.0512,0.01483 -0.12009,0.03829 -0.15316,0.05212 l -0.0601,0.02516 0.0434,0.0404 c 0.0238,0.02222 0.0695,0.07435 0.10148,0.11583 0.38751,0.503042 0.3864,0.50084 0.37422,0.739127 -0.0131,0.256656 -0.11632,0.446287 -0.30957,0.568774 -0.0659,0.0418 -0.56802,0.218296 -0.62097,0.218296 -0.0215,0 -0.0369,0.01528 -0.0369,0.03675 0,0.06249 -0.0579,0.123486 -0.12878,0.135531 -0.17175,0.02921 -0.25732,0.04855 -0.2818,0.06367 -0.0146,0.009 -0.10557,0.01948 -0.20215,0.02322 -0.1631,0.0063 -0.29798,0.03019 -0.75187,0.133023 -0.0967,0.0219 -0.21296,0.04542 -0.25845,0.05227 -0.0455,0.0069 -0.18505,0.0302 -0.31014,0.05189 -0.12509,0.02169 -0.31582,0.05003 -0.42385,0.06298 -0.10803,0.01295 -0.2476,0.04172 -0.31014,0.06392 -0.20275,0.07198 -0.25362,0.07873 -0.58926,0.07813 -0.30333,-5.31e-4 -0.34197,-0.0049 -0.4652,-0.05264 z m 0.92199,-0.231936 c 0.11727,-0.04622 0.41706,-0.106261 0.53727,-0.107598 0.0446,-5e-4 0.13691,-0.01271 0.20514,-0.02713 l 0.12405,-0.02623 -0.26878,-0.01854 c -0.2963,-0.02044 -0.48027,-0.0208 -0.83737,-0.0016 -0.13077,0.007 -0.42235,0.01883 -0.64796,0.02625 -0.2256,0.0074 -0.39772,0.02011 -0.3825,0.02819 0.0152,0.0081 0.0789,0.02638 0.1414,0.04065 0.0625,0.01427 0.15558,0.04468 0.20676,0.06757 0.12742,0.05699 0.25496,0.07177 0.55959,0.06484 0.19856,-0.0045 0.28398,-0.01544 0.3624,-0.04635 z m -0.37408,-0.406488 c 0.0796,-0.0024 0.24842,-0.01392 0.37516,-0.02572 0.16039,-0.01493 0.26095,-0.01484 0.33081,2.82e-4 0.22436,0.04858 1.12949,0.0045 1.37086,-0.06671 0.0392,-0.01157 0.14621,-0.02611 0.23778,-0.0323 0.30027,-0.02031 0.56641,-0.05273 0.68376,-0.08329 0.0635,-0.01653 0.1299,-0.03004 0.14768,-0.03004 0.0178,0 0.15456,-0.04263 0.30396,-0.09474 0.21858,-0.07623 0.28412,-0.108481 0.33559,-0.165105 0.0677,-0.07452 0.13246,-0.242109 0.13246,-0.342954 0,-0.126824 -0.25779,-0.496079 -0.43151,-0.618096 l -0.075,-0.05271 -0.0868,0.148171 c -0.13464,0.229926 -0.33405,0.421968 -0.5335,0.513802 -0.091,0.04189 -0.20262,0.08584 -0.24811,0.09768 -0.14482,0.03768 -0.36988,0.07809 -0.43967,0.07894 -0.0667,7.91e-4 -0.22742,0.03718 -0.42871,0.097 -0.12798,0.03803 -0.79191,0.07234 -0.92037,0.04756 -0.051,-0.0098 -0.2186,-0.01829 -0.37241,-0.01879 -0.30504,-9.61e-4 -0.57757,-0.02794 -0.72311,-0.07151 -0.0512,-0.01532 -0.16748,-0.04462 -0.25845,-0.0651 -0.11224,-0.02527 -0.19238,-0.05763 -0.2493,-0.100663 -0.11482,-0.0868 -0.29547,-0.290493 -0.33825,-0.381374 -0.0547,-0.116204 -0.11367,-0.209011 -0.13291,-0.209155 -0.01,-6.2e-5 -0.0422,0.01728 -0.0724,0.03857 -0.0302,0.02128 -0.10208,0.06248 -0.15977,0.09154 -0.0577,0.02906 -0.17441,0.120968 -0.25938,0.204241 -0.12497,0.122471 -0.16295,0.175112 -0.19876,0.27546 -0.0933,0.261641 -0.0789,0.474232 0.0385,0.56661 0.1443,0.113514 0.43763,0.1973 0.66921,0.19115 0.0796,-0.0021 0.15869,0.0063 0.17575,0.01866 0.0216,0.01571 0.17455,0.01803 0.50655,0.0077 0.26155,-0.0082 0.54068,-0.01674 0.62028,-0.01909 z m 1.5746,-0.798326 c 0.0862,-0.03435 0.30523,-0.08021 0.4843,-0.101412 0.42299,-0.05008 0.74947,-0.187196 0.91397,-0.383831 0.2322,-0.277576 0.41529,-0.738593 0.45918,-1.156182 0.007,-0.06823 0.0258,-0.175227 0.0415,-0.237772 0.0156,-0.06254 0.0427,-0.178845 0.0602,-0.258446 0.0174,-0.0796 0.042,-0.191252 0.0546,-0.24811 0.0125,-0.05686 0.0348,-0.131291 0.0496,-0.165406 0.0344,-0.07971 0.0682,-0.283759 0.0838,-0.506558 0.007,-0.09666 0.0173,-0.204661 0.0234,-0.240006 0.0102,-0.05915 0.006,-0.06533 -0.056,-0.07769 -0.0463,-0.0093 -0.0778,-0.0038 -0.10159,0.01774 -0.0189,0.01714 -0.0414,0.03117 -0.0499,0.03117 -0.0224,0 -0.25986,0.182874 -0.33418,0.257391 -0.0349,0.03497 -0.17443,0.127467 -0.31013,0.205547 -0.1357,0.07808 -0.26068,0.154006 -0.27774,0.168724 -0.0333,0.02873 -0.10797,0.05879 -0.40921,0.164707 -0.15977,0.05618 -0.2346,0.06983 -0.44453,0.08112 -0.13883,0.0075 -0.36407,0.02312 -0.50052,0.0348 -0.28968,0.02479 -0.96937,-0.007 -1.25089,-0.05841 -0.0967,-0.01767 -0.24553,-0.04392 -0.33082,-0.05834 -0.0853,-0.01442 -0.18707,-0.03336 -0.22619,-0.04209 -0.15444,-0.03445 -0.61031,-0.219697 -0.86962,-0.353381 -0.14448,-0.07449 -0.15537,-0.07711 -0.15948,-0.03842 -0.002,0.02284 -0.0142,0.115958 -0.0261,0.206931 -0.023,0.175011 -0.009,0.502526 0.025,0.589261 0.0112,0.02843 0.0326,0.135426 0.0477,0.237772 0.081,0.550674 0.0916,0.595574 0.19092,0.804048 0.0781,0.16394 0.11279,0.214177 0.17514,0.253538 0.0651,0.0411 0.0778,0.06057 0.0778,0.119605 0,0.111149 0.14763,0.362916 0.2902,0.49491 0.11146,0.103197 0.13677,0.116381 0.2831,0.147431 0.0884,0.01875 0.20194,0.04737 0.25236,0.06358 0.13694,0.04404 0.44736,0.07674 0.6113,0.0644 0.0796,-0.006 0.21917,-0.0032 0.31015,0.0063 0.21695,0.02257 0.83792,0.007 0.91297,-0.02293 z m 2.30211,-1.244909 c 0.0739,-0.03472 0.1623,-0.0838 0.19642,-0.109058 0.0341,-0.02526 0.11514,-0.07094 0.18005,-0.10151 0.0649,-0.03057 0.12886,-0.06863 0.14209,-0.08458 0.0132,-0.01595 0.0374,-0.029 0.0538,-0.029 0.0163,0 0.0725,-0.02388 0.12473,-0.05307 0.10499,-0.05861 0.44001,-0.314493 0.44034,-0.336319 1.3e-4,-0.0076 0.0573,-0.05541 0.12715,-0.106281 0.0946,-0.06894 0.13925,-0.118946 0.17533,-0.196419 0.0885,-0.190043 0.0635,-0.291178 -0.11528,-0.466098 -0.12086,-0.118258 -0.23727,-0.174217 -0.4516,-0.217079 -0.11264,-0.02253 -0.37789,0.02814 -0.55562,0.106127 -0.0358,0.01573 -0.0764,0.02859 -0.0902,0.02859 -0.0508,0 -0.18282,0.0898 -0.19417,0.132098 -0.0179,0.06659 -0.0145,0.157363 0.006,0.157363 0.01,0 0.0309,-0.01774 0.0465,-0.03943 0.0459,-0.06375 0.34862,-0.226306 0.5045,-0.270883 0.22063,-0.0631 0.28353,-0.05648 0.3892,0.04092 0.10333,0.09525 0.1464,0.204196 0.13188,0.333584 -0.022,0.196354 -0.0629,0.38382 -0.0992,0.455263 -0.0424,0.08344 -0.13926,0.173149 -0.2104,0.194946 -0.0256,0.0079 -0.0839,0.0438 -0.12933,0.07986 -0.11013,0.08732 -0.28728,0.19817 -0.31668,0.19817 -0.0469,0 -0.30482,0.09078 -0.35528,0.125068 -0.0284,0.01932 -0.0982,0.0561 -0.15507,0.08173 -0.10992,0.04955 -0.13357,0.07211 -0.13408,0.127881 -4.7e-4,0.04968 0.1183,0.02837 0.28915,-0.05188 z m -0.11372,-0.391533 c 0.0228,-0.0062 0.10644,-0.03537 0.186,-0.06494 0.0795,-0.02957 0.16435,-0.05375 0.18846,-0.05375 0.0241,0 0.0675,-0.01861 0.0964,-0.04135 0.0289,-0.02275 0.0593,-0.04135 0.0675,-0.04135 0.008,0 0.0521,-0.03361 0.0976,-0.07469 0.0455,-0.04108 0.12174,-0.09197 0.16948,-0.11309 0.10547,-0.04665 0.1311,-0.09732 0.1644,-0.324948 0.0228,-0.155829 0.0217,-0.177221 -0.0122,-0.23301 -0.0316,-0.05188 -0.0462,-0.05931 -0.0943,-0.04778 -0.10381,0.0249 -0.28386,0.09546 -0.31699,0.124228 -0.018,0.01559 -0.0425,0.02834 -0.0546,0.02834 -0.0121,0 -0.0691,0.04239 -0.12676,0.09421 -0.10983,0.09875 -0.2263,0.138263 -0.2789,0.09462 -0.0229,-0.01898 -0.0365,0.01204 -0.0739,0.167899 -0.0252,0.105153 -0.0543,0.233055 -0.0645,0.284228 -0.0103,0.05117 -0.0275,0.133293 -0.0382,0.18249 -0.018,0.0824 -0.0168,0.08711 0.0148,0.05977 0.0189,-0.01632 0.053,-0.03471 0.0757,-0.04086 z m 17.2668,2.312278 c -0.24796,-0.08345 -0.35328,-0.231848 -0.35328,-0.497791 0,-0.132297 0.009,-0.183182 0.047,-0.25421 0.0755,-0.142493 0.18518,-0.247861 0.33211,-0.319079 0.11992,-0.05812 0.1584,-0.06649 0.3084,-0.06704 0.15425,-5.63e-4 0.1723,-0.0047 0.18062,-0.04198 0.0361,-0.161471 0.0962,-0.627025 0.11214,-0.868383 0.0291,-0.442113 -0.0316,-1.141158 -0.10114,-1.164343 -0.068,-0.02268 -0.0878,-0.07295 -0.0738,-0.188184 0.0225,-0.18652 0.10442,-0.267298 0.20448,-0.201737 0.13183,0.08638 0.24131,0.963019 0.19909,1.594075 -0.0237,0.354036 -0.11368,0.934715 -0.19729,1.273101 -0.12987,0.525588 -0.22485,0.692929 -0.42801,0.75407 -0.0844,0.02539 -0.10477,0.02375 -0.23035,-0.01851 z m 0.19291,-0.218133 c 0.0207,-0.01108 0.0556,-0.05063 0.0776,-0.08789 0.0495,-0.08387 0.14869,-0.387577 0.16465,-0.504059 0.0115,-0.08366 0.01,-0.08696 -0.0532,-0.100785 -0.10555,-0.02318 -0.28654,0.04526 -0.38799,0.146712 -0.18368,0.183675 -0.16327,0.444392 0.0418,0.534282 0.0805,0.03527 0.10913,0.03741 0.1571,0.01174 z m -2.31086,0.13694 c -0.20323,-0.05438 -0.3548,-0.267539 -0.35504,-0.499301 -2e-4,-0.180229 0.0951,-0.315159 0.29351,-0.415706 0.16741,-0.08483 0.41163,-0.05747 0.47061,0.05273 0.0324,0.06051 0.0256,0.114869 -0.0193,0.155559 -0.0425,0.03848 -0.0837,0.0361 -0.20092,-0.0116 -0.0577,-0.02346 -0.0752,-0.0218 -0.14162,0.01341 -0.16285,0.08633 -0.20814,0.197372 -0.13791,0.338159 0.0496,0.09943 0.1251,0.148823 0.22965,0.150265 0.0752,0.001 0.1002,-0.01048 0.16952,-0.07817 0.0674,-0.06582 0.0934,-0.11722 0.15207,-0.300736 0.0389,-0.121741 0.077,-0.254266 0.0845,-0.2945 0.0161,-0.08593 0.0519,-0.121148 0.12312,-0.121148 0.0932,0 0.11368,0.03761 0.11417,0.209289 5.6e-4,0.241609 0.10285,0.42315 0.29335,0.521345 0.10682,0.05506 0.16106,0.05204 0.16106,-0.0089 0,-0.05852 0.0595,-0.116922 0.11904,-0.116922 0.14367,0 0.17274,0.261423 0.0396,0.356376 -0.17638,0.125815 -0.55928,-0.01954 -0.71998,-0.273323 l -0.0325,-0.05134 -0.0421,0.08235 c -0.0611,0.119604 -0.20377,0.251489 -0.31171,0.288269 -0.10739,0.03659 -0.1641,0.03736 -0.28906,0.0039 z m -2.20321,-0.02412 c -0.0416,-0.04158 -0.0416,-0.0502 4e-5,-0.177417 0.0456,-0.139399 0.0288,-0.492284 -0.0323,-0.678152 -0.0402,-0.122148 -0.041,-0.136096 -0.0108,-0.182129 0.0252,-0.03854 0.0476,-0.0484 0.0986,-0.04347 0.0773,0.0075 0.11659,0.07282 0.17042,0.283311 0.05,0.195692 0.0363,0.645544 -0.0228,0.746525 -0.0491,0.08383 -0.14613,0.108356 -0.20315,0.05133 z m 0.95807,-0.192835 c -0.0582,-0.06035 -0.11006,-0.139875 -0.13058,-0.200103 -0.0376,-0.110332 -0.0454,-0.369573 -0.0146,-0.485423 0.0106,-0.0398 0.0295,-0.11183 0.042,-0.160066 0.0133,-0.05145 0.0655,-0.139051 0.12613,-0.211927 0.11259,-0.13529 0.18667,-0.160521 0.25374,-0.08642 0.0512,0.05656 0.0425,0.09238 -0.049,0.202879 -0.18874,0.22782 -0.21816,0.654978 -0.0545,0.790462 0.0415,0.03436 0.0818,0.008 0.12997,-0.08516 0.0891,-0.172265 0.14277,-0.826996 0.12491,-1.52329 -0.0132,-0.515143 -0.0227,-0.601226 -0.0665,-0.601226 -0.0567,0 -0.0921,-0.06437 -0.0921,-0.167548 0,-0.201458 0.0919,-0.306757 0.21778,-0.249422 0.11365,0.05178 0.17493,0.476793 0.17491,1.212988 0,0.748683 -0.0523,1.232152 -0.1561,1.444176 -0.0781,0.159476 -0.16113,0.220225 -0.30103,0.220225 -0.10274,0 -0.11374,-0.0054 -0.2051,-0.100154 z m -10.22918,-0.02751 c -0.17746,-0.08605 -0.32973,-0.334451 -0.34949,-0.570137 -0.015,-0.179583 0.015,-0.31866 0.11089,-0.51251 0.10309,-0.208507 0.17716,-0.292491 0.31257,-0.354428 0.12832,-0.0587 0.2249,-0.05555 0.31381,0.01021 0.0682,0.05041 0.114,0.181113 0.0964,0.274851 -0.0214,0.114209 -0.13739,0.287312 -0.25831,0.385588 -0.0926,0.07522 -0.12305,0.08893 -0.18608,0.08368 -0.0619,-0.0051 -0.0815,-0.01861 -0.10985,-0.07531 l -0.0345,-0.06902 -0.0139,0.111523 c -0.0345,0.276103 0.13954,0.533678 0.35988,0.532627 0.13456,-6.21e-4 0.2368,-0.05509 0.4212,-0.224296 0.0883,-0.08108 0.17235,-0.147415 0.18665,-0.147415 0.0519,0 0.11791,0.06485 0.11791,0.115775 0,0.09863 -0.33776,0.400532 -0.51481,0.460155 -0.1159,0.03903 -0.35077,0.02798 -0.45237,-0.02129 z m 0.0527,-0.935393 c 0.0818,-0.04144 0.19084,-0.185985 0.19084,-0.252963 0,-0.119681 -0.1563,-0.01282 -0.25445,0.173965 -0.0851,0.162025 -0.0933,0.191574 -0.0402,0.144972 0.0199,-0.01745 0.0666,-0.04714 0.10379,-0.06597 z m 3.8608,0.941784 c -0.0632,-0.01658 -0.14512,-0.05584 -0.18479,-0.08851 -0.0121,-0.01 -0.0478,-0.03753 -0.0795,-0.06127 -0.0316,-0.02374 -0.0815,-0.09054 -0.11089,-0.148437 -0.0481,-0.09482 -0.0524,-0.12284 -0.0442,-0.282253 0.008,-0.149833 0.0206,-0.200767 0.0836,-0.332049 0.0864,-0.179735 0.17016,-0.272951 0.30825,-0.342924 0.13366,-0.06773 0.23394,-0.06466 0.35295,0.01082 0.20991,0.13312 0.21371,0.253495 0.0139,0.442639 -0.10724,0.101559 -0.37127,0.258472 -0.51621,0.306785 -0.0472,0.01573 0.0271,0.141662 0.12192,0.20654 0.0849,0.05808 0.11144,0.06549 0.22484,0.06269 0.0707,-0.0018 0.16258,-0.01738 0.20412,-0.03473 0.11037,-0.04612 0.16737,-0.03996 0.2083,0.02253 0.0517,0.07886 0.006,0.150497 -0.12805,0.200544 -0.11403,0.04259 -0.35835,0.06283 -0.45433,0.03763 z m 0.15506,-0.949527 0.093,-0.08286 -0.0555,-0.02547 c -0.0471,-0.02162 -0.0655,-0.01959 -0.12186,0.01342 -0.0757,0.04436 -0.1736,0.160775 -0.19455,0.231388 l -0.0142,0.04778 0.1,-0.05069 c 0.055,-0.02788 0.14187,-0.08798 0.19305,-0.133555 z m 1.13717,0.913698 c -0.2642,-0.09421 -0.37518,-0.303033 -0.29296,-0.551269 0.0938,-0.283141 0.43485,-0.718264 0.56301,-0.718264 0.0583,0 0.12279,0.06236 0.12279,0.118781 0,0.01478 -0.0675,0.09938 -0.1499,0.188003 -0.24577,0.264179 -0.36959,0.523549 -0.30635,0.641723 0.0421,0.07858 0.13754,0.110911 0.30292,0.102559 0.12558,-0.0063 0.16001,-0.01618 0.20645,-0.05896 0.0916,-0.08436 0.15321,-0.239799 0.15344,-0.386859 1.9e-4,-0.112437 0.006,-0.132805 0.0491,-0.160786 0.0361,-0.02365 0.0624,-0.0269 0.10056,-0.0124 0.0667,0.02535 0.0781,0.05861 0.0775,0.226089 -5.7e-4,0.232436 -0.12555,0.472041 -0.29738,0.571324 -0.11576,0.06689 -0.39472,0.088 -0.52917,0.04006 z m 3.12371,-0.04449 c -0.062,-0.05068 -0.0802,-0.180056 -0.0328,-0.232519 0.0498,-0.05504 0.0651,-0.418651 0.0329,-0.78263 -0.0222,-0.250911 -0.12117,-0.855628 -0.19864,-1.21347 -0.0282,-0.13022 -0.038,-0.147978 -0.0931,-0.168779 -0.0562,-0.02121 -0.0616,-0.03167 -0.0616,-0.119675 0,-0.07901 0.0109,-0.107344 0.0604,-0.156864 0.0726,-0.07261 0.10682,-0.07534 0.17493,-0.01392 0.0607,0.05476 0.11118,0.218785 0.18604,0.604767 0.15201,0.783704 0.18846,1.125879 0.17195,1.61417 -0.0127,0.373907 -0.0289,0.444881 -0.11072,0.482143 -0.0667,0.03039 -0.0775,0.02929 -0.12948,-0.01323 z m -7.03573,-0.07237 c -0.054,-0.04242 -0.0626,-0.108307 -0.0209,-0.159788 0.0322,-0.03977 0.0722,-0.05061 0.27089,-0.07342 0.1282,-0.01472 0.23679,-0.03046 0.24131,-0.03497 0.005,-0.0045 -0.0579,-0.04953 -0.13867,-0.100033 -0.49012,-0.306392 -0.53626,-0.350857 -0.55122,-0.531235 -0.008,-0.09876 -0.002,-0.121065 0.0607,-0.21385 0.0747,-0.110817 0.20488,-0.20215 0.44024,-0.308867 0.15897,-0.07208 0.23556,-0.07701 0.29766,-0.01916 0.0905,0.08432 0.0382,0.205952 -0.0885,0.205952 -0.1437,0 -0.48653,0.225086 -0.48653,0.319438 0,0.03309 0.17629,0.194284 0.23876,0.218316 0.0843,0.03244 0.46316,0.290021 0.4841,0.329146 0.0591,0.110503 0.009,0.233007 -0.12404,0.301687 -0.0456,0.02358 -0.44747,0.08756 -0.57936,0.09223 -0.006,2.19e-4 -0.0264,-0.01122 -0.0445,-0.02543 z m 5.43671,-0.109141 c -0.0851,-0.05781 -0.12869,-0.127964 -0.14991,-0.241125 -0.0113,-0.06032 -0.006,-0.0833 0.0293,-0.118172 0.0238,-0.02381 0.0612,-0.04329 0.0831,-0.04329 0.0472,0 0.12556,0.09241 0.12556,0.147962 0,0.02145 0.0224,0.04921 0.0498,0.06167 0.0403,0.01835 0.0598,0.01531 0.1025,-0.01595 0.1222,-0.08945 0.0949,-0.129387 -0.13702,-0.200741 -0.24075,-0.07406 -0.24876,-0.07837 -0.27325,-0.147136 -0.0176,-0.04949 -0.0128,-0.0633 0.0373,-0.106406 0.094,-0.08087 0.32493,-0.05495 0.50011,0.05614 0.0536,0.03398 0.15452,0.0759 0.22431,0.09316 0.14487,0.03583 0.52562,0.144808 0.63344,0.181304 0.0605,0.02048 0.0734,0.03562 0.0789,0.09231 0.008,0.08336 -0.0254,0.127143 -0.0971,0.127143 -0.0299,0 -0.18345,-0.03722 -0.3411,-0.0827 -0.15765,-0.04549 -0.29335,-0.0827 -0.30156,-0.0827 -0.008,0 -0.0261,0.03719 -0.0397,0.08265 -0.0184,0.06148 -0.0528,0.103844 -0.13438,0.165407 -0.0934,0.07053 -0.12466,0.08276 -0.21148,0.08276 -0.0749,0 -0.12224,-0.01384 -0.17881,-0.05228 z m -1.12215,-1.222878 c -0.0432,-0.04315 -0.0311,-0.135222 0.0352,-0.26791 0.0567,-0.113618 0.1265,-0.173021 0.20318,-0.173021 0.0814,0 0.16541,0.07299 0.16541,0.1437 0,0.06593 -0.0324,0.100223 -0.105,0.111067 -0.0372,0.0055 -0.0569,0.0283 -0.0766,0.08828 -0.0422,0.12854 -0.14588,0.174182 -0.22218,0.09788 z m 3.39295,-0.03923 c -0.0517,-0.05168 -0.0418,-0.167214 0.0176,-0.206147 0.12421,-0.08139 0.319,0.02442 0.26463,0.143747 -0.0372,0.08153 -0.22221,0.122441 -0.28225,0.0624 z m -15.10382,-1.588963 c -0.0165,-0.01985 -0.0199,-0.06933 -0.0106,-0.152089 0.0197,-0.17373 -0.0228,-0.29795 -0.20666,-0.604174 -0.0853,-0.142146 -0.15541,-0.282096 -0.15572,-0.311001 -3.1e-4,-0.03522 0.0284,-0.08046 0.0873,-0.137185 0.089,-0.08568 0.24608,-0.192764 0.28285,-0.192764 0.011,0 0.0601,-0.02675 0.10895,-0.05945 0.0489,-0.03269 0.14474,-0.08526 0.21297,-0.116819 0.0682,-0.03156 0.1277,-0.0604 0.13217,-0.06411 0.0195,-0.01622 -0.0545,-0.07481 -0.20845,-0.165098 -0.19644,-0.115166 -0.26487,-0.182878 -0.26487,-0.262093 0,-0.0708 0.17349,-0.443769 0.30332,-0.652074 0.0622,-0.09984 0.0986,-0.183958 0.10532,-0.243481 0.01,-0.08684 0.008,-0.09094 -0.0437,-0.09094 -0.0669,0 -0.12655,-0.08168 -0.10626,-0.145605 0.0189,-0.05939 0.13074,-0.103806 0.22355,-0.08875 0.11373,0.01845 0.14652,0.06956 0.15522,0.241943 0.009,0.182066 -0.0189,0.293606 -0.0994,0.394954 -0.0629,0.07911 -0.30286,0.543166 -0.28791,0.556711 0.0298,0.02699 0.24757,0.157236 0.2629,0.157236 0.0103,0 0.062,0.04612 0.11471,0.102494 0.0751,0.08028 0.0959,0.117707 0.0959,0.172687 0,0.149367 -0.0931,0.221274 -0.63366,0.489725 -0.19891,0.09877 -0.19786,0.09011 -0.0435,0.356897 0.16877,0.291657 0.2016,0.387797 0.2016,0.590411 0,0.194114 -0.0306,0.251987 -0.13303,0.251987 -0.0378,0 -0.0797,-0.01324 -0.0931,-0.02942 z m -1.86215,-0.28072 c -0.0228,-0.02275 -0.0413,-0.05573 -0.0413,-0.07331 0,-0.03979 0.0914,-0.133453 0.13027,-0.133453 0.0537,0 0.14848,-0.06122 0.27964,-0.180674 0.11215,-0.102146 0.13243,-0.131637 0.14227,-0.206912 0.0131,-0.100118 -0.0219,-0.250715 -0.0829,-0.356742 -0.0389,-0.06755 -0.237,-0.272313 -0.38203,-0.394792 -0.20118,-0.169897 -0.0246,-0.499547 0.34812,-0.649823 0.242,-0.09757 0.24691,-0.103241 0.24691,-0.285088 0,-0.08337 -0.0136,-0.192788 -0.0302,-0.243144 -0.0166,-0.05035 -0.0398,-0.1939 -0.0515,-0.318989 -0.0117,-0.125088 -0.0361,-0.283258 -0.0543,-0.351488 -0.0446,-0.167051 -0.0419,-0.21902 0.0139,-0.264186 0.0817,-0.06615 0.20481,-0.01227 0.20481,0.08962 0,0.03198 0.013,0.121556 0.0289,0.199058 0.0159,0.0775 0.0355,0.223892 0.0435,0.32531 0.008,0.101418 0.0267,0.218536 0.0414,0.260261 0.042,0.119117 0.0572,0.373043 0.029,0.485115 -0.0355,0.141155 -0.12483,0.220731 -0.33788,0.301139 -0.13267,0.05007 -0.19542,0.08701 -0.2495,0.146875 -0.0398,0.04399 -0.0723,0.08999 -0.0723,0.102234 0,0.01224 0.0794,0.09759 0.17631,0.189655 0.25341,0.240608 0.36042,0.451238 0.36103,0.710625 4.6e-4,0.201426 -0.015,0.234083 -0.19407,0.410932 -0.24828,0.245152 -0.4538,0.333995 -0.55002,0.237771 z m 3.16402,-0.191854 c -0.0281,-0.01421 -0.0647,-0.05006 -0.0813,-0.07966 -0.0272,-0.04849 -0.0258,-0.06799 0.0148,-0.196704 0.0557,-0.176398 0.0576,-0.332233 0.0101,-0.807785 -0.0386,-0.386739 -0.0303,-0.466053 0.0499,-0.477574 0.0248,-0.0036 0.0725,-0.03769 0.10601,-0.07584 0.12417,-0.141426 0.20042,-0.700844 0.10649,-0.781272 -0.0581,-0.04975 -0.0519,-0.127801 0.0153,-0.190043 0.0561,-0.05199 0.11851,-0.06609 0.16252,-0.0367 0.11308,0.07551 0.13212,0.494299 0.0388,0.854319 -0.0447,0.172508 -0.0794,0.237997 -0.18505,0.34973 l -0.088,0.09304 0.0292,0.279123 c 0.0186,0.177837 0.0248,0.376658 0.0171,0.547908 -0.007,0.147833 -0.0115,0.317013 -0.011,0.375958 0.001,0.08821 -0.007,0.112905 -0.0452,0.139562 -0.0555,0.03887 -0.0732,0.03962 -0.1398,0.0059 z m -2.50239,-0.06832 c 0,-0.06477 0.0486,-0.05768 0.0583,0.0085 0.005,0.02982 -0.005,0.0449 -0.0259,0.0449 -0.0211,0 -0.0325,-0.01867 -0.0325,-0.05341 z m 12.65905,-0.225571 c -0.36839,-0.102614 -0.5589,-0.351604 -0.56452,-0.737806 -0.003,-0.226647 0.0615,-0.418469 0.21337,-0.631343 0.0944,-0.132415 0.19311,-0.192014 0.31786,-0.192014 0.1374,0 0.22988,0.03273 0.31251,0.110595 0.14682,0.138351 0.12451,0.354665 -0.0519,0.502816 -0.17902,0.150376 -0.25596,0.190536 -0.40564,0.211732 -0.0779,0.01104 -0.14722,0.02558 -0.15396,0.03232 -0.0232,0.0232 0.039,0.207495 0.0979,0.290044 0.15073,0.211282 0.52193,0.265433 0.67886,0.09904 0.0724,-0.07674 0.14523,-0.0939 0.20126,-0.0474 0.0952,0.07905 -0.0371,0.281048 -0.22109,0.337442 -0.16524,0.05065 -0.30255,0.05859 -0.42466,0.02458 z m -0.0999,-1.002723 c 0.10866,-0.0532 0.23913,-0.177817 0.23913,-0.228398 0,-0.04245 -0.0949,-0.102608 -0.16192,-0.102608 -0.0561,0 -0.15341,0.106139 -0.21771,0.237459 -0.03,0.06128 -0.0546,0.116665 -0.0546,0.123066 0,0.02648 0.11678,0.0088 0.19506,-0.02952 z m -4.8161,0.968323 c -0.12247,-0.04572 -0.22739,-0.131333 -0.27396,-0.223542 -0.0796,-0.157609 -0.063,-0.549535 0.0426,-1.003422 0.10518,-0.452253 0.31919,-1.013185 0.42584,-1.116136 0.19375,-0.187049 0.2074,-0.196777 0.2759,-0.196777 0.087,0 0.11888,0.0313 0.11888,0.116644 0,0.05735 -0.0175,0.08048 -0.12125,0.160319 -0.1133,0.08719 -0.12828,0.109267 -0.2286,0.33719 -0.0962,0.218556 -0.17299,0.466276 -0.28066,0.905519 -0.04,0.163256 -0.0646,0.524717 -0.0434,0.637787 0.0112,0.06009 0.032,0.08532 0.10525,0.128263 0.0762,0.04466 0.10634,0.0512 0.18308,0.03968 0.13257,-0.01988 0.21175,-0.07641 0.26595,-0.189856 0.0577,-0.120797 0.1357,-0.159292 0.20172,-0.09955 0.0532,0.04814 0.0532,0.111669 -2.1e-4,0.225157 -0.0851,0.180949 -0.24834,0.284671 -0.46437,0.294975 -0.0796,0.0038 -0.17264,-0.0035 -0.20676,-0.01626 z m 7.85578,-0.08786 c -0.0983,-0.04281 -0.16512,-0.138392 -0.19491,-0.278752 -0.0495,-0.233497 0.0225,-0.509377 0.19842,-0.759644 0.11315,-0.160969 0.19059,-0.194697 0.2631,-0.114584 0.0498,0.05497 0.0435,0.08145 -0.0501,0.215004 -0.12789,0.182312 -0.18446,0.339274 -0.18446,0.51178 0,0.117574 0.008,0.152995 0.0413,0.186493 0.0833,0.08328 0.2405,0.02744 0.37835,-0.134393 0.0966,-0.113365 0.13296,-0.190068 0.18426,-0.388327 0.0798,-0.308374 0.0543,-1.29273 -0.0371,-1.435584 -0.0341,-0.05329 -0.039,-0.238537 -0.008,-0.296717 0.0258,-0.04818 0.12708,-0.05395 0.17129,-0.0097 0.0313,0.0313 0.0777,0.217759 0.12102,0.486651 0.0145,0.08985 0.0249,0.359411 0.0248,0.640949 -1.5e-4,0.428051 -0.006,0.507374 -0.0448,0.666458 -0.057,0.230223 -0.13934,0.390956 -0.26986,0.52644 -0.18434,0.191365 -0.41344,0.262387 -0.59347,0.183974 z m 1.83549,-0.0024 c -0.17823,-0.03871 -0.30076,-0.104311 -0.40704,-0.217935 -0.14711,-0.15727 -0.18181,-0.245528 -0.19301,-0.490898 -0.0119,-0.259627 0.0265,-0.424854 0.13927,-0.599058 0.11464,-0.177182 0.23845,-0.261083 0.43544,-0.295073 0.25956,-0.04479 0.5169,0.138553 0.5169,0.368251 0,0.303628 -0.29768,0.600675 -0.68993,0.688456 -0.0651,0.01456 -0.12239,0.03307 -0.12737,0.04113 -0.0176,0.02856 0.15619,0.201497 0.23375,0.23253 0.17192,0.06879 0.31801,0.08326 0.48723,0.04826 0.17427,-0.03604 0.35102,-0.116464 0.42098,-0.191548 0.0557,-0.05976 0.11665,-0.06243 0.17156,-0.0075 0.053,0.05301 0.0521,0.0813 -0.006,0.167518 -0.0901,0.134475 -0.50085,0.289981 -0.75472,0.285706 -0.0537,-9.04e-4 -0.156,-0.01432 -0.22736,-0.02982 z m -0.0825,-0.831244 c 0.14543,-0.06425 0.29178,-0.21423 0.32844,-0.336554 0.026,-0.08664 0.0254,-0.08889 -0.0401,-0.147339 -0.0762,-0.06813 -0.19368,-0.07981 -0.29187,-0.02903 -0.15176,0.07848 -0.2908,0.325221 -0.2908,0.516054 v 0.07753 l 0.0879,-0.01414 c 0.0483,-0.0078 0.14123,-0.03771 0.20643,-0.06652 z m -6.24815,0.791282 c -0.0137,-0.01654 -0.0366,-0.084 -0.0509,-0.149899 -0.0142,-0.0659 -0.0567,-0.264975 -0.0943,-0.44238 l -0.0684,-0.322554 -0.11938,-0.0222 c -0.1653,-0.03074 -0.22608,-0.07413 -0.22608,-0.161372 0,-0.04732 0.0126,-0.07604 0.04,-0.09066 0.0509,-0.02725 0.13978,-0.02766 0.15643,-7.35e-4 0.007,0.01137 0.0322,0.02067 0.056,0.02067 0.0421,0 0.0427,-0.0051 0.0249,-0.201589 -0.0232,-0.256188 -0.0237,-0.559293 -0.001,-0.717795 0.0327,-0.230043 0.20124,-0.334512 0.51111,-0.316735 0.27152,0.01558 0.43246,0.130674 0.43264,0.3094 5e-5,0.04183 -0.0145,0.09068 -0.0324,0.108548 -0.067,0.06699 -0.17989,0.02069 -0.19804,-0.08123 -0.0128,-0.07184 -0.13415,-0.117601 -0.28342,-0.106883 -0.0767,0.0055 -0.14411,0.0221 -0.16182,0.0398 -0.0672,0.06717 -0.0748,0.532155 -0.015,0.919792 0.0144,0.09357 0.0651,0.100916 0.38442,0.05571 0.18686,-0.02646 0.2781,-0.03158 0.30133,-0.01693 0.0965,0.06086 0.0849,0.178704 -0.0208,0.211865 -0.0787,0.0247 -0.40213,0.06469 -0.52385,0.06477 l -0.0845,6.2e-5 0.0584,0.273004 c 0.0321,0.150153 0.0673,0.301345 0.0782,0.335982 0.0433,0.137989 0.0481,0.251049 0.012,0.287085 -0.0424,0.04236 -0.14171,0.04478 -0.17534,0.0043 z m -1.8309,-0.09616 c -0.11584,-0.0612 -0.17199,-0.117402 -0.22883,-0.229066 -0.0523,-0.102772 -0.0842,-0.290704 -0.0635,-0.373505 0.0257,-0.102433 0.18035,-0.110171 0.21805,-0.01091 0.01,0.02589 0.0184,0.08593 0.019,0.133428 0.002,0.111121 0.0506,0.204772 0.13404,0.255635 0.19511,0.118964 0.45038,-0.05884 0.37322,-0.259944 -0.0146,-0.03804 -0.24257,-0.154365 -0.30259,-0.154392 -0.0417,-1.8e-5 -0.13649,-0.05606 -0.17436,-0.103111 -0.0369,-0.04584 -0.0319,-0.11305 0.0113,-0.152148 0.0276,-0.02495 0.0765,-0.03416 0.18091,-0.03401 0.1672,2.34e-4 0.33491,0.06604 0.39256,0.154031 0.0737,0.112403 0.34741,0.215251 0.66679,0.250513 0.0718,0.0079 0.14392,0.02777 0.16024,0.04409 0.039,0.03904 0.038,0.13884 -0.002,0.171901 -0.0511,0.04239 -0.35414,0.0068 -0.63186,-0.07424 -0.0236,-0.0069 -0.0395,0.01285 -0.0567,0.07012 -0.0638,0.21286 -0.25954,0.355148 -0.48861,0.355148 -0.0877,0 -0.15029,-0.01311 -0.20787,-0.04353 z m 3.35127,-1.62235 c -0.0622,-0.06215 -0.0376,-0.128215 0.12079,-0.324985 0.15673,-0.194723 0.4263,-0.455718 0.57575,-0.557428 0.10059,-0.06846 0.20434,-0.07457 0.2634,-0.0155 0.0808,0.08084 0.0356,0.208769 -0.0759,0.214374 -0.0998,0.005 -0.39458,0.266005 -0.60502,0.535611 -0.14336,0.183663 -0.20868,0.218295 -0.27904,0.147935 z"
       id="path1565" />
  </g>
</svg>
