<?xml version="1.0" encoding="UTF-8" standalone="no"?>
<!-- Created with Inkscape (http://www.inkscape.org/) -->

<svg
   width="225.75027"
   height="62.052933"
   viewBox="0 0 29.864878 8.2090854"
   version="1.1"
   id="svg5"
   inkscape:version="1.1.1 (3bf5ae0d25, 2021-09-20)"
   sodipodi:docname="computers.svg"
   xmlns:inkscape="http://www.inkscape.org/namespaces/inkscape"
   xmlns:sodipodi="http://sodipodi.sourceforge.net/DTD/sodipodi-0.dtd"
   xmlns="http://www.w3.org/2000/svg"
   xmlns:svg="http://www.w3.org/2000/svg">
  <sodipodi:namedview
     id="namedview7"
     pagecolor="#ffffff"
     bordercolor="#666666"
     borderopacity="1.0"
     inkscape:pageshadow="2"
     inkscape:pageopacity="0.0"
     inkscape:pagecheckerboard="0"
     inkscape:document-units="mm"
     showgrid="false"
     inkscape:zoom="2.8578563"
     inkscape:cx="95.876058"
     inkscape:cy="18.720325"
     inkscape:window-width="1920"
     inkscape:window-height="991"
     inkscape:window-x="-9"
     inkscape:window-y="-9"
     inkscape:window-maximized="1"
     inkscape:current-layer="layer1"
     fit-margin-top="0"
     fit-margin-left="0"
     fit-margin-right="0"
     fit-margin-bottom="0"
     units="px" />
  <defs
     id="defs2" />
  <g
     inkscape:label="Capa 1"
     inkscape:groupmode="layer"
     id="layer1"
     transform="translate(156.93356,45.145255)">
    <path
       style="fill:#000000;stroke-width:0.0242828"
       d="m -131.05705,-36.982624 c -0.0754,-0.05966 -0.0902,-0.169556 -0.0298,-0.21975 0.023,-0.01905 0.11789,-0.03168 0.25079,-0.03332 0.19472,-0.0025 0.22182,-0.0087 0.30301,-0.07066 0.0641,-0.04894 0.0891,-0.0864 0.0888,-0.133555 -3.8e-4,-0.06483 -0.17109,-0.400649 -0.2187,-0.430073 -0.0136,-0.0084 -0.0878,0.04836 -0.16481,0.126082 -0.16175,0.163094 -0.43779,0.327491 -0.71406,0.425254 -0.35314,0.124967 -0.7631,0.07483 -0.90454,-0.110626 -0.0559,-0.07326 -0.13446,-0.312328 -0.13446,-0.409095 0,-0.03039 -0.0185,-0.04346 -0.0619,-0.04346 -0.0341,0 -0.0945,-0.01685 -0.13431,-0.03744 -0.04,-0.02073 -0.1922,-0.04795 -0.34089,-0.061 -0.14769,-0.01296 -0.28868,-0.03435 -0.31333,-0.04755 -0.0247,-0.01319 -0.0538,-0.02399 -0.0646,-0.02399 -0.0106,0 -0.0204,0.133859 -0.0213,0.297464 -0.001,0.36067 -0.0372,0.453975 -0.17288,0.454928 -0.11198,7.93e-4 -0.13407,-0.0584 -0.11659,-0.31267 0.009,-0.129895 0.004,-0.366085 -0.0119,-0.53283 -0.0247,-0.263473 -0.0234,-0.306569 0.0106,-0.358171 0.0628,-0.09602 0.1515,-0.07683 0.29738,0.06447 0.13992,0.135513 0.22097,0.168079 0.41969,0.168643 0.11683,3.3e-4 0.28148,0.03114 0.45224,0.08463 0.0475,0.01488 0.0533,0.0034 0.0762,-0.151204 0.0341,-0.230002 0.11269,-0.399807 0.23881,-0.516028 0.0917,-0.08447 0.12105,-0.09769 0.21738,-0.09769 0.14415,0 0.19081,0.02697 0.26331,0.152214 0.17103,0.295447 0.11647,0.526216 -0.17657,0.746381 -0.068,0.05118 -0.15671,0.100278 -0.19688,0.109102 -0.0834,0.01832 -0.0934,0.07213 -0.0439,0.237231 0.0228,0.07612 0.0477,0.104955 0.11529,0.133314 0.2045,0.08579 0.57594,-4.42e-4 0.90213,-0.20948 0.2745,-0.17589 0.38206,-0.339597 0.29549,-0.449661 -0.0249,-0.03174 -0.0607,-0.103893 -0.0793,-0.160316 -0.047,-0.142491 -0.001,-0.227685 0.12778,-0.238478 0.0838,-0.007 0.0949,3.49e-4 0.16315,0.107955 0.0403,0.0635 0.0732,0.130305 0.0732,0.148436 0,0.01813 0.0584,0.106148 0.12973,0.195578 0.0714,0.08943 0.18184,0.252329 0.24554,0.361984 0.0957,0.16469 0.11789,0.225939 0.12775,0.3521 0.0118,0.146053 0.008,0.157681 -0.0751,0.266088 -0.12461,0.162203 -0.30355,0.244804 -0.55877,0.257938 -0.1744,0.009 -0.20452,0.0041 -0.26367,-0.04272 z m -1.04124,-1.374252 c 0.0741,-0.09416 0.0828,-0.145641 0.0389,-0.230409 l -0.0396,-0.07651 -0.056,0.05268 c -0.0488,0.04581 -0.13441,0.275955 -0.13441,0.361177 0,0.04351 0.13,-0.02924 0.19112,-0.10694 z m -2.83792,1.235717 c -0.12431,-0.01995 -0.24659,-0.09044 -0.28478,-0.164133 -0.095,-0.183295 -0.0826,-0.339822 0.0291,-0.367868 0.088,-0.02209 0.17348,0.04179 0.19264,0.143971 0.0236,0.126135 0.15745,0.152522 0.32916,0.06492 0.12846,-0.06554 0.19876,-0.247855 0.2022,-0.524403 0.002,-0.225058 -0.033,-0.309613 -0.18225,-0.430227 -0.0789,-0.06375 -0.0954,-0.06873 -0.1308,-0.03934 -0.0587,0.04866 -0.1224,0.210762 -0.14293,0.363338 -0.0217,0.161976 -0.045,0.193054 -0.14405,0.193054 -0.10749,0 -0.13543,-0.03846 -0.13543,-0.186466 0,-0.20129 0.0894,-0.438414 0.21116,-0.560194 0.0957,-0.09564 0.11281,-0.103231 0.23268,-0.103231 0.16273,0 0.31762,0.09147 0.4399,0.259771 0.10549,0.145145 0.13613,0.263567 0.13613,0.525471 0,0.291439 -0.065,0.488318 -0.21315,0.646398 -0.0954,0.101766 -0.13894,0.128402 -0.25939,0.15879 -0.14511,0.03661 -0.16764,0.03823 -0.28022,0.02015 z m -1.76239,-0.309476 c -0.0993,-0.04328 -0.22087,-0.193487 -0.27193,-0.33623 -0.026,-0.07279 -0.0528,-0.111334 -0.0722,-0.103904 -0.0606,0.02325 -0.42011,-0.03782 -0.62982,-0.106987 -0.11753,-0.03876 -0.21455,-0.06855 -0.21565,-0.0662 -0.0706,0.149744 -0.26291,0.263893 -0.44916,0.266703 -0.19867,0.0031 -0.27476,-0.07945 -0.38781,-0.420272 -0.0763,-0.230066 -0.0868,-0.356255 -0.0345,-0.414146 0.0235,-0.02598 0.061,-0.04723 0.0832,-0.04723 0.0223,0 0.0561,-0.03532 0.0751,-0.07848 0.16445,-0.371589 0.79964,-0.138049 0.79964,0.294005 0,0.08338 0.0106,0.104306 0.0667,0.133268 0.1189,0.06118 0.41832,0.139655 0.58458,0.153216 l 0.16211,0.01322 0.047,-0.08885 c 0.10809,-0.204362 0.34926,-0.336168 0.44938,-0.245557 0.10052,0.09093 0.0726,0.209633 -0.0643,0.273814 -0.0608,0.02853 -0.10738,0.07457 -0.13731,0.135743 -0.0428,0.08747 -0.043,0.09834 -0.005,0.197359 0.069,0.180593 0.19905,0.243407 0.30515,0.147372 0.0621,-0.05618 0.14021,-0.297081 0.1694,-0.522291 0.0392,-0.30237 0.0312,-1.253328 -0.0119,-1.394955 -0.0542,-0.17855 -0.0692,-0.425989 -0.0305,-0.499097 0.0604,-0.113685 0.24074,-0.09454 0.2847,0.0302 0.0919,0.260851 0.0941,1.788147 0.002,2.138835 -0.10147,0.390726 -0.26787,0.57578 -0.51615,0.573953 -0.071,-5.13e-4 -0.1628,-0.01559 -0.20391,-0.03349 z m -1.55439,-0.655137 c 0.0446,-0.01866 0.0889,-0.04633 0.0983,-0.06147 0.009,-0.01575 -0.041,-0.09009 -0.11846,-0.173841 -0.0745,-0.08047 -0.13545,-0.156618 -0.13545,-0.169213 0,-0.01259 -0.0232,-0.02289 -0.0514,-0.02289 -0.038,0 -0.0477,0.0111 -0.0376,0.0425 0.007,0.02338 0.0354,0.116119 0.0619,0.206097 0.0483,0.164557 0.0687,0.212781 0.09,0.212781 0.006,0 0.0481,-0.01527 0.0927,-0.03395 z m -7.99169,0.257324 c -0.17075,-0.06101 -0.31223,-0.162901 -0.42618,-0.306929 -0.2547,-0.321946 -0.30669,-0.638512 -0.11765,-0.716792 0.13601,-0.05633 0.2744,0.07781 0.20118,0.195034 -0.0213,0.03414 -0.0118,0.07308 0.0461,0.189079 0.25624,0.512777 0.89634,0.526656 0.89634,0.01943 0,-0.291555 -0.22211,-0.587306 -0.53253,-0.709097 -0.19574,-0.07679 -0.24451,-0.0618 -0.24451,0.07512 0,0.09261 -0.053,0.156762 -0.12922,0.156227 -0.10443,-7.21e-4 -0.16218,-0.08685 -0.16218,-0.241713 0,-0.276421 0.30972,-0.402004 0.64693,-0.262318 0.6142,0.254414 0.90664,0.975038 0.57509,1.417159 -0.14414,0.192213 -0.49306,0.277804 -0.75336,0.184799 z m -8.53052,-0.0064 c -0.19364,-0.01122 -0.40163,-0.01483 -0.46218,-0.0079 -0.0873,0.0099 -0.12336,0.0021 -0.17419,-0.03787 -0.0885,-0.06961 -0.11033,-0.182731 -0.0512,-0.26505 0.0495,-0.06878 0.0507,-0.03558 -0.02,-0.56871 -0.0155,-0.117311 -0.0376,-0.21903 -0.0489,-0.226047 -0.0346,-0.02143 -0.023,-0.190013 0.0171,-0.247318 0.0353,-0.0504 0.0346,-0.05396 -0.0106,-0.05396 -0.0269,0 -0.0739,0.0099 -0.10454,0.02201 -0.0307,0.01211 -0.12134,0.03526 -0.20147,0.05144 -0.12329,0.0249 -0.16079,0.0458 -0.24382,0.135822 -0.0964,0.104566 -0.13734,0.121679 -0.21743,0.09095 -0.13411,-0.05146 -0.0614,-0.304045 0.11754,-0.40819 0.27435,-0.159703 1.03411,-0.257963 1.15449,-0.149309 0.0282,0.02544 0.0513,0.07188 0.0513,0.103196 0,0.06278 0.0787,0.08118 0.11376,0.02659 0.0106,-0.01669 0.0267,-0.205189 0.0354,-0.418877 0.008,-0.213688 0.024,-0.477453 0.0339,-0.586144 0.0214,-0.236043 0.0422,-0.221495 -0.34146,-0.239755 -0.29353,-0.01397 -0.49257,-0.03963 -0.54138,-0.0698 -0.0621,-0.03839 -0.0816,-0.138231 -0.0397,-0.202405 0.0484,-0.07392 0.0271,-0.101755 -0.0351,-0.04556 -0.0324,0.0293 -0.0777,0.03956 -0.15114,0.03426 -0.0852,-0.0061 -0.11187,-0.02014 -0.14212,-0.07437 -0.0332,-0.05949 -0.0332,-0.07388 -7.2e-4,-0.131825 0.0385,-0.06878 0.0925,-0.0917 0.32781,-0.139215 l 0.1457,-0.02942 -0.007,-0.09564 c -0.005,-0.0526 -0.0233,-0.204099 -0.0425,-0.336668 -0.0193,-0.132569 -0.035,-0.271891 -0.035,-0.309604 0,-0.07612 -0.0155,-0.08007 -0.15784,-0.04023 -0.0534,0.01496 -0.19897,0.03381 -0.32344,0.04191 l -0.22631,0.01473 -0.006,0.777047 c -0.005,0.72063 -0.0106,0.802611 -0.0697,1.129146 -0.0352,0.193654 -0.076,0.494153 -0.0906,0.667775 -0.0383,0.455813 -0.0488,0.514076 -0.10147,0.561765 -0.0697,0.0631 -0.21048,0.05611 -0.26664,-0.01323 -0.0592,-0.07317 -0.0574,-0.126153 0.007,-0.208501 0.0431,-0.05479 0.0562,-0.115019 0.0716,-0.326467 0.0106,-0.142604 0.0423,-0.41161 0.071,-0.597791 0.0287,-0.186182 0.062,-0.404075 0.0738,-0.484208 0.0118,-0.08014 0.0196,-0.497783 0.0175,-0.928112 -0.005,-0.950086 -0.0317,-0.879062 0.32899,-0.876387 0.1591,0.0012 0.31803,-0.01431 0.44857,-0.04372 l 0.20218,-0.04554 -0.0143,-0.07119 c -0.008,-0.03916 -0.0249,-0.165315 -0.0379,-0.280349 -0.013,-0.115032 -0.0349,-0.267587 -0.0483,-0.339007 -0.0136,-0.07142 -0.0247,-0.191193 -0.0248,-0.266165 -1.4e-4,-0.07497 -0.0156,-0.186712 -0.0343,-0.248314 -0.0462,-0.152197 -0.0118,-0.225007 0.11163,-0.235353 0.0689,-0.0058 0.0965,0.0045 0.12633,0.04704 0.0356,0.05069 0.0536,0.05397 0.26335,0.04765 0.31672,-0.0096 0.33802,-0.0092 1.13196,0.01998 0.39186,0.01438 0.72374,0.03311 0.73752,0.04163 0.0246,0.01517 0.88724,0.03796 1.60962,0.04255 0.34642,0.0021 0.63195,-0.01344 0.7649,-0.04189 0.0333,-0.0071 0.15024,-0.01934 0.25967,-0.0271 0.3065,-0.02173 0.29377,-0.05242 0.34691,0.836694 0.0359,0.601552 0.0719,1.045954 0.0965,1.189852 0.0125,0.07345 0.0359,0.294028 0.0522,0.490161 0.0267,0.323859 0.0256,0.362325 -0.0118,0.418877 -0.0569,0.08699 -0.2022,0.08739 -0.28877,7.93e-4 -0.0565,-0.05638 -0.0842,-0.06263 -0.33721,-0.07571 -0.22747,-0.01169 -0.32673,-0.0046 -0.56712,0.04092 -0.16026,0.03035 -0.37335,0.06321 -0.47352,0.07304 -0.16783,0.01646 -0.4419,0.06417 -0.44821,0.07802 -0.009,0.0197 0.0255,1.108987 0.0353,1.118683 0.0297,0.02912 0.58753,0.09285 0.86848,0.09923 0.29575,0.0067 0.31586,0.004 0.46107,-0.06221 0.16471,-0.0751 0.20439,-0.08173 0.27215,-0.04545 0.0779,0.04166 0.0998,0.17093 0.11328,0.668287 0.0118,0.433812 0.0182,0.491006 0.0598,0.535785 0.065,0.07004 0.0599,0.170672 -0.0106,0.217063 -0.0476,0.0312 -0.14209,0.03703 -0.55243,0.03415 -0.27224,-0.0019 -0.56057,0.008 -0.6407,0.02213 -0.23242,0.04085 -0.47238,0.07444 -0.65563,0.09181 -0.0934,0.0089 -0.19628,0.02596 -0.22843,0.03802 -0.0524,0.01967 -0.44732,0.062 -0.80358,0.08613 -0.32058,0.02171 -0.91371,0.02432 -1.23843,0.0054 z m 1.14129,-0.291818 c 0.67859,-0.05527 0.7928,-0.06714 0.87417,-0.09094 0.0468,-0.01367 0.15602,-0.03179 0.24284,-0.04028 0.0868,-0.0085 0.30535,-0.03796 0.48565,-0.06551 0.23324,-0.03563 0.43134,-0.04909 0.68661,-0.04666 l 0.35879,0.0034 -0.006,-0.381773 -0.006,-0.381772 -0.43709,-0.0073 c -0.2404,-0.004 -0.54942,-0.02364 -0.68672,-0.04364 -0.286,-0.04166 -1.10396,-0.04961 -1.28506,-0.01247 -0.0641,0.01315 -0.23672,0.03478 -0.38364,0.04808 -0.14691,0.0133 -0.35452,0.03543 -0.46137,0.04918 -0.1069,0.01375 -0.36364,0.03309 -0.57064,0.04298 l -0.37639,0.01799 0.002,0.121412 c 0.002,0.205858 0.0634,0.727112 0.0873,0.752764 0.045,0.04847 1.02477,0.07135 1.4772,0.03449 z m 0.19515,-0.272689 c -0.0595,-0.02926 -0.12518,-0.08326 -0.1457,-0.11998 -0.0336,-0.06002 -0.0336,-0.07353 -7e-5,-0.133554 0.0206,-0.03683 0.0628,-0.07045 0.0943,-0.07496 0.0563,-0.008 0.28882,0.101164 0.32342,0.151965 0.0371,0.05435 0.0183,0.157167 -0.0354,0.194797 -0.0699,0.04894 -0.10513,0.04621 -0.23653,-0.01828 z m -1.15854,-0.06775 c -0.15575,-0.04508 -0.23709,-0.297648 -0.12047,-0.374063 0.0653,-0.04282 0.17601,-0.01621 0.20076,0.04829 0.022,0.05723 0.10147,0.04497 0.11045,-0.01703 0.005,-0.0296 0.038,-0.07058 0.0749,-0.09106 0.0625,-0.03462 0.0738,-0.03341 0.16265,0.0174 0.0526,0.03005 0.13406,0.05463 0.18119,0.05463 0.17358,0 0.20757,0.205968 0.0447,0.27027 -0.0464,0.01834 -0.1043,0.01909 -0.18848,0.0025 -0.11529,-0.02282 -0.12547,-0.02048 -0.20118,0.04589 -0.0828,0.07262 -0.13401,0.081 -0.26443,0.04326 z m 2.95047,-0.09415 c -0.0891,-0.007 -0.16645,-0.01819 -0.17197,-0.02486 -0.0526,-0.06378 -0.0911,-0.141341 -0.0911,-0.18376 0,-0.103255 0.1344,-0.164982 0.23708,-0.108877 0.0232,0.01268 0.0943,0.02977 0.15798,0.03798 0.0878,0.01134 0.12561,0.02992 0.15638,0.07689 0.0359,0.05483 0.0366,0.069 0.006,0.123387 -0.0457,0.0804 -0.0985,0.09461 -0.29406,0.07925 z m -1.48754,-0.08731 c -0.0888,-0.08882 -0.0282,-0.218176 0.12032,-0.256568 0.19827,-0.05127 0.23068,-0.05219 0.27956,-0.0079 0.0545,0.04925 0.0586,0.08203 0.021,0.164599 -0.0539,0.118247 -0.33563,0.185135 -0.42085,0.09991 z m 0.62355,-0.119451 c -0.10064,-0.04375 -0.14582,-0.134977 -0.10797,-0.218104 0.0321,-0.07057 0.13859,-0.104731 0.20232,-0.06492 0.0245,0.01531 0.0867,0.02783 0.13826,0.02783 0.16031,0 0.2303,0.139989 0.12093,0.24188 -0.0637,0.05928 -0.23313,0.06567 -0.35358,0.01331 z m -1.62089,-0.631911 c 0.1202,-0.01975 0.28255,-0.03594 0.36077,-0.03599 0.11947,-7.3e-5 0.13988,-0.0061 0.12755,-0.03836 -0.0164,-0.04269 -0.10053,-0.53578 -0.12477,-0.731487 -0.008,-0.06945 -0.0312,-0.139079 -0.05,-0.154741 -0.0424,-0.03524 -0.0448,-0.147379 -0.004,-0.190771 0.0252,-0.02673 -0.002,-0.02964 -0.1615,-0.017 -0.10549,0.0084 -0.25486,0.01526 -0.33188,0.01526 h -0.14002 l -0.0278,0.127485 c -0.0152,0.07012 -0.0327,0.264074 -0.0389,0.431018 -0.006,0.166943 -0.0158,0.377292 -0.0215,0.467443 l -0.0106,0.163908 0.10183,-4.23e-4 c 0.056,-2.38e-4 0.20014,-0.01658 0.32033,-0.03632 z m 1.25056,-0.09992 0.15784,-0.01492 -0.002,-0.40378 c -0.002,-0.589194 -0.002,-0.585902 -0.0558,-0.585902 -0.025,0 -0.0578,-0.01474 -0.0728,-0.03276 -0.0213,-0.02559 -0.0578,-0.02782 -0.16689,-0.01016 -0.0768,0.01242 -0.22439,0.01547 -0.32792,0.0067 l -0.18822,-0.01577 0.0243,0.06395 c 0.0134,0.03518 0.0243,0.104223 0.0245,0.153439 1.8e-4,0.131912 0.0898,0.640564 0.11589,0.657603 0.0411,0.02686 0.0782,0.119918 0.0634,0.158599 -0.0123,0.03206 0.008,0.03816 0.12758,0.03801 0.0782,-9.8e-5 0.21325,-0.007 0.30006,-0.0151 z m -0.10926,-1.344728 c 0.0934,-0.01292 0.21369,-0.03387 0.2671,-0.04654 0.24419,-0.05796 0.64826,-0.126641 0.678,-0.115232 0.0181,0.007 0.12427,-0.0071 0.23595,-0.03124 0.41323,-0.08929 0.67676,-0.113319 1.01045,-0.09215 l 0.17606,0.01122 v -0.10316 -0.10316 l -0.19704,0.01004 c -0.10832,0.0056 -0.29451,0.02013 -0.41364,0.03246 -0.11914,0.01233 -0.4703,0.022 -0.78036,0.0215 -0.31004,-4.96e-4 -0.66753,0.0059 -0.79441,0.01429 -0.27999,0.01846 -0.7621,0.0808 -0.86204,0.111453 -0.04,0.0123 -0.19577,0.03849 -0.34602,0.05822 -0.26374,0.03464 -0.61522,0.115942 -0.68342,0.158088 -0.0957,0.05912 0.0232,0.07176 0.66784,0.07109 0.36805,-3.85e-4 0.67556,0.0057 0.68335,0.01347 0.0207,0.02066 0.16402,0.01654 0.35818,-0.01028 z m -2.04215,-0.273017 c -0.005,-0.123538 -0.0187,-0.295642 -0.0314,-0.382452 -0.0129,-0.08681 -0.0349,-0.26711 -0.049,-0.400665 -0.0861,-0.810852 -0.10371,-0.913509 -0.16022,-0.935 -0.13561,-0.05155 -0.10077,-0.282955 0.0513,-0.340775 0.0375,-0.01423 0.0821,-0.01258 0.12503,0.0046 0.11833,0.04739 0.67543,0.05162 0.87866,0.0067 0.15643,-0.0346 0.2157,-0.03604 0.44408,-0.01087 0.25375,0.02802 0.27419,0.02666 0.54797,-0.03631 0.15641,-0.03598 0.32189,-0.0834 0.36775,-0.105369 0.0822,-0.03943 0.0783,-0.04016 -0.30354,-0.05621 -0.21279,-0.009 -0.68193,-0.02881 -1.04252,-0.04414 -0.36061,-0.01534 -0.69389,-0.02944 -0.74063,-0.03133 -0.0468,-0.0019 -0.19152,-0.0012 -0.32174,0.0017 l -0.23675,0.0051 v 0.130241 c 0,0.07163 0.0106,0.185993 0.0235,0.254137 0.0323,0.169929 0.0699,0.480851 0.11081,0.914189 0.0823,0.87274 0.13857,1.218184 0.20101,1.23465 0.14264,0.03761 0.14464,0.03455 0.13582,-0.208147 z m 0.50169,-0.161777 c 0.0994,-0.02554 0.28443,-0.05935 0.41131,-0.07514 0.12688,-0.01578 0.26346,-0.03838 0.30352,-0.05022 0.0401,-0.01182 0.1275,-0.02772 0.19427,-0.03531 0.0668,-0.0076 0.16161,-0.0244 0.21075,-0.03737 0.0851,-0.02244 0.71416,-0.07754 0.89412,-0.07831 0.0468,-2.03e-4 0.19426,0.0027 0.32781,0.0064 0.13355,0.0037 0.38201,0.0054 0.55211,0.0038 l 0.30928,-0.0031 0.0366,-0.0876 c 0.0294,-0.07039 0.0321,-0.124063 0.0139,-0.273181 -0.0317,-0.259621 -0.0713,-0.487235 -0.10147,-0.580795 -0.0141,-0.04375 -0.0327,-0.218585 -0.0416,-0.388524 l -0.0162,-0.308978 -0.32781,-0.0074 c -0.45231,-0.01016 -0.80962,0.04472 -0.97824,0.150359 -0.0297,0.01853 -0.11388,0.0466 -0.18733,0.06239 -0.0735,0.01578 -0.20458,0.04573 -0.29139,0.06654 -0.12344,0.02959 -0.23459,0.03462 -0.50994,0.02308 -0.27074,-0.01134 -0.37884,-0.0067 -0.46785,0.02014 -0.0737,0.02223 -0.2222,0.03467 -0.40912,0.03428 -0.16136,-3.5e-4 -0.29878,0.0047 -0.30541,0.01146 -0.006,0.0066 0.0229,0.316062 0.0657,0.68765 0.0428,0.371588 0.0834,0.72752 0.0904,0.790959 0.007,0.06345 0.0201,0.115339 0.0293,0.115339 0.009,0 0.0979,-0.0209 0.19725,-0.04644 z m 3.80761,-0.341822 c 0.0549,-2.57e-4 0.0568,-0.0057 0.0422,-0.127751 -0.0156,-0.131304 -0.0468,-0.555455 -0.0882,-1.200242 -0.013,-0.202708 -0.0307,-0.387093 -0.0394,-0.409745 -0.0132,-0.03429 -0.0382,-0.03889 -0.14907,-0.02743 -0.0732,0.0076 -0.14365,0.02413 -0.15634,0.03683 -0.0354,0.03549 -0.0223,0.626209 0.0175,0.780141 0.0471,0.182528 0.13394,0.750898 0.13394,0.876639 v 0.101932 l 0.0911,-0.01505 c 0.0501,-0.0083 0.11694,-0.01518 0.14849,-0.01532 z m 10.1544,3.776835 c -0.0186,-0.02237 -0.0333,-0.162304 -0.0402,-0.382453 -0.006,-0.190943 -0.0263,-0.472832 -0.0452,-0.62642 -0.0408,-0.331626 -0.023,-0.388523 0.12077,-0.388523 0.12252,0 0.14809,0.05975 0.1811,0.423486 0.025,0.276371 0.0519,0.402126 0.0858,0.402126 0.006,0 0.0815,-0.04991 0.16875,-0.110885 0.0985,-0.06883 0.17382,-0.142914 0.19871,-0.195332 0.0649,-0.136874 0.23144,-0.198237 0.30566,-0.112657 0.0464,0.05348 0.067,0.157413 0.0832,0.418877 0.007,0.113519 0.0239,0.242497 0.0375,0.286611 0.0338,0.109598 0.008,0.194987 -0.0636,0.213007 -0.14295,0.03587 -0.21741,-0.05889 -0.24475,-0.311427 -0.008,-0.07679 -0.0201,-0.139626 -0.0263,-0.139626 -0.006,0 -0.0846,0.04939 -0.1743,0.109752 -0.0898,0.06035 -0.20399,0.116366 -0.2539,0.124467 -0.0809,0.01312 -0.0892,0.02099 -0.0763,0.07238 0.0184,0.07342 -0.005,0.164882 -0.0533,0.213792 -0.0478,0.04786 -0.16495,0.0495 -0.20369,0.0028 z m -9.14339,-0.07149 c -0.11458,-0.05039 -0.29568,-0.260699 -0.32877,-0.381884 -0.0159,-0.05845 -0.0562,-0.177292 -0.0894,-0.264103 -0.0526,-0.13719 -0.0614,-0.2039 -0.0676,-0.509937 -0.004,-0.193655 -0.015,-0.382532 -0.0247,-0.419728 -0.0389,-0.149688 0.15196,-0.220304 0.27169,-0.100561 0.0566,0.05662 0.061,0.07423 0.0458,0.187338 l -0.0165,0.124845 0.0519,-0.06593 c 0.0285,-0.03625 0.0661,-0.06593 0.0836,-0.06593 0.0293,0 0.0607,-0.07 0.0614,-0.136994 1.9e-4,-0.01525 -0.0268,-0.03453 -0.06,-0.04287 -0.0641,-0.0161 -0.10029,-0.100585 -0.0784,-0.183815 0.008,-0.03334 -0.0118,-0.06532 -0.0684,-0.108795 -0.0751,-0.05729 -0.10313,-0.06225 -0.40422,-0.07144 -0.17791,-0.0054 -0.37812,-0.0151 -0.4449,-0.02149 -0.13168,-0.0126 -0.51832,-0.140689 -0.60233,-0.199536 -0.0662,-0.04634 -0.13369,-0.04582 -0.3447,0.0026 -0.23811,0.05466 -0.5135,0.07118 -0.55886,0.03354 -0.0463,-0.03847 -0.0467,-0.179195 -5.5e-4,-0.217514 0.0195,-0.01623 0.11911,-0.03987 0.22127,-0.05255 0.10218,-0.01269 0.2469,-0.03899 0.32166,-0.05846 0.20296,-0.05286 0.34257,-0.04537 0.47594,0.02554 0.14027,0.07457 0.39828,0.159704 0.5193,0.171333 0.0493,0.0047 0.25926,0.01779 0.46656,0.02901 0.20731,0.01122 0.39307,0.0299 0.41281,0.04152 0.0197,0.01158 0.085,0.06146 0.14516,0.110768 0.0859,0.07043 0.13604,0.09215 0.23411,0.101329 0.12337,0.01158 0.41407,0.132922 0.50387,0.21039 0.0541,0.04666 0.18472,0.311661 0.18475,0.374763 1e-5,0.02679 0.0284,0.05362 0.073,0.06921 0.12115,0.04223 0.12832,0.214834 0.0106,0.268218 -0.0449,0.02047 -0.0547,0.03986 -0.045,0.08958 0.0123,0.06281 -0.0399,0.402716 -0.0853,0.55532 -0.054,0.181854 -0.35525,0.445952 -0.57352,0.502805 -0.17143,0.04465 -0.19656,0.04495 -0.29102,0.0034 z m 0.40818,-0.395706 c 0.14301,-0.132161 0.18537,-0.190435 0.19959,-0.274563 0.008,-0.04674 0.0258,-0.13719 0.0398,-0.200989 0.0139,-0.0638 0.0184,-0.153116 0.009,-0.19848 -0.0152,-0.08132 -0.0176,-0.08268 -0.16648,-0.09629 -0.083,-0.0076 -0.25456,-0.01907 -0.3811,-0.02548 -0.20231,-0.01028 -0.23554,-0.01836 -0.27512,-0.06697 -0.0444,-0.0545 -0.0448,-0.05205 -0.0319,0.1754 0.009,0.168058 0.0299,0.271758 0.0748,0.38197 0.0339,0.08321 0.0617,0.173324 0.0617,0.200263 0,0.02694 0.0389,0.09201 0.0864,0.144598 l 0.0864,0.09561 0.11116,-0.03346 c 0.0612,-0.0184 0.14436,-0.06413 0.18493,-0.101624 z m 0.0576,-1.094105 c 0.008,-0.02338 0.0308,-0.06093 0.0502,-0.08346 0.0357,-0.04169 0.0236,-0.09259 -0.022,-0.09259 -0.0138,0 -0.0569,-0.02263 -0.0958,-0.05029 -0.0787,-0.05604 -0.0781,-0.05666 -0.11694,0.12254 -0.0265,0.122018 -0.0106,0.145305 0.10194,0.145923 0.0426,2.38e-4 0.0731,-0.0153 0.0826,-0.04212 z m 7.24351,1.466107 c -0.11964,-0.08154 -0.23115,-0.247919 -0.2794,-0.416834 -0.0228,-0.07961 -0.0618,-0.167066 -0.0867,-0.194353 -0.10927,-0.119651 -0.10962,-0.266905 -5.5e-4,-0.32523 0.0287,-0.01538 0.05,-0.06307 0.0598,-0.13419 0.0271,-0.197044 0.16409,-0.411305 0.31286,-0.489016 0.0842,-0.04399 0.30218,-0.02155 0.40645,0.04186 0.0945,0.05749 0.1707,0.181863 0.17081,0.278925 1.9e-4,0.194128 -0.28479,0.570375 -0.49207,0.64953 l -0.10974,0.0419 0.0256,0.08353 c 0.0142,0.04594 0.0608,0.121968 0.10395,0.168959 0.10124,0.110496 0.19774,0.112645 0.40774,0.0091 0.17742,-0.08748 0.27013,-0.08254 0.30776,0.01642 0.0371,0.09751 -0.013,0.165203 -0.18484,0.249951 -0.13737,0.06773 -0.18065,0.07709 -0.35664,0.07709 -0.17087,0 -0.21274,-0.0085 -0.28487,-0.05763 z m 0.1062,-0.951467 c 0.0949,-0.09209 0.19591,-0.265911 0.17465,-0.300309 -0.007,-0.01146 -0.0417,-0.028 -0.0769,-0.03684 -0.088,-0.0221 -0.17006,0.05916 -0.21605,0.214023 -0.0686,0.23098 -0.032,0.269098 0.11833,0.123135 z m -1.55193,0.914733 c -0.12857,-0.0584 -0.26597,-0.221125 -0.29966,-0.354897 -0.0382,-0.151747 -0.0332,-0.446292 0.009,-0.572355 0.0529,-0.155051 0.20346,-0.344284 0.29477,-0.370473 0.21561,-0.06184 0.32082,0.195293 0.11926,0.291415 -0.078,0.03717 -0.12985,0.118521 -0.17178,0.269244 -0.008,0.03019 -0.007,0.116107 10e-4,0.190921 0.0269,0.215896 0.20754,0.38333 0.27582,0.255758 0.0132,-0.02463 0.0428,-0.147568 0.0658,-0.273179 0.0378,-0.206459 0.039,-0.285506 0.0126,-0.823313 -0.0159,-0.327209 -0.0458,-0.693271 -0.0664,-0.813471 -0.0666,-0.391154 -0.0698,-0.469449 -0.0215,-0.522843 0.0237,-0.0263 0.068,-0.04779 0.0984,-0.04779 0.0673,0 0.15584,0.106207 0.15584,0.187162 0,0.03256 0.0217,0.148554 0.0483,0.257765 0.0266,0.109208 0.0465,0.247737 0.0442,0.307836 -0.002,0.0601 0.009,0.344208 0.0266,0.631351 0.0169,0.287142 0.0238,0.587641 0.0151,0.667775 -0.027,0.250027 -0.0876,0.506542 -0.13975,0.591356 -0.10242,0.166644 -0.2783,0.21451 -0.46932,0.127748 z m -1.26485,-0.111145 c -0.0383,-0.02678 -0.0549,-0.07318 -0.0677,-0.188191 -0.009,-0.08396 -0.0455,-0.27832 -0.0803,-0.431908 -0.0349,-0.153588 -0.0679,-0.346654 -0.0732,-0.429035 -0.008,-0.127289 -0.002,-0.157373 0.0407,-0.200332 0.0279,-0.02781 0.076,-0.05055 0.10703,-0.05055 0.0591,0 0.2752,0.08277 0.44034,0.168569 0.0529,0.02749 0.13541,0.04998 0.18334,0.04998 0.048,0 0.10029,0.01311 0.11624,0.02914 0.0426,0.04255 0.0356,0.178111 -0.0106,0.216786 -0.0641,0.05315 -0.27536,0.0359 -0.4306,-0.03518 -0.0749,-0.0343 -0.13622,-0.0542 -0.13622,-0.0442 0,0.01004 0.0337,0.165097 0.0749,0.344685 0.1095,0.476883 0.10844,0.46277 0.0375,0.539374 -0.069,0.07449 -0.12612,0.08326 -0.20091,0.03087 z m 16.43617,-0.172246 c -0.0815,-0.0571 -0.0665,-0.14187 0.0594,-0.334806 0.0624,-0.09557 0.14114,-0.217463 0.17504,-0.270884 0.0339,-0.05342 0.12766,-0.168385 0.20834,-0.255472 0.0807,-0.08708 0.23779,-0.270117 0.34913,-0.406734 0.17053,-0.20927 0.2133,-0.248397 0.27144,-0.248397 0.0869,0 0.14534,0.05706 0.14534,0.142088 0,0.0495 -0.0796,0.15774 -0.32174,0.437444 -0.36435,0.42088 -0.4256,0.499303 -0.52589,0.673342 -0.0842,0.146292 -0.22465,0.301219 -0.27291,0.301219 -0.0188,0 -0.0585,-0.01701 -0.0882,-0.0378 z m -0.75528,-0.976002 c -0.0501,-0.0417 -0.063,-0.08666 -0.0553,-0.192878 0.002,-0.02928 0.0666,-0.121102 0.14345,-0.204031 0.0768,-0.08292 0.23813,-0.282973 0.35854,-0.444543 0.17851,-0.239475 0.23163,-0.295223 0.28751,-0.301656 0.0404,-0.0047 0.0875,0.0093 0.11494,0.03412 0.0822,0.07437 0.0578,0.158393 -0.1062,0.364582 -0.0839,0.105593 -0.16981,0.219295 -0.1909,0.252685 -0.0211,0.03338 -0.10537,0.134683 -0.18738,0.225098 -0.082,0.09041 -0.14906,0.179946 -0.14906,0.198956 0,0.03733 -0.0901,0.110165 -0.13627,0.110165 -0.0156,0 -0.0513,-0.01913 -0.0794,-0.0425 z m -26.60749,-0.747689 c -0.0321,-0.04899 -0.035,-0.07379 -0.0137,-0.120424 0.0302,-0.06647 0.19174,-0.157831 0.27893,-0.157831 0.11033,0 0.17736,0.137742 0.10797,0.221672 -0.1062,0.128398 -0.30628,0.158731 -0.37321,0.05658 z m -0.28851,-0.112929 c -0.0677,-0.03849 -0.0842,-0.06886 -0.0846,-0.155496 -3.7e-4,-0.08438 0.0627,-0.155531 0.13789,-0.155531 0.0815,0 0.17741,0.0919 0.17741,0.170008 0,0.06607 -0.0529,0.145667 -0.0969,0.145667 -0.0118,0 -0.0351,0.0052 -0.0529,0.01146 -0.0178,0.0064 -0.0542,-9.37e-4 -0.0809,-0.01614 z m 13.15496,-1.307447 c -0.0863,-0.03472 -0.11861,-0.129581 -0.0695,-0.20458 0.0353,-0.0539 0.0575,-0.0617 0.17619,-0.0617 0.11927,0 0.15764,-0.01363 0.31581,-0.112221 0.18626,-0.116094 0.3972,-0.329463 0.3972,-0.401787 0,-0.02273 -0.0692,-0.132188 -0.15387,-0.243244 -0.25019,-0.328333 -0.52323,-0.746405 -0.5497,-0.841687 -0.0656,-0.23604 -0.004,-0.342643 0.2358,-0.405557 0.11938,-0.03137 0.17964,-0.06198 0.22063,-0.112055 0.0601,-0.07337 0.14006,-0.08851 0.20362,-0.03854 0.0604,0.04749 0.0686,0.120162 0.0239,0.210325 -0.0547,0.110295 -0.14411,0.172692 -0.28513,0.199036 -0.0639,0.01194 -0.12065,0.02615 -0.12608,0.03156 -0.028,0.02807 0.22995,0.426477 0.48345,0.746521 0.17923,0.226293 0.23876,0.340453 0.23876,0.457889 0,0.220282 -0.30144,0.536342 -0.70804,0.74238 -0.1212,0.06141 -0.29739,0.07612 -0.4031,0.03364 z m -2.85909,-0.500684 c -0.34915,-0.102085 -0.452,-0.141792 -0.50025,-0.193162 -0.0477,-0.05089 -0.0514,-0.07249 -0.0363,-0.221153 0.009,-0.09061 0.0483,-0.317733 0.0868,-0.50471 0.1426,-0.690706 0.21372,-1.048665 0.24296,-1.222892 0.0315,-0.18808 0.0835,-0.270496 0.17032,-0.270496 0.0763,0 0.15245,0.09105 0.13902,0.166312 -0.006,0.0354 -0.0299,0.173647 -0.0523,0.307202 -0.0224,0.133554 -0.078,0.412198 -0.12325,0.619209 -0.11329,0.517872 -0.18747,0.925341 -0.17129,0.941529 0.007,0.0074 0.11458,0.03992 0.23818,0.07216 0.26973,0.0704 0.45391,0.07169 0.67873,0.0047 0.0919,-0.02737 0.18685,-0.04349 0.211,-0.03584 0.0555,0.0176 0.10596,0.125586 0.0868,0.185792 -0.0483,0.152121 -0.64786,0.245607 -0.97041,0.151304 z m 1.49947,-0.04687 c -0.17669,-0.139241 -0.0173,-0.365144 0.17082,-0.242001 0.0871,0.05704 0.33371,-0.0089 0.51237,-0.137031 0.30766,-0.220622 0.345,-0.650953 0.0565,-0.650953 -0.0985,0 -0.15811,0.03642 -0.30186,0.184596 -0.14698,0.151507 -0.19327,0.268779 -0.12845,0.325341 0.0607,0.05294 0.0755,0.113732 0.0444,0.18194 -0.0376,0.08256 -0.1056,0.09773 -0.21558,0.04812 -0.11966,-0.05396 -0.17894,-0.169826 -0.1561,-0.305053 0.043,-0.254101 0.2957,-0.57179 0.54412,-0.683872 0.14637,-0.06603 0.35474,-0.04824 0.491,0.04192 0.10808,0.07151 0.21444,0.264661 0.21484,0.390084 3.7e-4,0.102758 -0.064,0.339214 -0.11387,0.418545 -0.18604,0.295811 -0.54081,0.491449 -0.89006,0.490818 -0.12315,-2.2e-4 -0.163,-0.0111 -0.22813,-0.06246 z m -3.64262,-1.800962 c -0.0563,-0.05611 -0.2366,-0.167511 -0.4962,-0.306712 -0.18584,-0.09965 -0.22292,-0.111287 -0.31022,-0.09734 -0.0768,0.01229 -0.10997,0.006 -0.14709,-0.02754 -0.0651,-0.05889 -0.0632,-0.190593 0.004,-0.257432 0.0978,-0.09784 0.28155,-0.04449 0.76273,0.22153 0.18911,0.104542 0.35575,0.215865 0.39374,0.263029 0.11163,0.138661 -0.081,0.329396 -0.2066,0.204452 z m 0.78313,-0.356149 c -0.0444,-0.04444 -0.0578,-0.07759 -0.0475,-0.11844 0.0142,-0.05648 -0.0317,-0.109007 -0.26326,-0.302163 -0.16469,-0.137318 -0.47629,-0.27656 -0.62144,-0.277691 -0.19153,-0.0015 -0.26773,-0.245801 -0.10395,-0.333429 0.0824,-0.04414 0.6901,0.206858 0.89064,0.36793 0.0534,0.0429 0.17088,0.150105 0.26104,0.238221 0.1426,0.139393 0.1639,0.171621 0.1639,0.248031 0,0.09737 -0.0734,0.197673 -0.1635,0.223631 -0.0393,0.01134 -0.0712,-0.0014 -0.11588,-0.04609 z"
       id="path2747" />
  </g>
</svg>
