<?xml version="1.0" encoding="UTF-8" standalone="no"?>
<!-- Created with Inkscape (http://www.inkscape.org/) -->

<svg
   width="146.60382"
   height="66.553345"
   viewBox="0 0 19.394462 8.8044523"
   version="1.1"
   id="svg5"
   inkscape:version="1.1.1 (3bf5ae0d25, 2021-09-20)"
   sodipodi:docname="japanese.svg"
   xmlns:inkscape="http://www.inkscape.org/namespaces/inkscape"
   xmlns:sodipodi="http://sodipodi.sourceforge.net/DTD/sodipodi-0.dtd"
   xmlns="http://www.w3.org/2000/svg"
   xmlns:svg="http://www.w3.org/2000/svg">
  <sodipodi:namedview
     id="namedview7"
     pagecolor="#ffffff"
     bordercolor="#666666"
     borderopacity="1.0"
     inkscape:pageshadow="2"
     inkscape:pageopacity="0.0"
     inkscape:pagecheckerboard="0"
     inkscape:document-units="mm"
     showgrid="false"
     inkscape:zoom="2.8578563"
     inkscape:cx="41.989514"
     inkscape:cy="6.4733835"
     inkscape:window-width="1920"
     inkscape:window-height="991"
     inkscape:window-x="-9"
     inkscape:window-y="-9"
     inkscape:window-maximized="1"
     inkscape:current-layer="layer1"
     fit-margin-top="0"
     fit-margin-left="0"
     fit-margin-right="0"
     fit-margin-bottom="0"
     units="px" />
  <defs
     id="defs2" />
  <g
     inkscape:label="Capa 1"
     inkscape:groupmode="layer"
     id="layer1"
     transform="translate(153.28355,46.664631)">
    <path
       style="fill:#000000;stroke-width:0.0199348"
       d="m -141.79225,-37.867706 c -0.0652,-0.02414 -0.0837,-0.06152 -0.0979,-0.198839 -0.007,-0.07127 -0.0393,-0.264137 -0.0708,-0.428598 -0.10386,-0.540861 -0.14614,-0.937129 -0.14783,-1.385469 -0.002,-0.38672 7.8e-4,-0.413149 0.0431,-0.492231 0.0879,-0.164263 0.2271,-0.225443 0.42851,-0.18821 0.14782,0.02733 0.27443,0.0891 0.36189,0.176559 0.0854,0.08536 0.19158,0.266571 0.19158,0.326856 0,0.04142 0.002,0.04118 0.0394,-0.0071 0.0536,-0.0682 0.10614,-0.07773 0.19071,-0.03461 0.066,0.03366 0.0722,0.03389 0.0826,0.003 0.16456,-0.48877 0.56094,-0.635205 0.83956,-0.310162 0.0865,0.100956 0.14368,0.248297 0.14333,0.369582 -3.1e-4,0.09684 -0.0814,0.255999 -0.17017,0.333952 -0.0424,0.03718 -0.12551,0.08981 -0.1848,0.11696 -0.1446,0.0662 -0.34755,0.05694 -0.50569,-0.02308 -0.12172,-0.06158 -0.3685,-0.263847 -0.40731,-0.333824 -0.0219,-0.03947 -0.0263,-0.04119 -0.0269,-0.01045 -7.8e-4,0.05495 -0.0752,0.148853 -0.1468,0.185896 -0.10811,0.05593 -0.25599,0.08582 -0.42585,0.08606 -0.0898,1.4e-4 -0.16729,0.007 -0.17217,0.01519 -0.0217,0.03656 0.0764,0.86347 0.12595,1.061528 0.01,0.03838 0.0364,0.185135 0.0594,0.326136 0.0331,0.202118 0.0373,0.270327 0.0202,0.322346 -0.0241,0.07304 -0.10216,0.11371 -0.17004,0.08859 z m 1.63539,-2.041747 c 0.0913,-0.08506 0.0947,-0.09197 0.082,-0.170883 -0.0163,-0.101796 -0.08,-0.190891 -0.15522,-0.217124 -0.0499,-0.01743 -0.0658,-0.01225 -0.12748,0.04196 -0.091,0.07982 -0.13509,0.166893 -0.13147,0.25917 0.002,0.04055 -0.007,0.07921 -0.0169,0.08593 -0.0319,0.01971 -0.0227,0.06598 0.0151,0.07585 0.0192,0.005 0.0807,0.01016 0.13677,0.01143 0.0944,0.0021 0.10891,-0.0042 0.19709,-0.08633 z m -1.28076,-0.07187 c 0.0411,-0.01142 0.0748,-0.02777 0.0748,-0.03635 0,-0.0086 -0.0266,-0.05564 -0.059,-0.104618 -0.0625,-0.09432 -0.15163,-0.148782 -0.27616,-0.168696 -0.0966,-0.01545 -0.1224,0.01433 -0.13727,0.158467 -0.0173,0.166999 -0.0122,0.172187 0.16777,0.172058 0.0853,-5.9e-5 0.18877,-0.0095 0.22989,-0.02087 z m -9.61367,1.805024 c -0.0283,-0.03012 -0.0525,-0.08752 -0.0609,-0.144528 -0.008,-0.05202 -0.033,-0.145924 -0.0563,-0.208695 -0.027,-0.07303 -0.0421,-0.160969 -0.0421,-0.244201 v -0.130074 l -0.0647,-0.0025 c -0.11472,-0.0045 -0.25921,0.0031 -0.47552,0.0253 -0.23504,0.02409 -0.28756,0.01165 -0.30884,-0.07314 -0.0183,-0.07319 0.005,-0.139376 0.0576,-0.163349 0.0547,-0.02489 0.41347,-0.06449 0.64208,-0.07086 l 0.15947,-0.0044 0.0133,-0.09967 c 0.0169,-0.128508 0.0201,-0.933807 0.004,-1.031625 -0.0116,-0.06999 -0.067,-0.109757 -0.067,-0.04807 0,0.03178 -0.063,0.108741 -0.329,0.401595 -0.10968,0.120778 -0.26666,0.299717 -0.34886,0.397644 -0.0822,0.09793 -0.23018,0.264866 -0.32885,0.370977 -0.0987,0.106109 -0.22016,0.23904 -0.26996,0.295401 -0.0769,0.08712 -0.10117,0.102475 -0.16138,0.102475 -0.087,0 -0.1368,-0.04973 -0.1368,-0.136729 0,-0.05429 0.0394,-0.106196 0.26414,-0.347881 0.14527,-0.156236 0.34487,-0.377374 0.44355,-0.491419 0.0987,-0.114046 0.25763,-0.293191 0.35324,-0.398104 l 0.17384,-0.190747 -0.1408,-0.0058 c -0.14638,-0.0061 -0.51815,0.02198 -0.72517,0.05484 -0.14567,0.02312 -0.53108,0.146107 -0.59236,0.189026 -0.0999,0.07 -0.23494,0.0097 -0.23494,-0.104923 0,-0.104051 0.0921,-0.160583 0.43857,-0.269241 0.28342,-0.08888 0.58249,-0.129141 1.06033,-0.14273 0.20075,-0.0057 0.41136,-0.01537 0.46803,-0.02146 l 0.10303,-0.01107 -0.008,-0.153264 c -0.005,-0.08429 -0.0234,-0.359588 -0.0417,-0.611763 -0.0281,-0.389834 -0.0386,-0.463842 -0.0695,-0.494164 -0.0495,-0.0485 -0.0547,-0.143564 -0.0125,-0.227946 0.0301,-0.06023 0.13491,-0.09379 0.2001,-0.06409 0.0911,0.04151 0.11926,0.139759 0.13672,0.477213 0.008,0.169944 0.0254,0.407667 0.037,0.528272 0.0115,0.120605 0.021,0.28379 0.021,0.362633 0,0.07885 0.007,0.147924 0.0165,0.153513 0.0151,0.0093 0.12909,-7.82e-4 0.76805,-0.06813 0.338,-0.0356 0.58106,0.0198 0.63258,0.144199 0.0304,0.07317 -0.002,0.149582 -0.0808,0.188667 -0.0782,0.03894 -0.27121,0.02148 -0.32542,-0.02943 -0.0434,-0.04079 -0.0559,-0.04219 -0.22439,-0.02528 -0.0981,0.0098 -0.29282,0.02934 -0.43261,0.04331 -0.13979,0.01397 -0.25416,0.0316 -0.25416,0.03918 0,0.0076 0.0135,0.02494 0.0299,0.03859 0.0165,0.01365 0.0299,0.04804 0.0299,0.07643 0,0.03709 0.0322,0.08186 0.11463,0.159056 0.1394,0.130666 0.31292,0.265535 0.39371,0.306008 0.0329,0.01648 0.13402,0.07134 0.22474,0.121914 0.2214,0.12343 0.64689,0.293459 0.73437,0.293459 0.0514,0 0.0864,0.0158 0.12888,0.05827 0.0688,0.06889 0.0732,0.116723 0.0169,0.188226 -0.0716,0.09098 -0.16719,0.07286 -0.66075,-0.125215 -0.27735,-0.111312 -0.68755,-0.35049 -0.87278,-0.508916 l -0.17323,-0.148157 -0.0126,0.361454 c -0.007,0.198799 -0.0103,0.363789 -0.007,0.366644 0.003,0.0029 0.19773,-0.0021 0.43306,-0.01116 0.24892,-0.0095 0.44235,-0.0088 0.46251,0.0016 0.075,0.03865 0.0686,0.196754 -0.01,0.238665 -0.0264,0.01417 -0.16117,0.02654 -0.33367,0.03064 -0.15909,0.0038 -0.35655,0.01353 -0.43878,0.02166 l -0.14951,0.0148 -0.007,0.09244 c -0.004,0.05705 0.01,0.137174 0.0357,0.209315 0.0793,0.22274 0.11767,0.368557 0.1058,0.402117 -0.0398,0.112466 -0.16429,0.13965 -0.2452,0.05353 z m 16.0693,-0.785548 c -0.11321,-0.113227 0.007,-0.260907 0.21307,-0.260907 0.10422,0 0.48037,-0.103969 0.55643,-0.153802 0.0253,-0.0166 0.0461,-0.04272 0.0461,-0.05802 0,-0.07738 -0.1013,-0.229516 -0.24846,-0.373148 -0.1888,-0.18428 -0.26186,-0.237268 -0.49604,-0.359765 -0.0962,-0.05031 -0.22422,-0.134185 -0.28449,-0.186369 -0.12328,-0.106729 -0.22691,-0.284811 -0.22691,-0.389917 0,-0.145752 0.18695,-0.327981 0.42465,-0.413937 0.0861,-0.03111 0.16223,-0.0052 0.19482,0.06635 0.0381,0.0835 -0.007,0.145968 -0.1564,0.221696 -0.0751,0.03779 -0.1477,0.08228 -0.16146,0.09886 -0.0624,0.07512 0.11026,0.242935 0.40305,0.391842 0.12787,0.06502 0.23517,0.142466 0.38998,0.281462 0.25558,0.229461 0.32712,0.316229 0.3916,0.474941 0.0872,0.214592 0.0536,0.363223 -0.10611,0.468897 -0.13486,0.08924 -0.49304,0.191162 -0.77535,0.220625 -0.10791,0.01126 -0.12789,0.0077 -0.16445,-0.0288 z m -1.5766,-0.293822 c -0.0839,-0.01602 -0.26297,-0.0865 -0.38526,-0.151622 -0.18545,-0.09877 -0.29207,-0.251251 -0.2924,-0.418223 -9e-5,-0.04282 -0.0142,-0.06047 -0.0659,-0.08202 -0.14598,-0.06099 -0.22327,-0.240811 -0.13704,-0.318846 0.0508,-0.04592 0.14165,-0.04117 0.19641,0.01028 0.0253,0.0238 0.049,0.0395 0.0525,0.03489 0.003,-0.0046 0.0351,-0.06669 0.0699,-0.13796 0.14313,-0.292355 0.40569,-0.558174 0.55131,-0.558174 0.19252,0 0.30964,0.2924 0.21365,0.533406 -0.0696,0.17471 -0.32716,0.375942 -0.52719,0.411849 -0.0707,0.01271 -0.0748,0.01741 -0.0748,0.08853 0,0.05653 0.0136,0.08745 0.0548,0.125043 0.13934,0.12693 0.34345,0.198043 0.57495,0.200326 0.2113,0.0021 0.2872,-0.02496 0.37672,-0.134195 0.0552,-0.06736 0.0863,-0.08868 0.1297,-0.08868 0.16218,0 0.17203,0.208004 0.0167,0.352868 -0.10424,0.09724 -0.22995,0.133756 -0.47514,0.138036 -0.1261,0.0022 -0.25167,-2.86e-4 -0.27908,-0.0055 z m -0.22241,-1.011072 c 0.0708,-0.03929 0.18255,-0.191104 0.18255,-0.248087 v -0.0505 l -0.0484,0.04557 c -0.0617,0.05799 -0.21851,0.28056 -0.19696,0.279623 0.008,-3.92e-4 0.0373,-0.01237 0.0628,-0.02661 z m -1.21815,0.879525 c -0.0483,-0.03671 -0.0676,-0.103431 -0.10316,-0.355854 -0.0176,-0.124981 -0.0419,-0.265173 -0.054,-0.311538 l -0.022,-0.0843 -0.14206,0.13204 c -0.0782,0.07262 -0.18661,0.152834 -0.24105,0.178247 -0.0901,0.04208 -0.0992,0.0525 -0.10145,0.116586 -0.003,0.08815 -0.0575,0.15039 -0.13157,0.15039 -0.0758,0 -0.13306,-0.06148 -0.1488,-0.159921 -0.008,-0.04878 -0.0277,-0.08863 -0.0501,-0.10067 -0.0561,-0.03 -0.13311,-0.198183 -0.17522,-0.382446 -0.0323,-0.141368 -0.068,-0.481722 -0.066,-0.628968 0.002,-0.115483 0.15731,-0.166864 0.23817,-0.07857 0.0367,0.04004 0.10326,0.245467 0.22719,0.700928 0.0207,0.07578 0.0418,0.142026 0.0469,0.147227 0.0158,0.01576 0.11161,-0.05541 0.25147,-0.186786 0.1436,-0.13487 0.26573,-0.207853 0.34782,-0.207853 0.15195,0 0.20986,0.127403 0.28714,0.63172 0.0121,0.07875 0.0338,0.138241 0.06,0.164462 0.0945,0.09446 -3.1e-4,0.300231 -0.13834,0.300231 -0.0287,0 -0.067,-0.01121 -0.085,-0.02492 z m -7.50693,-0.06654 c -0.0695,-0.01521 -0.1499,-0.03898 -0.17867,-0.05282 -0.0755,-0.03635 -0.14351,-0.147302 -0.14351,-0.234335 0,-0.160384 0.20468,-0.207657 0.25643,-0.05922 0.0159,0.04552 0.0369,0.05883 0.12157,0.07699 0.13226,0.02837 0.33678,0.02804 0.45542,-7.16e-4 0.1261,-0.03056 0.20992,-0.09694 0.2643,-0.209264 0.0429,-0.08857 0.0439,-0.101256 0.0204,-0.241359 -0.0264,-0.157602 -0.0709,-0.272621 -0.26004,-0.672737 -0.13932,-0.294736 -0.25237,-0.470125 -0.4157,-0.64486 l -0.11809,-0.126343 -0.47025,0.0056 c -0.43419,0.0053 -0.47335,0.0028 -0.51099,-0.03124 -0.0548,-0.04964 -0.0514,-0.133002 0.008,-0.197246 l 0.0489,-0.05275 0.94287,-2.26e-4 c 0.51858,-1.2e-4 0.9755,-0.0056 1.01538,-0.01222 0.0575,-0.0095 0.0813,-0.0033 0.11462,0.03012 0.0588,0.05882 0.0559,0.161812 -0.007,0.220262 -0.0465,0.04365 -0.0614,0.04547 -0.35995,0.04344 -0.17131,-0.0011 -0.33435,-0.0078 -0.36232,-0.01487 -0.0458,-0.01149 -0.0396,0.0019 0.0623,0.134461 0.11852,0.154332 0.38218,0.66805 0.49916,0.972584 0.087,0.226432 0.1185,0.431627 0.0885,0.576171 -0.0314,0.151571 -0.13723,0.30866 -0.26371,0.391684 -0.18151,0.11915 -0.52408,0.161037 -0.80828,0.09883 z m 2.57105,-0.107 c -0.037,-0.0092 -0.13449,-0.06377 -0.21683,-0.121259 -0.14825,-0.103507 -0.15026,-0.104209 -0.20531,-0.07169 -0.0306,0.01806 -0.10794,0.03815 -0.17192,0.04465 -0.30379,0.03085 -0.61379,-0.238643 -0.57766,-0.5022 0.0175,-0.127732 0.0721,-0.227036 0.13143,-0.239096 0.0279,-0.0057 0.0841,-0.02016 0.12467,-0.03217 0.15384,-0.04549 0.39674,0.02854 0.52013,0.158534 0.0307,0.03229 0.0714,0.102647 0.0905,0.156353 0.03,0.08423 0.0579,0.114772 0.20183,0.22224 0.12489,0.09316 0.18339,0.124593 0.23196,0.124593 0.12116,0 0.18441,0.148506 0.10004,0.234902 -0.0329,0.03372 -0.14503,0.04604 -0.22886,0.02513 z m -0.58079,-0.437903 c 0,-0.01012 -0.0469,-0.05945 -0.10432,-0.109641 -0.0701,-0.06126 -0.12245,-0.09125 -0.15947,-0.09125 -0.0606,0 -0.066,0.01413 -0.0333,0.08597 0.0373,0.0818 0.2971,0.182313 0.2971,0.114931 z m 6.62457,-1.233229 c -0.0396,-0.02517 -0.0624,-0.110065 -0.0433,-0.161218 0.0219,-0.05863 0.47433,-0.502656 0.59147,-0.580456 0.1189,-0.07898 0.31281,-0.101021 0.40662,-0.04623 0.0917,0.05355 0.1153,0.129714 0.0622,0.200582 -0.0374,0.04988 -0.0526,0.05478 -0.17018,0.05478 -0.1477,0 -0.13661,-0.0078 -0.50239,0.353207 -0.16468,0.162525 -0.20784,0.194949 -0.25915,0.194694 -0.0339,-1.66e-4 -0.0722,-0.0071 -0.0852,-0.01536 z m -6.19643,-1.240742 c -0.0276,-0.03049 -0.0399,-0.08791 -0.0502,-0.234234 -0.008,-0.106619 -0.0234,-0.243191 -0.0355,-0.303493 -0.012,-0.06031 -0.0405,-0.217289 -0.0632,-0.348859 -0.0228,-0.131569 -0.0494,-0.279842 -0.0592,-0.329496 -0.01,-0.04966 -0.0291,-0.205581 -0.0428,-0.346509 -0.0215,-0.222859 -0.0309,-0.262259 -0.0712,-0.302527 -0.0846,-0.08458 -0.0495,-0.229526 0.0607,-0.250383 0.0253,-0.0048 0.0481,-0.04195 0.0714,-0.116683 0.075,-0.240044 0.22173,-0.432956 0.38902,-0.511248 0.0841,-0.03936 0.1199,-0.04504 0.22005,-0.03495 0.28708,0.02894 0.41997,0.102213 0.50102,0.276255 0.10704,0.229871 0.0224,0.410044 -0.25183,0.535971 -0.14017,0.06436 -0.31535,0.100108 -0.57812,0.117954 l -0.0698,0.0047 -0.007,0.11097 c -0.006,0.109867 0.0364,0.403322 0.1543,1.071423 0.0733,0.41561 0.0793,0.603312 0.0211,0.661574 -0.0514,0.05141 -0.14308,0.05116 -0.18984,-5.25e-4 z m 0.33935,-2.151972 c 0.16518,-0.02654 0.33623,-0.111422 0.34476,-0.171087 0.0115,-0.08055 -0.0644,-0.142298 -0.2052,-0.16681 -0.14906,-0.02595 -0.17339,-0.01776 -0.26838,0.09041 -0.0512,0.05824 -0.1403,0.221686 -0.1403,0.257173 0,0.01199 0.0687,0.02485 0.0997,0.01868 0.0165,-0.0033 0.0927,-0.01603 0.16945,-0.02837 z m -7.88923,2.137534 c -0.0171,-0.01919 -0.0409,-0.0717 -0.053,-0.11669 l -0.0218,-0.0818 -0.15969,0.0082 c -0.12634,0.0065 -0.23351,-0.0064 -0.51333,-0.06186 -0.19452,-0.03855 -0.42794,-0.07627 -0.51871,-0.08383 -0.14907,-0.01242 -0.16935,-0.0098 -0.20933,0.02674 -0.0614,0.05625 -0.12433,0.0715 -0.17805,0.0432 -0.0596,-0.03141 -0.0749,-0.05622 -0.0752,-0.122712 -3.1e-4,-0.04923 -0.007,-0.05482 -0.0696,-0.05482 -0.0926,0 -0.1399,-0.06795 -0.1214,-0.174284 0.0457,-0.262515 0.0723,-0.911597 0.0621,-1.510205 -0.016,-0.935963 -0.0305,-1.220793 -0.0633,-1.247999 -0.0341,-0.02839 -0.0357,-0.11969 -0.002,-0.160644 0.0377,-0.0466 0.11925,-0.09643 0.15783,-0.09643 0.0188,0 0.0566,0.02019 0.0838,0.04485 0.0489,0.04428 0.0498,0.05115 0.0713,0.532871 0.0119,0.268408 0.0274,0.57888 0.0341,0.689936 l 0.0123,0.201921 0.1616,-0.03749 c 0.0889,-0.02063 0.20646,-0.04557 0.26129,-0.05542 0.0548,-0.0099 0.16694,-0.03258 0.24917,-0.0505 0.20922,-0.04557 0.50778,-0.06067 0.61615,-0.03115 0.11834,0.03222 0.20119,0.116824 0.20119,0.205452 0,0.12679 -0.13384,0.183972 -0.22661,0.09682 -0.0767,-0.072 -0.26178,-0.0589 -0.82994,0.05871 -0.15898,0.03291 -0.32149,0.07379 -0.36113,0.09084 l -0.0721,0.031 -0.0118,0.282254 c -0.0172,0.41295 -0.0526,0.954811 -0.0649,0.994311 -0.01,0.03081 -0.002,0.03005 0.0836,-0.0074 0.0898,-0.03973 0.10587,-0.04058 0.33506,-0.01784 0.13239,0.01315 0.35285,0.0473 0.4899,0.07591 0.29184,0.06092 0.62725,0.07416 0.65708,0.02595 0.0373,-0.06015 0.049,-0.405271 0.0498,-1.45645 7.9e-4,-0.979138 -0.003,-1.099051 -0.0344,-1.214066 -0.0547,-0.198046 -0.0736,-0.225993 -0.1796,-0.26533 -0.0818,-0.03038 -0.11546,-0.03238 -0.23922,-0.01416 -0.0792,0.01165 -0.2292,0.03373 -0.33336,0.04905 -0.10416,0.01532 -0.29877,0.02815 -0.43245,0.0285 -0.22895,6.21e-4 -0.24487,-0.002 -0.27411,-0.04367 -0.0483,-0.06899 -0.0389,-0.145888 0.0238,-0.195443 0.0483,-0.0381 0.0704,-0.04177 0.1844,-0.03065 0.0953,0.0093 0.24283,-0.0039 0.55816,-0.0499 0.3796,-0.05539 0.44,-0.05973 0.52828,-0.03788 0.13485,0.03338 0.2821,0.109547 0.31698,0.163965 0.0543,0.0847 0.11243,0.303311 0.14429,0.542494 0.0311,0.233863 0.029,0.918166 -0.008,2.412684 -0.004,0.164462 -0.007,0.360901 -0.006,0.436531 0.002,0.102416 -0.007,0.14693 -0.0318,0.174429 -0.0425,0.04702 -0.15056,0.04817 -0.19173,0.0021 z m 14.32632,-1.011793 c -0.23104,-0.06231 -0.48402,-0.261326 -0.59536,-0.468366 -0.0502,-0.09341 -0.0601,-0.136939 -0.0672,-0.294037 -0.007,-0.145858 -0.0144,-0.184397 -0.0377,-0.184397 -0.0163,0 -0.06,-0.03051 -0.0973,-0.06778 -0.0879,-0.08788 -0.094,-0.187803 -0.0152,-0.249731 0.068,-0.05352 0.11777,-0.05224 0.17451,0.0044 l 0.0458,0.04581 0.0639,-0.123171 c 0.1221,-0.235504 0.30117,-0.361028 0.48759,-0.34179 0.19692,0.02033 0.31197,0.11327 0.31197,0.252034 0,0.139112 -0.16629,0.370538 -0.32672,0.454705 -0.0341,0.01789 -0.1248,0.04714 -0.20155,0.06498 l -0.13954,0.03245 0.003,0.102857 c 0.005,0.185867 0.14098,0.355017 0.37468,0.46557 0.13991,0.06619 0.16987,0.06909 0.25557,0.02479 0.0957,-0.04949 0.11537,-0.07763 0.12784,-0.182958 0.008,-0.07387 0.002,-0.119671 -0.0308,-0.192464 -0.0943,-0.213265 -0.0412,-0.350955 0.20085,-0.520571 0.20956,-0.14685 0.30627,-0.182831 0.53725,-0.199905 0.13538,-0.01001 0.1995,-0.0239 0.23403,-0.05071 0.0584,-0.04541 0.10487,-0.04655 0.18768,-0.0046 0.10299,0.05216 0.13357,0.08864 0.13357,0.159387 0,0.122791 -0.0884,0.160414 -0.38874,0.165402 -0.13926,0.0023 -0.31376,0.02557 -0.36708,0.04892 -0.0284,0.01242 -0.10848,0.06163 -0.17807,0.109358 -0.13871,0.09514 -0.13346,0.0748 -0.0728,0.282016 0.0392,0.134102 0.0258,0.310929 -0.0331,0.433981 -0.0462,0.09673 -0.15838,0.18274 -0.3016,0.231357 -0.11299,0.03835 -0.15065,0.03867 -0.28522,0.0024 z m -0.18758,-1.2159 c 0.0529,-0.02734 0.15952,-0.145227 0.15952,-0.176331 0,-0.02362 -0.0889,-0.01239 -0.12633,0.01595 -0.0425,0.03222 -0.13282,0.150649 -0.13282,0.174198 0,0.02429 0.0355,0.01938 0.0996,-0.01382 z m -1.52639,1.172498 c -0.0227,-0.0044 -0.095,-0.05163 -0.16066,-0.104751 -0.16317,-0.132035 -0.25489,-0.312062 -0.24286,-0.476738 0.01,-0.137484 0.0826,-0.289764 0.16972,-0.356208 0.0828,-0.06311 0.22474,-0.105244 0.35468,-0.105244 0.0567,0 0.10721,-0.004 0.11219,-0.009 0.013,-0.01298 -0.0363,-0.695976 -0.0605,-0.838189 -0.0177,-0.103925 -0.0535,-0.407796 -0.0932,-0.790478 -0.007,-0.06918 -0.003,-0.129204 0.0112,-0.15545 0.0305,-0.05703 0.10704,-0.0847 0.16902,-0.06114 0.0851,0.03238 0.11646,0.126472 0.12274,0.369157 0.003,0.120605 0.0152,0.282077 0.0271,0.358825 0.0733,0.478864 0.0868,0.658609 0.0886,1.176153 0.002,0.520987 3.1e-4,0.541755 -0.0447,0.647881 -0.0621,0.14661 -0.12961,0.231637 -0.23917,0.301118 -0.087,0.05517 -0.12194,0.06236 -0.21419,0.04411 z m 0.13693,-0.344059 c 0.0465,-0.05525 0.0788,-0.158785 0.10051,-0.321463 0.0132,-0.09907 -0.0302,-0.123997 -0.17039,-0.09799 -0.16261,0.03016 -0.23136,0.141179 -0.17661,0.285196 0.0246,0.06489 0.13819,0.192893 0.17108,0.192893 0.0143,0 0.0483,-0.02639 0.0754,-0.05864 z m -8.52536,0.236605 c -0.077,-0.06055 -0.0731,-0.161605 0.008,-0.222003 0.0693,-0.0513 0.21551,-0.340076 0.37888,-0.748851 0.0558,-0.139529 0.11821,-0.289571 0.13876,-0.333428 0.0442,-0.09427 0.27912,-0.623061 0.32774,-0.737587 0.0186,-0.04386 0.0698,-0.186598 0.11385,-0.317204 0.044,-0.130607 0.12036,-0.322052 0.16965,-0.425435 0.0751,-0.157448 0.10037,-0.192459 0.15576,-0.215607 0.0758,-0.03171 0.16621,-0.01076 0.20092,0.04659 0.0115,0.01899 0.11286,0.317106 0.22524,0.662476 0.11239,0.34537 0.23151,0.704196 0.26469,0.797391 0.0332,0.09319 0.081,0.227755 0.10622,0.299023 0.0252,0.07127 0.11409,0.28483 0.19744,0.474586 0.16115,0.366914 0.18303,0.467527 0.11507,0.52903 -0.0581,0.05261 -0.16539,0.04129 -0.26032,-0.02749 -0.10674,-0.07732 -0.13244,-0.140303 -0.0904,-0.221567 0.0305,-0.059 0.0286,-0.06644 -0.0737,-0.297901 -0.0579,-0.130563 -0.11536,-0.237388 -0.12798,-0.237388 -0.0126,0 -0.0526,0.01481 -0.0889,0.0329 -0.0476,0.02372 -0.15267,0.03716 -0.37684,0.04814 -0.30501,0.01496 -0.51153,0.04525 -0.54909,0.08056 -0.0252,0.02368 -0.12407,0.02269 -0.16962,-0.0016 -0.0316,-0.01693 -0.0423,-0.0044 -0.0814,0.09469 -0.0748,0.190221 -0.31516,0.671555 -0.35869,0.718264 -0.0526,0.05641 -0.15594,0.05754 -0.22594,0.0025 z m 0.91754,-1.125204 c 0.086,-0.01663 0.26837,-0.03532 0.40543,-0.04154 0.29676,-0.01345 0.44682,-0.05412 0.43199,-0.117092 -0.0151,-0.06419 -0.39457,-1.234285 -0.40658,-1.25371 -0.0112,-0.01816 -0.0833,0.118756 -0.0846,0.1605 -0.002,0.07475 -0.37634,0.980631 -0.48969,1.185475 -0.0281,0.05097 -0.0382,0.0966 -0.0211,0.0966 0.005,0 0.0786,-0.01361 0.16446,-0.03024 z m 6.72476,0.894369 c -0.14059,-0.04632 -0.19862,-0.134121 -0.21641,-0.327431 l -0.0128,-0.139518 -0.13955,0.132309 c -0.28276,0.268116 -0.46779,0.354171 -0.62313,0.289826 -0.0531,-0.02205 -0.0777,-0.0208 -0.16577,0.0085 -0.15637,0.05193 -0.35234,0.03335 -0.51436,-0.0488 -0.23043,-0.116833 -0.40115,-0.319806 -0.40115,-0.476913 0,-0.04075 -0.0119,-0.06863 -0.0324,-0.07651 -0.0411,-0.01579 -0.12712,-0.208342 -0.12712,-0.284792 0,-0.03745 0.0158,-0.06914 0.0443,-0.08914 0.0567,-0.03971 0.10399,-0.03927 0.16632,0.0016 0.0274,0.01793 0.052,0.02915 0.0548,0.02492 0.17449,-0.26518 0.4434,-0.403579 0.69239,-0.356359 0.13047,0.02475 0.17242,0.04878 0.2193,0.125681 0.0634,0.104054 0.0416,0.208028 -0.0646,0.307159 -0.0769,0.07187 -0.43083,0.24238 -0.55719,0.268478 -0.0902,0.01863 -0.11682,0.0323 -0.11682,0.05996 0,0.05387 0.13498,0.192461 0.23796,0.244345 0.14372,0.07241 0.20038,0.07767 0.32691,0.03032 0.072,-0.02691 0.12892,-0.03686 0.15764,-0.02754 0.0247,0.008 0.0887,0.01627 0.14208,0.01832 0.11326,0.0044 0.18798,-0.0435 0.42121,-0.269645 0.21209,-0.205656 0.36962,-0.266957 0.46285,-0.180106 0.0546,0.05075 0.0793,0.135356 0.0955,0.325118 0.0103,0.121003 0.0212,0.158982 0.0499,0.1743 0.0671,0.03585 0.0995,0.08189 0.0995,0.140877 0,0.101388 -0.0934,0.16002 -0.19934,0.125121 z m -1.5158,-0.993328 c 0.11622,-0.05889 0.15021,-0.09822 0.0672,-0.07775 -0.0501,0.01235 -0.18607,0.09976 -0.18607,0.119614 0,0.01489 0.0225,0.007 0.11886,-0.04186 z m -1.51284,0.714584 c -0.0273,-0.0347 -0.0413,-0.0817 -0.0413,-0.138526 0,-0.0473 -0.0224,-0.196334 -0.0499,-0.331187 -0.0939,-0.461643 -0.0969,-0.457621 0.3551,-0.468891 0.29719,-0.0074 0.32919,-0.0049 0.37209,0.0299 0.0618,0.05 0.0641,0.156184 0.005,0.204463 -0.0342,0.02767 -0.0839,0.03453 -0.25403,0.03495 -0.11634,3.02e-4 -0.21489,0.004 -0.219,0.008 -0.0129,0.01291 0.0527,0.361149 0.0838,0.444669 0.0538,0.144734 0.0538,0.163789 -4.5e-4,0.218093 -0.0722,0.07225 -0.19329,0.07153 -0.25074,-0.0015 z"
       id="path1959" />
  </g>
</svg>
