<?xml version="1.0" encoding="UTF-8" standalone="no"?>
<!-- Created with Inkscape (http://www.inkscape.org/) -->

<svg
   width="47.151447mm"
   height="17.588102mm"
   viewBox="0 0 47.151447 17.588102"
   version="1.1"
   id="svg5"
   inkscape:version="1.1.1 (3bf5ae0d25, 2021-09-20)"
   sodipodi:docname="live_music.svg"
   xmlns:inkscape="http://www.inkscape.org/namespaces/inkscape"
   xmlns:sodipodi="http://sodipodi.sourceforge.net/DTD/sodipodi-0.dtd"
   xmlns="http://www.w3.org/2000/svg"
   xmlns:svg="http://www.w3.org/2000/svg">
  <sodipodi:namedview
     id="namedview7"
     pagecolor="#ffffff"
     bordercolor="#666666"
     borderopacity="1.0"
     inkscape:pageshadow="2"
     inkscape:pageopacity="0.0"
     inkscape:pagecheckerboard="0"
     inkscape:document-units="mm"
     showgrid="false"
     fit-margin-top="0"
     fit-margin-left="0"
     fit-margin-right="0"
     fit-margin-bottom="0"
     inkscape:zoom="0.71446409"
     inkscape:cx="459.08536"
     inkscape:cy="363.2093"
     inkscape:window-width="1920"
     inkscape:window-height="991"
     inkscape:window-x="-9"
     inkscape:window-y="-9"
     inkscape:window-maximized="1"
     inkscape:current-layer="layer1" />
  <defs
     id="defs2" />
  <g
     inkscape:label="Capa 1"
     inkscape:groupmode="layer"
     id="layer1"
     transform="translate(16.53587,-52.817743)">
    <path
       style="fill:#000000;stroke-width:0.0508009"
       d="m -14.646517,70.334358 c -0.110312,-0.132927 -0.120867,-0.640498 -0.01745,-0.83957 0.138729,-0.267064 0.288183,-0.29485 0.699924,-0.130125 0.189896,0.07597 0.421467,0.150486 0.514604,0.165605 0.175484,0.02848 0.201339,0.0099 0.471437,-0.339811 0.08465,-0.109571 0.116197,-0.119372 0.242335,-0.07527 0.105777,0.03702 0.149483,0.08947 0.161526,0.193931 0.01938,0.16846 -0.178017,0.494418 -0.379361,0.626347 -0.176405,0.115584 -0.6225,0.104078 -1.007798,-0.02597 l -0.290039,-0.09791 0.03246,0.216486 c 0.02458,0.163709 0.01243,0.236498 -0.04962,0.29855 -0.102252,0.102251 -0.296316,0.106239 -0.378041,0.0078 z m 4.7838762,-0.494669 c -0.0335,-0.03351 -0.06096,-0.116162 -0.06096,-0.183627 0,-0.193638 0.254763,-0.611205 0.4444022,-0.728412 0.1696111,-0.104826 0.1789038,-0.105192 0.4951605,-0.01962 0.3201785,0.08667 0.3233196,0.08649 0.4761233,-0.0265 0.1466167,-0.108391 0.1599028,-0.10974 0.2834904,-0.02878 0.1668256,0.109309 0.1672521,0.285183 0.00118,0.451338 -0.1647247,0.164725 -0.3973283,0.206972 -0.73767,0.133984 -0.2990292,-0.06413 -0.3207858,-0.05132 -0.5157202,0.304551 -0.091713,0.167399 -0.2705592,0.212354 -0.3859162,0.097 z m 3.4775802,-0.743158 c -0.046235,-0.05107 -0.084073,-0.127563 -0.084073,-0.169926 0,-0.08409 0.1553556,-0.245178 0.2364514,-0.245178 0.1185314,0 0.2898058,-0.259117 0.2933372,-0.443789 0.00292,-0.154264 0.029302,-0.201677 0.1424132,-0.2561 0.076333,-0.03672 0.2477876,-0.196732 0.3810072,-0.355549 0.4648981,-0.554213 0.5996701,-0.671793 0.7699869,-0.671793 0.1112757,0 0.19278,0.04151 0.2726782,0.138922 0.3542125,0.43177 0.4759196,0.521488 0.7074436,0.521488 0.2497313,0 0.3463431,0.0658 0.3463431,0.235884 0,0.248529 -0.444823,0.357499 -0.7772371,0.190398 -0.089421,-0.04494 -0.2595739,-0.175279 -0.3781171,-0.289619 -0.2090962,-0.201682 -0.2178469,-0.204934 -0.2929641,-0.108777 -0.1754834,0.224635 -0.1822315,0.264669 -0.050202,0.297803 0.1720565,0.04319 0.4825212,0.324972 0.4825212,0.437958 0,0.21846 -0.3231386,0.33772 -0.4619268,0.170486 -0.099361,-0.119723 -0.2608628,-0.167369 -0.3711345,-0.109489 -0.053066,0.02785 -0.2416934,0.185746 -0.4192257,0.350903 -0.4324354,0.402295 -0.6387352,0.481575 -0.7972829,0.306378 z M -13.2799,68.776604 c -0.03999,-0.07467 -0.04209,-0.142514 -0.0069,-0.219721 0.046,-0.100937 0.108842,-0.116857 0.652938,-0.165379 0.593798,-0.05295 0.82315,-0.11385 1.481908,-0.393504 0.206282,-0.08757 0.484699,-0.153219 0.778843,-0.183656 0.251791,-0.02604 0.5067472,-0.08164 0.5665712,-0.123552 0.05983,-0.04191 0.156856,-0.07619 0.2156219,-0.07619 0.1220172,0 0.2241568,-0.106366 0.5026845,-0.523513 0.1083046,-0.162202 0.244069,-0.327943 0.3017031,-0.368309 0.1659914,-0.116262 0.394807,-0.08942 0.5913168,0.06937 0.2916273,0.235657 0.5746968,0.389028 0.6900941,0.373902 0.1305223,-0.01711 0.2739978,0.113267 0.2739978,0.248972 0,0.150499 -0.1825052,0.301178 -0.3647838,0.301178 -0.111293,0 -0.2772963,-0.07999 -0.5333782,-0.257022 -0.2044907,-0.141362 -0.3963541,-0.24185 -0.4263648,-0.223299 -0.030003,0.01856 -0.1566569,0.192991 -0.2814289,0.387644 -0.2040406,0.318328 -0.2416643,0.352367 -0.3741064,0.338474 -0.096892,-0.01016 -0.1874326,0.02218 -0.2647224,0.09459 -0.1620457,0.151812 -0.3598977,0.218418 -0.6488289,0.218418 -0.287844,0 -0.85626,0.164935 -1.145067,0.332269 -0.264595,0.153301 -0.936569,0.277343 -1.50245,0.277343 -0.40674,0 -0.455349,-0.01033 -0.507624,-0.10803 z m -1.115449,-0.225506 c -0.07716,-0.202932 0.02206,-0.319636 0.43337,-0.509667 0.870252,-0.40208 1.645907,-0.437537 1.735812,-0.07934 0.05008,0.199481 -0.118001,0.304609 -0.437853,0.273875 -0.312217,-0.03 -0.627211,0.05038 -1.081082,0.275778 -0.420253,0.208723 -0.582129,0.218524 -0.650247,0.03934 z M 0.54140247,68.122615 C 0.39903579,67.980254 0.41103788,67.920733 0.65570204,67.555711 0.93399648,67.140519 1.236692,66.969432 1.5457504,67.052653 c 0.1103709,0.02971 0.3045343,0.145454 0.4314722,0.257197 0.1269439,0.111737 0.2667711,0.203153 0.3107338,0.203153 0.043957,0 0.1155431,0.05435 0.1590622,0.120761 0.1004178,0.153254 0.015236,0.374977 -0.1611111,0.419231 C 2.1542527,68.086036 1.8312893,67.919578 1.7206907,67.761677 1.683389,67.708383 1.589071,67.631844 1.5111103,67.59153 1.3268416,67.496243 1.2178192,67.567711 1.0574028,67.888907 0.88888961,68.226313 0.72110034,68.302312 0.54140247,68.122615 Z m -3.44430597,-0.01016 c -0.094218,-0.09421 -0.07238,-0.430165 0.050204,-0.772036 0.1496461,-0.417415 0.2346527,-0.539713 0.4326514,-0.622443 0.2367543,-0.09892 0.4441865,-5.83e-4 0.7522642,0.356121 0.2342266,0.271302 0.2485929,0.279667 0.3157658,0.183773 0.078539,-0.112134 0.2660121,-0.132752 0.35925569,-0.03952 0.1069676,0.106968 0.06872,0.335152 -0.085007,0.507209 -0.1159049,0.129717 -0.1857514,0.163364 -0.3391452,0.163364 -0.1743857,0 -0.2241568,-0.03421 -0.511768,-0.351497 -0.2775297,-0.306193 -0.3231795,-0.338603 -0.3541712,-0.251465 -0.019556,0.05499 -0.06649,0.177117 -0.1042764,0.271341 -0.037769,0.09422 -0.068702,0.227169 -0.068702,0.295445 0,0.201881 -0.090984,0.320659 -0.2456333,0.320659 -0.077248,0 -0.1678884,-0.02743 -0.2014136,-0.06096 z M -14.720666,67.991987 c -0.11521,-0.115211 -0.100762,-0.209562 0.09451,-0.617014 0.223514,-0.466392 0.3595,-0.547768 0.83096,-0.497279 0.181555,0.01944 0.42114,0.06747 0.53241,0.106728 0.378852,0.133664 0.514243,0.100839 0.753268,-0.182627 0.229305,-0.271944 0.37929,-0.320173 0.513443,-0.165105 0.04233,0.04892 0.08904,0.138858 0.103863,0.19992 0.02983,0.12298 -0.08389,0.320792 -0.18445,0.320792 -0.03543,0 -0.119886,0.0601 -0.187625,0.133552 -0.249294,0.270326 -0.621107,0.338006 -1.091853,0.198739 -0.13779,-0.04074 -0.353396,-0.08077 -0.47913,-0.0889 l -0.228606,-0.01477 -0.134935,0.27941 c -0.07422,0.153667 -0.160843,0.307978 -0.192505,0.342904 -0.07912,0.08727 -0.233392,0.07962 -0.329345,-0.01634 z m -1.022071,-0.176856 c -0.07865,-0.08691 -0.09203,-0.173275 -0.08026,-0.518486 0.0078,-0.227811 0.03421,-0.451769 0.05879,-0.497682 0.05155,-0.09632 0.580458,-0.301978 0.776624,-0.301978 0.1549,0 0.259865,0.155513 0.210322,0.31161 -0.01984,0.06261 -0.133102,0.146085 -0.282224,0.208057 l -0.24903,0.103494 v 0.338673 c 0,0.19568 -0.02575,0.364416 -0.06096,0.399634 -0.0931,0.09311 -0.268196,0.07279 -0.373271,-0.04332 z M 6.5358916,67.449507 C 6.2807138,67.275326 6.1802077,67.041824 6.1809144,66.624781 c 0.00118,-0.665015 0.2434795,-1.234318 0.7328369,-1.721457 0.2766952,-0.275435 0.9830584,-0.693726 1.1969939,-0.708816 0.1733115,-0.01226 0.1902753,-0.107464 0.196095,-1.101181 l 0.00464,-0.838223 -0.1640006,-0.0762 c -0.158776,-0.07377 -0.1644846,-0.08731 -0.1791548,-0.424666 -0.01757,-0.403749 0.0649,-0.862453 0.1747767,-0.972328 0.095754,-0.09575 0.3423914,-0.09907 0.419926,-0.0059 0.1382917,0.166633 0.2237129,1.009048 0.2246468,2.215457 0.00118,1.764511 -0.1227756,2.561841 -0.5235479,3.362569 -0.5020778,1.00311 -1.208079,1.450455 -1.7285047,1.095221 z m 0.8320691,-0.669773 c 0.1618061,-0.162202 0.3327996,-0.410281 0.452254,-0.656155 0.1826515,-0.375951 0.3910121,-1.0911 0.3917769,-1.344701 3.674e-4,-0.116243 -0.00464,-0.115187 -0.3668682,0.07621 -0.638898,0.337662 -1.040336,0.858707 -1.1594166,1.504856 -0.08475,0.459901 0.058676,0.775631 0.3211596,0.706988 0.055513,-0.01453 0.217998,-0.14375 0.3610943,-0.287191 z m 9.5059503,0.662606 c -0.54562,-0.120792 -0.88846,-0.270648 -1.007273,-0.440277 -0.07015,-0.100161 -0.09114,-0.102559 -0.387072,-0.04436 -0.345835,0.06804 -0.946187,0.03754 -1.13041,-0.05744 -0.282866,-0.145829 -0.656616,-0.472173 -0.778032,-0.679354 -0.193672,-0.330475 -0.25555,-0.807277 -0.15546,-1.197957 0.101131,-0.394759 0.265499,-0.6738 0.572947,-0.972684 0.302589,-0.294155 0.526437,-0.41968 0.895769,-0.502335 0.326378,-0.07303 0.583336,-0.023 0.814235,0.158648 0.154177,0.121281 0.180236,0.369436 0.06254,0.595771 -0.108065,0.207847 -0.809169,0.864806 -1.014442,0.950577 -0.364783,0.152414 -0.692265,0.05295 -0.692265,-0.210327 0,-0.144398 0.09861,-0.222061 0.281949,-0.222061 0.181828,0 0.442919,-0.175331 0.777675,-0.522235 0.202545,-0.209896 0.212657,-0.232218 0.118625,-0.262066 -0.392261,-0.124497 -1.141017,0.450328 -1.304749,1.001657 -0.103792,0.349513 -0.09651,0.554423 0.02918,0.821865 0.238436,0.507262 0.895927,0.760543 1.522456,0.586489 0.232217,-0.06452 0.337732,-0.172156 0.55608,-0.567312 0.26108,-0.472505 0.603062,-0.78625 1.206521,-1.106915 l 0.520711,-0.276688 v -0.208244 c 0,-0.231326 0.06843,-0.330173 0.228605,-0.330173 0.128788,0 0.228605,0.09079 0.228605,0.207935 0,0.04728 0.03193,0.09826 0.071,0.113254 0.13793,0.05295 0.788521,0.0973 0.958658,0.06538 l 0.172406,-0.03234 -0.0185,-0.291413 c -0.01016,-0.160276 -0.06738,-0.572081 -0.127119,-0.91512 -0.09936,-0.570605 -0.119753,-0.629028 -0.23961,-0.686189 -0.263875,-0.125852 -0.126832,-0.59514 0.173796,-0.59514 0.130652,0 0.301441,0.170661 0.381299,0.381006 0.103775,0.273368 0.251056,1.083571 0.28516,1.568707 l 0.03339,0.474641 0.462907,0.02819 c 0.655069,0.03992 0.841376,0.123395 0.843138,0.377808 0.0012,0.178116 -0.15832,0.231413 -0.495586,0.165535 -0.160078,-0.03128 -0.405355,-0.04945 -0.54506,-0.04045 l -0.254004,0.01641 -0.0334,0.45721 c -0.03579,0.49077 -0.216393,1.447466 -0.306017,1.621227 -0.114125,0.221261 -0.206767,0.283811 -0.420345,0.283811 -0.238571,0 -0.332491,-0.06811 -0.332491,-0.241127 0,-0.07952 0.0509,-0.148023 0.152943,-0.205744 0.09747,-0.05516 0.171432,-0.151036 0.203919,-0.264344 0.06608,-0.230554 0.185062,-0.905512 0.229644,-1.302869 l 0.03502,-0.312252 -0.653679,-0.02172 c -0.359525,-0.01197 -0.687969,-0.03672 -0.729877,-0.05505 -0.05447,-0.02382 -0.102788,0.0244 -0.169336,0.168979 -0.06463,0.140395 -0.134579,0.211875 -0.2286,0.233621 -0.0745,0.01721 -0.279321,0.110294 -0.455137,0.206801 -0.355864,0.195343 -0.721711,0.609827 -0.842659,0.954682 -0.03934,0.112215 -0.08777,0.243829 -0.107593,0.29248 -0.02855,0.07002 0.01081,0.108532 0.188857,0.184847 0.123692,0.053 0.360382,0.123377 0.525972,0.156341 0.602355,0.119916 0.679171,0.150674 0.713017,0.28551 0.0362,0.144123 -0.09571,0.329186 -0.229311,0.321766 -0.04454,-0.0024 -0.309631,-0.05511 -0.589034,-0.116967 z m 5.748394,-0.155835 c -0.260314,-0.09282 -0.412302,-0.243771 -0.482989,-0.479714 -0.117469,-0.392062 -0.0544,-0.56381 0.206954,-0.56381 0.146803,0 0.172652,0.03561 0.275218,0.379285 0.124737,0.417952 0.958336,0.194718 1.228137,-0.328889 0.145092,-0.281581 0.128362,-0.606325 -0.04052,-0.786063 -0.290092,-0.308796 -0.973678,-0.435477 -1.396516,-0.258803 -0.464092,0.193906 -0.641648,0.427724 -0.711722,0.937233 -0.03887,0.282532 -0.128105,0.412845 -0.282749,0.412845 -0.183264,0 -0.255084,-0.196972 -0.198944,-0.545591 0.104649,-0.649786 0.359144,-0.976101 0.984588,-1.262445 0.26328,-0.120528 0.339384,-0.132163 0.739509,-0.113033 0.37378,0.01786 0.499824,0.04781 0.778149,0.18483 0.569372,0.280302 0.793289,0.648338 0.725341,1.192194 -0.06967,0.557651 -0.509889,1.064744 -1.064207,1.22589 -0.332648,0.09671 -0.502276,0.09806 -0.760274,0.0061 z M -6.7209423,67.161493 c -0.095765,-0.178927 -0.016524,-0.292287 0.3431846,-0.490898 0.1872405,-0.10339 0.4905605,-0.286596 0.6740469,-0.407124 0.183492,-0.120527 0.4006677,-0.24485 0.4826094,-0.276263 0.1828444,-0.0701 0.4745653,-0.0286 0.7358428,0.104714 0.108089,0.05516 0.2624687,0.100255 0.3430744,0.100255 0.1568207,0 0.3147036,0.133989 0.3147036,0.26708 0,0.263929 -0.449744,0.323075 -0.8477088,0.11148 -0.2807057,-0.149255 -0.3910412,-0.137042 -0.6978525,0.07725 -0.4511327,0.315088 -0.927496,0.572881 -1.103785,0.597323 -0.1529383,0.02119 -0.1957803,0.0064 -0.2441154,-0.08382 z m 6.37425198,-0.08663 c -0.12982166,-0.129822 -0.0738859,-0.28642 0.14282196,-0.399844 0.18537204,-0.09703 0.59286936,-0.616693 0.59286936,-0.75607 0,-0.119146 0.16088348,-0.285581 0.27606448,-0.285581 0.30916358,0 0.30829961,0.427427 -0.001755,0.861743 -0.34972297,0.489894 -0.54424829,0.662283 -0.74732563,0.662283 -0.0990811,0 -0.21729185,-0.03712 -0.26268477,-0.08253 z M -11.499285,66.699333 c -0.123558,-0.123558 -0.128321,-0.228248 -0.01431,-0.314645 0.04751,-0.03602 0.278424,-0.256357 0.513082,-0.489615 0.234659,-0.233263 0.489899,-0.442248 0.567202,-0.464419 0.106109,-0.03042 0.226251,-0.0036 0.4902382,0.10907 0.3588007,0.153277 0.4182273,0.157101 1.0165951,0.06547 0.1791902,-0.02743 0.2211391,-0.01576 0.2883005,0.0801 0.1219644,0.174123 0.038234,0.314131 -0.2496729,0.417398 -0.1365756,0.04898 -0.3577147,0.08917 -0.4914183,0.08928 -0.2309283,1.92e-4 -0.2402455,0.0053 -0.1861837,0.106541 0.075735,0.141509 0.021772,0.336314 -0.1042527,0.376313 -0.158952,0.05044 -0.28858,-0.01513 -0.3986772,-0.201758 -0.05575,-0.09449 -0.163241,-0.212348 -0.238856,-0.26189 -0.134329,-0.08802 -0.139663,-0.08739 -0.232522,0.02732 -0.05231,0.06455 -0.09504,0.144848 -0.09504,0.178437 0,0.132157 -0.279747,0.320991 -0.521568,0.352058 -0.19999,0.02568 -0.259703,0.0136 -0.342905,-0.06963 z M 9.8665279,66.58177 c -0.099525,-0.07277 -0.095076,-0.199324 0.022593,-0.643598 0.038354,-0.144689 0.050439,-0.419423 0.032985,-0.748457 -0.02545,-0.480006 -0.019735,-0.525341 0.074418,-0.591299 0.1282641,-0.08984 0.2839871,-0.05155 0.3613231,0.08878 0.03567,0.06478 0.06044,0.351772 0.06189,0.717566 0.0036,0.93843 -0.222206,1.419071 -0.5532502,1.177005 z M -6.9033838,66.373392 c -0.094908,-0.144847 -0.066545,-0.217799 0.1962123,-0.504663 0.1366574,-0.14919 0.2076539,-0.188647 0.3163032,-0.175764 0.2997068,0.0355 0.2938628,0.322089 -0.012669,0.619799 -0.2214948,0.215137 -0.3855946,0.235038 -0.4998769,0.06063 z m 18.2185868,-0.07216 c -0.03444,-0.0643 -0.02638,-0.261481 0.02528,-0.622308 0.190264,-1.328274 0.149167,-1.28005 1.052023,-1.234365 0.369238,0.01868 0.699913,0.05657 0.734839,0.0842 0.03491,0.02761 0.0635,0.101772 0.0635,0.164783 0,0.143131 -0.07187,0.200263 -0.331783,0.263742 -0.136057,0.03321 -0.310478,0.03251 -0.519678,-0.0024 -0.173189,-0.02866 -0.330103,-0.03689 -0.34869,-0.01827 -0.01856,0.01856 -0.07375,0.320465 -0.122578,0.67083 -0.0488,0.350359 -0.11689,0.670906 -0.151256,0.712312 -0.08925,0.107534 -0.340325,0.09575 -0.401654,-0.01885 z m -26.866408,-0.492947 c -0.152863,-0.107073 -0.142169,-0.237366 0.04722,-0.575147 0.252452,-0.450268 0.327985,-0.514196 0.607534,-0.514196 0.202318,0 0.295013,0.03631 0.566011,0.221869 l 0.324073,0.221868 0.274634,-0.272451 c 0.438028,-0.434555 0.6539,-0.456474 1.184099,-0.12023 0.243951,0.154706 0.30698,0.31524 0.17543,0.446795 -0.07396,0.07397 -0.377854,0.08102 -0.421876,0.0098 -0.0174,-0.02814 -0.100674,-0.08688 -0.18508,-0.130516 l -0.153458,-0.07936 -0.377112,0.384527 c -0.252417,0.257372 -0.41563,0.384526 -0.49359,0.384526 -0.06728,0 -0.233409,-0.103897 -0.393324,-0.245977 -0.152267,-0.135287 -0.327704,-0.272942 -0.389862,-0.305906 -0.105818,-0.0561 -0.122787,-0.04057 -0.266468,0.244062 -0.08441,0.167195 -0.197783,0.327716 -0.251955,0.35671 -0.123785,0.06625 -0.112285,0.06747 -0.246275,-0.02638 z m 11.8035526,-0.05155 c -0.1669254,-0.166925 -0.098369,-0.309397 0.3769553,-0.783361 0.6121918,-0.610446 0.7988072,-0.646632 1.18986,-0.230747 0.1141712,0.121421 0.2588905,0.23585 0.3215918,0.254273 0.1633235,0.04799 0.2670046,0.167644 0.2670046,0.308095 0,0.330482 -0.6350925,0.234998 -0.9083433,-0.136564 l -0.1487179,-0.202225 -0.3138161,0.32817 c -0.1725993,0.180498 -0.3475455,0.376332 -0.3887704,0.435186 -0.088469,0.126312 -0.2832505,0.139687 -0.395764,0.02714 z M -7.1088196,65.25236 c -0.077222,-0.117872 -0.07708,-0.136372 0.00236,-0.257215 0.1329624,-0.202925 0.4831004,-0.326997 0.9228268,-0.326997 0.5647202,0 0.8784371,0.165156 0.8125252,0.427759 -0.042962,0.171087 -0.19515,0.20515 -0.4617395,0.103337 -0.2647169,-0.101089 -0.571049,-0.07234 -0.8559283,0.08034 -0.2440043,0.13078 -0.3194608,0.125882 -0.4197913,-0.0272 z m 5.4251391,-0.340371 c -0.1672346,-0.16723 -0.025218,-0.410352 0.3521806,-0.602886 0.1992596,-0.101656 0.2399534,-0.105089 0.58504709,-0.04945 0.20398796,0.03292 0.54056467,0.05353 0.74794431,0.04576 0.41577506,-0.01547 0.53991097,0.03987 0.53991097,0.240724 0,0.190568 -0.1781568,0.266065 -0.63501083,0.269101 -0.22352635,0.0017 -0.52807812,-0.02154 -0.67679015,-0.05119 -0.25289519,-0.05038 -0.28263179,-0.04542 -0.45993629,0.07749 -0.205716,0.142559 -0.3576036,0.166144 -0.4533457,0.07041 z m -6.8827918,-0.12287 c -0.019845,-0.01984 -0.3390402,-0.03906 -0.7093116,-0.04267 l -0.6732179,-0.0066 -0.01599,-0.191805 c -0.0089,-0.106354 0.01361,-0.227438 0.05038,-0.271785 0.05727,-0.06902 0.05254,-0.0758 -0.03479,-0.04951 -0.2143382,0.06458 -1.1337662,0.05476 -1.2153942,-0.01302 -0.108888,-0.09036 -0.09993,-0.236561 0.02195,-0.35845 0.08783,-0.08783 0.169337,-0.101603 0.601224,-0.101603 0.374859,0 0.5810012,-0.02714 0.8255132,-0.108608 0.179243,-0.05973 0.5087857,-0.16097 0.7323059,-0.224979 0.2235264,-0.06401 0.3691792,-0.118007 0.323676,-0.120004 -0.045472,-0.0017 -0.1933292,-0.135069 -0.3285096,-0.295725 -0.1351805,-0.160661 -0.2979789,-0.342449 -0.3617773,-0.403983 -0.063799,-0.06153 -0.1159984,-0.14591 -0.1159984,-0.187503 0,-0.122291 -0.1026535,-0.150247 -0.1785246,-0.04863 -0.03859,0.05172 -0.176984,0.299736 -0.307535,0.551202 -0.2563562,0.493793 -0.3353802,0.584206 -0.5106422,0.584206 -0.243326,0 -0.37121,-0.330471 -0.180719,-0.467023 0.0509,-0.03649 0.172671,-0.215407 0.270531,-0.397539 0.362641,-0.674916 0.5996582,-0.964273 0.7898526,-0.964273 0.102677,0 0.1170372,-0.02493 0.1170372,-0.2032 0,-0.204069 -0.025337,-0.229282 -0.1732876,-0.172511 -0.05435,0.0209 -0.07057,0.06828 -0.05056,0.148005 0.03456,0.137773 -0.128071,0.329309 -0.279649,0.329309 -0.1920852,0 -0.4869812,-0.478785 -0.9386872,-1.524026 -0.102629,-0.237495 -0.312216,-0.683276 -0.465738,-0.990617 -0.23533,-0.47111 -0.275014,-0.526923 -0.252849,-0.355608 0.03316,0.256263 0.0754,1.824883 0.09742,3.618166 0.0153,1.246531 0.0086,1.390586 -0.06876,1.460531 -0.04717,0.04267 -0.121421,0.0776 -0.165016,0.0776 -0.123179,0 -0.298779,-0.166686 -0.294354,-0.279403 0.01781,-0.454088 -0.0082,-3.942449 -0.03024,-4.051804 -0.03357,-0.166733 -0.179605,-0.264122 -0.266193,-0.177544 -0.07199,0.072 -0.07697,0.274909 -0.0078,0.317675 0.07799,0.04822 0.0603,0.262644 -0.02901,0.351976 -0.109169,0.109163 -0.259351,0.100173 -0.363768,-0.02177 -0.04787,-0.05587 -0.136267,-0.101603 -0.196487,-0.101603 -0.142109,0 -0.235605,-0.115777 -0.215762,-0.267192 0.02177,-0.166353 -0.374147,-0.781814 -0.423312,-0.657987 -0.01897,0.04781 -0.03613,0.387088 -0.03812,0.753905 l -0.0036,0.666935 0.38308,0.05697 c 0.210695,0.03135 0.467874,0.0571 0.571514,0.05715 0.380155,3.86e-4 0.664754,0.323308 0.445389,0.505364 -0.06919,0.05744 -0.65212,0.01873 -1.234878,-0.08193 l -0.165105,-0.02855 v 0.307266 0.307266 l 0.178951,-0.02908 c 0.130341,-0.02114 0.205979,-0.0046 0.278452,0.06101 0.06958,0.06296 0.118888,0.07477 0.163954,0.03929 0.100062,-0.07881 0.449166,-0.117254 0.554207,-0.06104 0.104458,0.05592 0.131696,0.322782 0.03882,0.380189 -0.05288,0.0327 -0.04722,0.120056 0.03369,0.518178 0.02107,0.103669 0.01016,0.193878 -0.02919,0.241302 -0.07926,0.0955 -0.336909,0.09882 -0.390796,0.0053 -0.0328,-0.0571 -0.127037,-0.06275 -0.489678,-0.0293 -0.246982,0.02277 -0.458016,0.05032 -0.468968,0.06129 -0.01098,0.01091 -0.05417,0.198886 -0.09601,0.417643 -0.09451,0.493958 -0.181075,0.637107 -0.385256,0.637107 -0.194023,0 -0.309186,-0.201157 -0.207963,-0.363249 0.03491,-0.05592 0.07727,-0.217695 0.09405,-0.359442 l 0.03053,-0.25773 -0.259311,0.03439 c -0.142624,0.01892 -0.435629,0.0795 -0.651117,0.134609 -0.215494,0.05511 -0.431011,0.100208 -0.478932,0.100208 -0.0895,0 -0.150626,0.183504 -0.150626,0.452254 0,0.337213 -0.329846,0.477274 -0.556304,0.236223 -0.14563,-0.155017 -0.149949,-0.354679 -0.01021,-0.471991 0.09897,-0.08309 0.109052,-0.159138 0.140914,-1.063471 0.03053,-0.866219 0.02505,-0.983251 -0.04945,-1.05775 -0.10433,-0.104323 -0.107459,-0.248756 -0.0076,-0.348655 0.05762,-0.05762 0.0762,-0.200783 0.0762,-0.587837 0,-0.443906 -0.01342,-0.52509 -0.101603,-0.613243 -0.128567,-0.128561 -0.128567,-0.22704 0,-0.355607 0.05587,-0.05587 0.101603,-0.165985 0.101603,-0.244676 0,-0.253653 0.108381,-0.743572 0.182932,-0.826892 0.07331,-0.08194 0.21711,-0.12131 1.087089,-0.297628 0.265435,-0.05382 0.81409,-0.168356 1.219223,-0.254588 0.521786,-0.11106 0.853984,-0.154153 1.139039,-0.147772 0.365916,0.0082 0.40598,-5.73e-4 0.441641,-0.09701 0.08712,-0.235481 0.313472,-0.247635 0.512673,-0.02756 0.136429,0.150756 1.180724,2.280535 1.390533,2.835909 0.06812,0.180358 0.101391,0.224548 0.114713,0.152401 0.02831,-0.153318 0.167737,-0.285718 0.2849612,-0.2706 0.167141,0.02154 0.231179,-0.04764 0.197935,-0.213847 -0.01652,-0.08267 -0.0067,-0.17894 0.02184,-0.213936 0.02855,-0.03502 0.067954,-0.303664 0.087576,-0.597037 l 0.035668,-0.533414 -0.7410452,-0.787412 c -0.407572,-0.433083 -0.741318,-0.825789 -0.741663,-0.872688 -0.0012,-0.129897 0.142227,-0.244939 0.304838,-0.244939 0.117178,0 0.190615,0.05739 0.374013,0.292112 0.213421,0.273182 0.8039154,0.876314 0.8579537,0.876314 0.013369,0 0.050965,-0.33719 0.083565,-0.749311 0.032576,-0.412126 0.066025,-0.813167 0.074279,-0.891204 0.011968,-0.113389 -0.00118,-0.13469 -0.065419,-0.10608 -0.044244,0.01967 -0.1660032,0.04595 -0.2706065,0.05831 -0.163574,0.01932 -0.196405,0.0059 -0.234693,-0.09712 -0.06568,-0.176458 0.0053,-0.30914 0.226683,-0.424047 0.108358,-0.05621 0.2293003,-0.17069 0.2689028,-0.254483 0.039579,-0.08376 0.09702,-0.169084 0.1276322,-0.189615 0.09531,-0.06391 0.3196426,-0.0425 0.3854608,0.03683 0.037187,0.04484 0.1079308,0.0644 0.173306,0.04799 0.060753,-0.01523 0.1722376,-0.0041 0.2477286,0.02446 0.1221336,0.04641 0.1495588,0.03555 0.248879,-0.09878 0.1872169,-0.253228 0.4989138,-0.184947 0.4989138,0.109284 0,0.150522 -0.2328082,0.421262 -0.4108251,0.477759 -0.094008,0.02983 -0.096868,0.04173 -0.028256,0.117598 0.042034,0.04641 0.1012702,0.149867 0.1316956,0.229889 0.030412,0.08003 0.1920387,0.382839 0.3591451,0.672925 0.1671001,0.290081 0.3038221,0.54011 0.3038221,0.555615 0,0.01552 0.055104,0.109297 0.1224719,0.208431 l 0.122472,0.180234 0.073477,-0.119431 c 0.4259328,-0.692347 0.7254295,-1.282269 0.8786132,-1.730623 0.095788,-0.280385 0.1074052,-0.37434 0.065168,-0.527291 -0.028256,-0.102361 -0.040224,-0.228879 -0.026564,-0.281142 0.020608,-0.07886 -0.00409,-0.09502 -0.1453207,-0.09502 -0.2815461,0 -0.4456569,-0.38343 -0.2484989,-0.580582 0.099104,-0.09911 0.177304,-0.100809 0.3041659,-0.0066 0.05423,0.04028 0.1479181,0.06119 0.2081796,0.04646 0.170165,-0.04151 0.32224,0.06586 0.32224,0.227543 0,0.07725 -0.025974,0.166417 -0.057677,0.198151 -0.04308,0.04308 -0.036951,0.07842 0.024047,0.139429 0.044945,0.04495 0.109414,0.174106 0.1432362,0.287005 0.059314,0.197969 0.035904,0.388478 -0.081685,0.664047 -0.031639,0.07417 -0.012723,0.08251 0.133307,0.05882 0.1301602,-0.02114 0.192307,-0.0029 0.2642729,0.07635 0.090593,0.100103 0.090961,0.12695 0.00992,0.722172 -0.046291,0.340009 -0.074373,0.628006 -0.062382,0.63999 0.03555,0.03555 0.6366862,-0.787266 0.7759937,-1.062181 0.070699,-0.139512 0.1724013,-0.26513 0.2259956,-0.279147 0.092099,-0.02411 0.090494,-0.03374 -0.029185,-0.175962 -0.1565578,-0.18606 -0.1608131,-0.316168 -0.013714,-0.419206 0.147889,-0.103589 0.1468322,-0.103793 0.3697048,0.07332 0.105479,0.08383 0.2441208,0.152407 0.3081065,0.152407 0.06398,0 0.1612805,0.05715 0.2162297,0.127002 0.054931,0.06985 0.1244978,0.127003 0.1545671,0.127003 0.030063,0 0.105374,0.06858 0.1673456,0.152401 0.077774,0.105199 0.1560323,0.152401 0.2526442,0.152401 0.17818,0 0.308136,0.170282 0.2488905,0.32611 -0.041389,0.10883 -0.036719,0.109987 0.295708,0.07302 0.185763,-0.02066 0.5549193,-0.08204 0.8203536,-0.136406 0.26544,-0.05435 0.59320209,-0.114556 0.72837099,-0.133757 0.23031541,-0.03275 0.24068878,-0.04052 0.1650981,-0.124041 -0.044365,-0.04903 -0.080652,-0.12803 -0.080652,-0.175588 0,-0.04757 -0.1085847,-0.195198 -0.2413018,-0.328083 -0.13268459,-0.132971 -0.36337959,-0.384576 -0.51262289,-0.559196 -0.3618475,-0.423393 -0.4633687,-0.487992 -0.6402471,-0.407403 -0.1848173,0.08421 -0.4424527,-0.05417 -0.6426988,-0.345234 -0.174981,-0.254326 -0.1790149,-0.291657 -0.045941,-0.424736 0.1416836,-0.14169 0.2400233,-0.127318 0.4157108,0.06076 0.1299151,0.139073 0.1821321,0.160487 0.3640775,0.149301 0.264004,-0.01622 0.5021886,0.143908 0.8999722,0.605093 0.15184099,0.176044 0.39625999,0.436137 0.5431508,0.577978 0.30583018,0.295329 0.40288562,0.532841 0.30118348,0.737057 l -0.0649606,0.130452 0.58656482,0.0076 c 0.61309652,0.0079 1.0131335,0.08992 1.3043406,0.267558 0.3060988,0.186733 0.329525,0.5943 0.1476906,2.569786 -0.041155,0.447047 -0.1061855,1.155721 -0.1445207,1.57483 -0.038353,0.419108 -0.063822,1.047768 -0.056624,1.397023 0.00998,0.483719 -0.00408,0.662244 -0.060081,0.749317 -0.1426527,0.222849 -0.52803159,0.09234 -0.52803159,-0.178804 0,-0.05901 0.0228834,-0.121434 0.0507866,-0.138702 0.0279619,-0.01728 0.0507866,-0.110365 0.0507866,-0.206883 v -0.175489 l -0.16509815,0.067 c -0.090809,0.03683 -0.34139272,0.110101 -0.5568515,0.162768 l -0.39174766,0.09577 0.15142073,0.07333 c 0.18446133,0.08934 0.53697465,0.500133 0.58153862,0.677683 0.0218329,0.08699 0.005257,0.156803 -0.0510206,0.212926 -0.13948294,0.139482 -0.30407904,0.102017 -0.46212535,-0.105193 -0.36319026,-0.476171 -0.48513706,-0.488062 -0.93046181,-0.09071 -0.1722257,0.153668 -0.34655889,0.279403 -0.38741599,0.279403 -0.098877,0 -0.277483,-0.18264 -0.277483,-0.283753 0,-0.04431 0.1314445,-0.20418 0.2921061,-0.35528 0.27836439,-0.26181 0.28493169,-0.273583 0.1396988,-0.250256 -0.083822,0.01342 -0.548317,0.07346 -1.0322108,0.133341 -0.6545782,0.081 -0.8945199,0.09415 -0.9372799,0.05137 -0.031581,-0.03159 -0.09698,-0.05744 -0.1452795,-0.05744 -0.1542054,0 -0.2589314,-0.151596 -0.2259959,-0.327149 0.016404,-0.0875 -0.00408,-0.51262 -0.046001,-0.9447 -0.041739,-0.432074 -0.076133,-0.895477 -0.076466,-1.029776 -5.837e-4,-0.242154 -0.00175,-0.243532 -0.1135002,-0.165104 -0.062098,0.04349 -0.1544506,0.07908 -0.2052257,0.07908 -0.1172007,0 -0.4869347,-0.184345 -0.6273753,-0.312806 l -0.1072825,-0.09813 -0.031875,0.192762 c -0.017515,0.106028 -0.032104,0.236323 -0.032395,0.28955 -5.248e-4,0.09054 0.00527,0.09135 0.092339,0.01267 0.1156829,-0.104691 0.2809913,-0.108262 0.3643109,-0.0079 0.034795,0.04191 0.1076625,0.07621 0.1619634,0.07621 0.3077855,0 0.3967908,0.291003 0.1610933,0.526707 l -0.1341529,0.134147 0.062115,0.393487 c 0.03415,0.216416 0.097738,0.564937 0.1412801,0.774494 0.1324375,0.637433 0.1348949,0.727063 0.0237,0.864362 -0.087108,0.107576 -0.1199972,0.117406 -0.2455985,0.07341 -0.099764,-0.03497 -0.1491968,-0.09011 -0.1584078,-0.176779 -0.00732,-0.06929 -0.057323,-0.354586 -0.1110483,-0.633989 -0.053703,-0.279404 -0.112035,-0.596074 -0.1295939,-0.703707 -0.017571,-0.107628 -0.04098,-0.186651 -0.052011,-0.175601 -0.011032,0.01109 -0.1098806,0.373442 -0.2196157,0.805311 l -0.1995217,0.785211 0.1020985,0.111486 c 0.072226,0.07887 0.092631,0.149249 0.069715,0.240532 -0.042852,0.170672 -0.2267722,0.214034 -0.4400485,0.10374 -0.5787883,-0.299299 -1.0031507,-0.336794 -2.0599319,-0.181988 -0.3603184,0.05278 -0.8494367,0.123757 -1.086926,0.157714 -0.2374963,0.03398 -0.6604161,0.135052 -0.9398196,0.224647 l -0.5080079,0.162904 0.5949288,0.03695 c 0.3272192,0.02031 0.6645433,0.06121 0.7496261,0.09087 0.1701705,0.05932 0.2550197,0.257262 0.1691255,0.394538 -0.053876,0.08612 -0.2738923,0.135473 -0.3343583,0.07501 z m 1.3292668,-1.647892 c 0.3179902,-0.05231 0.5906747,-0.107587 0.6059751,-0.122881 0.015296,-0.0153 -0.037824,-0.165127 -0.1180356,-0.332958 l -0.1458463,-0.305141 -0.180719,0.343832 c -0.1620281,0.308271 -0.1981394,0.345509 -0.3491395,0.360004 -0.09263,0.0089 -0.2012207,-0.01104 -0.2413016,-0.04431 -0.1149827,-0.09542 -0.088124,-0.321283 0.052775,-0.44379 0.1299038,-0.11295 0.1540359,-0.181928 0.1992715,-0.569478 0.014652,-0.125735 0.041215,-0.299677 0.058998,-0.386547 0.031931,-0.155944 0.029366,-0.158274 -0.2011804,-0.184262 -0.2875176,-0.0324 -0.3859503,-0.108994 -0.3859503,-0.300285 0,-0.183235 0.1593417,-0.25718 0.4250507,-0.197251 0.1943616,0.04384 0.2357267,0.0059 0.1083566,-0.10008 -0.1066231,-0.08848 -0.09493,-0.307108 0.023,-0.430018 0.054585,-0.05686 0.1482392,-0.157066 0.2081788,-0.222663 0.075027,-0.08212 0.1472296,-0.111965 0.2317696,-0.0958 0.2043498,0.03906 0.2098602,-0.160219 0.016925,-0.612414 -0.091918,-0.215452 -0.1818922,-0.409289 -0.1999538,-0.430749 -0.018035,-0.02148 -0.095684,0.161427 -0.1725002,0.406407 -0.2235847,0.713029 -0.289894,0.889435 -0.4204682,1.118536 -0.1073178,0.188291 -0.145397,0.215903 -0.2977514,0.215903 -0.143972,0 -0.1802989,-0.02235 -0.2065681,-0.127002 -0.017515,-0.06985 -0.017515,-0.184158 0,-0.254005 0.022708,-0.09052 0.011268,-0.127002 -0.039815,-0.127002 -0.039406,0 -0.08527,0.05423 -0.1019003,0.120488 -0.035086,0.139785 -0.4024247,0.489124 -0.5143307,0.489124 -0.063594,0 -0.076057,0.10699 -0.076057,0.653107 v 0.653107 l 0.1801296,0.235908 c 0.099076,0.129751 0.2202343,0.235908 0.2692468,0.235908 0.1935094,0 0.2807923,0.282748 0.1580749,0.512048 -0.050437,0.09422 -0.038878,0.09749 0.2413078,0.06815 0.1618463,-0.01699 0.5544353,-0.07359 0.8724191,-0.125882 z m 1.9639513,-0.289217 c 0.044599,-0.160656 0.089799,-0.319508 0.1004296,-0.353004 0.010623,-0.03351 -0.025273,-0.07506 -0.07973,-0.09234 -0.054466,-0.01728 -0.1241708,-0.07835 -0.154859,-0.135695 -0.04489,-0.08386 -0.034905,-0.132471 0.050846,-0.248505 0.1607668,-0.217449 0.1420223,-0.417549 -0.045764,-0.488423 -0.1221282,-0.04612 -0.152408,-0.08745 -0.152408,-0.208122 0,-0.170871 0.070683,-0.247045 0.2528549,-0.272474 0.1221447,-0.01704 0.1276794,-0.03596 0.1880864,-0.64226 0.096647,-0.97003 0.2602034,-1.845385 0.4543667,-2.431786 0.097604,-0.294786 0.1682041,-0.545235 0.1568852,-0.556554 -0.022653,-0.02265 -0.6562947,0.801481 -0.863984,1.123784 -0.136914,0.21247 -0.2152307,0.557062 -0.3655951,1.608532 -0.07907,0.552933 -0.079076,0.601128 -9.91e-5,0.721675 0.091399,0.1395 0.084196,0.162698 -0.1401196,0.45115 -0.1662362,0.21376 -0.2917202,0.238067 -0.4769346,0.09237 -0.1112293,-0.08749 -0.1421977,-0.09078 -0.2857432,-0.03042 -0.2032177,0.08544 -0.2272514,0.157667 -0.098924,0.297296 0.1327869,0.144484 0.6203873,1.122645 0.6203873,1.244545 0,0.07495 0.059951,0.104902 0.2921065,0.145952 0.4841972,0.08562 0.4588384,0.09606 0.5481711,-0.225709 z m -10.0763098,-0.196679 0.162149,-0.03159 -0.143509,-0.07519 c -0.07892,-0.04134 -0.209044,-0.142239 -0.289148,-0.224181 l -0.14564,-0.148992 -5.84e-4,0.166856 c -3.86e-4,0.09178 -0.01512,0.22084 -0.0328,0.286817 -0.03502,0.130914 -0.07557,0.128548 0.44965,0.02627 z m 13.4478737,-0.239428 0.4779685,-0.0592 0.012376,-0.152407 c 0.00683,-0.08382 0.020315,-0.197286 0.030064,-0.252142 0.01471,-0.08327 -0.020198,-0.105356 -0.2115828,-0.133761 -0.4763515,-0.0707 -0.9137955,-0.377311 -0.9137955,-0.640492 0,-0.235949 0.3183343,-0.298446 0.4935723,-0.0969 0.1190514,0.136926 0.4121849,0.249773 0.5850646,0.225238 0.1104992,-0.0157 0.1157706,-0.03858 0.1296056,-0.562462 l 0.014419,-0.546111 -0.1414209,0.0012 c -0.077785,5.77e-4 -0.4154131,0.04535 -0.7502911,0.09961 -0.5426896,0.08796 -0.6213742,0.0905 -0.723917,0.0233 -0.2800981,-0.183527 -0.035667,-0.472435 0.4089743,-0.483456 l 0.161794,-0.0041 -0.1524013,-0.05341 c -0.212867,-0.07461 -0.3302081,-0.188758 -0.3302081,-0.321218 0,-0.204636 0.11925,-0.250625 0.4782954,-0.184467 0.3943104,0.07265 0.5664078,0.07453 0.6915828,0.0075 0.088229,-0.04722 0.07398,-0.07458 -0.1684432,-0.323564 -0.2919894,-0.299893 -0.6150579,-0.488471 -0.8368447,-0.488471 -0.1736851,0 -0.2661873,-0.08197 -0.2661873,-0.235884 0,-0.140616 0.1780168,-0.272124 0.3683565,-0.272124 0.2099014,0 0.7259017,0.278884 1.0131685,0.547587 l 0.2510621,0.234833 -0.032808,-0.45471 c -0.018038,-0.250093 -0.056567,-0.517449 -0.085719,-0.59412 -0.041564,-0.109483 -0.035025,-0.16672 0.030471,-0.2667 0.1062146,-0.162098 0.254594,-0.162214 0.39537279,-3.85e-4 0.06074,0.06985 0.1538433,0.127002 0.2069068,0.127002 0.053063,0 0.30350683,0.102869 0.55654213,0.228605 0.25303522,0.125735 0.52391014,0.228605 0.60194678,0.228605 0.19014708,0 0.30153965,0.122629 0.30153965,0.331952 0,0.09476 0.0457081,0.288289 0.10160289,0.430061 0.11041176,0.280115 0.13197575,0.558917 0.0496195,0.641292 -0.0354932,0.0355 -0.0193222,0.08158 0.0507866,0.145033 0.13797096,0.124861 0.12961736,0.288395 -0.0220078,0.430831 -0.0950061,0.08926 -0.16087172,0.110033 -0.27588934,0.08703 -0.14906237,-0.02983 -0.150691,-0.02778 -0.12131638,0.15323 0.0231171,0.142577 0.008874,0.198729 -0.0640266,0.252031 -0.14918488,0.109087 -0.21921241,0.08342 -0.44286717,-0.162331 -0.20238145,-0.22226 -0.2196432,-0.230245 -0.46694011,-0.215786 l -0.25678886,0.015 -0.058825,1.041124 c -0.03234,0.572625 -0.048627,1.057656 -0.036135,1.077861 0.012492,0.0202 0.09611,0.02312 0.1858332,0.0064 0.33747569,-0.06254 1.1939288,-0.26972 1.3319931,-0.322211 0.13832113,-0.0526 0.13992649,-0.0571 0.0441317,-0.124206 -0.0783985,-0.05493 -0.14940669,-0.05821 -0.3359812,-0.01547 -0.19494566,0.0446 -0.27716782,0.03864 -0.4672507,-0.03398 -0.25526525,-0.09749 -0.38639452,-0.253899 -0.47674845,-0.568684 -0.0820938,-0.285995 -0.0781011,-0.310121 0.0669804,-0.405186 0.11610927,-0.07607 0.13752146,-0.07632 0.24959107,-0.0029 0.0674242,0.0442 0.13730547,0.147311 0.15528523,0.229177 0.0400455,0.182207 0.1904682,0.326821 0.31525791,0.303039 0.0763323,-0.01453 0.0954092,-0.07566 0.10811181,-0.346372 0.016812,-0.358421 0.10222745,-0.508487 0.28937991,-0.508487 0.15004308,0 0.26329184,0.137318 0.30686937,0.372105 0.0198476,0.106863 0.0535309,0.175442 0.0749257,0.1524 0.021365,-0.02305 0.0766702,-0.476246 0.12288667,-1.007115 0.046233,-0.530868 0.105876,-1.189007 0.1325828,-1.46252 0.058143,-0.595672 0.061884,-1.206498 0.00788,-1.291464 -0.072561,-0.114176 -0.41956943,-0.22129 -0.81292233,-0.250928 -0.41733366,-0.03146 -1.19000599,0.06289 -1.91485697,0.233772 -0.2236431,0.05271 -0.578077,0.11197 -0.7876282,0.131649 -0.4363992,0.04098 -0.5679896,0.08212 -0.7221014,0.225687 -0.1321393,0.123102 -0.1855705,0.126832 -0.3334187,0.02329 -0.162045,-0.113505 -0.1395646,-0.264786 0.068515,-0.461033 0.1334352,-0.12584 0.1582273,-0.171099 0.09374,-0.171099 -0.1044692,0 -0.478359,-0.378882 -0.478359,-0.484752 0,-0.04074 -0.043843,-0.07406 -0.097453,-0.07406 -0.053592,0 -0.1336044,-0.01389 -0.1778006,-0.03082 -0.057732,-0.02213 -0.080354,-3.86e-4 -0.080354,0.07697 0,0.0593 -0.07077,0.233194 -0.1572527,0.386447 -0.135957,0.240899 -0.1450987,0.278634 -0.067504,0.278634 0.1229975,0 0.2755566,0.147223 0.2755566,0.265912 0,0.05377 -0.055402,0.238827 -0.1231612,0.411233 -0.3309261,0.84228 -0.4374737,1.398169 -0.3132503,1.634298 0.044072,0.08382 0.080319,0.190375 0.080488,0.236789 3.564e-4,0.09105 0.2747807,0.347225 0.3725186,0.347739 0.032804,1.52e-4 0.1224727,0.0331 0.199307,0.07319 l 0.1397041,0.07288 -4.084e-4,-0.593897 c -5.838e-4,-0.856745 -0.077969,-1.459707 -0.2034041,-1.585133 -0.1214679,-0.121468 -0.1297047,-0.268214 -0.021135,-0.376763 0.1012463,-0.101247 0.2223413,-0.101428 0.3663651,-5.78e-4 0.2337655,0.163739 0.2709625,0.330161 0.3213465,1.437882 0.04997,1.099073 0.1827452,2.99556 0.2325746,3.322499 l 0.029188,0.191372 0.2346703,-0.03059 c 0.1290687,-0.01682 0.4497555,-0.0572 0.7126388,-0.08977 z m -12.3089817,-0.0046 c 0.0153,-0.03987 0.02031,-0.121812 0.01109,-0.182074 -0.01331,-0.08736 -0.02808,-0.07267 -0.07265,0.07251 -0.05254,0.171 0.0012,0.266712 0.06153,0.109565 z m 0.716994,-0.114002 c 0.01261,-0.03782 -0.01822,-0.04956 -0.08469,-0.03217 -0.0575,0.01506 -0.104505,0.04921 -0.104505,0.07594 0,0.06744 0.164872,0.0293 0.189197,-0.04378 z m -1.194875,-0.27102 c 0.0533,-0.09365 0.127796,-0.152081 0.193924,-0.152081 0.07835,0 0.100331,-0.02405 0.08128,-0.0889 -0.09028,-0.307329 -0.09155,-0.477127 -0.0041,-0.573546 0.04956,-0.05476 0.132291,-0.09957 0.183843,-0.09957 0.165588,0 0.09992,-0.09584 -0.09011,-0.131491 -0.327033,-0.06134 -0.995224,0.0073 -1.228342,0.126261 l -0.213457,0.108894 0.0017,0.418075 c 0.0012,0.308837 0.01506,0.394847 0.0533,0.329174 0.07445,-0.127813 0.361585,-0.116704 0.483369,0.01868 0.208052,0.231312 0.422535,0.249019 0.538919,0.04448 z m -0.688121,-1.564568 c -0.04081,-0.0086 -0.09979,-0.07725 -0.131065,-0.15277 -0.03128,-0.07552 -0.101977,-0.205733 -0.157089,-0.28935 l -0.100214,-0.152034 -3.27e-4,0.387416 -3.26e-4,0.387411 0.231616,-0.08261 c 0.127388,-0.04542 0.198227,-0.08956 0.157423,-0.09806 z m 1.236596,-0.266877 c 0,-0.265766 -0.01069,-0.293536 -0.123634,-0.321888 -0.164229,-0.04121 -0.337563,-0.293227 -0.370482,-0.538639 -0.02558,-0.190568 -0.03275,-0.197146 -0.185348,-0.169161 -0.228237,0.04186 -0.590564,0.205085 -0.590564,0.266036 0,0.02855 0.09144,0.193422 0.203205,0.366336 0.229249,0.354691 0.22923,0.354632 0.132724,0.542473 l -0.07048,0.137178 0.502288,0.0041 0.502288,0.0041 z m 5.2275719,0.135865 c 0.045126,-0.0544 0.03987,-0.07735 -0.023346,-0.101603 -0.1351985,-0.05189 -0.2257446,-0.0356 -0.2257446,0.04062 0,0.06375 0.064428,0.115345 0.1588806,0.127224 0.017515,0.0024 0.058141,-0.02762 0.090197,-0.06626 z m 1.3761839,-1.664642 0.1173346,-0.236281 -0.1678878,-0.297127 c -0.092339,-0.163423 -0.2131596,-0.377141 -0.2684874,-0.474933 -0.3436229,-0.607311 -0.6458106,-1.165056 -0.6458106,-1.191979 0,-0.01721 -0.047983,-0.09627 -0.1066522,-0.175612 -0.086372,-0.116826 -0.095905,-0.164321 -0.050147,-0.249813 0.0467,-0.08727 0.039343,-0.114736 -0.042436,-0.158496 -0.054404,-0.02913 -0.1118423,-0.05295 -0.1276439,-0.05295 -0.015816,0 -0.029193,0.21146 -0.029775,0.469907 -5.54e-4,0.258453 -0.034386,0.778528 -0.075185,1.155722 -0.1200382,1.109728 -0.1268799,1.067487 0.2413015,1.490157 0.1746312,0.200473 0.3975211,0.529087 0.4953117,0.730262 l 0.1778013,0.365764 0.1824533,-0.569175 c 0.1003416,-0.31305 0.2352474,-0.675505 0.2997878,-0.805462 z m -1.260874,0.939149 c -0.027674,-0.05132 -0.1095013,-0.148672 -0.1819221,-0.216412 l -0.1316664,-0.123155 v 0.208839 c 0,0.198391 0.00829,0.209657 0.1651039,0.22519 0.2066909,0.02049 0.2094693,0.01868 0.1484846,-0.09446 z m 8.24733512,-0.01704 c 0.0499693,0 0.0611546,-0.04747 0.0408048,-0.17281 -0.0237592,-0.146377 -0.007703,-0.186119 0.104796,-0.259842 0.12406588,-0.0813 0.1413392,-0.08147 0.26157561,-0.0029 0.0708038,0.04641 0.14223826953,0.151895 0.15875274,0.234449 0.0276698,0.138444 0.0470509,0.150095 0.24927585,0.150095 0.20973803,0 0.3287777,-0.06302 0.23201418,-0.122822 -0.0366597,-0.02265 -0.1871933,-0.451589 -0.29201273,-0.831988 -0.009982,-0.0362 -0.10417721,-0.101509 -0.20934688,-0.145157 -0.10516966,-0.04367 -0.320897,-0.143446 -0.47939283,-0.221775 -0.15849587,-0.07832 -0.30137617,-0.129215 -0.31750537,-0.11308 -0.039229,0.03923 -0.037244,0.665758 0.0035,1.150247 0.026211,0.309899 0.048159,0.385373 0.1057534,0.363272 0.039987,-0.01535 0.10367517,-0.0279 0.14154353,-0.0279 z M -6.0362247,58.622911 c 0.072666,-0.14051 0.3294027,-2.068641 0.2896546,-2.175359 -0.013778,-0.03689 -0.086495,0.07738 -0.161666,0.254005 -0.075168,0.176615 -0.2167957,0.446854 -0.3147381,0.600528 -0.3672239,0.576197 -0.6126997,1.07186 -0.5865296,1.184309 0.014242,0.06111 0.1023441,0.284715 0.1958211,0.496887 l 0.1699494,0.385771 0.1709124,-0.309573 c 0.094002,-0.170258 0.2004676,-0.366715 0.2365962,-0.436568 z m -8.0747593,0.438745 c -0.03858,-0.257465 0.03357,-0.455498 0.192412,-0.527867 0.120195,-0.05476 0.3373,0.0029 0.3373,0.08927 0,0.03689 0.02983,0.03824 0.09339,0.0041 0.122787,-0.06571 0.302543,-0.01582 0.337271,0.09358 0.01517,0.04786 0.09454,0.192535 0.17633,0.321504 l 0.148712,0.234501 0.340785,-0.326022 0.340786,-0.326023 -0.04559,-0.216877 -0.04559,-0.216871 -0.37312,-0.015 c -0.387972,-0.01565 -0.691607,0.03304 -1.825502,0.292456 -0.371106,0.08491 -0.72544,0.154503 -0.787418,0.154662 -0.154532,3.84e-4 -0.493871,0.09801 -0.492912,0.141805 4.19e-4,0.01962 0.01926,0.06482 0.04186,0.100389 0.03188,0.05027 0.105689,0.03607 0.330874,-0.0635 0.442014,-0.195482 0.744144,-0.159499 0.744144,0.08861 0,0.07114 0.02493,0.08695 0.09968,0.06323 0.13155,-0.04173 0.306723,0.05564 0.306723,0.170516 0,0.0868 0.0411,0.159086 0.09044,0.159086 0.0125,0 0.0078,-0.09975 -0.01056,-0.221671 z m 9.3055816,5.451374 c -0.1964688,-0.117247 -0.064278,-0.42595 0.2067553,-0.482836 0.074885,-0.0157 0.3418949,-0.0958 0.5933595,-0.177953 0.2514654,-0.08215 0.5149905,-0.149344 0.5856075,-0.149302 0.1777774,1.05e-4 0.3542121,0.135683 0.3542121,0.272194 0,0.158688 -0.093629,0.235885 -0.2860993,0.235885 -0.090295,0 -0.3429046,0.06575 -0.5613526,0.146102 -0.4783069,0.175944 -0.7727308,0.227379 -0.8924825,0.15591 z M 9.84814,63.438811 c -0.1861018,-0.186095 0.066864,-0.696462 0.30792,-0.621239 0.159184,0.04968 0.197473,0.122414 0.168542,0.320196 -0.04384,0.299864 -0.309689,0.467823 -0.476462,0.301043 z M 6.3428716,59.882745 c -0.074704,-0.07471 -0.078214,-0.242638 -0.00887,-0.424975 0.046582,-0.122589 0.094307,-0.785264 0.2518328,-3.498408 0.056858,-0.97962 0.1510121,-1.733612 0.2299188,-1.84152 0.067984,-0.09297 0.2984046,-0.105543 0.3993245,-0.02177 0.038415,0.03188 0.082841,0.131893 0.098725,0.222254 0.015878,0.09036 0.086956,0.495842 0.1579293,0.901069 0.1475034,0.842111 0.2379047,1.173118 0.3861556,1.413964 l 0.1043349,0.169501 0.1012583,-0.128737 c 0.055694,-0.0708 0.2631226,-0.409972 0.4609519,-0.753712 0.1978238,-0.343739 0.440001,-0.734803 0.5381599,-0.869027 0.1547126,-0.211554 0.1992943,-0.241996 0.3347725,-0.228605 0.3234771,0.03199 0.3699203,0.257531 0.5209975,2.53009 0.066595,1.001808 0.1038784,1.315917 0.1645024,1.385821 0.06813,0.07856 0.06966,0.125099 0.0118,0.355608 -0.0366,0.145869 -0.08928,0.293787 -0.117044,0.328713 -0.06698,0.08426 -0.3157246,0.08118 -0.3870718,-0.0046 -0.03234,-0.039 -0.078016,-0.458746 -0.1063901,-0.977922 -0.08412,-1.538917 -0.1610376,-2.570333 -0.1994371,-2.674137 -0.029476,-0.07976 -0.094516,0.0036 -0.3326187,0.426282 -0.5755448,1.021787 -0.8284518,1.258044 -1.1715671,1.094429 -0.1993231,-0.09508 -0.40773,-0.422593 -0.5648418,-0.887683 l -0.1076279,-0.31862 -0.031758,0.198483 c -0.017453,0.109168 -0.066324,0.83549 -0.108602,1.614047 -0.076381,1.406586 -0.129833,1.855355 -0.2362696,1.983606 -0.06944,0.08366 -0.3072488,0.08734 -0.3885838,0.006 z M 21.593697,59.582898 c -0.127371,-0.140744 -0.312043,-0.233035 -0.806111,-0.402867 -0.224623,-0.07722 -0.490677,-0.17587 -0.591223,-0.219236 -0.180305,-0.07777 -0.184268,-0.07689 -0.287856,0.06322 -0.13103,0.177229 -0.388397,0.301714 -0.763677,0.36939 -0.268452,0.04839 -0.321317,0.04045 -0.721488,-0.108568 -0.549333,-0.204571 -0.759439,-0.250326 -1.168419,-0.254447 -0.409488,-0.0041 -0.720297,-0.135642 -0.866027,-0.366448 -0.352992,-0.55907 0.361918,-2.581104 0.912576,-2.581104 0.291154,0 0.341381,0.241015 0.103185,0.495153 -0.319204,0.340583 -0.687041,1.36075 -0.618987,1.716737 0.03439,0.179843 0.149185,0.220111 0.774056,0.271493 0.412733,0.03392 0.62894,0.08166 0.955657,0.210958 l 0.422243,0.167089 0.274541,-0.08654 c 0.150994,-0.04757 0.286332,-0.105631 0.300757,-0.128964 0.01441,-0.02335 -0.155834,-0.148203 -0.378345,-0.277488 -0.421694,-0.245021 -0.53775,-0.406768 -0.40588,-0.565661 0.09358,-0.112746 0.03398,-0.0928 -0.249807,0.0836 -0.246421,0.15319 -0.260817,0.155998 -0.384381,0.07502 -0.23575,-0.154468 -0.139541,-0.361059 0.282498,-0.606587 0.613359,-0.356845 1.498807,0.01506 1.683952,0.707326 0.07015,0.262259 0.06807,0.260992 0.927829,0.565637 0.846581,0.299982 1.191588,0.591271 1.016607,0.858322 -0.09851,0.150341 -0.282626,0.156581 -0.4117,0.01395 z m -2.299664,-1.672924 c -0.06596,-0.05493 -0.145974,-0.09976 -0.177801,-0.09958 -0.03181,1.93e-4 0.01069,0.04576 0.09453,0.10127 0.194327,0.128695 0.238704,0.127797 0.08327,-0.0017 z m 8.248088,1.422621 c -0.634976,-0.244512 -1.654799,-0.927887 -1.936701,-1.297767 -0.219878,-0.288505 -0.205512,-0.64762 0.04372,-1.093295 0.354691,-0.634246 0.668232,-0.852297 1.339097,-0.931262 0.214857,-0.02528 0.281884,-0.01243 0.39371,0.07552 0.07467,0.05874 0.134765,0.157118 0.134765,0.220619 0,0.144321 -0.262101,0.544132 -0.473964,0.722977 -0.227501,0.19205 -0.74032,0.424974 -0.935762,0.425022 -0.531347,1.51e-4 0.343354,0.81935 1.392313,1.304002 0.642249,0.296735 0.876511,0.218938 0.91857,-0.30506 0.02335,-0.290571 0.01483,-0.334089 -0.07484,-0.382062 -0.161402,-0.08639 -0.242159,-0.35221 -0.241406,-0.79464 5.83e-4,-0.419785 0.135215,-1.08218 0.260466,-1.282724 0.0987,-0.158029 0.297833,-0.149214 0.407416,0.01803 0.07577,0.115653 0.15288,0.707735 0.166785,1.280769 0.0029,0.109577 0.02387,0.100843 0.308988,-0.127003 0.583541,-0.466399 0.794744,-0.531422 1.000969,-0.308183 0.219597,0.237724 0.369331,0.870849 0.369331,1.561655 0,0.373891 -0.02732,0.442932 -0.213229,0.539077 -0.135332,0.06998 -0.162249,0.06968 -0.273251,-0.0029 -0.140837,-0.09229 -0.156353,-0.211512 -0.04769,-0.366628 0.06281,-0.08967 0.06677,-0.178694 0.02364,-0.532013 -0.054,-0.442294 -0.133429,-0.754569 -0.191892,-0.754465 -0.0188,3.5e-5 -0.202961,0.138029 -0.409272,0.306659 -0.206311,0.168624 -0.414269,0.327552 -0.462131,0.353167 -0.06841,0.0366 -0.09413,0.147598 -0.120244,0.518862 -0.03811,0.541953 -0.09943,0.659125 -0.438838,0.838613 -0.270788,0.143195 -0.591211,0.147684 -0.94052,0.01319 z M 26.668727,56.6797 c 0.07845,-0.05498 0.132349,-0.110219 0.119793,-0.122776 -0.04834,-0.04834 -0.38413,0.132309 -0.439978,0.236668 -0.05546,0.103593 -0.05213,0.106278 0.05941,0.04793 0.06499,-0.03403 0.18233,-0.106823 0.260776,-0.161789 z m -15.067852,2.35135 c -0.334609,-0.06479 -0.781645,-0.583214 -0.893428,-1.036116 -0.05172,-0.209575 -0.04892,-0.265306 0.01856,-0.368309 0.154579,-0.235915 0.378188,-0.113226 0.478126,0.262339 0.07802,0.293175 0.372444,0.620312 0.59604,0.662261 0.16052,0.03012 0.200502,0.01308 0.379266,-0.161467 0.249504,-0.243638 0.327599,-0.48885 0.222668,-0.699184 -0.104574,-0.209621 -0.09384,-0.374806 0.0286,-0.440344 0.2624,-0.140429 0.505604,0.160205 0.505903,0.625361 2.15e-4,0.336547 -0.101072,0.568375 -0.377516,0.864042 -0.286368,0.306274 -0.517879,0.37668 -0.958261,0.291417 z m 2.021779,-0.03479 c -0.239026,-0.06651 -0.375199,-0.356198 -0.215909,-0.459295 0.03491,-0.02259 0.318638,-0.0411 0.630469,-0.0411 0.311832,0 0.584539,-0.01745 0.606015,-0.03876 0.0628,-0.06231 -0.09802,-0.345415 -0.397182,-0.699188 -0.419318,-0.495867 -0.554773,-0.760134 -0.585438,-1.142221 -0.02884,-0.359542 -5.02e-4,-0.428063 0.327476,-0.791089 0.183014,-0.202576 0.348666,-0.252014 0.462621,-0.138059 0.106956,0.106956 0.06633,0.264845 -0.138216,0.537062 -0.187158,0.249084 -0.196025,0.276601 -0.146914,0.455845 0.07198,0.262708 0.08415,0.282048 0.512253,0.814919 0.208454,0.259462 0.400084,0.545217 0.425833,0.63501 0.05887,0.205254 0.175262,0.210759 0.229335,0.01086 0.04647,-0.171882 0.02242,-0.351095 -0.115719,-0.862116 -0.109997,-0.406878 -0.09123,-0.521423 0.09306,-0.567674 0.205378,-0.05155 0.283607,0.03801 0.410533,0.469814 0.19532,0.664524 0.1457,1.335232 -0.111369,1.50531 -0.08349,0.05522 -0.358455,0.0467 -0.418121,-0.01296 -0.03526,-0.03526 -0.07199,-0.01413 -0.114838,0.0659 -0.03468,0.06475 -0.10978,0.146937 -0.166959,0.182644 -0.108631,0.06785 -1.1042,0.125918 -1.286927,0.07507 z m -29.747903,-1.240934 c -0.05802,-0.05802 -0.09232,-0.139921 -0.0762,-0.181957 0.01612,-0.04203 0.0293,-0.09799 0.0293,-0.124334 0,-0.02633 0.05143,-0.06766 0.1143,-0.09181 0.07791,-0.02994 0.143394,-0.130622 0.205652,-0.316251 0.169984,-0.506789 0.246742,-0.644293 0.393586,-0.705119 0.08349,-0.03456 0.191519,-0.0425 0.260636,-0.01909 0.06492,0.02195 0.282806,0.04121 0.484173,0.04273 l 0.366132,0.0029 0.10635,-0.291675 c 0.05849,-0.160416 0.156633,-0.326723 0.218085,-0.36957 0.373319,-0.260274 0.744103,-0.481774 0.806489,-0.481774 0.111551,0 0.194257,0.108228 0.194257,0.254196 0,0.15824 -0.260262,0.429067 -0.488925,0.508779 -0.163061,0.05686 -0.206737,0.121586 -0.344837,0.511155 -0.04535,0.127995 -0.131089,0.284874 -0.19048,0.34862 -0.09211,0.09888 -0.138625,0.110698 -0.316583,0.08049 -0.114732,-0.01949 -0.359811,-0.03917 -0.544616,-0.04384 l -0.33601,-0.0084 -0.141888,0.371613 c -0.07804,0.204384 -0.18567,0.427269 -0.239183,0.495306 -0.122251,0.15542 -0.354579,0.163854 -0.500267,0.01816 z m 3.305996,-0.554885 c -0.05587,-0.05587 -0.101602,-0.127136 -0.101602,-0.158344 0,-0.08237 0.393177,-0.451267 0.480963,-0.451267 0.04092,0 0.355245,-0.213521 0.698454,-0.474496 0.939451,-0.714348 1.381839,-0.968417 2.4020477,-1.379516 0.2514654,-0.101329 0.5943762,-0.250619 0.7620193,-0.331749 0.8118775,-0.392928 1.4164332,-0.532089 2.3114438,-0.532089 0.7579149,0 1.075012,0.05883 1.5494255,0.287437 0.8056488,0.388227 1.187081,0.624859 2.0309601,1.259985 0.3067526,0.230871 0.6084616,0.43905 0.6704566,0.462622 0.062001,0.02358 0.1508427,0.101031 0.1974265,0.172127 0.078568,0.11991 0.078673,0.138473 0.00175,0.256275 -0.1597801,0.243859 -0.3082354,0.182891 -1.2103849,-0.497069 -0.4553946,-0.343243 -0.9990653,-0.710846 -1.2081607,-0.816898 -0.2091018,-0.106051 -0.4144675,-0.222458 -0.4563819,-0.258679 -0.3270728,-0.282697 -1.1616119,-0.428998 -1.9837572,-0.347773 -0.5870851,0.05802 -0.6910808,0.09134 -0.543169,0.174122 0.106682,0.0597 0.1181646,0.312194 0.01798,0.395338 -0.038761,0.03217 -0.2011969,0.08593 -0.3609423,0.119425 -0.2851885,0.05982 -0.2925614,0.05847 -0.4067445,-0.07427 -0.063963,-0.07437 -0.1266691,-0.165314 -0.1393485,-0.202115 -0.017161,-0.04979 -0.1063783,-0.02522 -0.3482755,0.09586 -0.1788746,0.08952 -0.5013066,0.231733 -0.7165208,0.316022 -0.586681,0.229784 -1.3673502,0.628408 -1.5724132,0.802905 -0.07264,0.0618 -0.07491,0.08921 -0.0167,0.201414 0.09692,0.186819 0.0083,0.34158 -0.258669,0.45167 -0.166978,0.06886 -0.228518,0.125641 -0.25199,0.232516 -0.07415,0.337581 -0.532456,0.506584 -0.800973,0.295369 l -0.130674,-0.102788 -0.168286,0.102595 c -0.212131,0.129338 -0.319397,0.129671 -0.447683,0.0012 z M 11.42297,56.479072 c -0.07686,-0.07686 -0.07836,-0.267868 -0.0035,-0.41229 0.116062,-0.223124 0.50227,-0.633353 0.67216,-0.713976 0.226778,-0.107609 0.658799,-0.10929 0.765119,-0.0029 0.19536,0.195354 0.03333,0.428179 -0.297955,0.428179 -0.267536,0 -0.410083,0.103962 -0.661135,0.482189 -0.190036,0.286303 -0.338905,0.354902 -0.474949,0.218863 z m 3.489483,-0.58245 c -0.04501,-0.01197 -0.107972,-0.07912 -0.139933,-0.149273 -0.105654,-0.231885 0.09826,-0.426539 0.44682,-0.426539 0.15344,0 0.409949,0.171053 0.409949,0.27338 0,0.133389 -0.144884,0.256169 -0.311937,0.264348 -0.09386,0.0046 -0.204963,0.01991 -0.24687,0.03409 -0.04191,0.01413 -0.113022,0.01593 -0.158029,0.0041 z m -20.1242608,-0.06898 c -0.1173117,-0.07214 -0.2413078,-0.317313 -0.2413078,-0.477122 0,-0.241821 0.3412701,-0.297144 0.4603562,-0.07463 0.036424,0.06809 0.085066,0.09069 0.1504345,0.06994 0.1547134,-0.04909 0.3036293,0.06103 0.3036293,0.224547 0,0.07941 -0.030876,0.170025 -0.06863,0.20135 -0.099647,0.08269 -0.5006236,0.119781 -0.6044857,0.05592 z M -12.054689,54.53647 c -0.07934,-0.09561 -0.04892,-0.338316 0.04827,-0.385151 0.563939,-0.271733 0.986444,-0.505772 1.193823,-0.661292 0.767746,-0.575754 0.9704612,-0.621671 1.4217232,-0.322052 0.2206662,0.14651 0.305912,0.176819 0.4183263,0.148735 0.077655,-0.01938 0.3469324,-0.05645 0.5983977,-0.0824 0.2514646,-0.02592 0.6253901,-0.08141 0.8309486,-0.123335 0.2055579,-0.04191 0.4306375,-0.07621 0.5001689,-0.07621 0.069534,0 0.187106,-0.04197 0.261272,-0.09333 0.2289085,-0.158443 0.2993039,-0.161269 0.6962646,-0.02796 0.2814462,0.09453 0.4372164,0.120271 0.5808847,0.096 0.2598824,-0.0439 0.4071238,0.03712 0.4071238,0.224051 0,0.07942 -0.035668,0.174007 -0.079281,0.210193 -0.142909,0.118608 -0.5780182,0.118748 -0.928903,3.86e-4 -0.3209842,-0.108351 -0.3232668,-0.108397 -0.533408,-0.01074 -0.1295702,0.06021 -0.534634,0.140265 -1.0492567,0.207344 -0.4610219,0.0601 -0.9357037,0.131241 -1.054848,0.1581 -0.3531847,0.07961 -0.4848802,0.05826 -0.7958304,-0.128964 -0.1624005,-0.09779 -0.3158185,-0.177807 -0.3409255,-0.177807 -0.06154,0 -0.3786592,0.204829 -0.6278482,0.405524 -0.111766,0.09 -0.332584,0.22919 -0.490711,0.309286 -0.158129,0.0801 -0.372776,0.203492 -0.477,0.274221 -0.210089,0.14257 -0.485026,0.168898 -0.579169,0.05545 z m 7.5619356,-0.517307 c -0.072517,-0.04618 -0.1593307,-0.127989 -0.1929146,-0.181765 -0.1288761,-0.206359 0.094346,-0.45515 0.3064958,-0.341609 0.066018,0.03531 0.2038188,0.04559 0.3507857,0.0261 0.3772996,-0.05003 0.5450477,0.05773 0.5068992,0.325719 -0.015353,0.107913 -0.022941,0.111971 -0.2922517,0.15664 -0.1332896,0.02213 -0.3109266,0.05341 -0.3947481,0.06956 -0.098294,0.01892 -0.1992251,-3.86e-4 -0.2842663,-0.05464 z"
       id="path953" />
  </g>
</svg>
