<?xml version="1.0" encoding="UTF-8" standalone="no"?>
<!-- Created with Inkscape (http://www.inkscape.org/) -->

<svg
   width="43.228806mm"
   height="12.206357mm"
   viewBox="0 0 43.228803 12.206358"
   version="1.1"
   id="svg5"
   inkscape:version="1.1.1 (3bf5ae0d25, 2021-09-20)"
   sodipodi:docname="open_marriage.svg"
   xmlns:inkscape="http://www.inkscape.org/namespaces/inkscape"
   xmlns:sodipodi="http://sodipodi.sourceforge.net/DTD/sodipodi-0.dtd"
   xmlns="http://www.w3.org/2000/svg"
   xmlns:svg="http://www.w3.org/2000/svg">
  <sodipodi:namedview
     id="namedview7"
     pagecolor="#ffffff"
     bordercolor="#666666"
     borderopacity="1.0"
     inkscape:pageshadow="2"
     inkscape:pageopacity="0.0"
     inkscape:pagecheckerboard="0"
     inkscape:document-units="mm"
     showgrid="false"
     fit-margin-top="0"
     fit-margin-left="0"
     fit-margin-right="0"
     fit-margin-bottom="0"
     inkscape:zoom="1.0104048"
     inkscape:cx="-20.783749"
     inkscape:cy="-19.299196"
     inkscape:window-width="1920"
     inkscape:window-height="991"
     inkscape:window-x="-9"
     inkscape:window-y="-9"
     inkscape:window-maximized="1"
     inkscape:current-layer="layer1" />
  <defs
     id="defs2" />
  <g
     inkscape:label="Capa 1"
     inkscape:groupmode="layer"
     id="layer1"
     transform="translate(9.6273466,3.1070428)">
    <path
       style="fill:#000000;stroke-width:0.0342962"
       d="m 16.266381,9.0547292 c -0.381571,-0.09317 -0.558242,-0.207856 -0.982688,-0.637894 -0.233541,-0.236619 -0.438975,-0.478305 -0.487362,-0.573365 -0.046,-0.09038 -0.121529,-0.199654 -0.167833,-0.242829 -0.08403,-0.07835 -0.08418,-0.07974 -0.07851,-0.720222 0.0051,-0.575107 0.01363,-0.661917 0.08226,-0.836261 0.200856,-0.510205 0.680419,-0.616422 1.333907,-0.295445 0.435523,0.213917 0.575226,0.446404 0.433241,0.720974 -0.07036,0.136056 -0.59883,0.641462 -0.899053,0.859812 -0.125705,0.09142 -0.233865,0.180983 -0.240354,0.199021 -0.0189,0.05251 0.155262,0.265884 0.469743,0.575507 0.274309,0.270069 0.439557,0.376498 0.66672,0.429403 l 0.09577,0.0223 -0.02718,-0.404001 c -0.04144,-0.615937 -0.03391,-1.108272 0.01885,-1.23328 0.09937,-0.235423 0.452296,-0.276098 1.085742,-0.125135 0.243383,0.058 0.458164,0.08766 0.605246,0.08358 0.2099,-0.0058 0.233706,9.08e-4 0.300092,0.08534 0.130099,0.165392 0.08126,0.315731 -0.139081,0.428142 -0.117403,0.0599 -0.17407,0.06766 -0.347177,0.04756 -0.11378,-0.0132 -0.257697,-0.04524 -0.319815,-0.0712 -0.135071,-0.05644 -0.695486,-0.150472 -0.714397,-0.119873 -0.0073,0.01182 1.03e-4,0.183373 0.01648,0.381216 0.01637,0.197843 0.03044,0.526238 0.03127,0.729766 0.0012,0.307853 -0.01037,0.393316 -0.06912,0.508465 -0.112742,0.220992 -0.3077,0.276082 -0.666756,0.188407 z m -0.660206,-2.52072 c 0.127327,-0.123685 0.231502,-0.23403 0.231502,-0.245212 0,-0.02034 -0.291825,-0.145048 -0.437279,-0.18687 -0.119674,-0.03441 -0.211243,0.01146 -0.260894,0.130691 -0.05629,0.135167 -0.09988,0.540371 -0.07065,0.656801 l 0.02172,0.08654 0.142055,-0.108536 c 0.07813,-0.05969 0.24623,-0.209733 0.373554,-0.333416 z m 4.648496,2.52167 c -0.07684,-0.05838 -0.133616,-0.211212 -0.106739,-0.287334 0.01171,-0.03317 0.0526,-0.09509 0.09087,-0.137599 0.107094,-0.118968 0.156426,-0.523496 0.158467,-1.299474 0.002,-0.771033 0.01551,-0.73141 -0.249636,-0.7337 -0.188671,-0.0017 -0.834577,-0.144651 -0.970015,-0.214787 -0.102082,-0.05286 -0.218976,-0.23535 -0.218976,-0.341851 0,-0.08012 0.128314,-0.221279 0.222679,-0.244963 0.08712,-0.02187 0.291765,0.05722 0.291765,0.112758 0,0.02562 0.356778,0.102051 0.750828,0.160838 l 0.150643,0.02248 -0.02009,-0.23534 c -0.105041,-1.230658 -0.239794,-1.919196 -0.406451,-2.076831 -0.26624,-0.251827 0.07642,-0.697737 0.375306,-0.48839 0.231904,0.162431 0.433232,1.038982 0.544981,2.372752 0.01145,0.136757 0.02811,0.248648 0.037,0.248648 0.0089,0 0.08972,-0.02612 0.179616,-0.05805 0.154361,-0.05483 0.168524,-0.05472 0.254782,0.0017 0.05024,0.03292 0.106238,0.09905 0.124454,0.146957 0.05532,0.145485 -0.02542,0.255067 -0.286907,0.389449 l -0.233578,0.120037 -0.0104,0.805963 c -0.01477,1.144366 -0.09919,1.567382 -0.344955,1.728414 -0.100559,0.06589 -0.252812,0.06965 -0.333643,0.0082 z m 3.351115,-0.07313 c -0.56023,-0.152819 -0.781906,-0.360203 -1.013743,-0.948381 -0.05888,-0.149396 -0.0636,-0.193721 -0.02936,-0.276367 0.0462,-0.111554 0.125742,-0.164404 0.247411,-0.164404 0.131255,0 0.250443,0.119564 0.314542,0.315534 0.131456,0.401903 0.40704,0.5708 0.944153,0.578645 0.381344,0.0055 0.561379,-0.05354 0.764598,-0.251049 0.257431,-0.250194 0.379515,-0.616954 0.301639,-0.906164 -0.08021,-0.297861 -0.51178,-0.742225 -0.744875,-0.76695 -0.222552,-0.0236 -0.31035,0.0036 -0.446403,0.138302 -0.113049,0.111928 -0.151692,0.186175 -0.20974,0.402981 -0.03914,0.146176 -0.08193,0.349293 -0.0951,0.451369 -0.04121,0.319533 -0.262406,0.445648 -0.450948,0.257106 -0.0833,-0.0833 -0.08765,-0.103741 -0.06912,-0.32478 0.02252,-0.268627 0.137148,-0.706773 0.235615,-0.900597 0.0815,-0.160429 0.33588,-0.409174 0.504049,-0.492886 0.09256,-0.04607 0.20379,-0.06191 0.433201,-0.06167 0.288436,3.08e-4 0.322156,0.008 0.514445,0.117977 0.606732,0.34691 0.977166,1.025742 0.871541,1.597122 -0.0825,0.446307 -0.472447,1.001182 -0.795089,1.131387 -0.391369,0.157939 -0.919007,0.200433 -1.276819,0.102828 z M 5.8552269,8.7317072 c -0.319345,-0.118258 -0.484178,-0.275792 -0.640662,-0.61229 -0.115779,-0.248972 -0.130168,-0.591197 -0.03106,-0.738643 0.06467,-0.09621 0.267541,-0.233228 0.345313,-0.233228 0.02785,0 0.05208,-0.06228 0.06427,-0.165156 0.05205,-0.439492 0.409169,-0.932325 0.675583,-0.932325 0.106439,0 0.311536,0.115809 0.435032,0.245642 0.149322,0.156983 0.484437,0.852162 0.512397,1.062943 0.01983,0.149417 0.03717,0.177635 0.146455,0.238213 0.06818,0.0378 0.216571,0.129263 0.32975,0.203259 0.303867,0.198671 0.608676,0.370885 0.733391,0.41436 0.09055,0.03156 0.120808,0.02856 0.171151,-0.017 0.03364,-0.03044 0.110099,-0.05535 0.169916,-0.05535 0.222102,0 0.320096,0.245391 0.177797,0.44523 -0.07246,0.10176 -0.289722,0.206398 -0.428552,0.206398 -0.149394,0 -0.449883,-0.134923 -0.881342,-0.395733 -0.23238,-0.140474 -0.432413,-0.255516 -0.444513,-0.255651 -0.01211,-1.43e-4 -0.03096,0.03541 -0.0419,0.079 -0.04031,0.160619 -0.220255,0.357956 -0.411897,0.451717 -0.244363,0.119557 -0.644651,0.14618 -0.881137,0.0586 z m 0.629754,-0.527952 c 0.08573,-0.03305 0.195585,-0.179215 0.195585,-0.260234 0,-0.03295 -0.25053,-0.09253 -0.540113,-0.128443 -0.099,-0.01228 -0.230688,-0.05672 -0.292638,-0.09876 -0.194889,-0.132254 -0.256395,-0.03247 -0.131195,0.212838 0.15413,0.30199 0.436004,0.402729 0.768361,0.274603 z m 0.08672,-1.088039 c -0.05772,-0.130684 -0.148249,-0.288875 -0.201171,-0.351537 l -0.09623,-0.11393 -0.07148,0.159824 c -0.153597,0.343427 -0.127764,0.471925 0.09611,0.478076 0.06843,0.0019 0.162996,0.01577 0.210152,0.03088 0.164831,0.05278 0.169311,0.03824 0.06262,-0.20331 z m 4.1988671,1.610459 c -0.33691,-0.152932 -0.619672,-0.489988 -0.8352211,-0.995593 -0.212891,-0.499376 -0.261021,-0.778577 -0.4434,-2.572221 -0.05658,-0.556458 -0.112189,-1.070564 -0.123571,-1.142459 -0.0278,-0.175602 0.07966,-0.297986 0.261669,-0.297986 0.173405,0 0.277655,0.116443 0.297463,0.332254 0.0083,0.09077 0.03051,0.303943 0.04929,0.47371 0.01876,0.169766 0.05701,0.555599 0.08497,0.857407 0.02795,0.301807 0.06585,0.708203 0.08421,0.903102 0.04643,0.492894 0.121051,0.831982 0.256889,1.16741 0.139497,0.344466 0.315816,0.609293 0.48013,0.721138 l 0.120824,0.08225 0.08892,-0.08225 c 0.14281,-0.132095 0.223336,-0.358891 0.243102,-0.68469 0.01527,-0.251671 0.0071,-0.318036 -0.05678,-0.463 -0.07366,-0.167077 -0.40798,-0.700813 -0.43898,-0.700813 -0.0088,0 -0.05523,0.03087 -0.10319,0.06859 -0.11349,0.08927 -0.264901,0.08742 -0.356687,-0.0044 -0.0627,-0.06269 -0.07045,-0.100687 -0.05509,-0.27001 0.0442,-0.487355 0.424732,-0.613689 0.801748,-0.266168 0.358203,0.330179 0.765165,1.109469 0.765863,1.466546 0.0011,0.513318 -0.201456,1.074355 -0.465889,1.291038 -0.233652,0.19146 -0.418291,0.224128 -0.656258,0.11611 z m -15.2877435,-0.05985 c -0.037728,-0.0091 -0.1018542,-0.04723 -0.1425045,-0.08469 -0.069834,-0.06434 -0.078705,-0.06495 -0.1607584,-0.01119 -0.1288065,0.0844 -0.3753844,0.08457 -0.4684723,3.09e-4 -0.062985,-0.057 -0.073028,-0.09532 -0.060168,-0.229437 0.015104,-0.157214 0.00912,-0.169147 -0.2535692,-0.505966 -0.147979,-0.189722 -0.3713279,-0.525107 -0.4963305,-0.745297 -0.1250094,-0.22019 -0.2761879,-0.478678 -0.3359607,-0.574417 -0.059798,-0.09574 -0.1911137,-0.351554 -0.2918643,-0.568479 -0.1007567,-0.216924 -0.1954602,-0.407977 -0.2104588,-0.424564 -0.015101,-0.01674 -0.1007998,0.01441 -0.1926057,0.07006 -0.2483286,0.150528 -0.4405273,0.200677 -0.7510278,0.195956 -0.2440314,-0.0037 -0.3057591,-0.01863 -0.5182341,-0.125262 -0.5054363,-0.253662 -0.887213,-0.617286 -1.0995154,-1.04724 l -0.1287014,-0.26063 0.00121,-0.447396 c 0.00121,-0.412901 0.00993,-0.470703 0.1096953,-0.7497 0.1287513,-0.360081 0.2476757,-0.548539 0.5325798,-0.843987 0.1554258,-0.161173 0.2787027,-0.250912 0.4593791,-0.334389 0.135822,-0.06275 0.2672484,-0.114334 0.2920678,-0.114622 0.1247621,-0.0015 0.1375357,-0.04916 0.083428,-0.311667 -0.087385,-0.423983 -0.1273948,-1.19957104 -0.088458,-1.71472004 0.058133,-0.768945 0.1461293,-1.18165196 0.3374216,-1.58245096 0.1535336,-0.321686 0.3259553,-0.516375 0.6354692,-0.717533 0.1942762,-0.126261 0.214318,-0.131621 0.4922437,-0.131621 0.2656582,0 0.3136938,0.01124 0.5783035,0.135233 0.346342,0.162302 0.7801994,0.463432 0.9218964,0.639858 0.1104046,0.137474 0.1456732,0.191427 0.4148759,0.634726 0.096139,0.158319 0.2169871,0.34958096 0.2685429,0.42503396 0.1294353,0.189435 0.4347202,0.839977 0.5351318,1.140351 0.045743,0.136757 0.092743,0.248648 0.1045111,0.248648 0.034276,0 0.3146492,-0.36342 0.4033478,-0.52285 0.044633,-0.08026 0.1007691,-0.169077 0.1247007,-0.197371 0.023919,-0.02829 0.1112245,-0.167195 0.1939802,-0.308667 0.2342608,-0.400495 0.4948142,-0.76995496 0.6132886,-0.86964396 0.1878771,-0.158088 0.5591496,-0.360202 0.7369536,-0.401185 0.2804102,-0.06463 0.93984808,-0.07339 1.05877238,-0.01407 0.05536,0.02763 0.1397489,0.05023 0.1874888,0.05023 0.2525208,0 0.6842449,0.185643 0.8548423,0.367584 0.1838392,0.196067 0.2280405,0.34268496 0.2407276,0.79848896 0.011466,0.411255 0.00623,0.450295 -0.1283565,0.959127 -0.077164,0.291733 -0.1769223,0.61041104 -0.2216785,0.70817304 -0.044756,0.09776 -0.091066,0.22185 -0.1029021,0.275749 -0.020282,0.09235 -0.0117749973,0.101467 0.1479603,0.158194 0.2044048,0.0726 0.5413008,0.319424 0.6767819,0.495844 0.1151921,0.149968 0.23981572,0.385676 0.43114272,0.815395 0.4353138,0.97772 0.4377039,1.691722 0.00691,2.070907 -0.081594,0.07182 -0.2607833,0.185717 -0.39820322,0.253103 -0.2414982,0.118424 -0.2699208,0.123904 -0.8500393,0.163864 -0.5652898,0.03894 -1.17978658,0.03196 -1.37184958,-0.01559 -0.078348,-0.0194 -0.095418,-0.0012 -0.1979812,0.210839 -0.061734,0.127635 -0.2189907,0.386399 -0.3494554,0.575028 -0.1304586,0.18863 -0.2381446,0.355615 -0.2392913,0.37108 -0.010726,0.144887 -0.8440785,1.002774 -1.2171019,1.252976 -0.2477184,0.166159 -0.5654006,0.468414 -0.6638889,0.631653 -0.057455,0.09525 -0.2946075,0.234258 -0.3869063,0.226793 -0.027063,-0.0021 -0.080055,-0.01145 -0.1177838,-0.02057 z m -0.018864,-0.55882 c 0.064273,-2.42e-4 0.1431457,-0.06196 0.2975174,-0.232822 0.1155275,-0.12787 0.3316022,-0.315304 0.4801482,-0.416521 0.344684,-0.234857 1.0754235,-0.964815 1.1902483,-1.188978 0.047222,-0.09222 0.1723296,-0.291146 0.2779689,-0.442049 0.2252722,-0.321781 0.3762532,-0.617377 0.3501208,-0.685479 -0.010172,-0.02654 -0.1027418,-0.08678 -0.205681,-0.133865 -0.102939,-0.04709 -0.3572292,-0.20133 -0.5650801,-0.342766 -0.448634,-0.305271 -0.589024,-0.380543 -0.9360012,-0.501839 -0.1437745,-0.05026 -0.3058275,-0.122195 -0.3601143,-0.159856 -0.1270496,-0.08814 -0.2187442,-0.120834 -0.2187442,-0.078 0,0.01857 -0.053695,0.05937 -0.1192757,0.09065 -0.098833,0.04713 -0.1412962,0.05012 -0.2478109,0.01743 l -0.1285413,-0.03946 -0.4123853,0.406667 c -0.4394421,0.433338 -0.6855458,0.612745 -1.0572618,0.770726 -0.275417,0.117054 -0.2776609,0.06706 0.03095,0.690086 0.3234087,0.652864 0.7023074,1.289729 0.9670899,1.625522 0.127968,0.162288 0.2937692,0.382413 0.3684428,0.489165 0.083637,0.119561 0.1482933,0.182119 0.1683595,0.162908 0.017939,-0.01715 0.071937,-0.03134 0.1200341,-0.03152 z m -2.8582586,-2.987317 0.2807862,-0.141057 -0.096213,-0.279072 c -0.052891,-0.15349 -0.1375054,-0.387106 -0.1879764,-0.519146 -0.050492,-0.132041 -0.099795,-0.270941 -0.109609,-0.308667 -0.00981,-0.03773 -0.085493,-0.284659 -0.1681623,-0.54874 -0.082676,-0.264081 -0.1837904,-0.588181 -0.2247054,-0.720222 -0.040937,-0.132041 -0.077695,-0.244475 -0.08172,-0.249855 -0.00431,-0.0054 -0.097317,0.02389 -0.2073085,0.06504 -0.3288279,0.123029 -0.6555541,0.472311 -0.8019179,0.857269 -0.1814594,0.477257 -0.1725019,0.868725 0.027311,1.192329 0.1500997,0.24313 0.4948325,0.55109 0.7738741,0.691319 0.2889486,0.145211 0.4437646,0.137584 0.7956734,-0.0392 z m 7.42138298,-0.21536 c 0.5412664,-0.04827 0.6161706,-0.07342 0.8577897,-0.288087 L 1.0388264,4.4799652 1.0358664,4.1589602 C 1.0334564,3.9034262 1.0136364,3.7819972 0.9385044,3.5635852 0.8041947,3.1731372 0.488559,2.5465742 0.3596108,2.4144202 0.2289057,2.2804672 0.0181326,2.1427652 -0.1143666,2.1047642 c -0.092052,-0.0264 -0.098593,-0.01993 -0.1683533,0.16652 -0.039947,0.106693 -0.084278,0.209608 -0.098574,0.2287 -0.04938,0.06593 -0.3423537,0.824318 -0.4175144,1.08075 -0.1033769,0.3527 -0.2465533,0.765736 -0.353592,1.02006 -0.049195,0.116896 -0.089463,0.225458 -0.089463,0.241248 0,0.109332 0.4804134,0.133102 1.268966,0.06279 z M -6.0068993,4.4633862 c 0.091596,-0.06139 0.3681958,-0.311154 0.6146755,-0.555033 0.3907162,-0.386597 0.4417911,-0.449764 0.3985947,-0.492962 -0.027248,-0.02725 -0.1086353,-0.05424 -0.1808493,-0.05996 -0.1849613,-0.01467 -0.3002052,-0.15125 -0.2727104,-0.323179 0.017569,-0.109735 0.00641,-0.137552 -0.090881,-0.226347 -0.2623657,-0.239544 -0.5598466,-0.394142 -1.0277823,-0.534136 -0.3028744,-0.09061 -0.3686278,-0.09895 -0.6123634,-0.07769 -0.2575578,0.02246 -0.2717984,0.02795 -0.2509804,0.09648 0.012143,0.03997 0.050613,0.165261 0.085524,0.278439 0.034892,0.113178 0.1270861,0.414128 0.2048671,0.668777 0.077781,0.25465 0.2248968,0.690353 0.3269169,0.968229 0.1020208,0.277875 0.185491,0.520304 0.185491,0.538732 0,0.04493 0.4115598,-0.141975 0.619497,-0.281345 z m 4.579046,-0.674111 c 0.083422,-0.253129 0.1516839,-0.474234 0.1516839,-0.491345 0,-0.04467 0.28130398,-0.755563 0.40752748,-1.029889 0.058812,-0.127797 0.1069153,-0.247405 0.1069153,-0.265796 0,-0.05098 -0.50894378,-0.04007 -0.72159098,0.01547 -0.2063591,0.0539 -0.7413675,0.291187 -0.8847968,0.392421 -0.050181,0.03544 -0.2764771,0.161608 -0.5028346,0.280385 -0.4228777,0.221898 -0.7665383,0.435306 -1.0564483,0.656042 l -0.075328,0.05735 0.102822,0.03935 c 0.056531,0.02164 0.1260076,0.06032 0.1543347,0.08595 0.028358,0.02563 0.167256,0.08489 0.3087311,0.131675 0.2993359,0.099 0.5030134,0.204207 0.8384994,0.433134 0.3408433,0.232584 0.5271237,0.34762 0.7025851,0.433871 l 0.1520846,0.07476 0.082065,-0.176577 c 0.045126,-0.09712 0.1503215,-0.383685 0.2337491,-0.636815 z m -2.7978012,-0.896476 c 0.1037467,-0.07588 0.2272145,-0.162775 0.2743687,-0.193102 0.04716,-0.03032 0.1474796,-0.09705 0.22293,-0.14827 0.075451,-0.05122 0.3325948,-0.194866 0.5714237,-0.31921 0.238835,-0.124344 0.5166313,-0.278186 0.6173326,-0.34187 0.2575081,-0.162851 0.7838983,-0.36726 1.0766934,-0.418105 0.1436327,-0.02494 0.3839041,-0.03589 0.57187368,-0.02606 l 0.3241676,0.01696 0.1591371,-0.407369 c 0.1888819,-0.48352804 0.3662975,-1.18756704 0.3660324,-1.45254604 -2.219e-4,-0.311247 -0.048887,-0.427308 -0.228546,-0.546322 -0.087114,-0.0577 -0.2140404,-0.11308596 -0.2820623,-0.12307696 -0.068028,-0.01 -0.1931357,-0.036 -0.2780182,-0.05778 -0.084883,-0.02179 -0.33475868,-0.03872 -0.55527818,-0.03762 l -0.4009497,0.002 -0.2119074,0.128725 c -0.2632906,0.15994396 -0.3892859,0.29606296 -0.6177826,0.66744596 -0.098673,0.160379 -0.2344704,0.376482 -0.301771,0.480229 -0.0673,0.103746 -0.1536936,0.245226 -0.1919829,0.3144 -0.038283,0.06917 -0.1467891,0.222745 -0.2411037,0.34127 -0.2603994,0.32724204 -0.4242154,0.61137004 -0.4494293,0.77951604 -0.029468,0.196316 -0.1136412,0.279628 -0.2826233,0.279628 -0.1920322,0 -0.2482671,-0.08045 -0.2808171,-0.401733 -0.028542,-0.28155 -0.1395947,-0.75886304 -0.2199462,-0.94518804 -0.026262,-0.06087 -0.081899,-0.187838 -0.1236589,-0.282153 -0.041735,-0.09431 -0.1053556,-0.239769 -0.1413208,-0.323232 -0.035941,-0.08346 -0.1321971,-0.25323 -0.2138616,-0.37726 -0.081658,-0.124029 -0.1682609,-0.26409 -0.1924453,-0.311248 -0.057517,-0.11219 -0.391906,-0.61430596 -0.470032,-0.70582696 -0.073749,-0.08639 -0.4796614,-0.350034 -0.7035406,-0.456954 -0.3135456,-0.149739 -0.589887,-0.07826 -0.8396025,0.217179 -0.324371,0.383763 -0.510652,1.51562896 -0.4262935,2.59020996 0.021516,0.27440104 0.058504,0.57501304 0.082146,0.66802604 l 0.042972,0.169117 0.2400747,-0.01382 c 0.1320362,-0.0076 0.3211776,-0.01082 0.4203069,-0.0071 0.2483779,0.0092 0.8210345,0.191301 1.1916164,0.378953 0.272957,0.138216 0.3602499,0.208397 0.7545232,0.606604 0.3327304,0.336053 0.4589045,0.443113 0.4972924,0.421961 0.028296,-0.01559 0.1363275,-0.09043 0.2400742,-0.166307 z m 17.4340675,5.678844 c -0.124758,-0.08738 -0.128254,-0.207099 -0.01295,-0.443773 0.165754,-0.340244 0.13742,-0.667383 -0.120562,-1.391878 -0.134209,-0.376896 -0.141804,-0.467655 -0.04753,-0.567997 0.103728,-0.110411 0.268321,-0.111744 0.370481,-0.003 0.07826,0.08331 0.267991,0.582191 0.372356,0.979089 0.03764,0.143133 0.0594,0.352519 0.05918,0.569354 -2.2e-4,0.302122 -0.01167,0.367454 -0.09549,0.548639 -0.05232,0.113122 -0.127796,0.240447 -0.16772,0.282945 -0.08462,0.09007 -0.249635,0.102349 -0.357748,0.02662 z m -0.240064,-3.37834 c -0.07238,-0.03426 -0.173612,-0.07177 -0.224964,-0.08333 -0.226069,-0.05093 -0.309459,-0.32357 -0.148266,-0.484761 0.151035,-0.151035 0.419929,-0.09733 0.661762,0.132164 0.262013,0.248647 0.03628,0.589694 -0.288532,0.435928 z M 6.3310009,2.6848352 c -0.06079,-0.02271 -0.122322,-0.09466 -0.180055,-0.210518 -0.133656,-0.268208 -0.112214,-0.43081 0.07028,-0.532937 0.146255,-0.08185 0.146766,-1.24858704 0.0011,-2.28757104 -0.121553,-0.86640496 -0.166946,-1.34336596 -0.171876,-1.80598896 -0.004,-0.37879 1.06e-4,-0.404519 0.07889,-0.488721 0.160254,-0.171313 0.362593,-0.10557 0.524768,0.1705 0.03254,0.0554 0.120029,0.193329 0.194415,0.306506 0.07438,0.113178 0.247455,0.390978 0.384601,0.617333 0.382976,0.63209396 0.573577,0.91074996 0.746659,1.09159896 0.150209,0.15695 0.302621,0.263105 0.377752,0.263105 0.06751,0 0.436358,-0.375683 0.620991,-0.632505 0.103747,-0.14431 0.261336,-0.35812296 0.3502,-0.47514296 0.08886,-0.117017 0.20163,-0.266775 0.250591,-0.332797 0.4895741,-0.660147 0.5614671,-0.731654 0.7356011,-0.731654 0.227355,0 0.30148,0.09 0.471568,0.572581 0.07704,0.218572 0.08945,0.325692 0.1158,0.99933196 0.03495,0.893505 0.08643,1.58579 0.152988,2.05777804 0.0266,0.18863 0.04865,0.44784 0.04899,0.576021 4.41e-4,0.202181 -0.01053,0.244213 -0.08355,0.317241 -0.24473,0.244729 -0.616962,-0.07672 -0.494762,-0.427264 0.02418,-0.06935 0.01907,-0.223656 -0.01725,-0.522291 -0.0892,-0.73330204 -0.0934,-0.79288904 -0.121152,-1.71585604 -0.0199,-0.66182096 -0.04048,-0.93470296 -0.07706,-1.02181596 l -0.04992,-0.118857 -0.141167,0.187448 c -0.4409891,0.58556396 -0.5536581,0.73765596 -0.6778831,0.91508596 -0.235645,0.33657 -0.6918,0.788569 -0.861052,0.853207 -0.19414,0.07414 -0.456105,0.04721 -0.600876,-0.06178 -0.371022,-0.279332 -0.650321,-0.60459 -0.959542,-1.117455 -0.08291,-0.13751196 -0.20922,-0.34586096 -0.28069,-0.46299896 l -0.129942,-0.212978 0.02104,0.205778 c 0.01158,0.113178 0.06004,0.48357796 0.107719,0.82311096 0.122165,0.870049 0.144308,1.79383004 0.06016,2.50990404 -0.05123,0.435952 -0.07651,0.552759 -0.133306,0.61608 -0.08475,0.09448 -0.209402,0.123046 -0.333916,0.07652 z m 6.4371571,-0.695245 c -0.181844,-0.05729 -0.272901,-0.111321 -0.491639,-0.291723 -0.274024,-0.225995 -0.356985,-0.371525 -0.379579,-0.665844 -0.03898,-0.50779304 -0.01639,-0.81555004 0.07474,-1.01810404 0.126018,-0.280119 0.274527,-0.462092 0.444117,-0.544188 0.297988,-0.144254 0.504376,-0.07839 0.814542,0.259933 0.219622,0.239558 0.436264,0.57808 0.519027,0.811022 0.03267,0.09195 0.126977,0.201885 0.308917,0.360111 0.453855,0.39469004 0.664785,0.46557104 0.830846,0.27919604 0.17725,-0.19893404 0.468402,-0.103065 0.468402,0.154234 0,0.135947 -0.175638,0.359424 -0.355639,0.452507 -0.212097,0.10968 -0.687374,0.0042 -0.978971,-0.217366 -0.08326,-0.06325 -0.161943,-0.115004 -0.174845,-0.115004 -0.01291,0 -0.05164,0.06249 -0.08608,0.138874 -0.07099,0.157435 -0.248847,0.327263 -0.415773,0.397008 -0.138005,0.05767 -0.393875,0.05737 -0.578058,-6.77e-4 z m 0.410019,-0.522235 c 0.08211,-0.03151 0.15587,-0.196891 0.15587,-0.349466 0,-0.12133604 -0.119506,-0.36194504 -0.207984,-0.41874204 -0.04929,-0.03165 -0.09422,-0.18898 -0.07865,-0.275408 0.01167,-0.06479 -0.02742,-0.131067 -0.170883,-0.289783 -0.183438,-0.202926 -0.186992,-0.2049 -0.25643,-0.142456 -0.140434,0.126281 -0.209703,0.340179 -0.214862,0.663466 -0.0061,0.38324204 0.04324,0.50806604 0.264321,0.66856004 0.09196,0.06675 0.190342,0.129999 0.218637,0.140544 0.07213,0.02689 0.224001,0.0286 0.289982,0.0033 z m 13.818281,0.46134 c -0.12615,-0.06108 -0.146278,-0.164016 -0.125114,-0.639841 0.01658,-0.37297504 0.01052,-0.46663404 -0.03664,-0.56602104 -0.06966,-0.146812 -0.07065,-0.251039 -0.0056,-0.594433 0.0572,-0.30192 0.125836,-0.388851 0.307,-0.388851 0.133909,0 0.259399,0.12 0.259399,0.248054 0,0.18809 0.03063,0.2064 0.16657,0.09959 0.370864,-0.291384 0.652394,-0.280818 0.950563,0.03567 0.155527,0.165085 0.225228,0.269976 0.280849,0.422644 0.02062,0.05659 0.07056,0.187772 0.110972,0.291519 0.173831,0.44620904 0.199762,0.55079904 0.166461,0.67141404 -0.07788,0.282044 -0.46014,0.226456 -0.528462,-0.07685 -0.03981,-0.176756 -0.261364,-0.73070304 -0.336131,-0.84043404 -0.12966,-0.190302 -0.162053,-0.19208 -0.372772,-0.02045 -0.1047,0.08528 -0.236525,0.182321 -0.292949,0.21565 -0.102522,0.06056 -0.102597,0.06085 -0.125771,0.47576104 -0.02745,0.491447 -0.0599,0.614312 -0.17627,0.667333 -0.102487,0.0467 -0.144384,0.04657 -0.242128,-8.33e-4 z M 15.48845,1.7963342 c -0.0925,-0.0925 -0.101022,-0.117858 -0.07778,-0.2315 0.03592,-0.175675 0.02057,-0.526417 -0.03562,-0.81354404 -0.02584,-0.132041 -0.05679,-0.317979 -0.06881,-0.413196 -0.03079,-0.244257 -0.04197,-0.25513 -0.223205,-0.217112 -0.38226,0.08019 -0.434614,0.07865 -0.528855,-0.0156 -0.09718,-0.09718 -0.114625,-0.24261 -0.04077,-0.339885 0.05608,-0.07387 0.256313,-0.146608 0.493284,-0.1792 0.134567,-0.01851 0.179209,-0.03886 0.17874,-0.08147 -4.41e-4,-0.03125 -0.03934,-0.350033 -0.08667,-0.70842896 -0.04732,-0.358397 -0.09521,-0.890847 -0.106431,-1.183223 -0.01963,-0.51143 -0.01753,-0.53517 0.05486,-0.625908 0.05819,-0.07292 0.104593,-0.09431 0.204629,-0.09431 0.221039,0 0.253116,0.06892 0.265917,0.571348 0.0061,0.237963 0.04966,0.752046 0.09689,1.142407 0.04723,0.390359 0.08587,0.73549096 0.08587,0.76695796 0,0.04884 0.0418,0.05722 0.285541,0.05722 0.254127,0 0.293744,0.0087 0.36011,0.07938 0.09892,0.105295 0.09506,0.246214 -0.0096,0.350885 -0.06799,0.06799 -0.119119,0.08428 -0.265799,0.08471 -0.267657,8.32e-4 -0.278876,0.01475 -0.236438,0.29455 0.01974,0.130085 0.05912,0.390851 0.08755,0.579481 0.0952,0.63176704 0.06166,0.96553804 -0.104643,1.04130804 -0.136629,0.06226 -0.217633,0.04627 -0.328763,-0.06486 z m 9.085087,-0.01454 c -0.09022,-0.02559 -0.189131,-0.06729 -0.219808,-0.09266 -0.08929,-0.07385 -0.215645,-0.377603 -0.216008,-0.51927 -4.19e-4,-0.154828 0.121587,-0.29853304 0.253414,-0.29853304 0.119636,0 0.261609,0.13359304 0.29012,0.27299504 0.01996,0.09759 0.04427,0.122845 0.14307,0.148574 0.337802,0.08797 0.939859,-0.118561 1.114383,-0.38228504 0.256597,-0.387743 0.134029,-1.011532 -0.285431,-1.45268 -0.228798,-0.240628 -0.431956,-0.332543 -0.590164,-0.26701 -0.258052,0.106888 -0.603385,0.663517 -0.734005,1.183109 -0.08839,0.3516 -0.118295,0.415491 -0.215131,0.459613 -0.102751,0.04682 -0.20433,0.02248 -0.310086,-0.07429 -0.06587,-0.06027 -0.07907,-0.06251 -0.09678,-0.01635 -0.01127,0.02939 -0.06479,0.07178 -0.118915,0.0942 -0.145121,0.06012 -0.310727,-0.0045 -0.390235,-0.152056 -0.09453,-0.175535 -0.214623,-0.273527 -0.518169,-0.422817 -0.373794,-0.183839 -0.445249,-0.206524 -0.706552,-0.224302 -0.311205,-0.02118 -0.351001,0.0054 -0.666405,0.44498 -0.102802,0.143276 -0.236348,0.296973 -0.29677,0.341552 -0.116626,0.08604 -0.294395,0.106054 -0.406964,0.04581 -0.06012,-0.03218 -0.06291,-0.02752 -0.03205,0.05368 0.0186,0.0489 0.03381,0.17010604 0.03381,0.26933704 0,0.221989 -0.09134,0.32956 -0.279839,0.32956 -0.151926,0 -0.229653,-0.08177 -0.246608,-0.259437 -0.0071,-0.07423 -0.05323,-0.27054704 -0.10256,-0.43625304 -0.0964,-0.323848 -0.275554,-1.186287 -0.313059,-1.507039 -0.02103,-0.179899 -0.0157,-0.203665 0.06359,-0.282944 0.05817,-0.05817 0.124312,-0.08655 0.201728,-0.08655 0.171146,0 0.283883,0.14018788 0.417049,0.51859488 0.125128,0.355567 0.318462,0.774537 0.372951,0.808213 0.03609,0.0223 0.118332,-0.06541 0.339498,-0.362108 0.236219,-0.31689 0.55533,-0.471014 0.856733,-0.413783 0.08146,0.01547 0.204405,0.01959 0.273208,0.0092 0.132166,-0.02004 0.372202,0.04072 0.372202,0.09422 0,0.0174 0.01886,0.03164 0.04193,0.03164 0.02305,0 0.201302,0.08 0.396095,0.177766 0.347759,0.174548 0.442474,0.253851 0.661802,0.554107 l 0.08808,0.120581 0.07763,-0.297617 c 0.04494,-0.172287 0.15877,-0.454192 0.270309,-0.669434 0.157221,-0.303389 0.235066,-0.411061 0.422993,-0.58505088 0.29763,-0.275561 0.51083,-0.35692 0.78258,-0.29864 0.269304,0.05776 0.486571,0.189886 0.734482,0.44667588 0.232148,0.240464 0.442377,0.60604 0.524298,0.911722 0.02528,0.09432 0.04613,0.298644 0.04636,0.454065 8.32e-4,0.56377612 -0.243912,0.93148112 -0.805556,1.21036812 -0.304324,0.151114 -0.313975,0.153368 -0.685925,0.16019 -0.234868,0.0043 -0.439171,-0.01064 -0.541291,-0.03961 z m 7.534955,-0.04954 c -0.07698,-0.03496 -0.197586,-0.133894 -0.268021,-0.219849 -0.162145,-0.197875 -0.175237,-0.342986 -0.04134,-0.458163 0.141428,-0.12164904 0.244156,-0.10333604 0.416807,0.07431 0.149205,0.15352 0.151243,0.154334 0.38672,0.154334 0.28988,0 0.387844,-0.06324 0.451793,-0.29163504 0.04784,-0.170881 0.03083,-0.549869 -0.03208,-0.714622 l -0.03719,-0.0974 -0.196877,0.107584 c -0.108812,0.05946 -0.29271,0.209651 -0.411113,0.335764 -0.187944,0.200174 -0.229528,0.228181 -0.33881,0.228181 -0.215239,0 -0.315886,-0.206301 -0.204114,-0.418403 0.05329,-0.101138 0.352071,-0.394551 0.519389,-0.510068 0.260262,-0.17968 0.464308,-0.261121 0.65423,-0.261121 0.241274,0 0.340854,0.07031 0.473885,0.334624 0.09241,0.183595 0.102793,0.239483 0.115523,0.621925 0.01089,0.327002 0.0016,0.45660204 -0.04194,0.58431604 -0.08584,0.251918 -0.214072,0.411461 -0.408659,0.508428 -0.153881,0.07668 -0.216815,0.08679 -0.536288,0.08612 -0.277999,-5.73e-4 -0.394418,-0.0155 -0.501917,-0.06432 z m -2.222837,-0.116794 c -0.07182,-0.07182 -0.08075,-0.119224 -0.09857,-0.523019 -0.01692,-0.38336004 -0.03629,-0.49559204 -0.141756,-0.82129804 -0.06719,-0.207493 -0.121955,-0.408125 -0.1217,-0.445852 9.83e-4,-0.15541 0.203173,-0.281938 0.356986,-0.223458 0.162523,0.06179 0.361675,0.628221 0.428258,1.218051 0.0213,0.18862904 0.04609,0.40115304 0.05509,0.47227704 0.04005,0.31619 -0.273486,0.52812 -0.47831,0.323299 z M 17.13699,1.5637102 c -0.09796,-0.08752 -0.117111,-0.140574 -0.207416,-0.57446404 -0.187856,-0.902583 -0.241525,-1.198675 -0.258942,-1.42859 -0.01675,-0.221119 -0.01328,-0.234495 0.08661,-0.334389 0.14684,-0.146839 0.282364,-0.136593 0.949591,0.07179 0.340354,0.106297 0.45295,0.16642 0.586121,0.312978 0.134283,0.147783 0.146907,0.252662 0.04587,0.381109 -0.09431,0.119896 -0.263118,0.12217 -0.401876,0.0054 -0.105536,-0.0888 -0.646311,-0.28195 -0.683969,-0.244292 -0.0331,0.0331 0.228967,1.31068704 0.303348,1.47883804 0.05177,0.117043 0.05788,0.167315 0.02941,0.242203 -0.07803,0.205239 -0.275146,0.244511 -0.44874,0.0894 z m 1.905744,-0.04258 c -0.06879,-0.07601 -0.07466,-0.175785 -0.03241,-0.55089204 0.02886,-0.256244 0.0091,-0.331166 -0.313236,-1.186431 -0.155627,-0.412946 -0.178268,-0.501512 -0.148336,-0.580242 0.07567,-0.199016 0.273269,-0.24291196 0.422359,-0.09382 0.04973,0.04973 0.09042,0.105273 0.09042,0.123428 0,0.01816 0.02261,0.08164 0.05026,0.141083 0.08221,0.176786 0.2818,0.716309 0.36523,0.987269 0.05795,0.188207 0.07879,0.34436 0.08178,0.612692 0.0058,0.52890604 -0.0397,0.61733304 -0.318209,0.61733304 -0.09173,0 -0.154269,-0.02226 -0.197851,-0.07042 z m -0.503948,-2.750453 c -0.07526,-0.05791 -0.225528,-0.350081 -0.24869,-0.483525 -0.03668,-0.211326 0.151293,-0.393974 0.358603,-0.348441 0.110808,0.02434 0.268639,0.166517 0.312463,0.281478 0.04607,0.12084 -0.02365,0.463817 -0.10842,0.533341 -0.0855,0.07013 -0.234536,0.07826 -0.313956,0.01715 z m 10.607256,-0.492807 c -0.216575,-0.182236 -0.260954,-0.406936 -0.137189,-0.694635 0.08155,-0.189566 0.209098,-0.278779 0.398303,-0.278596 0.147969,1.3e-4 0.330801,0.09669 0.388982,0.2054 0.06761,0.126329 0.02883,0.283361 -0.08888,0.359913 -0.09627,0.06261 -0.104683,0.08224 -0.09031,0.210791 0.01254,0.11221 7.4e-4,0.15688 -0.05676,0.214351 -0.102963,0.102966 -0.280083,0.0956 -0.414165,-0.01723 z"
       id="path1734" />
  </g>
</svg>
