<?xml version="1.0" encoding="UTF-8" standalone="no"?>
<!-- Created with Inkscape (http://www.inkscape.org/) -->

<svg
   width="159.1237"
   height="62.828392"
   viewBox="0 0 21.050738 8.3116722"
   version="1.1"
   id="svg5"
   inkscape:version="1.1.1 (3bf5ae0d25, 2021-09-20)"
   sodipodi:docname="vr.svg"
   xmlns:inkscape="http://www.inkscape.org/namespaces/inkscape"
   xmlns:sodipodi="http://sodipodi.sourceforge.net/DTD/sodipodi-0.dtd"
   xmlns="http://www.w3.org/2000/svg"
   xmlns:svg="http://www.w3.org/2000/svg">
  <sodipodi:namedview
     id="namedview7"
     pagecolor="#ffffff"
     bordercolor="#666666"
     borderopacity="1.0"
     inkscape:pageshadow="2"
     inkscape:pageopacity="0.0"
     inkscape:pagecheckerboard="0"
     inkscape:document-units="mm"
     showgrid="false"
     inkscape:zoom="1.4289282"
     inkscape:cx="76.280951"
     inkscape:cy="-145.21374"
     inkscape:window-width="1920"
     inkscape:window-height="991"
     inkscape:window-x="-9"
     inkscape:window-y="-9"
     inkscape:window-maximized="1"
     inkscape:current-layer="layer1"
     fit-margin-top="0"
     fit-margin-left="0"
     fit-margin-right="0"
     fit-margin-bottom="0"
     units="px" />
  <defs
     id="defs2" />
  <g
     inkscape:label="Capa 1"
     inkscape:groupmode="layer"
     id="layer1"
     transform="translate(152.00427,45.513266)">
    <path
       style="fill:#000000;stroke-width:0.0183346"
       d="m -151.63468,-37.252901 c -0.11264,-0.121243 -0.12557,-0.171706 -0.12557,-0.490452 -10e-6,-0.289321 8.3e-4,-0.295622 0.0625,-0.458366 0.0534,-0.140798 0.0805,-0.183843 0.18497,-0.293353 0.0674,-0.0706 0.15442,-0.173721 0.19352,-0.229184 0.0391,-0.05547 0.0816,-0.107438 0.0947,-0.115501 0.0129,-0.0081 0.0236,-0.02475 0.0236,-0.03707 0,-0.01233 0.0235,-0.05111 0.0522,-0.08618 0.0858,-0.104822 0.0954,-0.13251 0.0732,-0.212408 -0.012,-0.04331 -0.0161,-0.165076 -0.0103,-0.309722 0.008,-0.210753 0.0169,-0.259905 0.0737,-0.424514 0.0779,-0.225644 0.13486,-0.325928 0.2648,-0.466296 0.11593,-0.125203 0.25135,-0.196062 0.51611,-0.270041 0.14934,-0.04172 0.20899,-0.04886 0.39114,-0.04676 0.18352,0.0021 0.22637,0.0084 0.29324,0.04329 0.20642,0.107594 0.43189,0.367119 0.52658,0.606134 0.0338,0.08516 0.076,0.175682 0.0937,0.201168 0.0444,0.06352 0.21143,0.418624 0.22627,0.481159 0.0126,0.05328 -0.0135,0.122274 -0.0557,0.147211 -0.0173,0.01026 -0.0249,0.05592 -0.0249,0.151871 0,0.1607 -0.0339,0.241007 -0.18074,0.429343 -0.0839,0.107507 -0.0896,0.120704 -0.0591,0.134795 0.0353,0.01626 0.0748,0.08588 0.0748,0.13192 0,0.05109 -0.0703,0.09997 -0.14383,0.09997 -0.0468,0 -0.0815,0.01212 -0.10306,0.03598 -0.0599,0.06615 -0.14074,0.07967 -0.24123,0.04032 -0.0538,-0.02108 -0.1136,-0.03139 -0.15019,-0.0259 -0.0353,0.0054 -0.0851,-0.0027 -0.11917,-0.01909 -0.0322,-0.01552 -0.0935,-0.03751 -0.13641,-0.04884 -0.13394,-0.03543 -0.17318,-0.152805 -0.0753,-0.225536 0.0469,-0.03491 0.0524,-0.03505 0.19252,-0.005 0.0793,0.01703 0.18104,0.02824 0.22606,0.02492 0.0763,-0.0057 0.0827,-0.01024 0.0942,-0.06657 0.015,-0.07375 0.0161,-0.07482 0.0985,-0.103186 0.069,-0.02372 0.18028,-0.152617 0.25041,-0.290086 0.0402,-0.07861 0.0352,-0.187237 -0.0163,-0.360228 -0.0273,-0.09166 -0.0272,-0.102919 9.4e-4,-0.152472 0.0344,-0.05991 0.0451,-0.02835 -0.11106,-0.326102 -0.0396,-0.07562 -0.0826,-0.169204 -0.0954,-0.207944 -0.0255,-0.07721 -0.2149,-0.305156 -0.32063,-0.385808 -0.046,-0.03511 -0.10178,-0.05589 -0.17937,-0.06686 -0.14403,-0.02036 -0.19298,0.0016 -0.10453,0.04681 0.0345,0.01765 0.0926,0.05778 0.12919,0.08919 0.0365,0.0314 0.10549,0.09008 0.1532,0.130428 0.0953,0.08054 0.20041,0.210536 0.30976,0.382983 0.0591,0.09311 0.0726,0.132712 0.0803,0.234288 0.008,0.113125 0.006,0.125768 -0.0381,0.169595 -0.0482,0.04832 -0.14586,0.06516 -0.16819,0.02902 -0.0121,-0.01955 -0.0825,-0.02583 -0.0825,-0.0073 0,0.006 0.0234,0.03286 0.0519,0.05958 0.0368,0.03456 0.0675,0.04702 0.10635,0.04314 0.0368,-0.0036 0.0657,0.0069 0.0888,0.03232 0.0541,0.05976 0.0433,0.135256 -0.0312,0.217692 -0.036,0.03981 -0.0947,0.118121 -0.1304,0.173999 -0.0434,0.0678 -0.099,0.123334 -0.16718,0.166967 -0.10938,0.06997 -0.16575,0.08028 -0.22039,0.04034 -0.0301,-0.02205 -0.0475,-0.01731 -0.1456,0.03974 -0.0612,0.03563 -0.11547,0.07049 -0.12052,0.07748 -0.021,0.02913 -0.13049,0.07282 -0.18243,0.07282 -0.11682,0 -0.17171,-0.137071 -0.0868,-0.21682 0.0234,-0.02192 0.055,-0.03986 0.0705,-0.03986 0.0155,0 0.0429,-0.01629 0.0609,-0.0362 0.018,-0.01991 0.0502,-0.04171 0.0713,-0.04844 0.0446,-0.01416 0.21061,-0.13379 0.24779,-0.178587 0.0138,-0.01675 0.0571,-0.04841 0.0963,-0.07034 0.0604,-0.03392 0.071,-0.04908 0.071,-0.10132 0,-0.05841 -0.002,-0.06029 -0.0413,-0.03811 -0.0277,0.01566 -0.12863,0.02388 -0.3071,0.025 -0.14622,9.14e-4 -0.31069,0.01142 -0.36548,0.02332 -0.0548,0.0119 -0.11255,0.01763 -0.12835,0.01272 -0.0158,-0.0049 -0.0642,0.0016 -0.10752,0.01452 -0.0768,0.02285 -0.0779,0.02427 -0.0433,0.05562 0.0196,0.0177 0.0588,0.06884 0.0871,0.113658 0.0291,0.0461 0.0655,0.08149 0.0838,0.08149 0.055,0 0.10706,0.07343 0.10706,0.150967 0,0.08472 -0.0453,0.136615 -0.1781,0.203897 -0.0868,0.04399 -0.20693,0.157834 -0.20693,0.196124 0,0.0099 -0.0371,0.0791 -0.0824,0.153767 -0.0956,0.157347 -0.21508,0.394398 -0.24563,0.486995 -0.0116,0.03529 -0.0478,0.09802 -0.0803,0.139393 -0.12463,0.158478 -0.21603,0.274017 -0.23421,0.296054 -0.034,0.04115 -0.12558,0.02684 -0.17606,-0.02751 z m 0.26748,-0.530875 c 0.0494,-0.128307 0.17594,-0.378576 0.24857,-0.491282 0.0326,-0.05042 0.0726,-0.120719 0.0892,-0.156222 0.0166,-0.0355 0.0786,-0.115384 0.13769,-0.177517 l 0.10749,-0.112969 -0.0545,-0.0661 c -0.0608,-0.07375 -0.0765,-0.0698 -0.14939,0.03769 -0.0878,0.129398 -0.30306,0.404869 -0.34981,0.447611 -0.13839,0.126478 -0.22619,0.453892 -0.18157,0.677014 l 0.0116,0.05822 0.052,-0.06051 c 0.0286,-0.03329 0.0685,-0.103455 0.0886,-0.15594 z m 0.89574,-1.799766 c 0.23435,-0.137327 0.57391,-0.205704 0.7482,-0.150664 0.0292,0.0093 0.0842,0.02111 0.12229,0.02641 l 0.0692,0.0096 -0.0325,-0.05822 c -0.0391,-0.07013 -0.25509,-0.289339 -0.37749,-0.383177 -0.0566,-0.04339 -0.1236,-0.07504 -0.18647,-0.08808 -0.0962,-0.01997 -0.0997,-0.01918 -0.17908,0.04021 -0.0445,0.03332 -0.11325,0.08453 -0.15273,0.113804 -0.0944,0.07001 -0.24357,0.245892 -0.30089,0.354832 -0.0347,0.06597 -0.0474,0.121958 -0.0525,0.231734 l -0.006,0.144752 0.10749,-0.08144 c 0.0592,-0.04479 0.16766,-0.116694 0.24121,-0.159791 z m 0.68187,0.143866 0.0822,-0.03174 -0.10515,-0.02353 c -0.0791,-0.01771 -0.12217,-0.01856 -0.17389,-0.0034 -0.0377,0.01105 -0.1079,0.02994 -0.15581,0.04198 -0.0479,0.01203 -0.0871,0.02869 -0.0871,0.03702 0,0.01668 0.23875,0.03134 0.31168,0.01913 0.0252,-0.0042 0.0828,-0.02195 0.12804,-0.03943 z m 3.76807,1.98179 c -0.18264,-0.05214 -0.22132,-0.08516 -0.68364,-0.583367 -0.15203,-0.163846 -0.28187,-0.315016 -0.2885,-0.335934 -0.007,-0.02417 -0.0222,-0.03417 -0.0396,-0.02747 -0.0152,0.0058 -0.0495,0.01536 -0.0764,0.02123 -0.0268,0.0059 -0.0802,0.02244 -0.1185,0.03686 -0.0532,0.01997 -0.11857,0.02342 -0.27502,0.01446 -0.19173,-0.01096 -0.21127,-0.0157 -0.29691,-0.07202 -0.18677,-0.122827 -0.26459,-0.246029 -0.35017,-0.554292 -0.0284,-0.10234 -0.0296,-0.141159 -0.0108,-0.352787 0.0116,-0.130788 0.0307,-0.277054 0.0426,-0.325039 0.0277,-0.113099 0.16608,-0.30337 0.252,-0.346558 0.0365,-0.01837 0.10991,-0.0656 0.16306,-0.105 0.0532,-0.03939 0.12742,-0.07784 0.16502,-0.08545 0.0376,-0.0076 0.15424,-0.03136 0.2592,-0.05279 0.10496,-0.02142 0.20809,-0.03326 0.22919,-0.0263 0.021,0.007 0.13734,0.01341 0.25834,0.01434 0.22832,0.0018 0.41066,0.03637 0.54087,0.102697 0.13474,0.06862 0.42141,0.327689 0.50253,0.45412 0.14628,0.228021 0.15085,0.251864 0.13566,0.707346 -0.007,0.221316 -0.0129,0.25789 -0.0427,0.279603 -0.0842,0.06162 -0.19731,-0.0053 -0.22083,-0.130619 -0.006,-0.03741 -0.006,-0.114653 0.002,-0.171644 0.008,-0.057 0.0154,-0.1655 0.0158,-0.241129 5.6e-4,-0.117752 -0.006,-0.15132 -0.0522,-0.233621 -0.0511,-0.09286 -0.19997,-0.261414 -0.23096,-0.261414 -0.008,0 0.006,0.05156 0.0314,0.114592 0.0257,0.06303 0.0489,0.151718 0.0518,0.197097 0.003,0.04537 0.019,0.14026 0.0359,0.210847 0.0169,0.0706 0.0353,0.146891 0.0407,0.169562 0.0154,0.06393 -0.0396,0.13296 -0.10599,0.13296 -0.0306,0 -0.0737,-0.0094 -0.0959,-0.02082 -0.0491,-0.02549 -0.0549,-0.03125 0.13219,0.129024 0.0846,0.07251 0.18028,0.166506 0.21248,0.208902 0.1013,0.133304 0.24782,0.342608 0.24782,0.353985 0,0.006 0.0118,0.03691 0.0263,0.06869 0.0465,0.101975 0.10202,0.307091 0.10202,0.376677 0,0.15656 -0.12211,0.287571 -0.32298,0.346505 -0.0911,0.02673 -0.0975,0.02638 -0.23622,-0.01325 z m 0.26177,-0.268171 c 0.0478,-0.03345 0.0505,-0.07548 0.0127,-0.200642 -0.0431,-0.143001 -0.0774,-0.206852 -0.2131,-0.396889 -0.13759,-0.192632 -0.1994,-0.248006 -0.38155,-0.341855 -0.11204,-0.05773 -0.35751,-0.122099 -0.38972,-0.102193 -0.0239,0.01471 -0.0164,0.04275 0.0223,0.08428 0.048,0.05148 0.0468,0.138414 -0.003,0.190864 l -0.0391,0.04161 0.1203,0.124587 c 0.0661,0.06852 0.2134,0.22154 0.32718,0.340041 0.11475,0.119483 0.23986,0.231771 0.28091,0.252086 0.0886,0.04383 0.20625,0.04747 0.26243,0.0082 z m -1.47511,-0.889551 c 0.0321,-0.0116 0.0731,-0.0408 0.0912,-0.06487 l 0.0329,-0.04378 h -0.14543 c -0.12359,0 -0.16017,-0.0077 -0.24346,-0.05121 -0.20455,-0.106857 -0.27421,-0.279601 -0.23747,-0.58887 0.0197,-0.165596 0.043,-0.302074 0.0688,-0.403622 l 0.0113,-0.04446 -0.0579,0.04116 c -0.1015,0.07228 -0.14839,0.152585 -0.17729,0.303594 -0.0456,0.238832 -0.0386,0.380243 0.0283,0.56923 0.0662,0.186995 0.0745,0.199775 0.16676,0.258016 0.0989,0.06246 0.3248,0.07458 0.46217,0.02482 z m 1.00398,-0.380872 c -0.0101,-0.01864 -0.0264,-0.08572 -0.0366,-0.149093 -0.0138,-0.08641 -0.029,-0.122463 -0.0605,-0.144196 -0.0231,-0.01594 -0.0622,-0.05198 -0.0872,-0.08009 -0.0307,-0.0347 -0.0632,-0.05111 -0.10082,-0.05111 -0.0305,0 -0.11327,-0.01328 -0.18385,-0.02949 -0.0706,-0.01622 -0.15979,-0.03363 -0.19823,-0.0387 l -0.07,-0.0092 0.0121,0.107459 c 0.0104,0.09231 0.006,0.114282 -0.0262,0.155883 l -0.0382,0.04842 0.0681,0.01276 c 0.0374,0.0071 0.12333,0.04505 0.19089,0.0845 0.11696,0.0683 0.21727,0.09295 0.21727,0.0534 0,-0.03721 0.0749,-0.09167 0.12613,-0.09167 0.0403,0 0.0688,0.01948 0.1204,0.08251 0.071,0.08657 0.0972,0.105741 0.0666,0.04863 z m -1.12372,-0.02581 c -0.0725,-0.06008 -0.0821,-0.125281 -0.0279,-0.188314 0.0312,-0.0362 0.0615,-0.05147 0.10218,-0.05147 h 0.058 v -0.154543 c 0,-0.179957 0.0252,-0.237488 0.12919,-0.295982 0.0882,-0.04957 0.21393,-0.04978 0.39296,-6.65e-4 0.0756,0.02075 0.17269,0.03519 0.21564,0.03209 l 0.0781,-0.0057 -0.0837,-0.04125 c -0.046,-0.02269 -0.0949,-0.04125 -0.10856,-0.04125 -0.0136,0 -0.0791,-0.02671 -0.14547,-0.05935 -0.135,-0.06642 -0.29331,-0.08234 -0.43941,-0.04417 -0.10618,0.02774 -0.22799,0.135938 -0.25431,0.225925 -0.0314,0.106802 -0.0649,0.438664 -0.0517,0.509379 0.0125,0.06687 0.10092,0.156669 0.15402,0.156513 0.0231,-7.4e-5 0.0184,-0.01029 -0.019,-0.04125 z m 6.1849,1.384355 c -0.0422,-0.03524 -0.15657,-0.286841 -0.29794,-0.655463 -0.0503,-0.131093 -0.15387,-0.366234 -0.23022,-0.522536 -0.14662,-0.300214 -0.25479,-0.557314 -0.37412,-0.889229 -0.10012,-0.278549 -0.1804,-0.444083 -0.2316,-0.477626 -0.0592,-0.03877 -0.10471,-0.139429 -0.0899,-0.198589 0.006,-0.02614 0.0328,-0.06122 0.0582,-0.07792 0.0386,-0.02532 0.058,-0.02693 0.11541,-0.0097 0.0379,0.01138 0.0862,0.03938 0.10699,0.06224 0.0457,0.05004 0.1981,0.393404 0.28695,0.646604 0.0943,0.268731 0.22806,0.585585 0.38314,0.907564 0.0752,0.156303 0.17169,0.374943 0.21422,0.485867 0.0426,0.110924 0.0942,0.238808 0.11498,0.284187 0.0362,0.0793 0.0382,0.08078 0.0543,0.03823 0.009,-0.02435 0.0541,-0.185238 0.10001,-0.357526 0.0458,-0.172287 0.13957,-0.498888 0.20826,-0.725778 0.1821,-0.601399 0.29404,-1.027184 0.29404,-1.118368 0,-0.07793 0.0806,-0.248629 0.13388,-0.283541 0.0542,-0.03553 0.13345,-0.02179 0.15996,0.02772 0.0286,0.05351 0.021,0.130716 -0.0298,0.30415 -0.0262,0.08937 -0.0597,0.211983 -0.0745,0.272488 -0.0567,0.232458 -0.15464,0.581658 -0.25459,0.907563 -0.0571,0.186555 -0.14039,0.475324 -0.18486,0.641711 -0.10845,0.405823 -0.14748,0.525584 -0.2032,0.623377 -0.0701,0.123025 -0.0962,0.146678 -0.16192,0.146678 -0.0327,0 -0.0765,-0.01443 -0.0977,-0.03209 z m 10.00485,-0.09167 c -0.0489,-0.05683 -0.0508,-0.0903 -0.0306,-0.504483 0.0147,-0.30179 0.0143,-0.488613 -0.002,-0.719353 -0.0392,-0.575341 -0.0735,-0.764455 -0.27009,-1.494271 -0.0258,-0.0958 -0.0554,-0.207182 -0.0658,-0.247518 -0.0104,-0.04034 -0.0341,-0.0881 -0.0528,-0.106139 -0.0562,-0.05441 -0.0325,-0.176113 0.0536,-0.274304 0.0674,-0.07677 0.20536,-0.0014 0.20612,0.11248 4.1e-4,0.05396 0.0395,0.235669 0.0835,0.387139 0.0502,0.172988 0.16661,0.644021 0.19713,0.797555 0.0829,0.417054 0.0943,0.579378 0.092,1.307204 -0.002,0.643794 -0.005,0.705137 -0.0346,0.737968 -0.0408,0.04511 -0.1396,0.0472 -0.17694,0.0037 z m -5.52975,-0.04229 c -0.0457,-0.01816 -0.0955,-0.117221 -0.0955,-0.190168 0,-0.02514 0.0185,-0.06301 0.0413,-0.08415 0.0386,-0.03602 0.0412,-0.05251 0.0393,-0.261984 -0.003,-0.288347 -0.0999,-1.017374 -0.13927,-1.041696 -0.0109,-0.0068 -0.0687,-0.02193 -0.12833,-0.03366 -0.17278,-0.03399 -0.4608,-0.129711 -0.49799,-0.165502 -0.0187,-0.01808 -0.0381,-0.06873 -0.043,-0.112791 -0.0169,-0.151201 0.11706,-0.238863 0.21146,-0.138382 0.0219,0.02334 0.0398,0.05063 0.0398,0.06067 0,0.01896 0.22641,0.09301 0.34149,0.111677 l 0.066,0.01072 -0.0108,-0.08983 c -0.006,-0.04941 -0.0151,-0.143457 -0.0203,-0.209004 -0.0355,-0.444517 -0.0522,-0.559497 -0.0883,-0.608217 -0.0337,-0.04546 -0.035,-0.05932 -0.0157,-0.156279 0.027,-0.135566 0.071,-0.196316 0.14771,-0.203906 0.0646,-0.0064 0.10737,0.01985 0.13022,0.07996 0.008,0.02143 0.0243,0.195033 0.0359,0.385781 0.024,0.393663 0.0648,0.829765 0.079,0.844 0.0187,0.01878 0.44614,0.01168 0.5567,-0.0093 0.13511,-0.02558 0.19444,-0.0061 0.22795,0.07482 0.0193,0.04658 0.0174,0.0604 -0.0144,0.103044 -0.0452,0.06066 -0.11721,0.07402 -0.47797,0.0886 l -0.26172,0.01059 0.009,0.05753 c 0.0134,0.08079 0.081,0.594847 0.10298,0.781755 0.0274,0.232961 -0.0236,0.607185 -0.0905,0.665916 -0.0434,0.038 -0.0972,0.049 -0.1456,0.02976 z m -2.59895,-0.04396 c -0.0541,-0.0541 -0.0544,-0.0611 -0.008,-0.208732 0.0467,-0.148826 0.046,-0.236898 -0.003,-0.402089 -0.0448,-0.15123 -0.0328,-0.211647 0.0483,-0.242486 0.12692,-0.04826 0.21091,0.103723 0.22524,0.407548 0.0173,0.366928 -0.11563,0.592643 -0.26252,0.445759 z m 0.95452,-0.237228 c -0.0327,-0.03259 -0.0436,-0.06329 -0.0429,-0.119328 9.4e-4,-0.06828 -0.0319,-0.192161 -0.16052,-0.606846 -0.0582,-0.187457 -0.0686,-0.257573 -0.0465,-0.315503 0.0258,-0.06778 0.0815,-0.09995 0.25108,-0.144805 0.16172,-0.04279 0.33507,-0.03858 0.45377,0.011 0.0364,0.01519 0.0864,0.02761 0.11109,0.02761 0.0248,0 0.0704,0.02136 0.10142,0.04747 0.067,0.05639 0.0748,0.131863 0.0189,0.182485 -0.048,0.04342 -0.12957,0.04109 -0.28182,-0.0081 -0.13254,-0.04282 -0.22335,-0.04798 -0.32883,-0.01869 -0.0599,0.01662 -0.0691,0.0257 -0.0605,0.05948 0.017,0.06629 0.0956,0.341389 0.14691,0.514042 0.0625,0.210291 0.0634,0.309946 0.004,0.370058 -0.0568,0.05678 -0.10953,0.05715 -0.16556,0.0011 z m 4.70744,-0.02935 c -0.11982,-0.02535 -0.19678,-0.06891 -0.25934,-0.146732 -0.0682,-0.08475 -0.0725,-0.144295 -0.0148,-0.198538 0.0615,-0.0578 0.11982,-0.05 0.19823,0.02658 0.0572,0.05596 0.0849,0.06829 0.17495,0.07821 0.18021,0.01985 0.50064,-0.0371 0.59278,-0.105361 0.0252,-0.01867 0.0612,-0.06025 0.0801,-0.0924 0.0324,-0.05513 0.0325,-0.0604 0.003,-0.09298 -0.0468,-0.0517 -0.26374,-0.153972 -0.39113,-0.184392 -0.0524,-0.01251 -0.0935,0.0014 -0.30485,0.103002 -0.26039,0.125215 -0.34789,0.143494 -0.40178,0.08395 -0.0542,-0.05983 -0.0381,-0.130383 0.0482,-0.212548 0.12662,-0.120424 0.21449,-0.170836 0.37058,-0.212623 0.0807,-0.0216 0.1838,-0.05198 0.22918,-0.0675 0.23846,-0.0816 0.40413,-0.09835 0.49714,-0.05025 0.0303,0.01573 0.14894,0.121473 0.26342,0.234998 0.21384,0.212066 0.25671,0.240342 0.51495,0.339598 0.16982,0.06528 0.17874,0.06652 0.20958,0.02936 0.0325,-0.03905 0.13451,-0.03468 0.17256,0.0074 0.0211,0.0234 0.0296,0.05789 0.0258,0.104834 -0.0132,0.15983 -0.21859,0.199958 -0.49507,0.09675 -0.21696,-0.08098 -0.38063,-0.165613 -0.41299,-0.213534 -0.0366,-0.05429 -0.0603,-0.05228 -0.0603,0.0051 0,0.02549 -0.0249,0.09562 -0.0552,0.155825 -0.0689,0.136436 -0.1871,0.22008 -0.38476,0.272226 -0.15835,0.04176 -0.48645,0.06312 -0.60016,0.03907 z m -1.38915,-0.05337 c -0.17043,-0.05008 -0.23378,-0.08218 -0.38154,-0.19341 -0.14449,-0.108748 -0.2066,-0.183903 -0.26902,-0.325537 -0.0705,-0.159891 -0.0401,-0.289511 0.0679,-0.289511 0.0781,0 0.11329,0.03387 0.1436,0.138161 0.0343,0.118006 0.0843,0.182292 0.22569,0.289972 0.11541,0.08791 0.20056,0.125782 0.35417,0.157482 0.0929,0.01919 0.11162,0.01766 0.17418,-0.01432 0.0922,-0.04716 0.22659,-0.275167 0.21312,-0.361726 -0.006,-0.04248 0.003,-0.07059 0.0403,-0.114592 0.061,-0.07239 0.13167,-0.0772 0.19192,-0.01308 0.037,0.03938 0.0411,0.05801 0.0324,0.143944 -0.0118,0.114016 -0.11249,0.328819 -0.21111,0.450228 -0.12803,0.157599 -0.33519,0.204759 -0.58151,0.132385 z m -4.4091,-1.30562 c -0.0821,-0.03276 -0.11039,-0.07216 -0.11039,-0.153716 0,-0.151781 0.11903,-0.184449 0.23906,-0.06561 0.0839,0.08306 0.0907,0.131632 0.0276,0.194784 -0.048,0.04801 -0.0835,0.05358 -0.15631,0.02454 z m -11.99531,-1.325725 c -0.0689,-0.03435 -0.0966,-0.114827 -0.0981,-0.285594 -8.3e-4,-0.08571 -0.008,-0.320856 -0.0167,-0.522537 l -0.0153,-0.366693 -0.0869,-0.08251 -0.0868,-0.08251 -0.0117,-0.174179 c -0.006,-0.0958 -0.0211,-0.225859 -0.0328,-0.289023 -0.0158,-0.08562 -0.0159,-0.120136 -2.8e-4,-0.13564 0.0155,-0.0155 -0.003,-0.04677 -0.0702,-0.122916 -0.12216,-0.137068 -0.17107,-0.240572 -0.15839,-0.335165 0.0185,-0.13862 0.12315,-0.185534 0.23539,-0.105617 0.0603,0.04296 0.096,0.02902 0.11444,-0.04481 0.006,-0.02289 0.0437,-0.0683 0.0842,-0.100955 0.06,-0.04821 0.0738,-0.071 0.0738,-0.121336 0,-0.04375 0.013,-0.07226 0.0444,-0.09693 0.0266,-0.02094 0.0496,-0.06373 0.0574,-0.106755 0.0312,-0.171918 0.11546,-0.267424 0.26479,-0.300312 0.0555,-0.01222 0.11539,-0.02621 0.1332,-0.0311 0.0178,-0.0049 0.0603,-0.05251 0.0943,-0.105817 0.0341,-0.0533 0.0897,-0.116228 0.12347,-0.139823 0.14936,-0.104228 0.3878,-0.321125 0.49494,-0.450219 0.0641,-0.07725 0.13308,-0.160233 0.15325,-0.184404 0.0841,-0.100924 0.26585,-0.05404 0.26585,0.06863 0,0.05034 -0.02,0.07856 -0.10325,0.145346 -0.0605,0.04854 -0.19011,0.216464 -0.19011,0.246254 0,0.01586 -0.0413,0.05846 -0.0916,0.09468 -0.0505,0.03622 -0.0917,0.07213 -0.0917,0.0798 0,0.03347 -0.0939,0.110965 -0.1344,0.110965 -0.0245,0 -0.0547,0.01237 -0.0673,0.02751 -0.028,0.03377 -0.0239,0.0338 0.14669,0.0012 0.19113,-0.03647 0.41451,-0.05209 0.78265,-0.05474 0.17331,-0.0012 0.32006,-0.0072 0.32611,-0.01327 0.0161,-0.01608 -0.0571,-0.192642 -0.12821,-0.309118 -0.0681,-0.11149 -0.23476,-0.284857 -0.25935,-0.269657 -0.008,0.0054 -0.0418,-0.0013 -0.0738,-0.01475 -0.0457,-0.01922 -0.0652,-0.04478 -0.0915,-0.119573 -0.0237,-0.06767 -0.0466,-0.100196 -0.0791,-0.112697 -0.0763,-0.02926 -0.11005,-0.07164 -0.11005,-0.137949 0,-0.07328 0.0414,-0.161258 0.0833,-0.177373 0.0778,-0.02985 0.23919,-0.01058 0.3499,0.0418 0.0619,0.02924 0.11799,0.06224 0.12485,0.07332 0.0218,0.03534 0.0437,0.0218 0.0561,-0.03483 0.0136,-0.06178 0.0708,-0.110031 0.13042,-0.110031 0.0509,0 0.38471,0.298654 0.47763,0.427338 0.0378,0.05236 0.1273,0.16533 0.19888,0.251045 0.0716,0.08571 0.17326,0.219786 0.22596,0.297936 0.0527,0.07815 0.10174,0.143081 0.109,0.144287 0.007,0.0012 0.12458,0.0051 0.26072,0.0085 0.13613,0.0034 0.35889,0.0096 0.49503,0.01373 0.13614,0.0041 0.25783,0.0034 0.27043,-0.0013 0.0125,-0.0048 0.023,-0.03132 0.023,-0.05893 0,-0.109377 0.12764,-0.148302 0.24614,-0.07507 0.0624,0.03855 0.0834,0.06991 0.0844,0.1261 2.8e-4,0.01683 0.0353,0.05329 0.0779,0.08106 0.11302,0.07377 0.19616,0.132465 0.27902,0.196968 0.0404,0.0314 0.0965,0.07411 0.1248,0.0949 0.0621,0.04557 0.15938,0.243634 0.15938,0.324237 0,0.0348 -0.0143,0.07023 -0.0357,0.08858 -0.0197,0.01683 -0.0305,0.03895 -0.0243,0.04918 0.006,0.01021 0.0205,0.06383 0.0316,0.119148 l 0.0201,0.100571 0.10277,0.02334 c 0.14862,0.03376 0.34317,0.172629 0.37378,0.266822 0.007,0.02398 0.0243,0.02849 0.0743,0.02036 0.1255,-0.02037 0.2048,0.07213 0.18545,0.216355 -0.0121,0.09036 -0.0903,0.213802 -0.14993,0.236433 -0.024,0.0091 -0.0846,0.04603 -0.13469,0.082 -0.13179,0.09468 -0.19053,0.111602 -0.26262,0.07563 -0.0322,-0.01606 -0.0607,-0.02708 -0.0632,-0.02451 -0.003,0.0025 0.004,0.04592 0.0137,0.09633 0.0244,0.12144 0.0345,0.660987 0.0139,0.74301 -0.0325,0.129212 -0.25331,0.272508 -0.42256,0.274097 -0.0264,2.48e-4 -0.11716,0.01219 -0.20168,0.02652 -0.0894,0.01518 -0.18432,0.02065 -0.227,0.01311 -0.0404,-0.0071 -0.10949,-0.0076 -0.1537,-0.0011 -0.0851,0.01256 -0.34214,-0.01033 -0.43089,-0.03837 -0.0393,-0.01245 -0.0722,-0.0083 -0.12833,0.0162 -0.10232,0.04462 -0.28727,0.04218 -0.33882,-0.0044 -0.0206,-0.01866 -0.0724,-0.09278 -0.11508,-0.164764 -0.0911,-0.153612 -0.201,-0.31139 -0.22349,-0.320904 -0.008,-0.0036 -0.0551,-0.04082 -0.10316,-0.08251 -0.048,-0.04169 -0.11311,-0.09764 -0.14462,-0.124317 l -0.0572,-0.04851 -0.18256,0.151783 c -0.10042,0.08348 -0.21856,0.169207 -0.26255,0.190502 -0.044,0.0213 -0.13856,0.09536 -0.21017,0.164587 -0.0716,0.06922 -0.15807,0.143108 -0.19217,0.164178 -0.0759,0.04695 -0.33985,0.111381 -0.53739,0.131213 -0.18148,0.01822 -0.32733,0.04782 -0.38093,0.07731 -0.0516,0.02836 -0.35978,0.03087 -0.47422,0.0038 -0.0526,-0.0124 -0.0965,-0.01368 -0.11497,-0.0033 -0.0351,0.01962 -0.0909,0.0051 -0.12984,-0.03387 -0.0403,-0.04024 -0.0338,-0.125809 0.0135,-0.18074 0.0544,-0.06304 0.21861,-0.08387 0.32124,-0.04075 0.12056,0.05064 0.18018,0.05152 0.32995,0.0049 0.13742,-0.04283 0.21681,-0.0579 0.3893,-0.0739 0.0454,-0.0042 0.16088,-0.02504 0.25667,-0.04628 0.1843,-0.04087 0.17454,-0.03489 0.3942,-0.24139 0.0505,-0.0474 0.13435,-0.10939 0.1865,-0.137755 0.17124,-0.09313 0.41461,-0.297784 0.4641,-0.390256 0.0256,-0.04772 0.0978,-0.07739 0.14494,-0.05957 0.0193,0.0073 0.0797,0.05448 0.13424,0.104901 0.0545,0.05042 0.1606,0.141778 0.23561,0.203017 0.12905,0.105372 0.30124,0.326888 0.36804,0.473503 0.0214,0.04718 0.0291,0.05028 0.0975,0.03955 0.0408,-0.0064 0.10042,-0.02101 0.13252,-0.03248 0.0454,-0.01621 0.0821,-0.01505 0.16501,0.0052 0.0744,0.01815 0.22041,0.02608 0.48254,0.02614 0.32173,9.2e-5 0.3917,-0.005 0.48586,-0.03537 0.19139,-0.06173 0.19135,-0.06169 0.19137,-0.294543 2e-5,-0.183996 -0.0222,-0.408374 -0.099,-0.999237 -0.05,-0.384857 -0.0675,-0.460426 -0.1094,-0.476343 -0.0209,-0.0079 -0.0432,-0.01134 -0.0496,-0.0076 -0.006,0.0037 -0.1054,-0.0053 -0.22001,-0.01989 -0.3488,-0.04466 -0.4483,-0.04043 -0.88676,0.03769 -0.0807,0.01437 -0.19358,0.02612 -0.25091,0.02611 -0.0573,-9e-6 -0.12745,0.0089 -0.15585,0.01979 -0.0566,0.02172 -0.17483,0.02776 -0.85833,0.04391 -0.4308,0.01017 -0.65141,2.36e-4 -0.97173,-0.04375 -0.0706,-0.0097 -0.19022,-0.02273 -0.26585,-0.02896 -0.0756,-0.0063 -0.19527,-0.01881 -0.26586,-0.02794 -0.16751,-0.02166 -0.36446,-0.03702 -0.56497,-0.04406 -0.0889,-0.0031 -0.17034,-0.01441 -0.181,-0.02508 -0.0137,-0.01366 -0.0329,-0.01326 -0.0649,0.0013 -0.0416,0.01891 -0.0446,0.0281 -0.0346,0.104006 0.006,0.04579 0.0164,0.184884 0.0231,0.309093 l 0.0121,0.225836 0.0585,0.0446 c 0.0322,0.02453 0.0664,0.0446 0.0762,0.0446 0.0395,0 0.098,0.07701 0.098,0.129057 0,0.08381 -0.0603,0.132376 -0.15486,0.124754 l -0.0781,-0.0063 -0.0121,0.302521 c -0.0124,0.311778 0.0104,0.849569 0.0454,1.068524 0.0167,0.104431 0.0154,0.131153 -0.008,0.167244 -0.0336,0.05119 -0.10501,0.06869 -0.16281,0.03989 z m 5.38613,-1.792531 c 0.0349,0.0013 0.0634,-0.0057 0.0634,-0.01539 0,-0.0098 -0.008,-0.01777 -0.0186,-0.01777 -0.0102,0 -0.0349,-0.02679 -0.0548,-0.05952 -0.0377,-0.062 -0.0341,-0.109963 0.0122,-0.162847 0.0234,-0.02664 0.0173,-0.03504 -0.0559,-0.07793 -0.0451,-0.02643 -0.0901,-0.04806 -0.0999,-0.04806 -0.0194,0 -0.0141,0.07806 0.0195,0.288087 0.0173,0.107776 0.0258,0.128434 0.0459,0.111653 0.0137,-0.01133 0.0533,-0.01953 0.0881,-0.01821 z m -5.51039,-0.403793 c 0,-0.05496 -0.002,-0.05688 -0.0304,-0.02842 -0.0252,0.0252 -0.0264,0.03545 -0.006,0.05893 0.0331,0.03987 0.0374,0.03633 0.0374,-0.03051 z m 3.35523,-0.471663 c 0.0756,-0.01052 0.1994,-0.02819 0.27503,-0.0393 0.0756,-0.0111 0.19525,-0.02685 0.26585,-0.03498 0.0706,-0.0082 0.1773,-0.02389 0.23713,-0.03499 0.12938,-0.02401 0.39343,-0.02574 0.49626,-0.0032 0.0403,0.0088 0.14965,0.02161 0.24293,0.02843 0.15948,0.01165 0.16959,0.01029 0.16959,-0.02291 0,-0.111601 -0.0342,-0.148254 -0.37585,-0.403237 l -0.0916,-0.06841 -0.31169,-0.0023 c -0.17143,-0.0013 -0.41595,-0.0082 -0.54338,-0.01535 -0.15667,-0.0088 -0.23558,-0.0068 -0.24368,0.0064 -0.006,0.01067 0.0255,0.07525 0.0712,0.143503 0.0637,0.09503 0.0832,0.141051 0.0832,0.196456 0,0.141245 -0.13885,0.210399 -0.21869,0.108912 -0.0209,-0.02658 -0.0383,-0.06164 -0.0386,-0.07793 -4e-4,-0.01629 -0.0341,-0.08324 -0.0749,-0.148787 -0.0409,-0.06555 -0.0878,-0.141178 -0.10424,-0.16807 -0.0431,-0.07052 -0.14869,-0.07599 -0.4573,-0.02369 l -0.0597,0.01011 0.0459,0.06758 c 0.0799,0.11754 0.0548,0.212064 -0.0687,0.259019 -0.094,0.03577 -0.17118,-0.0223 -0.18515,-0.139433 -0.004,-0.02824 -0.0218,-0.08613 -0.0412,-0.128636 -0.0346,-0.07641 -0.0358,-0.07714 -0.10831,-0.06429 -0.0403,0.0071 -0.10634,0.01183 -0.14669,0.01041 -0.16232,-0.0058 -0.47893,-0.005 -0.51337,0.0012 -0.0201,0.0036 -0.10679,0.01226 -0.1925,0.01913 -0.0858,0.0069 -0.22185,0.02379 -0.30252,0.03763 -0.0807,0.01382 -0.20696,0.0347 -0.28061,0.0464 -0.0755,0.012 -0.14347,0.03338 -0.15584,0.04907 -0.0121,0.01529 -0.0698,0.07945 -0.1281,0.142584 -0.11784,0.127406 -0.115,0.13747 0.0389,0.137795 0.047,1e-4 0.21761,0.01651 0.37896,0.03649 0.16133,0.01996 0.33364,0.03639 0.3829,0.03649 0.0908,1.8e-4 0.27946,0.02696 0.39631,0.05627 0.0851,0.02135 1.38285,0.0061 1.55844,-0.01831 z m -0.52861,-0.828986 0.14058,-0.0214 -0.0297,-0.04748 c -0.0301,-0.04821 -0.1507,-0.20067 -0.2114,-0.267493 -0.0183,-0.02018 -0.0596,-0.07281 -0.0917,-0.116983 -0.0986,-0.135721 -0.2133,-0.253181 -0.21378,-0.218955 -5.5e-4,0.03772 -0.0848,0.106755 -0.13038,0.106755 -0.0276,0 -0.0203,0.01956 0.043,0.114591 0.0419,0.06303 0.0983,0.16822 0.12524,0.233767 0.027,0.06555 0.0645,0.145937 0.0833,0.178646 0.0396,0.06864 0.0648,0.07204 0.28493,0.03855 z m 9.41174,3.066082 c -0.31237,-0.09278 -0.57054,-0.363419 -0.63511,-0.665767 -0.0113,-0.05307 -0.036,-0.116176 -0.0548,-0.140225 -0.0437,-0.05574 -0.043,-0.109191 0.003,-0.167124 0.0197,-0.02521 0.036,-0.06431 0.0363,-0.08689 9.4e-4,-0.123086 0.13162,-0.348346 0.25009,-0.432035 0.12804,-0.09045 0.44209,-0.188321 0.53432,-0.166515 0.14924,0.03529 0.23396,0.180907 0.22125,0.380361 -0.006,0.09573 -0.02,0.138595 -0.0734,0.225397 -0.1039,0.169161 -0.32893,0.319018 -0.55915,0.372361 -0.0922,0.02136 -0.0943,0.0233 -0.0774,0.07091 0.0818,0.229328 0.43017,0.437134 0.65012,0.387842 0.1167,-0.02615 0.14594,-0.04364 0.27694,-0.165563 0.12028,-0.111936 0.11725,-0.110862 0.43178,-0.152645 0.10662,-0.01417 0.28465,-0.102342 0.3447,-0.17073 0.03,-0.03415 0.0545,-0.06914 0.0545,-0.07777 0,-0.02654 -0.16114,-0.09308 -0.2244,-0.09266 -0.0364,2.35e-4 -0.13446,0.03969 -0.25067,0.100843 -0.10499,0.05524 -0.20606,0.100449 -0.2246,0.100449 -0.0523,0 -0.10705,-0.06667 -0.10705,-0.130287 0,-0.179981 0.4187,-0.416411 0.75308,-0.425249 0.12551,-0.0032 0.14511,0.0011 0.20369,0.04572 0.0701,0.05345 0.12496,0.150005 0.12496,0.220068 0,0.03537 0.0222,0.05526 0.1146,0.102444 0.14268,0.0729 0.27049,0.09833 0.38045,0.07567 0.17623,-0.0363 0.20113,-0.03916 0.2451,-0.02812 0.025,0.0063 0.0722,0.0339 0.10483,0.06139 l 0.0595,0.05 -0.0128,-0.256254 c -0.0259,-0.515854 -0.30084,-2.056939 -0.38369,-2.150534 -0.015,-0.01697 -0.0457,-0.107683 -0.0684,-0.201585 -0.0461,-0.191853 -0.0366,-0.246912 0.0478,-0.279026 0.0949,-0.03608 0.18627,0.0548 0.22806,0.226826 0.007,0.03186 0.0431,0.169302 0.0786,0.305436 0.10419,0.399915 0.284,1.412968 0.32427,1.827068 0.0233,0.239323 0.023,0.603772 -5.6e-4,0.688525 -0.046,0.165735 -0.21558,0.189841 -0.35727,0.0508 l -0.0794,-0.07791 -0.0828,0.02084 c -0.17407,0.04383 -0.42774,0.01112 -0.57148,-0.07369 l -0.0656,-0.0387 -0.0907,0.101798 c -0.14031,0.15742 -0.32484,0.246031 -0.59957,0.287928 -0.14533,0.02216 -0.15563,0.027 -0.24983,0.117081 -0.18956,0.181321 -0.43591,0.237565 -0.69866,0.159516 z m -0.18251,-0.980811 c 0.11728,-0.05305 0.22045,-0.143304 0.2661,-0.232771 0.0414,-0.081 0.0447,-0.12563 0.0126,-0.167558 -0.0207,-0.02709 -0.0326,-0.02747 -0.12184,-0.0038 -0.0544,0.01439 -0.13279,0.04284 -0.17418,0.06321 -0.11466,0.05647 -0.21276,0.219417 -0.21276,0.353434 0,0.05275 0.002,0.05395 0.0688,0.04185 0.0378,-0.0069 0.11039,-0.0313 0.16127,-0.05432 z m -2.74818,0.872564 c -0.0378,-0.04182 -0.0394,-0.137759 -0.003,-0.168153 0.0441,-0.03657 0.0314,-0.198719 -0.046,-0.586707 -0.0191,-0.0958 -0.0605,-0.330941 -0.0918,-0.522538 -0.0314,-0.191597 -0.0693,-0.406111 -0.0842,-0.476699 -0.0425,-0.200548 -0.0987,-0.732785 -0.0987,-0.93343 0,-0.253646 0.0344,-0.355536 0.15487,-0.458172 0.14993,-0.127769 0.20015,-0.147395 0.36594,-0.143029 0.17919,0.0047 0.25074,0.02306 0.46009,0.117918 0.21526,0.09755 0.38536,0.21618 0.57812,0.403209 0.19347,0.187713 0.28721,0.310635 0.38326,0.502546 0.0774,0.154429 0.0884,0.212878 0.0546,0.28705 -0.0329,0.07189 -0.11272,0.103797 -0.33177,0.132373 -0.33099,0.04318 -0.49173,0.08616 -0.49173,0.131476 0,0.120274 0.42965,0.946006 0.59698,1.147317 0.14742,0.177372 0.30142,0.274234 0.30142,0.189598 0,-0.0383 0.0633,-0.08427 0.11603,-0.08427 0.0269,0 0.0665,0.01752 0.0879,0.03895 0.0328,0.03267 0.0373,0.0532 0.0285,0.127357 -0.0142,0.119217 -0.0541,0.19042 -0.123,0.218953 -0.18461,0.07647 -0.5378,-0.178127 -0.75399,-0.543531 -0.28255,-0.477572 -0.50984,-0.973695 -0.5103,-1.113823 -5.5e-4,-0.189314 0.16995,-0.285406 0.60482,-0.340753 0.0958,-0.01219 0.18506,-0.02553 0.19838,-0.02964 0.0472,-0.01456 -0.092,-0.228105 -0.27146,-0.416259 -0.19114,-0.200468 -0.32775,-0.305661 -0.5228,-0.402592 -0.17166,-0.08531 -0.23657,-0.104691 -0.38106,-0.11379 -0.11509,-0.0072 -0.12619,-0.0043 -0.19471,0.05072 -0.0595,0.0478 -0.0765,0.07652 -0.0943,0.15828 -0.0338,0.15603 0.006,0.566506 0.11107,1.156044 0.0388,0.216806 0.0798,0.456074 0.0911,0.531704 0.0113,0.07562 0.0364,0.211765 0.0557,0.302521 0.0532,0.250613 0.0975,0.603321 0.0844,0.672583 -0.006,0.03397 -0.0369,0.09249 -0.0678,0.130037 -0.0441,0.05343 -0.0693,0.06828 -0.11629,0.06828 -0.0349,0 -0.0727,-0.01406 -0.0904,-0.03353 z m 7.57012,-0.338205 c -0.15027,-0.0851 -0.24619,-0.298511 -0.26144,-0.581667 -0.0108,-0.199044 0.0168,-0.334649 0.0951,-0.468204 0.0456,-0.07783 0.1958,-0.208707 0.24067,-0.209722 0.011,-2.5e-4 0.0351,-0.01696 0.0532,-0.03712 0.0713,-0.07887 0.21084,-0.02716 0.21084,0.07818 0,0.09832 -0.0319,0.140866 -0.14179,0.188511 -0.0673,0.02918 -0.12042,0.06741 -0.14608,0.105032 -0.10903,0.159783 -0.0737,0.581742 0.0576,0.690866 0.0246,0.02038 0.0351,0.0189 0.0662,-0.0093 0.0521,-0.04706 0.13936,-0.237099 0.17306,-0.376496 0.081,-0.334869 0.0426,-1.072988 -0.0847,-1.630165 -0.0219,-0.0958 -0.049,-0.215432 -0.0603,-0.265852 -0.0112,-0.05042 -0.0348,-0.112919 -0.0523,-0.138886 -0.0527,-0.07818 -0.17849,-0.528241 -0.17849,-0.638632 0,-0.02806 0.0151,-0.06468 0.0336,-0.08138 0.0461,-0.04176 0.14288,-0.03886 0.1808,0.0055 0.0515,0.06005 0.16984,0.398588 0.2248,0.642614 0.0124,0.05547 0.0464,0.201044 0.0753,0.323516 0.15699,0.663965 0.1942,1.475556 0.0877,1.910522 -0.0309,0.126063 -0.13803,0.332109 -0.21434,0.412242 -0.12444,0.130677 -0.22945,0.154201 -0.3595,0.08054 z m -0.94368,-0.0087 c -0.0377,-0.03068 -0.0396,-0.04899 -0.0453,-0.417112 -0.006,-0.425778 -0.0185,-0.492585 -0.12972,-0.717607 -0.0355,-0.072 -0.0647,-0.151161 -0.0647,-0.175922 0,-0.106194 0.14988,-0.144882 0.21931,-0.05661 0.0574,0.07307 0.14065,0.25708 0.17258,0.381767 0.0441,0.172502 0.0719,0.512281 0.0597,0.731937 -0.009,0.17175 -0.0168,0.206307 -0.0512,0.242934 -0.0477,0.05081 -0.1066,0.0547 -0.16074,0.01061 z m 3.61591,-0.0062 c -0.0976,-0.04831 -0.19795,-0.158773 -0.25443,-0.280056 -0.0771,-0.165461 -0.0498,-0.34662 0.0751,-0.499086 0.0352,-0.04291 0.0639,-0.08194 0.0639,-0.08676 0,-0.0048 -0.0309,-0.0017 -0.0688,0.007 -0.0378,0.0086 -0.13888,0.02061 -0.2246,0.02665 -0.23877,0.01683 -0.23778,0.01643 -0.22579,0.09037 0.006,0.0347 0.005,0.101904 -0.003,0.149335 -0.0172,0.114781 -0.14599,0.253029 -0.31615,0.339394 -0.11532,0.05854 -0.13372,0.06226 -0.30697,0.06226 -0.16227,0 -0.19374,-0.0055 -0.26314,-0.04514 -0.10964,-0.06278 -0.14377,-0.128442 -0.15591,-0.299951 -0.008,-0.125354 -0.006,-0.147858 0.0252,-0.178762 0.0354,-0.03536 0.11838,-0.04669 0.15637,-0.02133 0.0382,0.02553 0.0623,0.0938 0.0623,0.176631 0,0.103956 0.0352,0.126683 0.19038,0.123173 0.17359,-0.0039 0.35966,-0.119265 0.35966,-0.222956 0,-0.05996 -0.11226,-0.211844 -0.16946,-0.229279 -0.0228,-0.007 -0.0538,-0.02315 -0.0689,-0.03603 -0.0151,-0.01288 -0.12239,-0.06651 -0.23835,-0.119189 -0.11597,-0.05268 -0.21713,-0.105105 -0.22481,-0.116511 -0.0298,-0.04432 -0.006,-0.144846 0.0446,-0.181842 0.10453,-0.07771 0.29171,-0.02366 0.53011,0.153082 0.0687,0.05088 0.15207,0.100783 0.1854,0.11088 0.0922,0.02795 0.26985,0.021 0.58336,-0.02281 l 0.28444,-0.03975 0.0856,0.03784 c 0.10031,0.04436 0.15196,0.124177 0.13383,0.206718 -0.007,0.03343 -0.0515,0.08747 -0.11954,0.146456 -0.0594,0.0514 -0.12475,0.120757 -0.14536,0.154106 -0.0717,0.116099 -0.0338,0.263316 0.0902,0.349195 0.0663,0.046 0.0732,0.04712 0.13354,0.02192 0.13962,-0.05834 0.18915,-0.287896 0.17278,-0.800677 -0.0127,-0.398442 -0.0329,-0.611954 -0.15147,-1.604279 -0.0253,-0.211765 -0.0609,-0.509193 -0.079,-0.66095 -0.03,-0.252109 -0.0371,-0.280125 -0.0815,-0.324607 -0.0596,-0.05955 -0.0623,-0.122892 -0.007,-0.174394 0.12706,-0.119368 0.25776,-0.06859 0.29573,0.114877 0.006,0.03025 0.0192,0.141636 0.0287,0.247518 0.009,0.105882 0.0342,0.320398 0.0548,0.4767 0.0206,0.156303 0.0494,0.395569 0.064,0.531704 0.0147,0.136135 0.045,0.404279 0.0676,0.595876 0.0572,0.486206 0.0621,1.314266 0.008,1.491873 -0.0891,0.296078 -0.35835,0.446562 -0.59212,0.330851 z m -17.91246,-0.877446 c -0.11655,-0.05037 -0.0967,-0.262039 0.0243,-0.25878 0.21756,0.0059 0.42222,-0.0068 0.61166,-0.03762 0.34347,-0.056 0.38464,-0.05857 0.99924,-0.06255 0.31262,-0.002 0.66434,-0.0086 0.78164,-0.01467 0.19679,-0.01014 0.21578,-0.0082 0.24599,0.02519 0.044,0.04855 0.0417,0.138804 -0.005,0.185132 -0.0506,0.05048 -0.10296,0.0537 -0.97713,0.05996 -0.47598,0.0033 -0.78204,0.01311 -0.85256,0.02701 -0.22237,0.04387 -0.42335,0.07359 -0.48587,0.07186 -0.0353,-10e-4 -0.1178,0.0035 -0.18334,0.01001 -0.0655,0.0065 -0.1372,0.004 -0.15923,-0.0056 z m 14.12105,-1.065014 c -0.0828,-0.04669 -0.15171,-0.07242 -0.19426,-0.07256 -0.11876,-3.88e-4 -0.1656,-0.110695 -0.0886,-0.208592 0.0537,-0.06828 0.14298,-0.06395 0.31429,0.01519 0.23121,0.106825 0.30663,0.212654 0.21609,0.303196 -0.0523,0.05232 -0.10186,0.04488 -0.24752,-0.03723 z m -11.72499,-0.819366 c -0.0151,-0.0055 -0.0518,-0.0342 -0.0814,-0.06386 -0.0662,-0.06626 -0.22338,-0.170593 -0.28529,-0.189399 -0.0252,-0.0077 -0.11598,-0.04869 -0.20169,-0.09119 -0.1013,-0.05022 -0.23284,-0.09519 -0.37586,-0.128464 -0.12101,-0.02815 -0.23445,-0.06359 -0.25211,-0.07874 -0.0423,-0.0363 -0.0415,-0.136021 0.002,-0.174857 0.0185,-0.01669 0.0599,-0.03034 0.0922,-0.03034 0.11785,0 0.45422,0.0972 0.64207,0.185535 0.10465,0.04922 0.19944,0.08948 0.21062,0.08948 0.0337,0 0.37676,0.237848 0.39658,0.274901 0.057,0.106523 -0.0412,0.245056 -0.14661,0.206929 z"
       id="path2273" />
  </g>
</svg>
