<?xml version="1.0" encoding="UTF-8" standalone="no"?>
<!-- Created with Inkscape (http://www.inkscape.org/) -->

<svg
   width="150.58704"
   height="60.408993"
   viewBox="0 0 19.921408 7.9916058"
   version="1.1"
   id="svg5"
   inkscape:version="1.1.1 (3bf5ae0d25, 2021-09-20)"
   sodipodi:docname="coffee.svg"
   xmlns:inkscape="http://www.inkscape.org/namespaces/inkscape"
   xmlns:sodipodi="http://sodipodi.sourceforge.net/DTD/sodipodi-0.dtd"
   xmlns="http://www.w3.org/2000/svg"
   xmlns:svg="http://www.w3.org/2000/svg">
  <sodipodi:namedview
     id="namedview7"
     pagecolor="#ffffff"
     bordercolor="#666666"
     borderopacity="1.0"
     inkscape:pageshadow="2"
     inkscape:pageopacity="0.0"
     inkscape:pagecheckerboard="0"
     inkscape:document-units="mm"
     showgrid="false"
     inkscape:zoom="2.0208096"
     inkscape:cx="136.57892"
     inkscape:cy="-16.577514"
     inkscape:window-width="1920"
     inkscape:window-height="991"
     inkscape:window-x="-9"
     inkscape:window-y="-9"
     inkscape:window-maximized="1"
     inkscape:current-layer="layer1"
     fit-margin-top="0"
     fit-margin-left="0"
     fit-margin-right="0"
     fit-margin-bottom="0"
     units="px" />
  <defs
     id="defs2" />
  <g
     inkscape:label="Capa 1"
     inkscape:groupmode="layer"
     id="layer1"
     transform="translate(154.19458,46.267994)">
    <path
       style="fill:#000000;stroke-width:0.0166306"
       d="m -152.29432,-38.284482 c -0.0971,-0.01134 -0.23008,-0.05241 -0.27441,-0.08472 -0.009,-0.0067 -0.0935,-0.03185 -0.18748,-0.05596 -0.094,-0.02411 -0.21134,-0.06173 -0.26081,-0.08361 -0.0495,-0.02188 -0.13349,-0.04875 -0.1867,-0.05972 -0.0532,-0.01097 -0.11801,-0.03086 -0.144,-0.04419 -0.026,-0.01335 -0.10007,-0.03527 -0.16462,-0.04873 -0.14281,-0.02978 -0.1629,-0.03975 -0.27873,-0.138223 -0.0503,-0.04278 -0.11846,-0.09416 -0.15145,-0.114199 -0.0753,-0.0457 -0.20867,-0.187139 -0.23419,-0.248249 -0.0114,-0.0274 -0.0187,-0.130722 -0.0178,-0.254075 9.4e-4,-0.174974 0.008,-0.228945 0.0441,-0.340928 0.0507,-0.158038 0.16147,-0.329951 0.2698,-0.418705 0.0427,-0.03497 0.1116,-0.09242 0.15315,-0.127674 0.0416,-0.03525 0.0948,-0.0724 0.11826,-0.08254 0.0328,-0.01416 0.2302,-0.129463 0.26484,-0.154696 0.003,-0.0023 -0.0422,-0.100612 -0.10109,-0.218319 -0.0953,-0.190692 -0.11014,-0.233839 -0.13573,-0.395992 -0.0158,-0.10009 -0.0388,-0.2194 -0.0513,-0.265134 -0.0124,-0.04573 -0.0278,-0.143024 -0.034,-0.216198 -0.007,-0.07317 -0.0261,-0.175733 -0.044,-0.227906 -0.0259,-0.07527 -0.0333,-0.14568 -0.0358,-0.340928 -0.004,-0.286864 0.0101,-0.571237 0.0291,-0.602011 0.008,-0.01184 0.0344,-0.03043 0.0603,-0.04132 l 0.047,-0.01979 -0.0564,-0.05756 c -0.0311,-0.03166 -0.0718,-0.07196 -0.0907,-0.08957 -0.0765,-0.0716 -0.0129,-0.169335 0.18198,-0.279522 0.0503,-0.02845 0.11856,-0.07574 0.15167,-0.105083 0.0894,-0.07919 0.2735,-0.178662 0.40546,-0.219007 0.23107,-0.07065 0.34947,-0.104914 0.36172,-0.104679 0.007,1.39e-4 0.0274,-0.01472 0.0457,-0.03303 0.0416,-0.04156 0.10434,-0.04178 0.19481,-7.28e-4 0.048,0.02175 0.0735,0.04532 0.0808,0.07447 0.0267,0.106473 -0.036,0.163812 -0.20078,0.183594 -0.0549,0.0066 -0.12383,0.02197 -0.1532,0.03419 -0.0294,0.01221 -0.0875,0.02731 -0.12909,0.03356 -0.0417,0.0063 -0.0794,0.01731 -0.0839,0.02462 -0.005,0.0073 -0.0378,0.01828 -0.0741,0.02441 -0.0362,0.0061 -0.083,0.02446 -0.10385,0.04074 -0.0208,0.01628 -0.0678,0.04486 -0.10443,0.06353 -0.0366,0.01867 -0.0852,0.0541 -0.10809,0.07874 -0.0228,0.02464 -0.0696,0.05921 -0.10395,0.0768 -0.0343,0.01759 -0.0623,0.03873 -0.0623,0.04697 0,0.05273 0.27122,0.216579 0.52618,0.317857 0.0656,0.02606 0.15817,0.06614 0.20569,0.08907 0.1229,0.05928 0.36905,0.129704 0.52374,0.149829 0.0977,0.01272 0.30355,0.05174 0.46057,0.08733 0.0612,0.01387 0.11939,0.02023 0.12927,0.01413 0.01,-0.0061 0.14313,-0.0029 0.29614,0.007 0.32048,0.02095 0.42609,0.02301 0.61078,0.01197 0.0732,-0.0043 0.26775,-0.01587 0.4324,-0.02554 0.16464,-0.0097 0.32928,-0.02592 0.36587,-0.03611 0.12269,-0.03418 0.26557,-0.08555 0.32656,-0.117408 0.0332,-0.01737 0.0683,-0.03158 0.0779,-0.03158 0.022,0 0.2702,-0.146328 0.36723,-0.216494 0.0403,-0.02911 0.10386,-0.06654 0.14135,-0.08319 0.0375,-0.01664 0.10729,-0.06695 0.15509,-0.111788 0.0479,-0.04484 0.14884,-0.125543 0.22452,-0.179344 0.0756,-0.0538 0.16123,-0.117909 0.19011,-0.14246 0.0523,-0.04444 0.0524,-0.04485 0.0234,-0.09224 -0.0404,-0.06619 -0.14148,-0.153437 -0.25742,-0.222219 -0.12997,-0.07712 -0.17608,-0.122639 -0.17608,-0.173866 0,-0.106461 0.14446,-0.145403 0.25115,-0.0677 0.0311,0.02264 0.0725,0.04833 0.0922,0.05713 0.0522,0.02339 0.25323,0.21567 0.30354,0.290316 0.0811,0.120381 0.11547,0.185113 0.11681,0.220061 9.4e-4,0.02471 0.0207,0.04251 0.0678,0.06098 0.085,0.03341 0.10876,0.08845 0.0837,0.194338 -0.0218,0.09211 -0.0473,0.30017 -0.0368,0.30017 0.0153,0 0.14546,-0.03734 0.17774,-0.05098 0.0183,-0.0077 0.0632,-0.02648 0.0998,-0.04168 0.0366,-0.01519 0.12265,-0.03406 0.19125,-0.04192 0.0686,-0.0079 0.16384,-0.01915 0.21164,-0.02509 0.0943,-0.0117 0.16886,0.0023 0.38362,0.07224 0.33735,0.109778 0.61228,0.449355 0.58057,0.717076 -0.0213,0.180003 -0.13248,0.384837 -0.25694,0.473448 -0.0407,0.02901 -0.1201,0.09408 -0.17635,0.144599 -0.0562,0.05052 -0.1322,0.113958 -0.16878,0.140973 -0.0365,0.02701 -0.10394,0.08035 -0.14969,0.118525 -0.0457,0.03818 -0.15424,0.104253 -0.24113,0.14684 -0.2301,0.112771 -0.35442,0.179074 -0.40908,0.218188 -0.1033,0.07391 -0.27878,0.157856 -0.39365,0.18833 -0.1992,0.05285 -0.20782,0.05986 -0.13815,0.112526 0.0744,0.05623 0.37004,0.446301 0.43279,0.570986 0.0805,0.159988 0.0668,0.376244 -0.0367,0.579692 -0.0747,0.146749 -0.14751,0.222043 -0.27013,0.279207 -0.12964,0.06044 -0.14449,0.06619 -0.27441,0.10641 -0.064,0.01982 -0.15148,0.05022 -0.19433,0.06754 -0.0428,0.01732 -0.0975,0.0315 -0.1213,0.0315 -0.0259,0 -0.0417,0.0084 -0.0392,0.02079 0.0154,0.07652 -0.0528,0.145517 -0.14388,0.145517 -0.0219,0 -0.0445,0.0075 -0.05,0.01663 -0.006,0.0091 -0.0431,0.01663 -0.0832,0.01663 -0.0401,0 -0.077,0.0067 -0.082,0.01474 -0.0133,0.0216 -0.10805,0.03625 -0.28091,0.04348 -0.084,0.0036 -0.20503,0.01839 -0.26906,0.03305 -0.064,0.01467 -0.1688,0.03671 -0.23283,0.049 -0.064,0.01228 -0.15009,0.03047 -0.19126,0.04044 -0.16567,0.04009 -0.38234,0.08551 -0.39451,0.08268 -0.0211,-0.0049 -0.16968,0.02094 -0.3146,0.05469 -0.0744,0.01734 -0.14629,0.02734 -0.15964,0.02221 -0.0435,-0.01665 -0.42144,0.05747 -0.51758,0.101493 -0.0871,0.03989 -0.11192,0.04283 -0.40512,0.04821 -0.17177,0.0032 -0.36096,5e-5 -0.42042,-0.0069 z m 0.75669,-0.269514 c 0.0937,-0.04095 0.2112,-0.0637 0.7068,-0.136802 l 0.158,-0.0233 -0.11571,-0.0018 c -0.0636,-10e-4 -0.20805,-0.0137 -0.32092,-0.02826 -0.17645,-0.02275 -0.23366,-0.02352 -0.40816,-0.0054 -0.11161,0.01156 -0.28526,0.02251 -0.38588,0.02434 -0.4367,0.0079 -0.92487,0.03009 -0.90406,0.04108 0.0125,0.0066 0.0787,0.02521 0.14737,0.04143 0.0686,0.01622 0.14717,0.04096 0.17461,0.05497 0.14605,0.07459 0.22141,0.08597 0.5405,0.08161 0.29081,-0.0039 0.31314,-0.0066 0.40745,-0.04783 z m 0.9185,-0.173736 c -0.006,-0.0055 -0.0199,-0.0061 -0.0319,-0.0013 -0.0133,0.0053 -0.009,0.0093 0.01,0.01005 0.0175,7.27e-4 0.0274,-0.0032 0.0218,-0.0087 z m -1.81655,-0.207989 c 0.11891,-0.0095 0.31723,-0.02039 0.44071,-0.02427 0.12348,-0.0038 0.33303,-0.0151 0.46566,-0.02495 0.20047,-0.0149 0.27901,-0.0134 0.46566,0.0088 0.18452,0.02201 0.27043,0.02378 0.48229,0.01 0.39134,-0.02549 0.60312,-0.04817 0.70985,-0.07605 0.0532,-0.01389 0.18279,-0.03269 0.28798,-0.04178 0.52602,-0.04542 0.75573,-0.08253 0.96457,-0.155801 0.48019,-0.168469 0.49512,-0.177121 0.56208,-0.325551 0.0636,-0.1411 0.0745,-0.237449 0.0378,-0.334184 -0.0169,-0.04437 -0.047,-0.101588 -0.0669,-0.127151 -0.02,-0.02555 -0.0926,-0.119487 -0.16153,-0.208724 -0.078,-0.101035 -0.14048,-0.166064 -0.16558,-0.172364 -0.0222,-0.0055 -0.051,-0.02538 -0.0641,-0.04403 -0.0233,-0.03326 -0.0241,-0.03299 -0.045,0.01438 -0.0607,0.138166 -0.28302,0.432897 -0.38532,0.510854 -0.0791,0.06032 -0.36435,0.194499 -0.43722,0.205707 -0.0353,0.0054 -0.0717,0.01551 -0.0809,0.0224 -0.0251,0.01889 -0.18151,0.04758 -0.34924,0.06406 -0.14031,0.01379 -0.25031,0.03647 -0.44903,0.09259 -0.0457,0.01291 -0.13554,0.03121 -0.19957,0.04065 -0.15548,0.02292 -0.62857,0.02486 -0.81489,0.0033 -0.0823,-0.0095 -0.2288,-0.0132 -0.3255,-0.0082 -0.19724,0.01018 -0.52358,-0.02585 -0.68897,-0.07607 -0.0549,-0.01667 -0.17226,-0.04691 -0.26085,-0.06722 -0.12604,-0.0289 -0.1788,-0.05027 -0.24267,-0.09826 -0.12245,-0.092 -0.2764,-0.270332 -0.33631,-0.38955 -0.0293,-0.05825 -0.0707,-0.127557 -0.092,-0.154005 -0.0359,-0.04461 -0.0416,-0.04636 -0.0773,-0.02431 -0.0212,0.01308 -0.0909,0.05397 -0.15499,0.09087 -0.38734,0.22325 -0.54124,0.44951 -0.54636,0.803217 l -0.003,0.1695 0.0582,0.06059 c 0.12857,0.133834 0.43002,0.231345 0.69848,0.225941 0.0749,-0.0015 0.1513,0.0073 0.19126,0.02202 0.0793,0.02923 0.27753,0.0318 0.58207,0.0075 z m 1.70464,-0.7868 c 0.25745,-0.01048 0.40067,-0.02733 0.44071,-0.05186 0.0183,-0.01121 0.0753,-0.02494 0.12655,-0.03052 0.0513,-0.0055 0.12029,-0.02143 0.15329,-0.03522 0.033,-0.0138 0.0929,-0.02508 0.13321,-0.02508 0.0927,0 0.36079,-0.04625 0.38513,-0.06645 0.0101,-0.0084 0.048,-0.02005 0.0841,-0.0259 0.0361,-0.0058 0.0919,-0.02439 0.12391,-0.04118 0.032,-0.01679 0.1031,-0.05247 0.15798,-0.07927 0.0549,-0.0268 0.11101,-0.06577 0.12473,-0.08658 0.0137,-0.02081 0.0464,-0.06112 0.0725,-0.08958 0.10561,-0.114966 0.2269,-0.334144 0.31237,-0.564454 0.0614,-0.165371 0.0905,-0.288359 0.13235,-0.559969 0.0176,-0.114336 0.0394,-0.230334 0.0482,-0.257774 0.0148,-0.04579 0.0327,-0.124969 0.0841,-0.37419 0.0104,-0.0503 0.0364,-0.151339 0.0577,-0.224513 0.0613,-0.210023 0.0885,-0.353606 0.099,-0.523865 0.006,-0.08689 0.0142,-0.199994 0.0194,-0.251331 0.01,-0.09331 0.01,-0.09334 -0.0441,-0.112048 -0.0458,-0.01595 -0.0604,-0.01385 -0.10008,0.01434 -0.0255,0.01818 -0.0514,0.03305 -0.0575,0.03305 -0.0197,0 -0.26424,0.188428 -0.33505,0.258223 -0.0377,0.03719 -0.12755,0.101551 -0.19957,0.143015 -0.0721,0.04146 -0.18709,0.107513 -0.25568,0.146774 -0.0686,0.03926 -0.13596,0.08111 -0.14968,0.09301 -0.0137,0.0119 -0.0549,0.03278 -0.0915,0.04641 -0.0366,0.01363 -0.13763,0.0514 -0.22452,0.08395 -0.21801,0.08164 -0.28428,0.09393 -0.5987,0.111028 -0.15093,0.0082 -0.36421,0.02253 -0.47398,0.03182 -0.14315,0.01213 -0.26538,0.01139 -0.43239,-0.0026 -0.12806,-0.01073 -0.31516,-0.02048 -0.41576,-0.02167 -0.17876,-0.0022 -0.33143,-0.02264 -0.49893,-0.06708 -0.0457,-0.01214 -0.12805,-0.02688 -0.18293,-0.03275 -0.0549,-0.0059 -0.12224,-0.01719 -0.14968,-0.02513 -0.0274,-0.008 -0.1135,-0.03305 -0.19125,-0.05578 -0.1546,-0.04521 -0.52424,-0.202233 -0.75081,-0.31893 l -0.14377,-0.07406 -0.0104,0.07057 c -0.0472,0.320149 -0.0465,0.645344 0.002,0.760738 0.0134,0.03201 0.0348,0.136787 0.0476,0.232829 0.022,0.166136 0.0556,0.369685 0.0927,0.56156 0.0212,0.109866 0.20445,0.486169 0.23673,0.486169 0.013,0 0.0479,0.02261 0.0774,0.05023 0.047,0.04394 0.0526,0.05778 0.044,0.110591 -0.008,0.04343 -0.002,0.07248 0.0203,0.103602 0.0165,0.02378 0.0549,0.09048 0.0854,0.148222 0.0362,0.06864 0.0969,0.143846 0.17555,0.217264 0.11635,0.10865 0.12473,0.113217 0.25906,0.141048 0.0764,0.01581 0.17251,0.03926 0.21367,0.05209 0.19776,0.06162 0.34304,0.07842 0.72343,0.08367 0.21039,0.0029 0.4087,0.0123 0.44071,0.0209 0.032,0.0086 0.077,0.01312 0.0998,0.01006 0.0228,-0.0031 0.12764,-0.0091 0.23282,-0.01335 z m 2.50618,-1.209844 c 0.0574,-0.0032 0.29977,-0.112463 0.37429,-0.168798 0.0301,-0.02281 0.10348,-0.06577 0.16293,-0.09548 0.0594,-0.02971 0.12681,-0.0669 0.14968,-0.08265 0.0228,-0.01575 0.0827,-0.04579 0.13304,-0.06676 0.10662,-0.04444 0.38484,-0.248398 0.51318,-0.376199 0.049,-0.0488 0.0958,-0.08873 0.1039,-0.08873 0.0367,0 0.15566,-0.13229 0.194,-0.215685 0.0737,-0.160292 0.0501,-0.277198 -0.0846,-0.420263 -0.12496,-0.132681 -0.24573,-0.196183 -0.46608,-0.245066 -0.0926,-0.02053 -0.33566,0.0033 -0.4184,0.04109 -0.0274,0.01252 -0.10977,0.0427 -0.18295,0.06707 -0.22518,0.07498 -0.2744,0.123664 -0.2744,0.271369 v 0.05898 l 0.054,-0.04937 c 0.16946,-0.154774 0.54888,-0.323034 0.72844,-0.323034 0.11186,0 0.25137,0.116823 0.29591,0.247783 0.0235,0.06902 0.0241,0.186769 0.002,0.276081 -0.009,0.03658 -0.0233,0.10845 -0.0312,0.159695 -0.0299,0.192526 -0.12248,0.324219 -0.26716,0.380127 -0.032,0.01237 -0.0844,0.04663 -0.11642,0.07614 -0.083,0.07643 -0.26418,0.184975 -0.33261,0.199178 -0.032,0.0067 -0.0785,0.02241 -0.10312,0.03503 -0.0247,0.01262 -0.0611,0.02295 -0.081,0.02295 -0.0198,0 -0.1111,0.04116 -0.20285,0.09147 -0.0918,0.05031 -0.18053,0.09147 -0.1973,0.09147 -0.0197,0 -0.0341,0.01617 -0.0406,0.04573 -0.006,0.02515 -0.0139,0.05947 -0.0186,0.07626 -0.007,0.02618 -0.004,0.02795 0.0256,0.01236 0.0187,-0.01 0.0549,-0.01933 0.0805,-0.02075 z m 0.0532,-0.446219 c 0.0114,0 0.0369,-0.0091 0.0569,-0.0203 0.0569,-0.0318 0.14921,-0.06233 0.18919,-0.06261 0.0201,-1.38e-4 0.0404,-0.0068 0.0454,-0.0147 0.005,-0.008 0.0409,-0.01951 0.08,-0.02571 0.0756,-0.01199 0.15305,-0.05748 0.28724,-0.16887 0.0457,-0.03796 0.12092,-0.08814 0.16708,-0.111497 0.0987,-0.04998 0.12841,-0.100879 0.15732,-0.269865 0.0403,-0.235747 0.0404,-0.232592 -0.011,-0.288635 l -0.0473,-0.0515 -0.1081,0.03097 c -0.18682,0.05352 -0.36298,0.148491 -0.48574,0.261825 -0.0622,0.05747 -0.0906,0.07228 -0.13829,0.07228 -0.033,0 -0.0745,-0.0078 -0.0922,-0.01721 -0.0262,-0.01404 -0.0321,-0.01173 -0.0321,0.01247 2e-5,0.01633 -0.0145,0.08207 -0.0321,0.146104 -0.0375,0.135872 -0.0958,0.404269 -0.10781,0.496673 -0.007,0.06083 -0.007,0.06284 0.0214,0.03742 0.0163,-0.01477 0.0389,-0.02686 0.0503,-0.02686 z m 10.48472,2.095013 c -0.17156,-0.03094 -0.42244,-0.153586 -0.51528,-0.251889 -0.0628,-0.06648 -0.11379,-0.164563 -0.14027,-0.269718 -0.0387,-0.153533 0.0358,-0.377059 0.1866,-0.560315 0.1223,-0.14861 0.20341,-0.217772 0.33023,-0.281613 0.14446,-0.07272 0.27673,-0.102734 0.37327,-0.0847 0.0902,0.01685 0.11779,0.03762 0.16012,0.120611 0.0398,0.07796 0.0401,0.136445 9.4e-4,0.222131 -0.0461,0.10117 -0.13935,0.173273 -0.37429,0.28935 -0.18695,0.09237 -0.22799,0.106437 -0.32399,0.111086 -0.10436,0.0051 -0.11055,0.0077 -0.12231,0.05162 -0.0333,0.124495 0.0621,0.259079 0.24523,0.345982 0.28044,0.133074 0.65392,0.115062 0.87072,-0.04199 0.0564,-0.04088 0.0682,-0.05908 0.0682,-0.10498 0,-0.06836 0.0429,-0.110573 0.11236,-0.110573 0.10266,0 0.15626,0.148639 0.0958,0.265591 -0.0525,0.101529 -0.24822,0.225617 -0.43406,0.275194 -0.11966,0.03192 -0.41608,0.04538 -0.53341,0.02421 z m -0.16367,-0.985343 c 0.0935,-0.03337 0.30224,-0.156686 0.33782,-0.199559 0.0321,-0.03869 9.4e-4,-0.04644 -0.0838,-0.02091 -0.13276,0.03995 -0.25678,0.121343 -0.33346,0.218838 -0.0342,0.04343 -0.0344,0.04519 -0.003,0.03267 0.018,-0.0073 0.0553,-0.02125 0.0827,-0.03104 z m -6.43605,0.961323 c -0.24164,-0.04209 -0.41133,-0.113571 -0.51449,-0.216724 -0.11957,-0.119579 -0.13148,-0.332443 -0.0328,-0.587998 0.14614,-0.378801 0.28307,-0.610246 0.45776,-0.77367 0.19275,-0.180335 0.43368,-0.309108 0.58963,-0.315142 0.0802,-0.0031 0.11502,0.02074 0.13208,0.09045 0.0169,0.06911 -0.0458,0.125997 -0.17921,0.162588 -0.1926,0.05282 -0.41977,0.230691 -0.5422,0.424551 -0.17518,0.277382 -0.31561,0.650109 -0.2911,0.772655 0.0137,0.06852 0.10669,0.129541 0.26954,0.176886 0.20189,0.05869 0.31531,0.06526 0.54332,0.03143 0.10974,-0.01628 0.22582,-0.03026 0.25795,-0.03106 0.0322,-7.79e-4 0.0769,-0.01435 0.0993,-0.03011 0.0618,-0.04334 0.10928,-0.03492 0.17533,0.03113 l 0.0598,0.05977 0.15371,-0.0057 c 0.14049,-0.0053 0.16508,-0.01145 0.28586,-0.07225 0.19402,-0.09767 0.25414,-0.208058 0.16898,-0.310294 -0.0994,-0.11939 -0.33138,-0.164251 -0.5079,-0.09824 -0.0538,0.02012 -0.12508,0.05906 -0.15841,0.08653 -0.0498,0.04103 -0.0576,0.05548 -0.044,0.08095 0.0474,0.08856 -0.002,0.182855 -0.0953,0.182855 -0.0601,0 -0.1447,-0.08502 -0.16177,-0.162722 -0.0329,-0.149976 0.15737,-0.335539 0.43858,-0.42764 0.14108,-0.0462 0.3708,-0.02752 0.51118,0.04159 0.11868,0.05843 0.20854,0.141813 0.25888,0.240231 0.027,0.05288 0.0319,0.08641 0.0251,0.17239 -0.0126,0.156264 -0.093,0.267916 -0.26762,0.371551 -0.15956,0.09468 -0.29471,0.130473 -0.49265,0.130473 -0.15901,0 -0.24417,-0.0233 -0.30954,-0.08472 -0.0351,-0.03294 -0.0358,-0.03295 -0.0917,-0.0012 -0.0358,0.02045 -0.13165,0.04184 -0.26419,0.05902 -0.2363,0.03063 -0.30975,0.031 -0.47397,0.0023 z m 3.72491,-0.0092 c -0.0184,-0.02029 -0.0302,-0.05825 -0.0299,-0.09563 9.4e-4,-0.125959 -0.0303,-0.433415 -0.0634,-0.619106 -0.0327,-0.184369 -0.0633,-0.377244 -0.0641,-0.403437 -4.9e-4,-0.01987 -0.18749,0.0057 -0.22842,0.03121 -0.0513,0.03202 -0.0927,0.02872 -0.14385,-0.01149 -0.0341,-0.02678 -0.0438,-0.04904 -0.0438,-0.09978 0,-0.09915 0.0379,-0.126521 0.19384,-0.139906 0.0718,-0.0062 0.14193,-0.01434 0.15594,-0.01817 0.0221,-0.006 0.0246,-0.05008 0.0189,-0.328753 -0.007,-0.353314 0.0104,-0.465755 0.0897,-0.570445 0.0716,-0.09448 0.26884,-0.13025 0.49149,-0.08911 0.10527,0.01946 0.17298,0.08156 0.19045,0.17468 0.0227,0.121182 -0.0737,0.257854 -0.16565,0.234775 -0.053,-0.01331 -0.0977,-0.09448 -0.0834,-0.151457 0.0103,-0.041 0.008,-0.04172 -0.0869,-0.04149 -0.14913,3.52e-4 -0.16569,0.0087 -0.19131,0.09688 -0.0239,0.08233 -0.0247,0.49235 -9.4e-4,0.599371 l 0.0124,0.0562 0.19538,0.0045 c 0.1662,0.0038 0.20702,0.01035 0.27338,0.04358 0.0985,0.04932 0.12497,0.111666 0.0756,0.177996 -0.041,0.05509 -0.085,0.062 -0.18289,0.02865 -0.0953,-0.03248 -0.33716,-0.03638 -0.33701,-0.0054 5e-5,0.01143 0.008,0.06195 0.0161,0.112257 0.0727,0.415966 0.10067,0.612277 0.11044,0.775618 0.011,0.183474 0.01,0.191261 -0.0272,0.230993 -0.0485,0.0516 -0.13139,0.05515 -0.17454,0.0075 z m 1.46385,-0.01015 c -0.30343,-0.04691 -0.54982,-0.247623 -0.60848,-0.49566 -0.011,-0.04631 -0.03,-0.09895 -0.0425,-0.116995 -0.0327,-0.04735 -0.0278,-0.11535 0.0107,-0.150132 0.0183,-0.01655 0.0332,-0.04142 0.0332,-0.05525 0,-0.05342 0.12383,-0.248945 0.22172,-0.350104 0.16996,-0.175634 0.39776,-0.260441 0.52333,-0.194837 0.0527,0.02755 0.12336,0.100707 0.15396,0.159476 0.0317,0.06083 0.0272,0.230053 -0.008,0.297095 -0.0497,0.09512 -0.16194,0.202597 -0.26695,0.255619 -0.10636,0.0537 -0.29136,0.11251 -0.35396,0.11251 -0.0447,0 -0.0451,0.0034 -0.0108,0.06989 0.0275,0.05313 0.0964,0.118744 0.17161,0.163454 0.12677,0.07532 0.40526,0.107436 0.55156,0.0636 0.0532,-0.01595 0.0704,-0.01456 0.10561,0.0085 0.0847,0.05555 0.0642,0.172704 -0.0373,0.212538 -0.048,0.01881 -0.361,0.0331 -0.44401,0.02026 z m -0.16135,-0.82428 c 0.10393,-0.03888 0.2062,-0.123897 0.23622,-0.196363 0.0173,-0.04176 0.0162,-0.05621 -0.007,-0.09129 -0.015,-0.02292 -0.0348,-0.04167 -0.044,-0.04167 -0.049,0 -0.21886,0.106861 -0.2701,0.169914 -0.0639,0.07863 -0.12802,0.179719 -0.12812,0.201968 -8e-5,0.01934 0.10182,-10e-4 0.21278,-0.04256 z m -2.56398,0.714245 c -0.013,-0.02058 -0.0286,-0.09729 -0.0347,-0.170464 -0.0128,-0.152347 -0.0569,-0.432148 -0.0764,-0.484132 -0.0108,-0.02886 -0.0392,-0.03981 -0.15997,-0.06159 -0.0807,-0.01456 -0.18048,-0.03096 -0.22163,-0.03643 -0.14032,-0.01867 -0.21329,-0.144197 -0.13143,-0.226062 0.0377,-0.03777 0.0266,-0.03818 0.27867,0.01027 0.0764,0.01468 0.14318,0.02246 0.14836,0.01728 0.006,-0.0052 2.4e-4,-0.04868 -0.011,-0.09666 -0.0792,-0.339202 -0.0206,-0.59792 0.17618,-0.777725 0.12755,-0.11658 0.24147,-0.155824 0.41225,-0.142031 0.15292,0.01235 0.21333,0.04438 0.28127,0.14915 0.069,0.106456 0.0524,0.251174 -0.0334,0.290263 -0.0721,0.03283 -0.15621,-0.02319 -0.15661,-0.104238 -3.7e-4,-0.07377 -0.0151,-0.08835 -0.10243,-0.101434 -0.10481,-0.0157 -0.17586,0.01067 -0.25839,0.09591 -0.0949,0.09799 -0.12752,0.201648 -0.11382,0.361498 0.0108,0.126251 0.0591,0.354813 0.0793,0.374958 0.0145,0.01449 0.39469,0.05664 0.51496,0.05709 0.0826,3.13e-4 0.0988,0.006 0.12983,0.04537 0.0415,0.05265 0.0341,0.113827 -0.0189,0.15871 -0.0412,0.03485 -0.13907,0.03745 -0.37973,0.01008 -0.092,-0.01046 -0.17186,-0.01445 -0.17744,-0.0089 -0.006,0.0055 0.002,0.07589 0.0161,0.156225 0.0349,0.194267 0.0512,0.37568 0.0384,0.426642 -0.0155,0.06189 -0.0559,0.09362 -0.11924,0.09362 -0.0406,0 -0.0633,-0.01056 -0.0802,-0.03742 z m 6.2203,-2.581733 c -0.061,-0.06103 -0.0512,-0.111131 0.0718,-0.367316 0.12606,-0.262506 0.42679,-0.821526 0.54507,-1.01316 l 0.0719,-0.116451 -0.11034,-0.01259 c -0.15215,-0.01735 -0.22201,-0.05413 -0.32353,-0.170354 -0.10769,-0.123289 -0.16271,-0.242822 -0.18275,-0.397079 -0.0269,-0.206132 -0.0217,-0.272701 0.0244,-0.318792 0.0509,-0.0509 0.10934,-0.05219 0.15374,-0.0035 0.027,0.02968 0.0363,0.06981 0.0453,0.19398 0.0133,0.185363 0.0566,0.291996 0.1594,0.392326 0.0677,0.066 0.0689,0.06645 0.19773,0.06645 0.0751,0 0.1396,0.0083 0.15329,0.01961 0.0195,0.01619 0.0436,-0.0142 0.13856,-0.174622 0.16203,-0.273843 0.19948,-0.319017 0.26425,-0.318704 0.0624,3.02e-4 0.0825,0.01181 0.10929,0.06274 0.0235,0.04462 0.0119,0.0924 -0.0391,0.16152 -0.0203,0.02744 -0.0693,0.106022 -0.10875,0.174622 -0.0395,0.0686 -0.11459,0.188342 -0.16681,0.26609 -0.25501,0.379782 -0.78133,1.352574 -0.78133,1.444152 0,0.01839 -0.0193,0.05645 -0.0431,0.08459 -0.0483,0.05746 -0.13507,0.07025 -0.17892,0.0264 z m -6.90759,-0.399358 c -0.0523,-0.03659 -0.0784,-0.128208 -0.056,-0.196107 0.0148,-0.04499 0.009,-0.09931 -0.0326,-0.303509 -0.11695,-0.574448 -0.14181,-0.872088 -0.0835,-1.000447 0.0268,-0.05892 0.0498,-0.079 0.14721,-0.128035 0.16077,-0.08096 0.3063,-0.111653 0.57818,-0.121924 0.26346,-0.01 0.28738,-0.0036 0.33122,0.08883 0.0504,0.106116 0.0103,0.182692 -0.19044,0.364056 -0.15783,0.142588 -0.30421,0.241143 -0.35815,0.241143 -0.0665,0 -0.1247,-0.05916 -0.1247,-0.126823 0,-0.05547 0.0525,-0.122476 0.0963,-0.122931 0.035,-3.65e-4 0.27936,-0.204333 0.25464,-0.212574 -0.0325,-0.01082 -0.29239,0.0274 -0.37634,0.05534 -0.14393,0.04791 -0.15751,0.06241 -0.15751,0.168248 0,0.125709 0.0386,0.380342 0.11733,0.775628 0.0361,0.180955 0.0656,0.359035 0.0656,0.395734 0,0.119835 -0.11794,0.188714 -0.21123,0.123368 z m -8.06193,-0.09077 c -0.0247,-0.02733 -0.0275,-0.04822 -0.0167,-0.128886 0.008,-0.05295 0.011,-0.126205 0.008,-0.162791 -0.006,-0.08227 -0.065,-0.233132 -0.13281,-0.333495 -0.0281,-0.04159 -0.0511,-0.07917 -0.0511,-0.08351 0,-0.0043 -0.0412,-0.07688 -0.0915,-0.161203 -0.11739,-0.196773 -0.11774,-0.224768 -0.004,-0.331174 0.0867,-0.08128 0.2583,-0.196556 0.29248,-0.196556 0.01,0 0.0463,-0.01937 0.081,-0.04304 0.0347,-0.02368 0.13233,-0.07681 0.21693,-0.118064 0.0847,-0.04127 0.15384,-0.0806 0.15384,-0.08743 0,-0.02059 -0.0497,-0.05568 -0.23794,-0.168054 -0.20292,-0.12112 -0.2544,-0.180214 -0.23911,-0.274439 0.0129,-0.07894 0.21187,-0.488369 0.31088,-0.639425 0.0648,-0.09877 0.0841,-0.144633 0.093,-0.220356 l 0.0112,-0.09563 h -0.0496 c -0.0792,0 -0.13488,-0.08501 -0.10237,-0.156355 0.0233,-0.05102 0.0806,-0.07648 0.17235,-0.07648 0.14648,0 0.1897,0.04951 0.20359,0.233206 0.0129,0.169271 -0.017,0.274259 -0.12312,0.433908 -0.0785,0.118083 -0.2286,0.406283 -0.26005,0.499304 -0.009,0.02715 0.10242,0.107906 0.26029,0.188352 0.085,0.04334 0.1903,0.165205 0.2035,0.235619 0.0242,0.129197 -0.056,0.22675 -0.27174,0.330321 -0.0859,0.04125 -0.18747,0.09635 -0.22569,0.122462 -0.0382,0.02611 -0.0959,0.05607 -0.12816,0.06658 -0.0323,0.0105 -0.0867,0.04222 -0.12098,0.07047 l -0.0623,0.05137 0.048,0.08576 c 0.0265,0.04717 0.0865,0.153493 0.13354,0.236276 0.12579,0.221354 0.15187,0.307879 0.15187,0.503738 0,0.141216 -0.005,0.170675 -0.0344,0.208297 -0.0435,0.05541 -0.14408,0.06135 -0.18947,0.01121 z m -1.84433,-0.267939 c -0.0606,-0.04767 -0.0606,-0.132854 0,-0.180523 0.0241,-0.01896 0.0559,-0.03454 0.0707,-0.03462 0.0495,-2.89e-4 0.19212,-0.09481 0.30434,-0.201663 0.0886,-0.08436 0.11361,-0.119318 0.12317,-0.172194 0.0151,-0.08361 -0.0134,-0.222662 -0.0691,-0.33639 -0.0419,-0.08545 -0.23554,-0.29455 -0.39013,-0.421095 -0.0678,-0.05554 -0.0723,-0.06443 -0.0791,-0.159298 -0.006,-0.08036 9e-5,-0.115193 0.0295,-0.174005 0.0701,-0.140113 0.23522,-0.279358 0.38257,-0.322556 0.0228,-0.0067 0.0846,-0.03114 0.13716,-0.0543 0.0835,-0.03679 0.0977,-0.04994 0.11227,-0.104015 0.0192,-0.07145 -0.002,-0.291177 -0.0401,-0.428754 -0.0136,-0.04825 -0.0293,-0.153018 -0.0347,-0.232829 -0.01,-0.141298 -0.0439,-0.342461 -0.0757,-0.445642 -0.037,-0.120141 0.008,-0.223334 0.0968,-0.223334 0.0997,0 0.15174,0.06625 0.15151,0.193017 -7e-5,0.03756 0.0115,0.113476 0.0259,0.168708 0.0144,0.05523 0.026,0.134345 0.026,0.17581 0,0.110119 0.0315,0.319191 0.0576,0.381563 0.0334,0.08009 0.048,0.344171 0.0251,0.454577 -0.0138,0.06669 -0.0362,0.111829 -0.079,0.15918 -0.0671,0.07432 -0.12164,0.104742 -0.30699,0.171375 -0.10277,0.03695 -0.14368,0.06235 -0.20373,0.126548 -0.0688,0.07354 -0.0985,0.148267 -0.059,0.148267 0.0332,0 0.36241,0.346603 0.41162,0.433437 0.0633,0.11181 0.12107,0.314446 0.12107,0.42524 0,0.124908 -0.0412,0.241016 -0.11545,0.325372 -0.15041,0.170861 -0.43203,0.362599 -0.53259,0.362599 -0.0252,0 -0.0657,-0.01551 -0.0898,-0.03447 z m 3.14926,-0.193475 c -0.0137,-0.0051 -0.0418,-0.02444 -0.0623,-0.04316 -0.0479,-0.04355 -0.0483,-0.112235 -0.002,-0.256368 0.0329,-0.10189 0.0349,-0.133385 0.0257,-0.410927 -0.006,-0.165319 -0.0177,-0.345484 -0.027,-0.400364 -0.0284,-0.166415 -0.0357,-0.353228 -0.0153,-0.397874 0.0104,-0.02285 0.0465,-0.05218 0.0816,-0.0662 0.0919,-0.03677 0.1406,-0.11303 0.19224,-0.301078 0.0349,-0.127333 0.0459,-0.205233 0.0468,-0.33335 9.4e-4,-0.158925 -9.4e-4,-0.169877 -0.0446,-0.221632 -0.0607,-0.07224 -0.0577,-0.111539 0.0137,-0.178816 0.10505,-0.09907 0.20541,-0.06151 0.23701,0.08871 0.0331,0.157323 0.0384,0.265355 0.0211,0.431841 -0.0335,0.323133 -0.11237,0.532203 -0.24789,0.657122 l -0.074,0.06827 0.0103,0.109874 c 0.006,0.06043 0.0177,0.180972 0.0266,0.267866 0.0254,0.245443 0.0215,0.59241 -0.008,0.706113 -0.0175,0.06716 -0.0201,0.10314 -0.008,0.11492 0.0299,0.0298 0.0187,0.103052 -0.0214,0.140645 -0.0369,0.03466 -0.0913,0.04386 -0.14444,0.02442 z m -2.49461,-0.07141 c 0,-0.03474 0.008,-0.0503 0.0207,-0.04573 0.0114,0.0038 0.0207,0.02439 0.0207,0.04573 0,0.02134 -0.009,0.04192 -0.0207,0.04573 -0.0137,0.0046 -0.0207,-0.01099 -0.0207,-0.04573 z m 7.65199,-0.161874 c -0.0664,-0.0081 -0.17609,-0.07344 -0.20075,-0.11951 -0.0267,-0.04988 -0.0206,-0.126642 0.0133,-0.168571 0.0433,-0.05351 0.12981,-0.05143 0.17573,0.0042 0.0526,0.06366 0.10591,0.06801 0.27597,0.0225 0.16984,-0.04545 0.27754,-0.09282 0.35035,-0.154087 0.0486,-0.04091 0.0487,-0.04123 0.0196,-0.09153 -0.0161,-0.02776 -0.16373,-0.167398 -0.32823,-0.310307 -0.48548,-0.421782 -0.57402,-0.527402 -0.57402,-0.68477 0,-0.143606 0.13563,-0.331102 0.30053,-0.41544 0.10509,-0.05375 0.25791,-0.09804 0.46386,-0.134432 0.193,-0.0341 0.20405,-0.03439 0.27581,-0.0069 0.0881,0.03366 0.12394,0.09038 0.12394,0.196425 0,0.08214 -0.0495,0.145085 -0.11408,0.145085 -0.0374,0 -0.10737,-0.05731 -0.12138,-0.09937 -0.0185,-0.05541 -0.47797,0.0631 -0.58421,0.150682 -0.075,0.06182 -0.11771,0.138431 -0.10513,0.18856 0.0133,0.05314 0.1615,0.199145 0.49637,0.489117 0.37187,0.322007 0.43964,0.414255 0.42969,0.584833 -0.003,0.05498 -0.16329,0.204669 -0.28473,0.266254 -0.11688,0.05927 -0.42739,0.15035 -0.50065,0.14685 -0.0306,-0.0014 -0.0811,-0.0057 -0.11204,-0.0095 z m 6.58823,-0.03625 c -0.0388,-0.01808 -0.15848,-0.08524 -0.26609,-0.149277 -0.23622,-0.140558 -0.36298,-0.194239 -0.38219,-0.161845 -0.0224,0.0378 -0.17987,0.142109 -0.25402,0.168271 -0.0888,0.03132 -0.16791,0.0318 -0.2405,0.0014 -0.0646,-0.02698 -0.0868,-0.06099 -0.10199,-0.156135 -0.009,-0.05812 -0.005,-0.07333 0.032,-0.110181 0.0564,-0.05642 0.11432,-0.05482 0.16426,0.0046 0.0436,0.05176 0.0778,0.04919 0.15513,-0.01164 l 0.039,-0.03074 -0.18866,-0.09352 c -0.23035,-0.114184 -0.29183,-0.169707 -0.29183,-0.26353 0,-0.111905 0.0995,-0.213328 0.20938,-0.213328 0.11081,0 0.35163,0.192432 0.44922,0.35896 0.0359,0.06139 0.0577,0.07629 0.18583,0.127574 0.0798,0.03194 0.16873,0.07211 0.19763,0.08928 0.0289,0.01716 0.11122,0.06631 0.18294,0.109231 0.19279,0.115362 0.1838,0.11526 0.19839,0.0023 0.008,-0.05598 5.2e-4,-0.307513 -0.0158,-0.595804 -0.0155,-0.274405 -0.0281,-0.686968 -0.0278,-0.916806 3.9e-4,-0.364612 -0.003,-0.420726 -0.0264,-0.440158 -0.0386,-0.03203 -0.0199,-0.173214 0.03,-0.226308 0.0519,-0.05527 0.13853,-0.04736 0.18644,0.01702 0.0337,0.0453 0.0353,0.07058 0.0453,0.731747 0.006,0.376655 0.0197,0.804569 0.031,0.950917 0.0328,0.424785 0.003,0.720796 -0.0816,0.796952 -0.0492,0.04452 -0.14795,0.04928 -0.22988,0.01107 z m -3.5883,-0.03496 c -0.18084,-0.03606 -0.28767,-0.129091 -0.31489,-0.274226 -0.008,-0.04678 -0.0186,-0.05813 -0.0499,-0.05813 -0.0639,0 -0.11464,-0.05291 -0.11279,-0.117718 0.002,-0.07196 0.0529,-0.115111 0.13568,-0.115111 0.0509,0 0.0659,-0.0081 0.0846,-0.04573 0.0926,-0.1868 0.19675,-0.330921 0.28838,-0.399135 0.0824,-0.06135 0.21905,-0.04672 0.29167,0.03122 0.0549,0.05893 0.049,0.225806 -0.0127,0.356112 -0.0728,0.153831 -0.16901,0.228764 -0.36407,0.283489 -0.0343,0.0096 -0.0235,0.05423 0.0202,0.08284 0.0284,0.01863 0.0768,0.02651 0.15802,0.02574 0.0644,-6.23e-4 0.13482,0.0056 0.15655,0.01393 0.0711,0.02704 0.0862,0.145719 0.0247,0.194522 -0.0309,0.02448 -0.22363,0.03848 -0.30538,0.02219 z m 0.10784,-0.744889 c -2.5e-4,-0.02438 -0.003,-0.02481 -0.0173,-0.0032 -0.009,0.01372 -0.0283,0.04739 -0.0422,0.07484 l -0.0252,0.04989 0.0425,-0.04666 c 0.0234,-0.02567 0.0423,-0.05934 0.0422,-0.07484 z m 1.08956,0.733818 c -0.0669,-0.0085 -0.16442,-0.05091 -0.26985,-0.11736 -0.0479,-0.03013 -0.10552,-0.06185 -0.12822,-0.07047 -0.0227,-0.0086 -0.0612,-0.04579 -0.0855,-0.08258 -0.10867,-0.164212 -0.0501,-0.373085 0.16182,-0.577316 0.16914,-0.162988 0.30812,-0.19911 0.40957,-0.106451 0.0634,0.05795 0.0717,0.132511 0.0204,0.183874 -0.0364,0.0364 -0.11542,0.04423 -0.14525,0.01441 -0.0293,-0.02922 -0.21206,0.15331 -0.24809,0.247657 l -0.0288,0.07529 0.0449,0.03576 c 0.14885,0.118697 0.35021,0.194447 0.45017,0.169359 0.0254,-0.0064 0.0847,-0.06385 0.15077,-0.14603 0.1005,-0.125051 0.10892,-0.141756 0.10892,-0.216089 0,-0.09541 0.0405,-0.147083 0.11521,-0.147083 0.0739,0 0.11762,0.06606 0.11762,0.177398 0,0.107014 -0.0309,0.187503 -0.10403,0.271542 -0.0297,0.03408 -0.087,0.101323 -0.12728,0.149434 -0.11227,0.133931 -0.21825,0.167163 -0.44223,0.138675 z m 3.3755,-0.08763 c -0.0529,-0.02145 -0.15747,-0.146544 -0.15747,-0.188426 0,-0.06526 0.0453,-0.111752 0.10904,-0.111752 0.0572,0 0.0573,-9.9e-5 0.0575,-0.07899 3.8e-4,-0.10049 -0.034,-0.682548 -0.0432,-0.730205 -0.005,-0.02447 -0.0472,-0.05802 -0.13376,-0.105509 -0.0697,-0.0383 -0.16045,-0.100586 -0.20149,-0.138422 -0.0718,-0.06619 -0.0743,-0.07165 -0.0656,-0.144726 0.005,-0.04177 0.0178,-0.09534 0.0286,-0.119062 0.0544,-0.119443 0.21555,-0.07913 0.21555,0.05393 0,0.05377 0.008,0.06708 0.0591,0.09721 0.0326,0.0192 0.0636,0.0349 0.0692,0.0349 0.012,0 -0.008,-0.724961 -0.022,-0.77555 -0.007,-0.02501 -0.0189,-0.03303 -0.0412,-0.02717 -0.0175,0.0046 -0.0499,-0.0036 -0.0722,-0.01812 -0.0939,-0.0615 -0.0662,-0.172839 0.0588,-0.236144 0.0934,-0.04733 0.11601,-0.04934 0.18046,-0.01601 0.0336,0.01736 0.0555,0.04822 0.0741,0.104604 0.0293,0.088 0.0574,0.455004 0.0611,0.793769 0.004,0.314724 -5.1e-4,0.305365 0.14808,0.361369 0.41978,0.158268 0.42822,0.16223 0.44812,0.210264 0.0241,0.05831 -0.002,0.12332 -0.0589,0.149491 -0.0329,0.01502 -0.077,0.0042 -0.26625,-0.06546 -0.12473,-0.04589 -0.23052,-0.0797 -0.2351,-0.07512 -0.005,0.0046 9.3e-4,0.147285 0.0128,0.31712 0.0217,0.317014 0.0156,0.524336 -0.0181,0.620379 -0.029,0.0825 -0.12249,0.122027 -0.20734,0.08763 z m -3.01044,-1.075949 c -0.0594,-0.06406 -0.0772,-0.148675 -0.0588,-0.278763 0.0259,-0.182996 0.11763,-0.283823 0.22206,-0.244119 0.093,0.03536 0.12667,0.190595 0.0538,0.247953 -0.0422,0.03326 -0.0569,0.10797 -0.025,0.127701 0.009,0.0056 0.0166,0.03461 0.0166,0.06437 0,0.118058 -0.12871,0.169161 -0.20868,0.08286 z"
       id="path1762" />
  </g>
</svg>
