<?xml version="1.0" encoding="UTF-8" standalone="no"?>
<!-- Created with Inkscape (http://www.inkscape.org/) -->

<svg
   width="236.56023"
   height="50.085815"
   viewBox="0 0 31.294945 6.6259356"
   version="1.1"
   id="svg5"
   inkscape:version="1.1.1 (3bf5ae0d25, 2021-09-20)"
   sodipodi:docname="computers.svg"
   xmlns:inkscape="http://www.inkscape.org/namespaces/inkscape"
   xmlns:sodipodi="http://sodipodi.sourceforge.net/DTD/sodipodi-0.dtd"
   xmlns="http://www.w3.org/2000/svg"
   xmlns:svg="http://www.w3.org/2000/svg">
  <sodipodi:namedview
     id="namedview7"
     pagecolor="#ffffff"
     bordercolor="#666666"
     borderopacity="1.0"
     inkscape:pageshadow="2"
     inkscape:pageopacity="0.0"
     inkscape:pagecheckerboard="0"
     inkscape:document-units="mm"
     showgrid="false"
     inkscape:zoom="1.4289282"
     inkscape:cx="10.497379"
     inkscape:cy="61.234709"
     inkscape:window-width="1920"
     inkscape:window-height="991"
     inkscape:window-x="-9"
     inkscape:window-y="-9"
     inkscape:window-maximized="1"
     inkscape:current-layer="layer1"
     fit-margin-top="0"
     fit-margin-left="0"
     fit-margin-right="0"
     fit-margin-bottom="0"
     units="px" />
  <defs
     id="defs2" />
  <g
     inkscape:label="Capa 1"
     inkscape:groupmode="layer"
     id="layer1"
     transform="translate(145.71091,43.641251)">
    <path
       style="fill:#000000;stroke-width:0.026628"
       d="m -127.49512,-37.0476 c -0.0418,-0.05446 -0.2398,-0.831209 -0.3107,-1.218227 -0.11241,-0.613584 -0.13195,-0.856485 -0.11596,-1.441333 0.0301,-1.101643 0.14879,-1.241732 0.69147,-0.816329 0.10502,0.08233 0.43369,0.504195 0.51217,0.657417 0.0268,0.05229 0.0517,0.176188 0.0589,0.292906 0.0147,0.237744 -0.0332,0.354725 -0.18087,0.44193 -0.0788,0.04651 -0.1349,0.0529 -0.44301,0.05045 -0.19405,-0.0015 -0.35282,0.0054 -0.35282,0.01534 0,0.01 0.0183,0.149029 0.0408,0.309016 0.0568,0.405695 0.15819,0.882095 0.25468,1.196236 0.11209,0.364984 0.12044,0.430354 0.063,0.493804 -0.053,0.05854 -0.17884,0.0694 -0.21759,0.01878 z m 0.50002,-2.337539 c 0.0575,-0.03079 0.0692,-0.164115 0.0272,-0.310721 -0.0455,-0.158464 -0.49955,-0.700204 -0.58695,-0.700204 -0.0139,0 -0.0321,0.03895 -0.0403,0.08654 -0.0128,0.07436 -0.0671,0.748642 -0.0673,0.835933 -1.9e-4,0.09009 0.53243,0.160681 0.66739,0.08845 z m -16.5377,1.809885 c -0.19772,-0.01207 -0.4097,-0.01536 -0.47107,-0.0073 -0.0951,0.01247 -0.12169,0.0045 -0.17974,-0.05351 -0.085,-0.085 -0.099,-0.199969 -0.0341,-0.279008 0.016,-0.01945 0.0265,-0.09734 0.0233,-0.173082 -0.007,-0.173753 -0.0829,-0.582145 -0.11391,-0.615693 -0.0373,-0.04026 -0.0271,-0.157153 0.0192,-0.223466 0.0235,-0.0335 0.0383,-0.06523 0.033,-0.07051 -0.01,-0.0098 -0.14075,0.01847 -0.38756,0.08376 -0.10378,0.02745 -0.15664,0.0601 -0.20953,0.129455 -0.0879,0.115278 -0.20049,0.127055 -0.26553,0.02779 -0.0392,-0.05985 -0.0389,-0.07267 0.004,-0.162862 0.0256,-0.05385 0.0924,-0.131187 0.14857,-0.171873 0.14171,-0.102656 0.61103,-0.212743 0.90694,-0.212743 0.25043,0 0.31999,0.03084 0.31999,0.141872 0,0.08516 0.0828,0.09951 0.12452,0.02157 0.0328,-0.06136 0.0906,-1.177268 0.0623,-1.205419 -0.0113,-0.01122 -0.14625,-0.02721 -0.30003,-0.03553 -0.33588,-0.01818 -0.50274,-0.03961 -0.56735,-0.07285 -0.0751,-0.03864 -0.0995,-0.131115 -0.0537,-0.20332 0.0494,-0.07787 0.025,-0.107429 -0.0399,-0.04856 -0.0269,0.02432 -0.0926,0.04421 -0.14601,0.04421 -0.12671,0 -0.20266,-0.09835 -0.15564,-0.201547 0.0165,-0.03643 0.0513,-0.07276 0.077,-0.08074 0.0258,-0.008 0.0668,-0.02507 0.0911,-0.03797 0.0243,-0.0129 0.10628,-0.03169 0.18207,-0.04173 l 0.13778,-0.01828 -0.018,-0.189313 c -0.01,-0.104122 -0.0287,-0.237244 -0.0416,-0.295826 -0.013,-0.05858 -0.0239,-0.157437 -0.0242,-0.21968 -5.8e-4,-0.111763 -0.002,-0.113169 -0.0952,-0.113169 -0.052,0 -0.13071,0.01872 -0.17493,0.04158 -0.0544,0.02811 -0.13543,0.03911 -0.25011,0.03397 -0.0933,-0.0042 -0.1766,-6.94e-4 -0.18507,0.0078 -0.008,0.0085 -0.0193,0.373623 -0.0241,0.811472 -0.007,0.669471 -0.0174,0.840558 -0.0633,1.075682 -0.0301,0.153777 -0.0622,0.369464 -0.0714,0.479304 -0.0418,0.497863 -0.0788,0.752043 -0.11445,0.787722 -0.15405,0.154064 -0.42685,-0.05146 -0.2788,-0.210039 0.0459,-0.04912 0.0614,-0.128515 0.0977,-0.4978 0.0237,-0.241648 0.0621,-0.52923 0.0853,-0.63907 0.0326,-0.154553 0.0439,-0.406763 0.05,-1.115416 0.007,-0.798679 0.0134,-0.921176 0.0507,-0.958501 0.0343,-0.03434 0.0894,-0.0411 0.27878,-0.03423 0.16444,0.006 0.27348,-0.0041 0.35957,-0.03338 0.0679,-0.02307 0.15838,-0.04195 0.20094,-0.04195 0.0426,0 0.0826,-0.009 0.089,-0.01997 0.007,-0.01099 -0.006,-0.145787 -0.0266,-0.299564 -0.0211,-0.153776 -0.0547,-0.423384 -0.0749,-0.599128 -0.0202,-0.175745 -0.0449,-0.352909 -0.055,-0.393695 -0.0367,-0.148703 0.13949,-0.237969 0.2433,-0.123256 0.0465,0.05132 0.0756,0.05513 0.38357,0.04993 0.36232,-0.0061 0.98241,0.01483 1.61144,0.0544 0.85225,0.0536 2.04753,0.06085 2.5539,0.01547 0.42657,-0.03822 0.48164,-0.03847 0.5216,-0.0023 0.0498,0.04507 0.0775,0.290815 0.14727,1.304802 0.0222,0.322197 0.0516,0.663701 0.0655,0.758896 0.0485,0.333321 0.0644,0.846817 0.0276,0.891218 -0.054,0.06501 -0.2205,0.05199 -0.2907,-0.02273 -0.0467,-0.04968 -0.0955,-0.0663 -0.22432,-0.07636 -0.19985,-0.01563 -0.64384,0.02423 -0.84263,0.07564 -0.0799,0.02068 -0.19951,0.0376 -0.26567,0.0376 -0.0661,0 -0.21103,0.0195 -0.32196,0.04334 l -0.20169,0.04335 0.0203,0.163026 c 0.0112,0.08966 0.02,0.327232 0.0198,0.527927 -2.1e-4,0.200694 0.0117,0.387611 0.0265,0.415371 0.0219,0.04098 0.0811,0.0569 0.31447,0.08461 0.15811,0.01878 0.42358,0.03691 0.58994,0.0403 0.27353,0.0055 0.3138,1.33e-4 0.4208,-0.05675 0.16705,-0.08882 0.27376,-0.08123 0.35895,0.02553 0.002,0.0026 0.0112,0.244406 0.0203,0.537314 0.0156,0.503125 0.02,0.537165 0.0787,0.615906 0.0512,0.06858 0.0569,0.09324 0.0322,0.139186 -0.0547,0.102172 -0.11561,0.113066 -0.55479,0.09919 -0.23053,-0.0073 -0.49106,-0.0023 -0.57893,0.01102 -0.0879,0.01334 -0.31554,0.04281 -0.50593,0.06547 -0.19038,0.02266 -0.39887,0.0538 -0.46329,0.06919 -0.37718,0.0901 -1.45607,0.143038 -2.10631,0.10335 z m 1.23819,-0.304248 c 0.26888,-0.01533 0.68373,-0.05884 0.8521,-0.08936 0.52691,-0.09552 1.03284,-0.148201 1.37679,-0.143357 l 0.36493,0.0051 -6.4e-4,-0.299055 c -2.9e-4,-0.16448 -0.007,-0.340994 -0.0133,-0.392252 l -0.0126,-0.0932 -0.3516,0.0033 c -0.22084,0.0021 -0.49863,-0.0165 -0.74699,-0.04998 -0.36558,-0.04929 -0.43787,-0.05093 -0.95861,-0.02159 -0.55456,0.03123 -0.79469,0.05237 -1.18895,0.104617 -0.10984,0.01456 -0.37346,0.03459 -0.58582,0.04452 -0.21236,0.0099 -0.39425,0.02294 -0.40421,0.0289 -0.0195,0.01168 -0.0134,0.0981 0.0393,0.561274 0.0187,0.164052 0.0422,0.306545 0.0523,0.31665 0.0492,0.04919 0.90908,0.06247 1.57744,0.02436 z m 0.10067,-0.268415 c -0.0471,-0.02063 -0.10484,-0.07449 -0.12821,-0.119683 -0.0388,-0.07509 -0.0389,-0.08773 -2.1e-4,-0.14671 0.0557,-0.08499 0.15338,-0.08107 0.30734,0.01234 0.26006,0.157766 0.1048,0.378209 -0.17892,0.254053 z m -1.14251,-0.05547 c -0.13422,-0.02851 -0.24774,-0.27466 -0.16991,-0.368437 0.0472,-0.05687 0.16961,-0.0498 0.22652,0.01309 0.0637,0.07046 0.0836,0.0673 0.12522,-0.01997 0.0269,-0.05661 0.0566,-0.07504 0.13021,-0.08123 0.0616,-0.0052 0.1074,0.0066 0.12956,0.03328 0.0201,0.02423 0.0766,0.04129 0.1369,0.04129 0.0795,0 0.11225,0.01468 0.1454,0.06526 0.0941,0.143637 -0.0211,0.243643 -0.24959,0.216779 -0.12463,-0.01465 -0.15495,-0.0092 -0.20347,0.03635 -0.0601,0.05647 -0.17608,0.0837 -0.27084,0.06358 z m 2.95326,-0.10867 c -0.11107,-0.0078 -0.14979,-0.02354 -0.19306,-0.07855 -0.069,-0.08763 -0.0689,-0.173133 1.1e-4,-0.235573 0.0463,-0.04188 0.0667,-0.04459 0.1398,-0.01849 0.047,0.01682 0.13628,0.03853 0.19824,0.04826 0.12943,0.02031 0.17359,0.06156 0.17359,0.162155 0,0.07581 -0.0699,0.14498 -0.13823,0.136866 -0.0229,-0.0027 -0.10404,-0.0093 -0.18045,-0.01467 z m -1.46819,-0.07655 c -0.0982,-0.0688 -0.0558,-0.250015 0.0585,-0.250015 0.0332,0 0.0838,-0.01759 0.11223,-0.0391 0.14386,-0.108808 0.31127,0.03723 0.22579,0.196962 -0.0504,0.09405 -0.30828,0.15399 -0.39657,0.09215 z m 0.61525,-0.129939 c -0.10793,-0.04692 -0.15774,-0.143325 -0.11516,-0.222906 0.0371,-0.06935 0.13856,-0.09785 0.21078,-0.0592 0.0297,0.01589 0.0943,0.02889 0.1436,0.02889 0.1087,0 0.15352,0.03998 0.15352,0.136955 0,0.140827 -0.2,0.200034 -0.39274,0.116261 z m -1.64429,-0.639685 c 0.13181,-0.02166 0.29679,-0.03942 0.36664,-0.03948 0.11774,-1.06e-4 0.12605,-0.0045 0.11412,-0.06001 -0.0186,-0.08651 -0.0899,-0.541887 -0.11049,-0.705176 -0.01,-0.07663 -0.0341,-0.152991 -0.0542,-0.169686 -0.0451,-0.03742 -0.0476,-0.135269 -0.004,-0.178274 0.0374,-0.03745 -0.11184,-0.04254 -0.43845,-0.01492 l -0.20151,0.01703 -0.028,0.111335 c -0.0155,0.06124 -0.0357,0.32917 -0.0451,0.59541 l -0.0171,0.484074 0.0896,-4.65e-4 c 0.0493,-2.62e-4 0.19741,-0.01819 0.32922,-0.03984 z m 1.4246,-0.56996 c 0,-0.262419 -0.007,-0.49608 -0.0162,-0.519245 -0.009,-0.02316 -0.0369,-0.04212 -0.0622,-0.04212 -0.0253,0 -0.0532,-0.0071 -0.0618,-0.01584 -0.009,-0.0087 -0.16661,-0.0177 -0.35091,-0.01997 -0.28817,-0.0036 -0.33285,0.0015 -0.31925,0.03581 0.009,0.02197 0.0211,0.09386 0.0275,0.159767 0.0343,0.350295 0.0986,0.65515 0.14991,0.711019 0.0331,0.03604 0.0484,0.07965 0.0396,0.113169 -0.0137,0.0526 -0.004,0.05454 0.28947,0.05454 h 0.30374 z m 0.11982,-0.964991 c 0.21968,-0.04406 0.45933,-0.08427 0.53255,-0.08934 0.0733,-0.005 0.27694,-0.03598 0.45268,-0.06872 0.23389,-0.04356 0.4141,-0.05904 0.67236,-0.05776 0.19405,9.1e-4 0.35282,-0.0075 0.35282,-0.01893 0,-0.01137 -0.007,-0.05547 -0.0155,-0.09801 l -0.0155,-0.07734 -0.1909,0.0082 c -0.10499,0.0045 -0.28676,0.01903 -0.40392,0.03227 -0.11717,0.01323 -0.47664,0.02395 -0.79884,0.02381 -0.67771,-2.82e-4 -1.00137,0.0169 -1.31807,0.06996 -0.1245,0.02086 -0.26829,0.04415 -0.31955,0.05176 -0.73055,0.108506 -1.06361,0.183828 -1.08405,0.245167 -0.0163,0.04874 0.23881,0.06687 0.70853,0.05035 0.24315,-0.0085 0.508,-0.0042 0.58855,0.0096 0.18916,0.03253 0.34998,0.01699 0.83878,-0.08107 z m -2.45551,-0.195325 c -0.002,-0.116759 -0.0166,-0.290381 -0.0311,-0.385826 -0.0319,-0.211404 -0.0729,-0.558744 -0.11014,-0.932435 -0.0378,-0.380221 -0.0455,-0.410254 -0.11348,-0.440051 -0.0838,-0.03676 -0.0961,-0.201979 -0.0207,-0.277386 0.0546,-0.05455 0.22407,-0.07734 0.25102,-0.03374 0.007,0.01157 0.1906,0.01725 0.40765,0.01263 0.21705,-0.0046 0.59835,-0.01153 0.84732,-0.01535 0.26346,-0.0041 0.49163,-0.0203 0.54587,-0.0389 0.0513,-0.01758 0.15683,-0.04392 0.23461,-0.05856 0.0778,-0.01463 0.1647,-0.04292 0.19319,-0.06288 0.0564,-0.03948 0.0692,-0.03858 -1.41303,-0.09917 -0.35881,-0.01467 -0.67635,-0.02845 -0.70564,-0.03063 -0.0293,-0.0022 -0.17008,-0.0018 -0.31288,7.57e-4 l -0.25962,0.0047 v 0.103024 c 0,0.05666 0.0169,0.20345 0.0375,0.326192 0.0372,0.221133 0.0793,0.582652 0.10979,0.942124 0.0182,0.213943 0.11306,0.975016 0.13555,1.086874 0.015,0.07441 0.0919,0.127306 0.16938,0.116392 0.0317,-0.0045 0.0385,-0.04793 0.0346,-0.217854 z m 0.46789,-0.158587 c 0.0827,-0.02122 0.27012,-0.05743 0.41658,-0.08047 0.27275,-0.04291 0.42006,-0.06885 0.68152,-0.120031 0.15862,-0.03105 0.81821,-0.08878 0.99603,-0.08717 0.5361,0.0049 1.006,-0.0017 1.15962,-0.01605 0.0507,-0.0047 0.10602,-0.153015 0.0909,-0.243517 -0.007,-0.03661 -0.0299,-0.186395 -0.0529,-0.332849 -0.023,-0.146453 -0.0539,-0.304463 -0.0687,-0.351133 -0.0147,-0.04667 -0.0351,-0.226409 -0.0453,-0.399419 l -0.0184,-0.314565 -0.30622,-0.0082 c -0.41943,-0.01118 -0.8857,0.06096 -0.99838,0.154474 -0.0153,0.01267 -0.16534,0.05502 -0.33349,0.0941 -0.27228,0.06329 -0.34502,0.0698 -0.66451,0.05952 -0.24887,-0.008 -0.39414,-9.1e-4 -0.47429,0.02322 -0.0668,0.02011 -0.24531,0.03456 -0.42327,0.03428 -0.16925,-2.81e-4 -0.31227,0.0041 -0.31781,0.0096 -0.006,0.0055 0.007,0.146906 0.0285,0.314152 0.0212,0.167247 0.0508,0.411928 0.0657,0.543736 0.0577,0.508648 0.0916,0.758898 0.10267,0.758898 0.007,0 0.0792,-0.01736 0.16183,-0.03858 z m 3.93845,-0.373652 c 0.004,-0.0031 -0.004,-0.124279 -0.0189,-0.269329 -0.0142,-0.14505 -0.0379,-0.437475 -0.0527,-0.649833 -0.0147,-0.212358 -0.0344,-0.492338 -0.0437,-0.622177 l -0.0169,-0.236072 -0.14626,0.01213 c -0.084,0.0069 -0.15717,0.02813 -0.17191,0.04968 -0.0327,0.04798 -0.0124,0.706396 0.0247,0.798439 0.0152,0.03771 0.0556,0.268395 0.0899,0.512632 l 0.0622,0.444068 0.13322,-0.01696 c 0.0733,-0.0093 0.13637,-0.01949 0.14021,-0.02257 z m 0.95708,3.754837 c -0.11698,-0.06101 -0.28181,-0.256722 -0.31463,-0.373585 -0.0164,-0.05858 -0.0584,-0.181529 -0.0934,-0.273216 -0.0542,-0.142503 -0.0634,-0.213748 -0.0634,-0.490727 0,-0.183322 -0.0137,-0.362003 -0.0317,-0.411488 -0.0273,-0.07549 -0.0249,-0.09489 0.0174,-0.141687 0.0682,-0.07536 0.21126,-0.07269 0.26564,0.005 0.0228,0.03255 0.0415,0.106302 0.0415,0.163894 0,0.09976 0.002,0.102629 0.0487,0.06065 0.0268,-0.02424 0.0614,-0.04406 0.077,-0.04406 0.042,0 0.0719,-0.142703 0.0327,-0.155769 -0.0797,-0.02657 -0.1372,-0.116911 -0.12219,-0.191995 0.0126,-0.06281 0.002,-0.08575 -0.0645,-0.132702 -0.0688,-0.04895 -0.1245,-0.05801 -0.40518,-0.06579 -0.179,-0.005 -0.3828,-0.01528 -0.45288,-0.02291 -0.14206,-0.01547 -0.49398,-0.133462 -0.62056,-0.208051 -0.0857,-0.05048 -0.13773,-0.0465 -0.47691,0.03642 -0.27896,0.0682 -0.46598,0.03328 -0.46598,-0.08703 0,-0.107209 0.0487,-0.153536 0.1798,-0.171016 0.0695,-0.0093 0.24255,-0.03995 0.3845,-0.06819 0.32594,-0.06483 0.33484,-0.06458 0.48194,0.01364 0.27643,0.146978 0.49002,0.191291 1.07279,0.222561 l 0.34828,0.01868 0.14434,0.108803 c 0.10996,0.08289 0.17712,0.112653 0.28198,0.124972 0.0805,0.0095 0.21415,0.05626 0.32196,0.112729 0.15188,0.07956 0.19616,0.118493 0.25158,0.22119 0.037,0.06854 0.0757,0.163356 0.0861,0.210684 0.0123,0.05626 0.0436,0.09781 0.0901,0.12001 0.10031,0.04783 0.11355,0.186434 0.0235,0.245469 -0.0565,0.03706 -0.0661,0.06819 -0.0803,0.261262 -0.0268,0.365887 -0.0757,0.483158 -0.28682,0.68723 -0.15104,0.146029 -0.21024,0.184611 -0.33851,0.220603 -0.19045,0.05343 -0.23783,0.05407 -0.33292,0.0045 z m 0.45691,-0.42253 c 0.1497,-0.142758 0.1856,-0.230668 0.20679,-0.506219 l 0.0174,-0.225321 -0.17016,-0.01558 c -0.0936,-0.0086 -0.27189,-0.02129 -0.39621,-0.02827 -0.17308,-0.0097 -0.23392,-0.02345 -0.25963,-0.05861 -0.0605,-0.08272 -0.0433,0.379417 0.0192,0.517169 0.0283,0.06244 0.0595,0.15601 0.0693,0.207923 0.01,0.05191 0.0562,0.135205 0.10325,0.185095 0.0818,0.08665 0.0902,0.08945 0.1898,0.06267 0.0589,-0.01582 0.15488,-0.07632 0.22045,-0.138864 z m 0.0351,-1.096057 c 0.0167,-0.03662 0.0404,-0.06657 0.0527,-0.06657 0.0528,0 0.0165,-0.08035 -0.0431,-0.0953 -0.036,-0.009 -0.0795,-0.03323 -0.0965,-0.05376 -0.0516,-0.06216 -0.0694,-0.04356 -0.0983,0.102452 -0.0301,0.152011 -0.016,0.178601 0.0944,0.179346 0.0389,2.61e-4 0.0713,-0.02334 0.0908,-0.06616 z m 18.90534,1.277621 c -0.0629,-0.07994 -0.0763,-0.223104 -0.0256,-0.273747 0.0447,-0.04463 0.16796,-0.03989 0.2077,0.008 0.059,0.07117 0.67186,0.03657 0.66404,-0.0375 -0.002,-0.02598 -0.3479,-0.314915 -0.49235,-0.412143 -0.27683,-0.186334 -0.51785,-0.531312 -0.51785,-0.741208 0,-0.09336 0.10581,-0.28376 0.19577,-0.352292 0.18938,-0.144255 0.58704,-0.157699 0.67541,-0.02284 0.0397,0.06053 0.0402,0.07501 0.005,0.137793 -0.0373,0.06639 -0.0506,0.07017 -0.24727,0.07044 -0.19583,2.62e-4 -0.21164,0.0047 -0.2738,0.07698 -0.12743,0.148147 -0.0144,0.32947 0.4032,0.646666 0.32938,0.250202 0.50646,0.413918 0.56203,0.519617 0.0513,0.09761 0.0475,0.217474 -0.009,0.280666 -0.073,0.08189 -0.35769,0.142763 -0.74122,0.158508 l -0.34848,0.0143 z m -2.87255,-0.369433 c -0.15549,-0.05071 -0.34183,-0.163896 -0.48259,-0.293127 -0.30104,-0.27639 -0.40258,-0.851117 -0.21523,-1.218338 0.0618,-0.121078 0.0634,-0.139386 0.0104,-0.119086 -0.0224,0.0086 -0.0972,-0.004 -0.16643,-0.02786 -0.24109,-0.08332 -0.32447,-0.08758 -0.59488,-0.03039 -0.14085,0.0298 -0.27135,0.06359 -0.29,0.07512 -0.0353,0.0218 -0.0278,0.110657 0.0693,0.819476 0.046,0.335413 0.0462,0.312869 -0.004,0.363427 -0.0609,0.06085 -0.1896,0.05366 -0.22504,-0.01256 -0.016,-0.02992 -0.0521,-0.260586 -0.0803,-0.512588 -0.0699,-0.62674 -0.0409,-0.566061 -0.27095,-0.566797 -0.10672,-3.48e-4 -0.22087,-0.01534 -0.25367,-0.03333 -0.13019,-0.07141 -0.18331,-0.303297 -0.089,-0.388627 0.0756,-0.06844 0.16825,-0.04375 0.21522,0.05735 0.0338,0.07282 0.0542,0.08599 0.13315,0.08613 0.13499,2.42e-4 0.16639,-0.02836 0.14818,-0.134924 -0.009,-0.04974 -0.0402,-0.413882 -0.0703,-0.809213 -0.0422,-0.555088 -0.0642,-0.729194 -0.0962,-0.764495 -0.0312,-0.03455 -0.0387,-0.08788 -0.0303,-0.218345 0.0153,-0.240256 0.11556,-0.34265 0.24367,-0.248874 0.0556,0.04062 0.10933,0.387131 0.14999,0.965263 0.0303,0.431302 0.0871,1.087196 0.0951,1.099047 0.002,0.0041 0.10896,-0.01695 0.23609,-0.04659 0.12715,-0.02965 0.30626,-0.0539 0.39803,-0.0539 0.22231,0 0.52422,0.100015 0.56961,0.188701 0.0181,0.03534 0.0331,0.05168 0.0333,0.03629 6.3e-4,-0.05351 0.27336,-0.333845 0.37513,-0.385764 0.25268,-0.128904 0.63781,-0.01395 0.74512,0.222403 0.0637,0.140224 0.0642,0.26801 0.002,0.404354 -0.0713,0.155785 -0.27518,0.368859 -0.40746,0.425827 -0.0633,0.02727 -0.16822,0.07272 -0.23311,0.100988 -0.14699,0.06404 -0.31295,0.04859 -0.38103,-0.03548 -0.0355,-0.04387 -0.0469,-0.04782 -0.0469,-0.0163 0,0.08144 0.0603,0.325064 0.0996,0.401772 0.0937,0.183437 0.40958,0.391898 0.64797,0.427645 0.14456,0.02168 0.36037,-0.06329 0.49706,-0.19569 0.13636,-0.132091 0.27319,-0.102545 0.27319,0.059 0,0.09282 -0.15081,0.250153 -0.32739,0.34155 -0.14075,0.07285 -0.5069,0.09337 -0.67686,0.03795 z m -0.32057,-1.273178 c 0.11444,0.0052 0.41989,-0.145062 0.51733,-0.254581 0.14787,-0.166214 0.1423,-0.309406 -0.0152,-0.390854 -0.0935,-0.04833 -0.23071,-0.01695 -0.34443,0.07874 -0.0789,0.06639 -0.2572,0.378736 -0.2986,0.523058 -0.0202,0.07039 -0.0174,0.07803 0.0223,0.06042 0.0251,-0.01109 0.0784,-0.01864 0.11857,-0.01679 z m 1.7816,1.211593 c -0.0481,-0.03971 -0.0649,-0.101295 -0.0991,-0.365021 -0.0226,-0.17449 -0.0523,-0.375954 -0.0659,-0.447698 -0.0136,-0.07174 -0.0324,-0.258499 -0.0418,-0.415012 -0.0154,-0.256223 -0.012,-0.290824 0.0341,-0.347346 0.0487,-0.05969 0.0682,-0.06296 0.39729,-0.06657 0.39756,-0.0044 0.49023,0.02714 0.49023,0.166641 0,0.116283 -0.056,0.146163 -0.23349,0.12453 -0.17285,-0.02107 -0.17024,-0.02108 -0.30573,9.09e-4 -0.0908,0.01472 -0.0998,0.02378 -0.0997,0.09982 7e-5,0.046 0.0183,0.203453 0.0404,0.349907 0.11914,0.788985 0.12154,0.811345 0.0927,0.86518 -0.0158,0.02942 -0.0392,0.05348 -0.0521,0.05348 -0.0129,0 -0.0405,0.0065 -0.0613,0.01448 -0.0208,0.0079 -0.0638,-0.007 -0.0957,-0.03328 z m -5.5688,-0.322553 c -0.1259,-0.125891 -0.18579,-0.219561 -0.31928,-0.499274 -0.0904,-0.189372 -0.18144,-0.378234 -0.20238,-0.419697 -0.0761,-0.150826 -0.035,-0.257464 0.0994,-0.257464 0.089,0 0.17031,0.08134 0.21053,0.21071 0.0489,0.157342 0.29141,0.629622 0.37594,0.732167 0.0433,0.05259 0.10066,0.09561 0.12737,0.09561 0.0649,0 0.20668,-0.165251 0.27156,-0.316622 0.0654,-0.152469 0.17631,-0.581668 0.19918,-0.770466 0.0189,-0.156597 0.0621,-0.217682 0.15362,-0.217682 0.0684,0 0.14868,0.07576 0.14868,0.140371 0,0.02364 0.0255,0.08631 0.0568,0.139272 0.0465,0.0787 0.0515,0.108033 0.0275,0.160555 -0.0161,0.03534 -0.0582,0.07154 -0.0937,0.08043 -0.0496,0.01244 -0.0681,0.03927 -0.0804,0.116566 -0.0213,0.13381 -0.14684,0.504311 -0.19897,0.587692 -0.0697,0.111449 -0.22337,0.276912 -0.30295,0.326192 -0.0428,0.02655 -0.12745,0.0466 -0.19657,0.0466 -0.11234,0 -0.13276,-0.01145 -0.27627,-0.154965 z m -7.7896,0.05125 c -0.17759,-0.101865 -0.48823,-0.433718 -0.57626,-0.615595 -0.0901,-0.186066 -0.129,-0.398669 -0.129,-0.704219 0,-0.788607 0.24762,-1.431682 0.85143,-2.211187 0.19048,-0.245916 0.23932,-0.274001 0.35695,-0.205299 0.0673,0.03932 0.0831,0.06576 0.0831,0.139435 0,0.0676 -0.0153,0.09856 -0.0598,0.120697 -0.10343,0.05157 -0.16159,0.118788 -0.36524,0.422131 -0.33505,0.499097 -0.49593,0.897135 -0.56057,1.386992 -0.058,0.439937 -0.0171,0.757394 0.13019,1.00869 0.0731,0.12465 0.3233,0.367513 0.44187,0.428831 0.0955,0.0494 0.15013,0.01203 0.29576,-0.202411 0.0982,-0.144624 0.11641,-0.158973 0.19216,-0.151556 0.0571,0.0056 0.0958,0.02993 0.12186,0.07658 0.0363,0.06497 0.0312,0.0787 -0.10084,0.274438 -0.0765,0.113328 -0.17717,0.229296 -0.22376,0.257706 -0.12615,0.07693 -0.29612,0.06756 -0.45789,-0.02522 z m 1.5448,-0.159894 c -0.0952,-0.0239 -0.19557,-0.07417 -0.25962,-0.130047 -0.0611,-0.0533 -0.0642,-0.277203 -0.005,-0.336711 0.0814,-0.08132 0.18791,-0.04278 0.22069,0.07976 0.0426,0.158975 0.31574,0.147741 0.47945,-0.01971 0.15731,-0.160906 0.17748,-0.410664 0.0528,-0.653682 -0.0544,-0.105914 -0.0793,-0.128602 -0.14864,-0.135438 -0.0652,-0.0064 -0.10705,0.0132 -0.19166,0.08964 -0.12215,0.110361 -0.13055,0.150733 -0.0551,0.264734 0.0713,0.107663 0.0672,0.189321 -0.0121,0.241246 -0.0925,0.06061 -0.16543,0.02767 -0.25642,-0.115799 -0.14202,-0.223934 -0.0948,-0.431005 0.14234,-0.624345 0.16192,-0.132009 0.21276,-0.153488 0.36336,-0.153488 0.16959,0 0.28019,0.06503 0.37806,0.222291 0.28494,0.457797 0.15515,1.023092 -0.28144,1.225837 -0.10337,0.048 -0.32392,0.07161 -0.42708,0.04571 z m 1.55825,-0.02842 c -0.0994,-0.06286 -0.10516,-1.23829 -0.007,-1.336907 0.0485,-0.0485 0.17259,-0.03273 0.22195,0.02822 0.0253,0.03128 0.0717,0.167587 0.10301,0.302893 0.0707,0.305184 0.11104,0.422222 0.14214,0.411855 0.0132,-0.0044 0.0889,-0.115424 0.16826,-0.246698 0.0793,-0.131274 0.16177,-0.259649 0.18322,-0.285279 0.0535,-0.06393 0.20145,-0.06005 0.2736,0.0072 0.0523,0.04876 0.32512,0.582528 0.32512,0.636182 0,0.01237 0.0187,0.03799 0.0415,0.05694 0.0356,0.0296 0.0685,0.0057 0.23299,-0.169831 0.1494,-0.159394 0.20769,-0.204285 0.26524,-0.204277 0.1794,2.4e-5 0.41897,0.260335 0.41876,0.455025 -1.3e-4,0.110077 -0.082,0.252593 -0.15913,0.277084 -0.0729,0.02314 -0.18693,-0.05045 -0.18693,-0.120631 0,-0.02915 0.0141,-0.07563 0.0314,-0.103286 0.0251,-0.0403 0.0224,-0.06402 -0.0139,-0.119465 -0.025,-0.03805 -0.0541,-0.0686 -0.0647,-0.06789 -0.0107,6.94e-4 -0.0733,0.06721 -0.13911,0.147786 -0.12421,0.151937 -0.30302,0.276969 -0.39609,0.276969 -0.0975,0 -0.1893,-0.115905 -0.34468,-0.43518 l -0.15349,-0.315353 -0.0752,0.138156 c -0.18197,0.33433 -0.43283,0.488106 -0.5796,0.355285 -0.0466,-0.04219 -0.0487,-0.03774 -0.0487,0.10461 0,0.09966 -0.0138,0.162474 -0.0418,0.190521 -0.0466,0.04666 -0.13727,0.05405 -0.19729,0.01611 z m -13.69909,-0.938782 c -0.0787,-0.112418 -0.0383,-0.189391 0.13577,-0.258153 0.1153,-0.04556 0.20144,-0.02783 0.23979,0.04937 0.0407,0.08182 0.009,0.145859 -0.10582,0.216036 -0.11393,0.06947 -0.21795,0.06668 -0.26974,-0.0073 z m -0.3277,-0.141116 c -0.11182,-0.07909 -0.0537,-0.305635 0.0784,-0.305635 0.077,0 0.18123,0.106424 0.18123,0.185068 0,0.126377 -0.15176,0.196854 -0.25962,0.120567 z m 28.99396,-0.782164 c -0.0308,-0.03081 -0.0561,-0.07134 -0.0561,-0.09005 0,-0.05051 0.0779,-0.152379 0.11651,-0.152379 0.0791,0 0.42416,-0.547276 0.75111,-1.191471 0.12455,-0.245381 0.24619,-0.461126 0.27032,-0.479433 0.16279,-0.123495 0.31734,0.100559 0.17908,0.259623 -0.0191,0.02197 -0.11489,0.201707 -0.21288,0.399419 -0.22373,0.451423 -0.53956,0.966746 -0.70091,1.143614 -0.1481,0.162336 -0.2599,0.197974 -0.3472,0.110674 z m -20.66606,-0.804837 c -0.0513,-0.03095 -0.15628,-0.109861 -0.23336,-0.175348 -0.077,-0.06549 -0.22088,-0.173895 -0.31953,-0.240905 -0.0987,-0.06702 -0.27824,-0.199691 -0.39907,-0.29484 -0.19539,-0.153871 -0.21967,-0.182665 -0.21967,-0.260391 0,-0.09047 0.0751,-0.170294 0.16015,-0.170294 0.023,0 0.0952,0.05512 0.16049,0.122499 0.0653,0.06737 0.24453,0.211429 0.3983,0.320123 0.15378,0.108694 0.35623,0.257273 0.44989,0.330177 0.11226,0.08738 0.19587,0.132552 0.24537,0.132552 0.047,0 0.0854,0.01928 0.10264,0.0515 0.10436,0.194982 -0.12506,0.317872 -0.34521,0.184923 z m 19.47086,-0.198055 c -0.0943,-0.06609 -0.0753,-0.16051 0.0587,-0.290699 0.0647,-0.06295 0.14297,-0.160728 0.17379,-0.217306 0.10154,-0.186385 0.19389,-0.33965 0.33476,-0.555544 0.16927,-0.259399 0.21301,-0.345595 0.23563,-0.464242 0.0327,-0.171169 0.17019,-0.243977 0.27082,-0.143345 0.0853,0.08532 0.002,0.369169 -0.19405,0.66447 -0.0403,0.06058 -0.17386,0.276262 -0.2968,0.479303 -0.28795,0.475588 -0.44884,0.621184 -0.5828,0.527363 z m -18.36581,-0.320969 c -0.0293,-0.02269 -0.1283,-0.07822 -0.22004,-0.12339 -0.0917,-0.04518 -0.2475,-0.152231 -0.34616,-0.237903 -0.0987,-0.08567 -0.26325,-0.20513 -0.36578,-0.265463 -0.26138,-0.153831 -0.33285,-0.225786 -0.33285,-0.335151 0,-0.113017 0.0634,-0.237842 0.13185,-0.259564 0.1033,-0.03278 0.21011,0.08273 0.18268,0.197545 -0.004,0.01912 0.0719,0.08425 0.16989,0.144737 0.098,0.06049 0.26519,0.181878 0.37152,0.26975 0.10633,0.08787 0.28378,0.205243 0.39431,0.260824 0.11053,0.05558 0.21596,0.120781 0.23426,0.144887 0.0422,0.05565 0.043,0.173066 0.002,0.21472 -0.0441,0.04416 -0.15705,0.03855 -0.22101,-0.01099 z"
       id="path3146" />
  </g>
</svg>
