<?xml version="1.0" encoding="UTF-8" standalone="no"?>
<!-- Created with Inkscape (http://www.inkscape.org/) -->

<svg
   width="149.06198"
   height="66.329323"
   viewBox="0 0 19.719656 8.7748161"
   version="1.1"
   id="svg5"
   inkscape:version="1.1.1 (3bf5ae0d25, 2021-09-20)"
   sodipodi:docname="japanese.svg"
   xmlns:inkscape="http://www.inkscape.org/namespaces/inkscape"
   xmlns:sodipodi="http://sodipodi.sourceforge.net/DTD/sodipodi-0.dtd"
   xmlns="http://www.w3.org/2000/svg"
   xmlns:svg="http://www.w3.org/2000/svg">
  <sodipodi:namedview
     id="namedview7"
     pagecolor="#ffffff"
     bordercolor="#666666"
     borderopacity="1.0"
     inkscape:pageshadow="2"
     inkscape:pageopacity="0.0"
     inkscape:pagecheckerboard="0"
     inkscape:document-units="mm"
     showgrid="false"
     inkscape:zoom="1.4289282"
     inkscape:cx="-5.5986019"
     inkscape:cy="104.62387"
     inkscape:window-width="1920"
     inkscape:window-height="991"
     inkscape:window-x="-9"
     inkscape:window-y="-9"
     inkscape:window-maximized="1"
     inkscape:current-layer="layer1"
     fit-margin-top="0"
     fit-margin-left="0"
     fit-margin-right="0"
     fit-margin-bottom="0"
     units="px" />
  <defs
     id="defs2" />
  <g
     inkscape:label="Capa 1"
     inkscape:groupmode="layer"
     id="layer1"
     transform="translate(152.76174,46.142225)">
    <path
       style="fill:#000000;stroke-width:0.0167405"
       d="m -142.24314,-37.375647 c -0.0782,-0.03234 -0.14179,-0.163221 -0.23949,-0.492369 -0.0861,-0.290129 -0.13067,-0.463783 -0.15305,-0.596366 -0.017,-0.100854 -0.0463,-0.381466 -0.0481,-0.461649 -5.8e-4,-0.02887 -0.009,-0.03353 -0.0503,-0.0275 -0.0324,0.0047 -0.0707,-0.0059 -0.11087,-0.03064 -0.0337,-0.02085 -0.11879,-0.05799 -0.18903,-0.08252 -0.0702,-0.02453 -0.19637,-0.07671 -0.2803,-0.115943 l -0.15264,-0.07134 -0.0901,0.05066 c -0.14729,0.08283 -0.32772,0.123605 -0.55021,0.124357 -0.1808,5.88e-4 -0.20266,-0.0031 -0.35181,-0.05895 -0.0874,-0.03279 -0.18164,-0.07163 -0.20926,-0.08634 -0.0276,-0.01472 -0.0635,-0.02679 -0.0796,-0.02684 -0.0439,-1.53e-4 -0.25222,-0.214752 -0.2945,-0.30341 -0.0402,-0.08417 -0.0311,-0.148442 0.0274,-0.192825 0.0764,-0.05813 0.1541,-0.01543 0.25875,0.14244 0.0368,0.05538 0.0742,0.08257 0.18632,0.135088 0.23602,0.11057 0.36025,0.141258 0.51843,0.128066 0.16797,-0.014 0.28214,-0.04169 0.27407,-0.06647 -0.003,-0.01032 -0.0583,-0.04824 -0.12205,-0.08426 -0.11478,-0.06485 -0.11768,-0.06549 -0.29171,-0.06482 -0.0967,3.67e-4 -0.20697,0.0033 -0.24509,0.0065 -0.0889,0.0075 -0.1511,-0.02622 -0.17348,-0.09402 -0.0217,-0.06582 -5.8e-4,-0.129822 0.0542,-0.165894 0.0424,-0.02779 0.2693,-0.06567 0.31247,-0.05218 0.0147,0.0046 0.11334,0.01585 0.21923,0.02501 0.32787,0.02837 0.54031,0.124534 0.62328,0.28213 0.0233,0.0442 0.0613,0.07008 0.19251,0.131038 0.0899,0.04177 0.22002,0.0948 0.28908,0.11782 0.069,0.02302 0.13271,0.04872 0.14146,0.05713 0.0256,0.02452 0.0341,0.01806 0.0368,-0.02757 8.1e-4,-0.02355 0.0146,-0.05615 0.0293,-0.07245 0.0148,-0.0163 0.0269,-0.05269 0.0269,-0.08087 0,-0.102818 0.0536,-0.332959 0.0937,-0.401763 0.0416,-0.07157 0.0594,-0.08077 0.21991,-0.113419 0.1012,-0.02059 0.22388,0.01942 0.35969,0.117376 0.13708,0.09886 0.18085,0.169042 0.18015,0.2888 -8.2e-4,0.194902 -0.16805,0.341999 -0.45999,0.405406 -0.15362,0.03337 -0.14188,0.01498 -0.13164,0.206171 0.0135,0.253747 0.0647,0.539832 0.14924,0.834956 0.10069,0.351574 0.11773,0.396846 0.16663,0.442159 0.0345,0.03204 0.0418,0.05425 0.0418,0.128987 0,0.06477 -0.008,0.09774 -0.0294,0.116679 -0.0386,0.03482 -0.10437,0.04792 -0.14859,0.02961 z m 0.0524,-2.075018 c 0.0964,-0.05435 0.11069,-0.08916 0.0557,-0.13576 -0.0891,-0.07548 -0.14271,-0.100192 -0.19486,-0.08977 -0.0456,0.0092 -0.0533,0.0195 -0.0691,0.09292 -0.0102,0.04544 -0.0177,0.109588 -0.0177,0.142538 v 0.05991 l 0.0711,-0.01132 c 0.0391,-0.0062 0.10881,-0.03256 0.15485,-0.05851 z m -8.39019,1.036343 c -0.0519,-0.02088 -0.0934,-0.09146 -0.10714,-0.181841 -0.006,-0.04261 -0.0314,-0.132813 -0.0553,-0.200447 -0.0316,-0.089 -0.0435,-0.156299 -0.0435,-0.243621 v -0.120651 l -0.17996,0.0054 c -0.099,0.003 -0.23513,0.01276 -0.30255,0.02181 -0.19707,0.02644 -0.25,0.02204 -0.29668,-0.02464 -0.0513,-0.0512 -0.0525,-0.111406 -0.003,-0.167775 0.0456,-0.05246 0.17418,-0.0728 0.55132,-0.08718 l 0.2458,-0.0094 0.0137,-0.110958 c 0.0167,-0.135168 0.0165,-0.946583 -1.2e-4,-1.010758 -0.0158,-0.06104 -0.0391,-0.05815 -0.0677,0.0084 -0.0128,0.02992 -0.11286,0.152337 -0.22231,0.272031 -0.10943,0.119695 -0.2889,0.323092 -0.39881,0.451993 -0.1099,0.128902 -0.26422,0.302547 -0.34291,0.385878 -0.0787,0.08334 -0.18842,0.20198 -0.24383,0.263662 -0.0854,0.09506 -0.10911,0.112151 -0.15562,0.112151 -0.0366,0 -0.0692,-0.01433 -0.0979,-0.04313 -0.0361,-0.03607 -0.0417,-0.05388 -0.0343,-0.108838 0.007,-0.05705 0.0427,-0.101567 0.2657,-0.337823 0.14128,-0.14966 0.31715,-0.342758 0.39081,-0.429107 0.0736,-0.08635 0.21867,-0.249236 0.32225,-0.361974 0.10358,-0.112737 0.18833,-0.210819 0.18833,-0.217959 0,-0.01939 -0.49906,0.0039 -0.72145,0.03367 -0.20423,0.02734 -0.55954,0.131014 -0.65837,0.192098 -0.0305,0.01884 -0.0756,0.03426 -0.10028,0.03426 -0.0574,0 -0.12699,-0.069 -0.12699,-0.125894 0,-0.115114 0.0607,-0.149292 0.53569,-0.301565 0.16129,-0.05171 0.49005,-0.08859 0.88724,-0.09955 0.17033,-0.0047 0.36503,-0.01305 0.43265,-0.01856 l 0.12297,-0.01 -0.011,-0.211863 c -0.006,-0.116525 -0.0177,-0.283429 -0.0259,-0.370898 -0.008,-0.08747 -0.0201,-0.254788 -0.0265,-0.371821 -0.0106,-0.193977 -0.0151,-0.216062 -0.0511,-0.249841 -0.044,-0.0414 -0.0532,-0.133396 -0.0204,-0.205397 0.0236,-0.05206 0.11165,-0.09554 0.16608,-0.08214 0.11754,0.02892 0.14494,0.111349 0.16654,0.500705 0.009,0.174036 0.0249,0.395526 0.0338,0.492202 0.009,0.09668 0.0163,0.228508 0.0165,0.292958 3.8e-4,0.200857 -0.0169,0.188864 0.23939,0.165271 0.12142,-0.01117 0.29969,-0.02932 0.39619,-0.04035 0.21651,-0.02471 0.5222,-0.01348 0.60334,0.02219 0.12994,0.05711 0.16691,0.179842 0.0773,0.256835 -0.04,0.03439 -0.0635,0.03969 -0.1762,0.03969 -0.11785,0 -0.13385,-0.004 -0.17026,-0.04278 -0.0439,-0.04683 -0.0519,-0.04697 -0.39253,-0.0073 -0.0736,0.0086 -0.21425,0.02438 -0.31244,0.0351 l -0.1785,0.01952 0.032,0.03437 c 0.0175,0.0189 0.032,0.05367 0.032,0.07725 -8e-5,0.07557 0.31381,0.354808 0.53573,0.476611 0.19074,0.104679 0.39206,0.205949 0.43525,0.218934 0.023,0.0069 0.0795,0.0299 0.12556,0.05105 0.15865,0.07292 0.21352,0.09146 0.27073,0.09146 0.0628,0 0.15278,0.03998 0.18491,0.08209 0.0316,0.04142 0.0257,0.131318 -0.0111,0.168083 -0.0579,0.05789 -0.12907,0.05801 -0.30226,5.43e-4 -0.0874,-0.02903 -0.1741,-0.06217 -0.19251,-0.07366 -0.0184,-0.01149 -0.09,-0.04227 -0.15903,-0.0684 -0.0691,-0.02613 -0.19336,-0.08491 -0.27622,-0.130629 -0.0829,-0.04572 -0.19104,-0.104376 -0.24036,-0.130364 -0.10258,-0.05405 -0.24079,-0.155351 -0.3623,-0.265571 l -0.0837,-0.07593 -0.0195,0.34318 c -0.0107,0.188748 -0.0169,0.345732 -0.0139,0.348854 0.003,0.0031 0.12411,-0.0025 0.26896,-0.01256 0.14485,-0.01 0.33347,-0.01823 0.41916,-0.01823 0.13869,0 0.15952,0.004 0.1899,0.03664 0.0485,0.05199 0.045,0.13903 -0.007,0.187571 -0.0391,0.03626 -0.0591,0.03907 -0.34737,0.04907 -0.16822,0.0058 -0.36047,0.01562 -0.42723,0.02175 l -0.12137,0.01115 v 0.123459 c 0,0.09351 0.0103,0.148762 0.0424,0.227753 0.0744,0.183063 0.0932,0.27729 0.0674,0.339068 -0.0149,0.0357 -0.0407,0.06002 -0.077,0.07266 -0.03,0.01046 -0.0553,0.01852 -0.0563,0.01795 -8.1e-4,-5.82e-4 -0.0182,-0.0076 -0.0384,-0.01585 z m 14.16307,-0.115867 c -0.0856,-0.05218 -0.0937,-0.165098 -0.0176,-0.248076 0.0382,-0.04176 0.1253,-0.05076 0.17724,-0.01833 0.0614,0.03832 0.27001,-0.09814 0.26981,-0.176472 -3.7e-4,-0.119747 -0.11683,-0.286142 -0.37647,-0.537597 -0.15484,-0.149968 -0.19996,-0.221411 -0.18442,-0.292077 0.0238,-0.108465 0.13263,-0.151885 0.37684,-0.150377 0.29875,0.0018 0.42521,0.0532 0.42521,0.17267 0,0.111541 -0.0727,0.152601 -0.20804,0.117494 -0.0498,-0.01292 -0.11686,-0.02348 -0.14904,-0.02348 h -0.0585 l 0.0761,0.07951 c 0.12474,0.130216 0.2644,0.304071 0.29697,0.369675 0.0825,0.166147 0.0862,0.31896 0.0109,0.447489 -0.0549,0.09368 -0.11532,0.142259 -0.27854,0.223953 -0.15828,0.07922 -0.27071,0.09033 -0.36044,0.03562 z m 2.13699,0.01601 c -0.17581,-0.01264 -0.38901,-0.04939 -0.54132,-0.09331 -0.34725,-0.100141 -0.49389,-0.477416 -0.32434,-0.834435 0.0477,-0.100396 0.0906,-0.157901 0.19248,-0.257996 0.0722,-0.07085 0.17395,-0.158941 0.22628,-0.19577 0.0523,-0.03682 0.16111,-0.115171 0.24172,-0.174093 0.17178,-0.125545 0.25011,-0.146125 0.32656,-0.0858 0.0928,0.07332 0.0556,0.230054 -0.12533,0.526591 -0.10327,0.169283 -0.18606,0.254897 -0.35597,0.3681 -0.17869,0.119051 -0.20481,0.131348 -0.2614,0.123043 -0.0408,-0.006 -0.0483,-0.0014 -0.0483,0.02982 0,0.06441 0.048,0.154797 0.10444,0.196762 0.053,0.03931 0.15481,0.07011 0.38103,0.1151 0.0677,0.01345 0.23858,0.02165 0.452,0.02163 0.32674,-1.5e-5 0.35112,-0.0022 0.50911,-0.0475 0.13421,-0.03841 0.17621,-0.05838 0.2196,-0.104389 0.0777,-0.08228 0.17188,-0.07741 0.21774,0.01126 0.0427,0.0826 0.0313,0.131918 -0.048,0.207942 -0.061,0.0585 -0.0975,0.07643 -0.23108,0.113467 -0.27864,0.0773 -0.59388,0.104131 -0.9352,0.0796 z m -0.35419,-1.078069 c 0.10089,-0.09159 0.0595,-0.08808 -0.0538,0.0045 -0.0702,0.05736 -0.12762,0.107662 -0.12762,0.11179 0,0.01168 0.13772,-0.07661 0.18149,-0.116353 z m -2.85998,1.043762 c -0.22341,-0.06176 -0.37043,-0.14832 -0.49836,-0.293425 l -0.0748,-0.08479 -0.089,0.01612 c -0.0814,0.01474 -0.0968,0.01212 -0.18149,-0.03071 -0.13744,-0.06955 -0.18803,-0.118906 -0.30988,-0.302431 -0.14547,-0.219086 -0.15437,-0.223588 -0.36418,-0.183991 -0.0907,0.01711 -0.20055,0.03181 -0.24424,0.03266 -0.0491,9.8e-4 -0.0794,0.0092 -0.0795,0.02139 -1.4e-4,0.03154 0.0484,0.33627 0.076,0.476126 0.039,0.198576 -0.016,0.282921 -0.15977,0.244639 -0.0632,-0.01682 -0.0797,-0.05807 -0.11713,-0.291855 -0.0526,-0.328846 -0.10829,-0.601816 -0.17344,-0.850515 -0.068,-0.259394 -0.0137,-0.396139 0.14102,-0.355398 0.056,0.01476 0.0749,0.05466 0.11657,0.246586 0.0454,0.208759 0.077,0.243912 0.21618,0.239882 0.0542,-0.0015 0.14628,-0.0154 0.20461,-0.03074 0.16507,-0.0434 0.2686,-0.03548 0.36242,0.02772 0.0908,0.0612 0.13079,0.106702 0.24583,0.280101 0.0918,0.138355 0.19613,0.225054 0.25251,0.209837 0.0286,-0.0077 0.0381,-0.03031 0.0529,-0.126258 0.0217,-0.140516 0.1109,-0.335914 0.19643,-0.430603 0.0712,-0.07885 0.21542,-0.153206 0.29706,-0.153206 0.24996,0 0.42004,0.365875 0.27322,0.587738 -0.05,0.07549 -0.18635,0.169008 -0.30525,0.209322 -0.17209,0.05834 -0.16452,0.05289 -0.12882,0.09262 0.0386,0.04296 0.18091,0.13467 0.24913,0.160561 0.13233,0.05021 0.28446,0.05788 0.48021,0.02416 0.13348,-0.02298 0.14888,-0.02275 0.18807,0.003 0.0235,0.01538 0.0474,0.0467 0.0531,0.0696 0.0358,0.142505 -0.0682,0.195938 -0.39496,0.203128 -0.12429,0.0026 -0.25236,-0.0022 -0.28459,-0.01123 z m -0.11955,-0.865299 c 0.0496,-0.03777 0.055,-0.04955 0.0468,-0.10062 -0.009,-0.05879 -0.0372,-0.105075 -0.0627,-0.105075 -0.008,0 -0.0412,0.02377 -0.0743,0.05282 -0.0617,0.05418 -0.11191,0.137869 -0.13144,0.219079 l -0.011,0.0459 0.0882,-0.03467 c 0.0485,-0.01907 0.11348,-0.05392 0.1444,-0.07744 z m -8.01769,0.842236 c -0.005,-0.0055 -0.0732,-0.01837 -0.15066,-0.02863 -0.0776,-0.01025 -0.1673,-0.02973 -0.19952,-0.04326 -0.1497,-0.06289 -0.35782,-0.127006 -0.51059,-0.157286 -0.18418,-0.03651 -0.22211,-0.06064 -0.23601,-0.150132 -0.0176,-0.113627 0.15616,-0.299001 0.30688,-0.327277 0.11407,-0.0214 0.19635,0.103845 0.13237,0.201488 -0.0245,0.03745 -0.0232,0.03879 0.0617,0.06411 0.0477,0.01423 0.13941,0.04586 0.20386,0.07029 0.0645,0.02443 0.14357,0.05244 0.1758,0.06221 0.0742,0.02253 0.40049,0.06011 0.43943,0.0506 0.0524,-0.01278 0.0377,-0.114382 -0.0781,-0.542608 -0.0294,-0.109174 -0.16099,-0.451289 -0.21141,-0.550133 -0.0185,-0.03636 -0.0873,-0.150738 -0.1529,-0.25418 -0.36509,-0.576171 -0.39133,-0.634895 -0.41035,-0.918001 -0.008,-0.124558 -0.007,-0.128564 0.0451,-0.18833 0.0299,-0.0339 0.0696,-0.06129 0.0896,-0.06158 0.0335,-4.69e-4 0.0338,-0.0017 0.005,-0.01833 -0.0168,-0.0098 -0.047,-0.01285 -0.067,-0.0068 -0.02,0.006 -0.13132,0.0205 -0.24746,0.03206 -0.17125,0.01703 -0.21992,0.02789 -0.25754,0.05749 -0.0819,0.06449 -0.20283,0.03248 -0.24295,-0.06436 -0.0183,-0.04421 -0.0175,-0.06071 0.005,-0.107669 0.0225,-0.04723 0.0433,-0.06075 0.13994,-0.09108 0.0625,-0.01959 0.16653,-0.03956 0.23136,-0.04437 0.0649,-0.0048 0.17064,-0.01589 0.23509,-0.02461 0.0644,-0.0088 0.21511,-0.01921 0.33481,-0.02331 0.11968,-0.0041 0.23883,-0.01553 0.26475,-0.0254 0.12128,-0.04619 0.22909,0.01021 0.22909,0.119861 0,0.09875 -0.0637,0.155452 -0.23191,0.206508 -0.10524,0.03195 -0.14092,0.03002 -0.19225,-0.01035 -0.0343,-0.02698 -0.0568,-0.03187 -0.10487,-0.02284 l -0.0613,0.01149 0.0498,0.02097 c 0.0274,0.01154 0.0548,0.03373 0.0608,0.04932 0.0171,0.04475 0.0127,0.122951 -0.008,0.135602 -0.0125,0.0077 -0.0149,0.04517 -0.007,0.113986 0.0176,0.157625 0.11021,0.332411 0.47362,0.894351 0.16204,0.250585 0.38934,0.970293 0.39492,1.250441 0.005,0.247571 -0.0626,0.313267 -0.33213,0.323401 -0.092,0.0035 -0.17179,0.0018 -0.17715,-0.0037 z m 4.38981,-0.380923 c -0.24662,-0.0353 -0.37558,-0.178207 -0.26267,-0.291104 0.0504,-0.05047 0.13803,-0.05466 0.19563,-0.0094 0.0562,0.04419 0.2346,0.06126 0.35605,0.03409 0.0523,-0.0117 0.0987,-0.02694 0.10287,-0.03385 0.009,-0.01449 -0.15234,-0.105056 -0.2367,-0.1329 -0.0722,-0.02381 -0.1074,-0.07373 -0.1074,-0.152149 0,-0.110081 0.12417,-0.199302 0.27622,-0.198471 0.11345,6.48e-4 0.24468,0.09369 0.31062,0.220274 0.0339,0.06527 0.0472,0.07084 0.40922,0.172654 0.13171,0.03703 0.34194,0.134517 0.37009,0.171589 0.0585,0.07706 -0.008,0.205083 -0.10736,0.205083 -0.0266,0 -0.0841,-0.01893 -0.12758,-0.04205 -0.0735,-0.03904 -0.45019,-0.158971 -0.49867,-0.158731 -0.0118,5e-5 -0.0339,0.02187 -0.049,0.04848 -0.0392,0.06894 -0.15297,0.128913 -0.30241,0.159435 -0.14139,0.02887 -0.17154,0.02951 -0.32889,0.007 z m 3.86461,-3.380005 c -0.25105,-0.01517 -0.43372,-0.05175 -0.46381,-0.09291 -0.0359,-0.04906 -0.0265,-0.130077 0.0202,-0.173912 l 0.0419,-0.03934 0.20505,0.02071 c 0.3319,0.03352 0.63742,0.04835 0.67907,0.03296 0.0213,-0.0078 0.0595,-0.01432 0.085,-0.01432 0.0254,0 0.0803,-0.02253 0.12186,-0.05008 0.13579,-0.08994 0.17166,-0.267526 0.12347,-0.611169 -0.0331,-0.23647 -0.0587,-0.334034 -0.13641,-0.52185 -0.0466,-0.112447 -0.14007,-0.292875 -0.1664,-0.321038 -0.003,-0.0033 -0.0342,0.01716 -0.0694,0.04531 -0.0935,0.07486 -0.28103,0.154343 -0.40597,0.172039 -0.17593,0.02492 -0.23495,-0.01807 -0.2607,-0.189787 -0.0105,-0.06991 -0.007,-0.0829 0.0311,-0.121147 0.0565,-0.05646 0.13232,-0.05686 0.1882,-9.81e-4 0.023,0.02301 0.0498,0.04185 0.0596,0.04185 0.03,0 0.2261,-0.09851 0.24754,-0.124321 0.0166,-0.01998 0.008,-0.03228 -0.0478,-0.06924 -0.0671,-0.04436 -0.25883,-0.106335 -0.33206,-0.107283 -0.0208,-2.66e-4 -0.0528,-0.01555 -0.0711,-0.03397 -0.0628,-0.06281 -0.0303,-0.224263 0.0546,-0.270593 0.10278,-0.05614 0.4334,-0.04447 0.57084,0.02014 0.1558,0.07323 0.21916,0.172387 0.20723,0.324283 -0.006,0.08205 -0.002,0.108477 0.022,0.135424 0.11459,0.127957 0.29891,0.566431 0.34483,0.820283 0.0432,0.238981 0.0429,0.652054 -5.9e-4,0.777114 -0.0602,0.173105 -0.23924,0.311774 -0.45355,0.351391 -0.1074,0.01985 -0.27107,0.01997 -0.59461,4.3e-4 z m -12.86199,-0.24948 c -0.0229,-0.0273 -0.0467,-0.0784 -0.0525,-0.113555 l -0.0108,-0.06391 -0.16236,0.0062 c -0.13237,0.005 -0.21029,-0.0035 -0.42184,-0.04604 -0.5745,-0.115613 -0.69274,-0.124824 -0.76327,-0.05946 -0.0902,0.08357 -0.24116,0.03311 -0.24116,-0.08059 0,-0.03894 -0.006,-0.04495 -0.051,-0.04495 -0.0323,0 -0.0666,-0.01562 -0.0937,-0.04271 -0.0365,-0.03653 -0.0414,-0.05289 -0.0332,-0.112998 0.0188,-0.138186 0.0431,-0.409789 0.0625,-0.698107 0.0324,-0.482342 -0.011,-1.876265 -0.0606,-1.947145 -0.0262,-0.03743 -0.0331,-0.124682 -0.0121,-0.15454 0.0282,-0.04035 0.12134,-0.09126 0.16682,-0.09126 0.0309,0 0.0638,0.01585 0.0893,0.04297 0.037,0.0394 0.0407,0.05846 0.0446,0.230181 0.006,0.278678 0.0376,0.945577 0.0485,1.03776 0.011,0.09211 -0.0205,0.08898 0.26565,0.02643 0.0829,-0.01812 0.20716,-0.04458 0.27622,-0.05879 0.069,-0.01423 0.15835,-0.03395 0.19842,-0.04382 0.10277,-0.02532 0.44913,-0.02423 0.52477,0.0016 0.0846,0.02897 0.16406,0.122109 0.16406,0.192363 0,0.121672 -0.1358,0.171633 -0.22932,0.08438 -0.045,-0.04203 -0.0529,-0.04344 -0.19757,-0.03555 -0.15331,0.0084 -0.36587,0.04568 -0.71147,0.124926 -0.24853,0.057 -0.28458,0.07461 -0.28458,0.139019 0,0.04635 -0.0125,0.271867 -0.0497,0.895121 -0.008,0.138108 -0.0204,0.265227 -0.027,0.282486 -0.0114,0.0294 -0.009,0.02976 0.0281,0.0056 0.094,-0.06009 0.16398,-0.06674 0.40731,-0.03866 0.12737,0.0147 0.32665,0.04698 0.44284,0.07175 0.2543,0.0542 0.56846,0.06516 0.61238,0.02137 0.0347,-0.03467 0.0583,-0.625388 0.0623,-1.564628 0.003,-0.736116 -0.004,-0.842467 -0.0726,-1.075248 l -0.0357,-0.121041 -0.0904,-0.03382 c -0.10763,-0.04027 -0.15508,-0.04163 -0.33184,-0.0095 -0.28219,0.05132 -0.50862,0.07645 -0.67355,0.07477 -0.14366,-0.0014 -0.17804,-0.0071 -0.2134,-0.0349 -0.0793,-0.06234 -0.0385,-0.227935 0.0573,-0.232982 0.0144,-7.66e-4 0.11277,-0.0026 0.21865,-0.0042 0.1117,-0.0016 0.33177,-0.02346 0.52428,-0.05202 0.37399,-0.05547 0.3982,-0.05362 0.59662,0.04544 0.12634,0.06307 0.15155,0.102316 0.2097,0.326388 0.0719,0.276785 0.082,0.48694 0.0677,1.39079 -0.007,0.45712 -0.0169,0.970491 -0.0214,1.140825 -0.005,0.170334 -0.009,0.376259 -0.0104,0.45761 -0.002,0.133876 -0.006,0.150954 -0.0417,0.179961 -0.059,0.04783 -0.12564,0.04112 -0.17504,-0.01759 z m 3.72056,-0.984511 c -0.0926,-0.05984 -0.14604,-0.162404 -0.20091,-0.386134 -0.0375,-0.152868 -0.0375,-0.154035 -0.008,-0.358413 0.0159,-0.112776 0.0359,-0.246479 0.0442,-0.297119 0.008,-0.05064 0.0266,-0.167405 0.0407,-0.259478 0.0715,-0.469242 0.11659,-0.670403 0.20327,-0.90744 0.0311,-0.08476 0.0564,-0.182903 0.0564,-0.218085 0,-0.07988 0.0357,-0.132523 0.0993,-0.146486 0.0628,-0.01378 0.14876,0.02928 0.15893,0.07955 0.0271,0.134222 0.0258,0.182115 -0.006,0.246054 -0.0432,0.0847 -0.0948,0.222871 -0.12602,0.337323 -0.0808,0.296443 -0.23534,1.298334 -0.21701,1.40685 0.0114,0.06802 0.0662,0.228663 0.084,0.246443 0.0238,0.02381 0.33897,3.41e-4 0.62706,-0.04671 0.0599,-0.0098 0.22557,-0.0245 0.36828,-0.03271 0.21247,-0.01225 0.27044,-0.01061 0.31998,0.0091 0.0867,0.03442 0.12766,0.144075 0.077,0.206349 -0.0436,0.05372 -0.0793,0.06795 -0.21246,0.08464 -0.11528,0.01445 -0.14426,0.01317 -0.17629,-0.0078 -0.032,-0.02098 -0.0682,-0.0226 -0.22001,-0.0098 -0.1,0.0085 -0.208,0.02318 -0.24017,0.03274 -0.0321,0.0096 -0.0939,0.01739 -0.13703,0.01739 -0.0432,0 -0.0975,0.0072 -0.12086,0.01609 -0.0233,0.0089 -0.1085,0.0208 -0.18941,0.02657 -0.14269,0.01019 -0.14938,0.009 -0.22356,-0.0389 z m 7.57632,-0.05688 c -0.0447,-0.03525 -0.046,-0.03994 -0.0355,-0.152476 0.0132,-0.142611 -0.0193,-0.557473 -0.0481,-0.614691 -0.0117,-0.02301 -0.0343,-0.134836 -0.0504,-0.248486 -0.0325,-0.230054 -0.025,-0.26935 0.0576,-0.303602 0.0519,-0.02147 0.11199,-0.0043 0.15313,0.04377 0.0308,0.03607 0.071,0.179236 0.0991,0.353471 0.018,0.112304 0.0226,0.121368 0.0605,0.121368 0.0273,0 0.0697,-0.02919 0.12676,-0.08714 0.21123,-0.214605 0.36341,-0.244953 0.48767,-0.09727 0.0838,0.09952 0.15252,0.302715 0.18637,0.550628 0.005,0.0403 0.0211,0.08905 0.0345,0.108352 0.0372,0.05314 0.0307,0.133176 -0.0142,0.17538 -0.0633,0.05947 -0.18831,0.0393 -0.22689,-0.0366 -0.0178,-0.03505 -0.0566,-0.203885 -0.0774,-0.337145 -0.0131,-0.0841 -0.0791,-0.259477 -0.0976,-0.259477 -0.007,0 -0.057,0.04111 -0.10967,0.09136 -0.0972,0.09273 -0.21419,0.15871 -0.28258,0.159378 -0.0371,3.67e-4 -0.0377,0.0037 -0.0377,0.215496 0,0.239623 -0.0155,0.306988 -0.077,0.335 -0.0609,0.02777 -0.0969,0.02359 -0.14892,-0.01733 z m -5.02226,-0.171295 c -0.12288,-0.03514 -0.17556,-0.07549 -0.24918,-0.190824 -0.23036,-0.360877 -0.23676,-0.762015 -0.0153,-0.956981 0.10089,-0.08879 0.17599,-0.124426 0.31744,-0.150571 0.17036,-0.03149 0.23449,-0.01753 0.31111,0.06776 0.0525,0.05844 0.0628,0.08198 0.0628,0.143724 0,0.140716 -0.17233,0.394455 -0.34164,0.503044 -0.0532,0.03409 -0.0804,0.04052 -0.14511,0.0343 l -0.0797,-0.0076 0.0411,0.09281 c 0.0557,0.125961 0.11322,0.197447 0.16715,0.207758 0.0273,0.0052 0.10289,-0.01202 0.1922,-0.04382 l 0.14719,-0.05242 0.0471,0.03502 c 0.0534,0.03974 0.0731,0.141032 0.036,0.185745 -0.0258,0.03115 -0.19519,0.110523 -0.29208,0.136895 -0.0803,0.02186 -0.10816,0.0212 -0.19895,-0.0047 z m -0.12556,-0.771646 c 0.0114,-0.01381 0.0293,-0.02532 0.0397,-0.02556 0.0274,-6.48e-4 0.11386,-0.08045 0.17727,-0.163542 0.0581,-0.07602 0.0592,-0.10169 0.003,-0.07173 -0.0187,0.01 -0.0481,0.0181 -0.0657,0.0181 -0.049,0 -0.15141,0.08618 -0.16901,0.142294 -0.0383,0.122316 -0.0331,0.157961 0.0146,0.100446 z m 1.15037,0.755291 c -0.0996,-0.03695 -0.16828,-0.09169 -0.23496,-0.187091 -0.0718,-0.102849 -0.0792,-0.169685 -0.0241,-0.22018 0.0868,-0.07948 0.16465,-0.0612 0.23499,0.05524 0.0248,0.04099 0.0644,0.0819 0.0882,0.09092 0.0554,0.02108 0.2593,0.02084 0.29207,-3.28e-4 0.0213,-0.01379 0.0206,-0.01627 -0.005,-0.01648 -0.0166,-1.38e-4 -0.0492,-0.01935 -0.0725,-0.04267 -0.0355,-0.0355 -0.0415,-0.05509 -0.0369,-0.120096 l 0.005,-0.07768 -0.0824,-0.0427 c -0.0636,-0.03294 -0.0842,-0.03753 -0.09,-0.02011 -0.0126,0.03801 -0.0671,0.08394 -0.11319,0.0955 -0.0596,0.01497 -0.12865,-0.03849 -0.14798,-0.114639 -0.0306,-0.120517 0.10028,-0.262847 0.2423,-0.2635 0.0717,-3.29e-4 0.20776,0.04309 0.26922,0.08593 0.0245,0.01704 0.0521,0.03097 0.0614,0.03097 0.0284,0 0.14625,0.144763 0.18686,0.229611 0.055,0.115118 0.28423,0.296703 0.32411,0.256829 0.036,-0.03594 0.003,-0.402706 -0.057,-0.642464 -0.0269,-0.10685 0.002,-0.18833 0.0785,-0.225028 0.0512,-0.02438 0.0816,-0.02519 0.27809,-0.0073 0.2025,0.01835 0.22552,0.02392 0.27992,0.06767 0.0746,0.06 0.13458,0.147139 0.13458,0.195445 0,0.02042 -0.0156,0.05697 -0.0346,0.08123 -0.0514,0.06514 -0.13583,0.06107 -0.20044,-0.0097 -0.0419,-0.0459 -0.064,-0.0552 -0.1506,-0.06348 l -0.10151,-0.0097 0.0102,0.06766 c 0.005,0.03721 0.0182,0.117733 0.0283,0.17893 0.023,0.139547 0.0102,0.404844 -0.0244,0.485551 -0.0402,0.09485 -0.13206,0.148133 -0.25562,0.148133 -0.0859,0 -0.11636,-0.0088 -0.19604,-0.0568 -0.0938,-0.05645 -0.0945,-0.05659 -0.12453,-0.02339 -0.0545,0.06023 -0.11144,0.07638 -0.30653,0.0869 -0.14519,0.0078 -0.20806,0.0046 -0.25582,-0.01313 z m 1.78683,-0.08492 c -0.0543,-0.05436 -0.0545,-0.135746 -3.9e-4,-0.198664 0.0503,-0.05837 0.0615,-0.15876 0.0555,-0.497331 -0.003,-0.210626 -1.3e-4,-0.24945 0.026,-0.289521 0.0433,-0.06645 0.1071,-0.08686 0.17309,-0.05539 0.0437,0.02085 0.0591,0.04471 0.0903,0.139254 0.0206,0.06275 0.0522,0.143169 0.0699,0.178708 0.0289,0.05757 0.0377,0.06356 0.0806,0.05499 0.0264,-0.0053 0.0922,-0.0421 0.14613,-0.08179 0.0539,-0.0397 0.13021,-0.08278 0.16955,-0.09577 0.0648,-0.02138 0.0768,-0.02071 0.1285,0.0071 0.0313,0.01688 0.0688,0.04869 0.0832,0.07071 0.024,0.03654 0.13027,0.461199 0.15343,0.612765 0.0125,0.08204 -0.0407,0.145815 -0.12151,0.145815 -0.0942,0 -0.12462,-0.04237 -0.16945,-0.235472 -0.0223,-0.09606 -0.0449,-0.202919 -0.0502,-0.237447 -0.005,-0.03453 -0.0136,-0.06278 -0.0183,-0.06278 -0.005,0 -0.0321,0.01755 -0.0605,0.039 -0.11601,0.08734 -0.20022,0.116246 -0.31694,0.108813 l -0.10974,-0.007 -0.0102,0.06769 c -0.0291,0.192971 -0.049,0.249606 -0.10942,0.313177 -0.0747,0.07853 -0.14605,0.08641 -0.20934,0.02313 z m 1.3161,-0.0365 c -0.0191,-0.02426 -0.0346,-0.06091 -0.0346,-0.08145 0,-0.05376 0.0592,-0.121188 0.11768,-0.134032 0.14051,-0.03086 0.14843,-0.293786 0.0166,-0.548056 -0.0819,-0.157952 -0.0873,-0.228764 -0.0215,-0.280581 0.0331,-0.026 0.0593,-0.03328 0.0947,-0.02623 0.0703,0.01406 0.0808,0.02655 0.16732,0.19804 0.099,0.196275 0.1398,0.398903 0.10992,0.545561 -0.046,0.225886 -0.17742,0.370849 -0.3361,0.370849 -0.0655,0 -0.0851,-0.0076 -0.11384,-0.04411 z m -5.9e-4,-1.356779 c -0.0518,-0.06584 -0.0458,-0.168282 0.0141,-0.23993 0.04,-0.04782 0.0593,-0.05758 0.11432,-0.05758 0.11937,0 0.22244,0.106075 0.22258,0.229034 8e-5,0.08677 -0.043,0.11126 -0.19605,0.111554 -0.11012,2.15e-4 -0.1238,-0.0036 -0.15485,-0.04308 z"
       id="path2156" />
  </g>
</svg>
