<?xml version="1.0" encoding="UTF-8" standalone="no"?>
<!-- Created with Inkscape (http://www.inkscape.org/) -->

<svg
   width="44.628586mm"
   height="18.478214mm"
   viewBox="0 0 44.628586 18.478214"
   version="1.1"
   id="svg5"
   inkscape:version="1.1.1 (3bf5ae0d25, 2021-09-20)"
   sodipodi:docname="live_music.svg"
   xmlns:inkscape="http://www.inkscape.org/namespaces/inkscape"
   xmlns:sodipodi="http://sodipodi.sourceforge.net/DTD/sodipodi-0.dtd"
   xmlns="http://www.w3.org/2000/svg"
   xmlns:svg="http://www.w3.org/2000/svg">
  <sodipodi:namedview
     id="namedview7"
     pagecolor="#ffffff"
     bordercolor="#666666"
     borderopacity="1.0"
     inkscape:pageshadow="2"
     inkscape:pageopacity="0.0"
     inkscape:pagecheckerboard="0"
     inkscape:document-units="mm"
     showgrid="false"
     fit-margin-top="0"
     fit-margin-left="0"
     fit-margin-right="0"
     fit-margin-bottom="0"
     inkscape:zoom="0.71446409"
     inkscape:cx="453.48676"
     inkscape:cy="361.80965"
     inkscape:window-width="1920"
     inkscape:window-height="991"
     inkscape:window-x="-9"
     inkscape:window-y="-9"
     inkscape:window-maximized="1"
     inkscape:current-layer="layer1" />
  <defs
     id="defs2" />
  <g
     inkscape:label="Capa 1"
     inkscape:groupmode="layer"
     id="layer1"
     transform="translate(15.062744,-53.091332)">
    <path
       style="fill:#000000;stroke-width:0.0482005"
       d="m -13.033204,71.509758 c -0.196619,-0.236905 -0.182771,-0.754265 0.02686,-1.003386 0.149634,-0.177833 0.285641,-0.173854 0.798109,0.02337 0.180151,0.06933 0.401828,0.126048 0.49262,0.126048 0.141607,0 0.180646,-0.02706 0.274659,-0.190421 0.141988,-0.246705 0.297475,-0.322076 0.453515,-0.219835 0.164522,0.107799 0.14902,0.309084 -0.04337,0.563165 -0.298556,0.394275 -0.629499,0.462811 -1.263152,0.261592 l -0.364362,-0.115708 0.03128,0.23589 c 0.02112,0.159381 0.01175,0.259439 -0.02898,0.308507 -0.07365,0.08874 -0.306952,0.09541 -0.377182,0.01076 z m 4.9835164,-0.544119 c -0.041657,-0.04166 -0.075272,-0.122998 -0.074688,-0.180752 0.00284,-0.27483 0.3609227,-0.771957 0.5992442,-0.83177 0.060971,-0.01531 0.2542741,0.0081 0.4295778,0.05211 0.3116176,0.07815 0.321569,0.0777 0.446233,-0.02034 0.1571208,-0.123589 0.2680113,-0.127211 0.3721389,-0.01216 0.1178079,0.130174 0.097349,0.287295 -0.05758,0.442222 -0.1843381,0.184342 -0.438935,0.227499 -0.795306,0.134812 l -0.2819493,-0.07333 -0.091426,0.149933 c -0.050284,0.08246 -0.091508,0.173683 -0.091606,0.202709 -2.906e-4,0.0845 -0.1674567,0.212324 -0.2776836,0.212324 -0.055674,0 -0.1352997,-0.0341 -0.1769576,-0.07574 z m 3.6453401,-0.753307 c -0.031808,-0.03181 -0.057842,-0.117411 -0.057842,-0.190225 0,-0.107074 0.050907,-0.166175 0.266263,-0.309121 0.255162,-0.169368 0.2649735,-0.183621 0.2352761,-0.341908 -0.032008,-0.170589 0.070743,-0.35412 0.1982436,-0.35412 0.058595,0 0.2642901,-0.212873 0.7370281,-0.76276 0.2026062,-0.235673 0.2845927,-0.297655 0.393711,-0.297655 0.2137078,0 0.2705732,0.03741 0.4814647,0.316731 0.2321083,0.307426 0.4156644,0.417469 0.6261507,0.375368 0.1071607,-0.02145 0.1761633,-0.0055 0.2444087,0.0562 0.2261069,0.204625 0.035406,0.456724 -0.3454831,0.456724 -0.312907,0 -0.6139765,-0.145606 -0.8129029,-0.393145 -0.081885,-0.101897 -0.1641252,-0.185116 -0.1827579,-0.184932 -0.035406,3.65e-4 -0.2507818,0.298261 -0.2507818,0.346879 0,0.01539 0.0488,0.0404 0.1084501,0.05564 0.1542968,0.03938 0.4530243,0.298396 0.4849361,0.420441 0.026241,0.100345 -0.1454133,0.333521 -0.2455297,0.333521 -0.023166,0 -0.1432359,-0.06697 -0.2668157,-0.148827 l -0.2246902,-0.148829 -0.1571293,0.09745 c -0.08642,0.0536 -0.2330448,0.177488 -0.32583,0.275313 -0.3822618,0.403027 -0.7424848,0.560946 -0.9061718,0.39726 z m -7.1781455,-0.291614 c -0.109805,-0.14191 -0.107403,-0.235714 0.009,-0.35213 0.106437,-0.10644 0.157317,-0.117824 0.526566,-0.117824 0.473541,0 1.043484,-0.107718 1.2666607,-0.239394 0.3003322,-0.177203 0.8552781,-0.344006 1.2726079,-0.382512 0.2546538,-0.0235 0.462017,-0.06958 0.5311919,-0.118025 0.062409,-0.04371 0.1574484,-0.0802 0.2111983,-0.08109 0.1398306,-0.0025 0.2611715,-0.121721 0.5023209,-0.494409 0.244065,-0.377194 0.3998965,-0.516303 0.5779674,-0.515943 0.1302029,1.8e-4 0.1796102,0.02771 0.6722581,0.373301 0.1852798,0.129974 0.3445781,0.204854 0.4358202,0.204854 0.3342537,0 0.4026751,0.350869 0.099039,0.507888 -0.1922465,0.09941 -0.3474798,0.08776 -0.5054564,-0.03794 -0.074965,-0.05965 -0.2568359,-0.188767 -0.4041576,-0.286931 l -0.2678514,-0.178476 -0.085883,0.106178 c -0.047239,0.0584 -0.1209434,0.171244 -0.1637977,0.250774 -0.042849,0.07954 -0.1329492,0.216999 -0.2002158,0.305486 -0.1042836,0.137174 -0.1463267,0.158075 -0.2853385,0.141845 -0.1206605,-0.01409 -0.1750823,0.0033 -0.2093853,0.06757 -0.079387,0.148332 -0.3158094,0.233013 -0.7785553,0.27885 -0.4583334,0.0454 -0.8606241,0.163478 -1.1612269,0.340841 -0.3793023,0.223794 -1.9133635,0.394317 -2.0427765,0.227069 z m -1.200023,-0.255027 c -0.129962,-0.198345 -0.03287,-0.326939 0.418144,-0.553697 0.919655,-0.462389 1.828908,-0.48806 1.828908,-0.05163 0,0.204961 -0.100714,0.262264 -0.397288,0.226041 -0.323555,-0.0395 -0.704367,0.05843 -1.208825,0.310927 -0.447064,0.223761 -0.533103,0.232938 -0.640939,0.06835 z m 12.09924131,-0.44462 c -0.08523,-0.05691 -0.163867,-0.235788 -0.163867,-0.372761 0,-0.115188 0.04913,-0.2582 0.278372,-0.810259 0.08902,-0.214383 0.285747,-0.370711 0.46652,-0.370711 0.198382,0 0.380464,0.117845 0.640968,0.41483 l 0.239685,0.273254 0.103039,-0.103039 c 0.12630499,-0.126305 0.25503399,-0.131619 0.36066899,-0.0149 0.114201,0.126187 0.09849,0.316022 -0.03974,0.48031 -0.29293199,0.348127 -0.57910499,0.296706 -0.96498999,-0.1734 -0.132551,-0.16148 -0.262767,-0.294741 -0.289362,-0.296129 -0.05889,-0.0033 -0.264945,0.570972 -0.264945,0.738122 0,0.203536 -0.210764,0.338552 -0.366338,0.234674 z m 3.52692199,-0.03884 c -0.132097,-0.132093 -0.1026,-0.246037 0.175358,-0.677412 0.368925,-0.572539 0.932213,-0.620022 1.408783,-0.118757 0.07786,0.0819 0.187404,0.148905 0.243413,0.148905 0.143539,0 0.217528,0.09091 0.217528,0.267274 0,0.179025 -0.126458,0.311131 -0.29782,0.311131 -0.128381,0 -0.418803,-0.190592 -0.614344,-0.40317 -0.114603,-0.124587 -0.262518,-0.160404 -0.37227,-0.09015 -0.03042,0.01948 -0.111717,0.141586 -0.18065,0.271355 -0.06894,0.129769 -0.149728,0.265334 -0.179541,0.301253 -0.07356,0.08863 -0.307483,0.08254 -0.400457,-0.01044 z m -16.0088063,-0.18681 c -0.09165,-0.139871 -0.07157,-0.21819 0.180568,-0.70413 0.195742,-0.377263 0.339829,-0.452119 0.791478,-0.411193 0.19539,0.01772 0.444964,0.06385 0.554606,0.102527 0.425894,0.150265 0.576334,0.09954 0.920871,-0.310488 0.172172,-0.204899 0.355114,-0.192737 0.486058,0.0323 0.122442,0.210437 0.07784,0.376649 -0.123977,0.462067 -0.08569,0.03627 -0.199135,0.114537 -0.252095,0.173932 -0.219931,0.246651 -0.633551,0.312748 -1.090072,0.17419 -0.12229,-0.03713 -0.343022,-0.08256 -0.490516,-0.100992 l -0.26817,-0.03352 -0.101103,0.234064 c -0.193777,0.448603 -0.213376,0.474277 -0.374062,0.489951 -0.11981,0.01171 -0.169987,-0.01166 -0.233586,-0.108737 z m -0.974314,-0.05891 c -0.03369,-0.01355 -0.08959,-0.08234 -0.124214,-0.152848 -0.08311,-0.169253 -0.03266,-0.943556 0.0679,-1.042076 0.09659,-0.09464 0.463507,-0.226295 0.706905,-0.253659 0.182999,-0.02059 0.209517,-0.01015 0.26079,0.102364 0.08991,0.197337 -0.0037,0.338158 -0.293746,0.442507 l -0.246689,0.08871 0.01138,0.357019 c 0.0097,0.30253 -0.0025,0.367185 -0.0797,0.423633 -0.09249,0.06763 -0.191882,0.07891 -0.302641,0.03435 z m 40.873868,-0.161447 c -0.555216,-0.08095 -1.096969,-0.501895 -1.350043,-1.049002 -0.103584,-0.223933 -0.127772,-0.347922 -0.128979,-0.661218 -0.0033,-0.831893 0.300697,-1.35839 1.411972,-2.446181 0.657244,-0.643354 0.77501,-0.709266 0.940494,-0.526411 0.159782,0.176557 0.100292,0.272662 -0.577963,0.933717 -0.790037,0.770008 -1.043562,1.098065 -1.173372,1.51835 -0.12653,0.409651 -0.12175,0.658963 0.0183,0.954331 0.424277,0.894832 1.454642,1.02894 2.77696,0.361438 0.24919,-0.12579 0.289071,-0.164448 0.289071,-0.280193 0,-0.171214 0.07964,-0.249947 0.252834,-0.249947 0.319493,0 0.500085,0.448403 0.265321,0.658792 -0.32274,0.289226 -1.192824,0.661062 -1.795474,0.76731 -0.416446,0.07343 -0.538752,0.07593 -0.929115,0.01899 z M 9.2583553,68.543213 c -0.09184,-0.10148 -0.10394,-0.254008 -0.02632,-0.331643 0.134897,-0.134898 0.286971,-1.40866 0.358458,-3.002452 0.01723,-0.384399 0.05357,-0.726021 0.08072,-0.759158 0.02714,-0.03315 0.111283,-0.06025 0.186957,-0.06025 0.1809737,0 0.2646997,0.139327 0.3041317,0.506104 0.04815,0.447858 0.262746,1.416879 0.364926,1.647874 0.09477,0.214248 0.162004,0.247601 0.294471,0.146064 0.109244,-0.08373 0.874599,-1.18207 1.08145,-1.551958 0.206054,-0.368458 0.409491,-0.555281 0.60466,-0.555281 0.186601,0 0.380763,0.266791 0.514781,0.707355 0.05504,0.180925 0.175017,0.56755 0.266615,0.859163 l 0.166548,0.530205 0.331688,-0.361422 c 0.532019,-0.579707 0.820939,-0.842184 1.056555,-0.959856 0.192451,-0.09612 0.238702,-0.102536 0.364193,-0.05056 0.179397,0.07431 0.218456,0.147244 0.308757,0.576497 0.133485,0.634592 0.0752,1.690233 -0.104271,1.888555 -0.113297,0.125192 -0.334807,0.113038 -0.424121,-0.02325 -0.13184,-0.201219 -0.143752,-0.397797 -0.03095,-0.510615 0.08868,-0.08867 0.101423,-0.158234 0.101423,-0.553304 0,-0.515219 -0.03611,-0.752964 -0.114472,-0.753512 -0.02984,-1.84e-4 -0.314513,0.269014 -0.632635,0.598274 -0.467027,0.483373 -0.617976,0.610256 -0.783877,0.658902 -0.401099,0.117611 -0.542256,-0.08328 -0.857652,-1.220646 -0.101083,-0.364517 -0.196053,-0.662611 -0.211044,-0.662431 -0.01498,1.8e-4 -0.07253,0.07067 -0.127873,0.156654 -0.421284,0.654494 -0.89331,1.335532 -1.047394,1.511171 -0.203715,0.232219 -0.429138,0.32484 -0.729762,0.299838 -0.159966,-0.0133 -0.216373,-0.04955 -0.349502,-0.224531 -0.09723,-0.127808 -0.166667,-0.183843 -0.179184,-0.144603 -0.01765,0.05527 -0.1076567,0.617087 -0.2033647,1.269079 -0.03079,0.209746 -0.0977,0.365413 -0.180972,0.421018 -0.09764,0.06519 -0.302375,0.03778 -0.382966,-0.05126 z m -13.982049,-0.34168 c -0.1702438,-0.188121 -0.088724,-0.286693 0.5748112,-0.695062 1.1297688,-0.695317 1.1857745,-0.710569 1.7057709,-0.464569 0.1754145,0.08299 0.3462112,0.133539 0.396851,0.117469 0.057542,-0.01825 0.1316799,0.01457 0.2102042,0.09309 0.1729495,0.17295 0.155966,0.295956 -0.056281,0.407673 -0.1741697,0.09168 -0.3876654,0.06341 -0.6736213,-0.08918 -0.1490408,-0.07953 -0.3034522,-0.144603 -0.3431418,-0.144603 -0.062939,0 -0.3187934,0.143069 -1.0133117,0.566625 -0.5365624,0.32723 -0.6638951,0.360369 -0.8012815,0.208562 z m 22.3018707,-0.05693 c -0.440855,-0.218219 -0.88742,-1.088577 -1.025326,-1.998367 -0.04265,-0.281347 -0.043,-0.490893 -0.0016,-0.859442 0.06911,-0.613047 0.07444,-0.629748 0.222457,-0.697187 0.243798,-0.111082 0.426809,0.09689 0.357062,0.405763 -0.140309,0.621409 -0.09273,1.22925 0.14622,1.867902 0.118046,0.315498 0.36322,0.694251 0.511327,0.789918 0.09141,0.05904 0.118029,0.05311 0.246389,-0.0549 0.169877,-0.142941 0.449079,-0.665504 0.555425,-1.03955 0.04145,-0.145807 0.145074,-0.557922 0.230266,-0.915811 0.203417,-0.854558 0.234978,-0.913622 0.488932,-0.915071 0.08818,-4.1e-4 0.160952,0.04376 0.228951,0.139253 0.130375,0.183093 0.126036,0.322036 -0.01412,0.452766 -0.07308,0.06816 -0.143098,0.226902 -0.19564,0.443553 -0.045,0.185573 -0.126486,0.521772 -0.181075,0.74711 -0.188366,0.777589 -0.586257,1.448411 -0.969001,1.633694 -0.2619,0.126785 -0.34491,0.126834 -0.600407,3.65e-4 z m -15.5705027,0.0047 c -0.226348,-0.09468 -0.199103,-0.375782 0.04698,-0.484674 0.183908,-0.08138 0.472779,-0.440908 0.656167,-0.81667 0.144157,-0.295363 0.260667,-0.349882 0.439037,-0.205447 0.22776,0.184428 0.01265,0.691963 -0.550656,1.299198 -0.204347,0.220287 -0.398385,0.288384 -0.591525,0.207593 z M 21.469735,68.018367 c -0.394992,-0.04492 -1.213474,-0.319963 -1.433969,-0.481874 -0.190274,-0.139719 -0.211486,-0.344488 -0.05116,-0.493851 0.148434,-0.138284 0.301486,-0.123249 0.433273,0.04256 0.135937,0.17103 0.7803,0.374517 1.337558,0.422393 l 0.358,0.03074 -0.2053,-0.28495 c -0.112916,-0.156719 -0.314135,-0.415087 -0.447159,-0.574152 -0.546959,-0.654018 -0.619211,-1.326771 -0.207072,-1.928022 0.216922,-0.316456 0.446385,-0.466066 0.785563,-0.512182 0.321263,-0.04368 0.49068,0.0325 0.49068,0.220647 0,0.161373 -0.122794,0.267434 -0.309616,0.267434 -0.477712,0 -0.843183,0.678835 -0.634444,1.178418 0.0375,0.08971 0.281499,0.437371 0.542256,0.772576 0.626445,0.805305 0.705587,1.049841 0.41399,1.27921 -0.100915,0.07938 -0.188083,0.09433 -0.512739,0.08792 -0.215136,-0.0042 -0.467073,-0.01633 -0.559858,-0.02689 z M -9.779667,67.693236 c -0.1181885,-0.118189 -0.099265,-0.259652 0.050699,-0.379 0.072435,-0.05764 0.3175533,-0.291924 0.5447162,-0.520623 0.5043961,-0.507806 0.5829981,-0.533963 1.0180525,-0.338769 0.4514482,0.202554 0.5706516,0.218882 0.9075872,0.124341 0.4184269,-0.117403 0.6364374,0.0065 0.527905,0.299801 -0.043049,0.116375 -0.4178333,0.253831 -0.7994816,0.293222 -0.2424803,0.02501 -0.248436,0.02922 -0.1979807,0.139966 0.081331,0.178504 -0.019852,0.355163 -0.2034296,0.355163 -0.084139,0 -0.1781079,-0.03877 -0.2225414,-0.0918 -0.2748473,-0.328035 -0.4500934,-0.484812 -0.5143683,-0.460146 -0.039297,0.0151 -0.109465,0.111709 -0.1559215,0.214736 -0.1302436,0.288829 -0.2509947,0.37421 -0.5816832,0.411288 -0.2396279,0.02686 -0.307222,0.01813 -0.3735551,-0.04818 z m 32.893245,-0.02088 c -0.05579,-0.05578 -0.101427,-0.132991 -0.101427,-0.171571 0,-0.03856 0.117854,-0.190855 0.261892,-0.338389 0.221305,-0.226671 0.270831,-0.311044 0.319567,-0.544413 0.103731,-0.49668 0.08074,-0.856342 -0.08901,-1.392311 -0.08527,-0.269251 -0.155041,-0.543145 -0.155041,-0.60866 0,-0.154693 0.10468,-0.238194 0.274237,-0.218751 0.17936,0.02055 0.303018,0.278409 0.473418,0.987123 0.122777,0.510659 0.126432,0.5605 0.07245,0.988113 -0.06535,0.517667 -0.19751,0.840362 -0.465968,1.137763 -0.228936,0.253619 -0.439979,0.311233 -0.590116,0.161096 z M -4.9345521,67.416694 c -0.1133424,-0.113338 -0.067284,-0.349306 0.09881,-0.506242 0.086158,-0.08141 0.1846202,-0.183008 0.2188047,-0.225772 0.1325025,-0.16577 0.4443992,-0.0314 0.443638,0.191141 -8.457e-4,0.207982 -0.3841039,0.598712 -0.5874598,0.598712 -0.063777,0 -0.1419834,-0.02603 -0.1737929,-0.05784 z m -9.1077399,-0.672635 c -0.101352,-0.101353 -0.06721,-0.329453 0.09179,-0.613273 0.235817,-0.420944 0.362335,-0.536075 0.589109,-0.536075 0.230781,0 0.521363,0.132893 0.786136,0.359531 l 0.194244,0.166266 0.05906,-0.106248 c 0.09435,-0.169745 0.569506,-0.536251 0.753795,-0.581426 0.144222,-0.03537 0.220949,-0.01592 0.527201,0.133395 0.456037,0.222374 0.550688,0.368902 0.360902,0.558688 -0.128463,0.128463 -0.286861,0.121574 -0.497913,-0.02165 -0.09567,-0.06492 -0.205901,-0.124574 -0.244944,-0.132548 -0.05918,-0.01212 -0.568118,0.443639 -0.789416,0.706877 -0.100963,0.1201 -0.227302,0.08644 -0.49133,-0.13092 -0.387391,-0.318916 -0.544188,-0.425356 -0.600038,-0.407337 -0.02832,0.0091 -0.127575,0.15604 -0.220569,0.326452 -0.143645,0.263242 -0.190797,0.311974 -0.313538,0.324058 -0.07946,0.0078 -0.171476,-0.01277 -0.204482,-0.04579 z m 12.3792389,-0.07133 c -0.054943,-0.06985 -0.0999,-0.159532 -0.0999,-0.199296 0,-0.08994 0.84443041,-0.959062 1.02186741,-1.051736 0.269726,-0.140879 0.518346,-0.05935 0.783066,0.256799 0.07188,0.08584 0.22659,0.198492 0.343796,0.250339 0.193802,0.08573 0.213098,0.109634 0.213098,0.263984 0,0.231399 -0.130927,0.302984 -0.404611,0.221232 -0.32301,-0.09649 -0.405045,-0.149373 -0.545027,-0.351365 l -0.133122,-0.192095 -0.442479,0.464567 c -0.27362771,0.287287 -0.47955851,0.464572 -0.53963691,0.464572 -0.053436,0 -0.1421064,-0.05715 -0.1970515,-0.127001 z m -3.4126313,-0.416676 c -0.2528286,-0.114223 -0.1494499,-0.408325 0.2069003,-0.588606 0.1337643,-0.06767 0.3104927,-0.10055 0.5994003,-0.111524 0.4749609,-0.01805 0.7441424,0.0565 0.8848818,0.244993 0.089866,0.120375 0.090288,0.131091 0.00995,0.253721 -0.073965,0.112879 -0.1047911,0.124193 -0.2604058,0.09557 -0.4504578,-0.08285 -0.8116873,-0.08131 -1.000733,0.0042 -0.1033948,0.0468 -0.2205231,0.09972 -0.2602904,0.117596 -0.03975,0.01789 -0.1206281,0.01069 -0.1796924,-0.01601 z m 5.60972871,-0.460286 c -0.169435,-0.18722 -0.05356,-0.403311 0.317877,-0.592806 0.17634299,-0.08996 0.24600799,-0.09824 0.56451999,-0.0671 0.199843,0.01952 0.56766,0.03311 0.817369,0.03021 0.360333,-0.0042 0.47223,0.01113 0.542256,0.07453 0.116813,0.105712 0.111537,0.234416 -0.01478,0.360743 -0.09886,0.09886 -0.134067,0.102031 -0.870092,0.07855 -0.747364,-0.02383 -0.771396,-0.02153 -0.93542699,0.08978 -0.202087,0.137142 -0.314909,0.144124 -0.421714,0.02612 z m -7.16956651,-0.07683 c -0.011218,-0.01122 -0.2558041,-0.04219 -0.5435492,-0.06884 -0.370731,-0.03435 -0.5567474,-0.0332 -0.6383695,0.0041 -0.1946207,0.08867 -0.356191,-0.01809 -0.356191,-0.235317 0,-0.09789 0.031031,-0.212235 0.068967,-0.254086 0.062624,-0.0691 0.010564,-0.07335 -0.5663583,-0.04622 -0.3519415,0.01654 -0.6729462,0.01044 -0.7196717,-0.01375 -0.1063019,-0.05498 -0.1115002,-0.295409 -0.0086,-0.398301 0.091393,-0.09139 0.028617,-0.08213 0.6713623,-0.09912 0.4667986,-0.01232 0.6039843,-0.03774 1.1471005,-0.212226 0.3392891,-0.109011 0.6607635,-0.198203 0.7143873,-0.198203 0.085163,0 0.077247,-0.02001 -0.062578,-0.158308 -0.293104,-0.289853 -0.6654305,-0.749222 -0.7168315,-0.884415 l -0.050761,-0.133509 -0.1135838,0.142261 c -0.06247,0.07824 -0.2256891,0.35387 -0.3627072,0.612504 -0.1370227,0.258632 -0.2894196,0.491804 -0.3386586,0.518158 -0.34204,0.183052 -0.5748112,-0.179664 -0.3141194,-0.48948 0.06553,-0.07788 0.2117226,-0.319604 0.3248728,-0.537164 0.2318293,-0.445759 0.5911265,-0.853469 0.7521325,-0.853469 0.092981,0 0.1052616,-0.02591 0.1052616,-0.222059 0,-0.182688 -0.013509,-0.216872 -0.076241,-0.192803 -0.041934,0.01609 -0.095499,0.02927 -0.1190358,0.02927 -0.023535,0 -0.039827,0.07897 -0.036183,0.1755 0.011464,0.305356 -0.2984538,0.415795 -0.5140446,0.183167 -0.1428057,-0.154124 -0.4334779,-0.710356 -0.7163883,-1.370915 -0.1192165,-0.278359 -0.3506736,-0.777233 -0.5143436,-1.108614 l -0.2975858,-0.602507 0.027056,0.409704 c 0.035614,0.538908 0.077549,2.172815 0.096236,3.747373 0.016169,1.364164 0.00123,1.458292 -0.2310805,1.458292 -0.0609,0 -0.170244,-0.05515 -0.242979,-0.122564 -0.107935,-0.100027 -0.125598,-0.146552 -0.09606,-0.25305 0.04152,-0.149745 0.03406,-3.715313 -0.0086,-4.090682 -0.0228,-0.200911 -0.04813,-0.25406 -0.13168,-0.276398 -0.128742,-0.03442 -0.241334,0.100342 -0.197118,0.235939 0.06904,0.211723 0.07777,0.414064 0.02084,0.482669 -0.08731,0.105205 -0.324328,0.09039 -0.396241,-0.02476 -0.03471,-0.05561 -0.112404,-0.0964 -0.183572,-0.0964 -0.165795,0 -0.239047,-0.08373 -0.239047,-0.27325 0,-0.107067 -0.07489,-0.272289 -0.233634,-0.515465 l -0.233635,-0.357894 -0.03156,0.799776 c -0.01735,0.439872 -0.01474,0.816591 0.0058,0.837148 0.02055,0.02055 0.253762,0.0615 0.518232,0.09099 0.745404,0.0831 0.776357,0.08973 0.909769,0.194669 0.151677,0.11931 0.159901,0.249931 0.02427,0.385561 -0.07501,0.07501 -0.134128,0.09281 -0.228956,0.06893 -0.07031,-0.01772 -0.279665,-0.05015 -0.465239,-0.07211 -0.18557,-0.02194 -0.440433,-0.05544 -0.566354,-0.0744 l -0.228956,-0.03447 v 0.344574 c 0,0.325732 0.0052,0.341844 0.09323,0.294675 0.145041,-0.07763 0.331442,-0.05902 0.433748,0.04328 0.07519,0.07519 0.103252,0.08103 0.145374,0.03029 0.0563,-0.06784 0.459406,-0.130047 0.569334,-0.08786 0.120931,0.0464 0.162749,0.245595 0.08366,0.398524 -0.08267,0.159872 -0.0947,0.365655 -0.02394,0.409389 0.06753,0.04174 0.06029,0.378336 -0.0097,0.448268 -0.08216,0.08216 -0.280872,0.0716 -0.382446,-0.02034 -0.07318,-0.06623 -0.157104,-0.07287 -0.549387,-0.04346 -0.275751,0.02067 -0.471297,0.05716 -0.483491,0.09022 -0.01126,0.03054 -0.05184,0.237089 -0.09019,0.459033 -0.07558,0.437519 -0.197077,0.632782 -0.393731,0.632782 -0.202005,0 -0.347223,-0.279063 -0.214454,-0.412115 0.02513,-0.02517 0.06567,-0.173302 0.09008,-0.32915 l 0.04439,-0.283361 -0.270827,0.02873 c -0.148958,0.0158 -0.44435,0.0739 -0.656433,0.129081 -0.212083,0.05519 -0.443503,0.102524 -0.514266,0.105193 -0.120935,0.0045 -0.130665,0.02247 -0.162171,0.298875 -0.0341,0.299083 -0.09101,0.458591 -0.186341,0.522248 -0.111188,0.07424 -0.282636,0.0316 -0.418246,-0.10401 -0.176458,-0.176454 -0.183024,-0.350582 -0.01777,-0.470969 l 0.123142,-0.0897 0.02866,-1.035158 c 0.02563,-0.925022 0.02022,-1.042183 -0.05084,-1.101136 -0.09927,-0.08238 -0.103477,-0.311671 -0.0072,-0.391579 0.05641,-0.04682 0.0723,-0.178909 0.0723,-0.600938 0,-0.479722 -0.01093,-0.550808 -0.0964,-0.628177 -0.126977,-0.114914 -0.121606,-0.21221 0.02251,-0.407534 0.0654,-0.08864 0.107259,-0.179995 0.09303,-0.203013 -0.0533,-0.08624 0.09051,-0.787388 0.182344,-0.889019 0.09116,-0.100886 0.250131,-0.144596 1.19634,-0.328921 0.225337,-0.04389 0.539849,-0.109465 0.69891,-0.145704 0.944731,-0.215239 1.093212,-0.237495 1.60245,-0.24018 0.462734,-0.0025 0.542064,-0.01409 0.542257,-0.07973 3.43e-4,-0.111194 0.157239,-0.236427 0.296251,-0.236427 0.06788,0 0.175071,0.05775 0.2474823,0.133334 0.1247055,0.130166 1.1146927,2.111386 1.4386975,2.879204 0.1320651,0.312969 0.1655246,0.3613 0.1776289,0.256582 0.019237,-0.1664 0.1262439,-0.252774 0.3158132,-0.254891 0.1444807,-0.0016 0.1519718,-0.01142 0.1666425,-0.217646 0.00843,-0.118778 0.033154,-0.238072 0.054928,-0.265104 0.021774,-0.02702 0.055197,-0.293456 0.074296,-0.592057 l 0.034755,-0.542931 -0.2824653,-0.324385 C -8.167049,58.824576 -8.4242985,58.546764 -8.58336,58.385628 -9.3308223,57.62842 -9.3782437,57.550653 -9.1941233,57.384023 c 0.1929753,-0.174636 0.4071376,-0.0836 0.6662985,0.283231 0.075495,0.106866 0.3011841,0.349662 0.5015229,0.53955 l 0.3642588,0.345258 0.082499,-0.780558 c 0.080427,-0.760979 0.099445,-1.093858 0.062486,-1.093858 -0.010026,0 -0.098835,0.03369 -0.1973672,0.07485 -0.1623645,0.06784 -0.1900198,0.06774 -0.2950892,-0.0012 -0.077631,-0.05087 -0.1159412,-0.121422 -0.1159412,-0.213552 0,-0.148063 0.05908,-0.214511 0.2992027,-0.336522 0.089109,-0.04528 0.1988734,-0.164866 0.2617766,-0.2852 l 0.108324,-0.207228 -0.1056998,0.03283 c -0.095343,0.02963 -0.6374362,0.30479 -1.1512186,0.584344 -0.1074798,0.05848 -0.2351862,0.142324 -0.2837946,0.186311 -0.07737,0.07002 -0.079633,0.08872 -0.018176,0.150162 0.074741,0.07475 0.089584,0.19767 0.039581,0.327942 -0.016823,0.04385 -0.1469657,0.13119 -0.2892028,0.194093 -0.1972971,0.08725 -0.2586119,0.138995 -0.2586119,0.218243 0,0.05713 -0.07375,0.177621 -0.1638792,0.267758 -0.2003227,0.200318 -0.4684767,0.22496 -0.6755577,0.06207 l -0.129434,-0.101841 -0.211452,0.112176 c -0.171035,0.09073 -0.237372,0.103117 -0.347026,0.06478 -0.1092,-0.03819 -0.138365,-0.08045 -0.149937,-0.217339 -0.01253,-0.14798 0.01048,-0.189917 0.177924,-0.324475 0.10576,-0.085 0.223925,-0.154534 0.262583,-0.154534 0.03864,0 0.186339,-0.08902 0.328179,-0.197825 1.4143294,-1.084914 1.7531849,-1.286477 3.029428,-1.802012 0.3048677,-0.123149 0.6000631,-0.253479 0.6559911,-0.289628 0.150035,-0.09697 0.9892224,-0.404075 1.257,-0.460011 1.2759648,-0.266529 2.5082203,-0.126732 3.1721684,0.359883 0.079535,0.05829 0.22052,0.135119 0.3133045,0.170736 0.1446114,0.05551 0.5081666,0.267916 0.7767877,0.453838 0.042834,0.02963 0.34532661,0.255534 0.67220861,0.501977 0.326878,0.246444 0.668022,0.48305 0.758093,0.525789 0.234642,0.111345 0.295609,0.269677 0.168423,0.437392 -0.137239,0.180973 -0.323231,0.16349 -0.620203,-0.0583 -0.130342,-0.09733 -0.334594,-0.250528 -0.453892,-0.34042 -0.71070751,-0.535546 -0.86901551,-0.649994 -1.10861421,-0.801462 -0.145807,-0.09218 -0.3400956,-0.19814 -0.431759,-0.235477 -0.09166,-0.03733 -0.2670364,-0.135433 -0.3897282,-0.217997 -0.122691,-0.08257 -0.3838948,-0.202791 -0.5804555,-0.267164 -0.3116998,-0.102085 -0.4436257,-0.116715 -1.0321865,-0.114472 -0.3861346,0.0016 -0.7846832,0.02968 -0.9316489,0.06597 -0.2410726,0.0595 -0.2499507,0.06683 -0.1446029,0.119351 0.085208,0.04248 0.1122406,0.09624 0.1122406,0.223237 0,0.142991 -0.024481,0.179517 -0.1687008,0.251556 -0.092789,0.04635 -0.2701849,0.08431 -0.3942145,0.08435 -0.2343919,7.7e-5 -0.3458798,-0.06695 -0.4011898,-0.241212 -0.040235,-0.126842 -0.086673,-0.121787 -0.379646,0.04135 -0.1357779,0.0756 -0.3878576,0.189479 -0.5601728,0.253053 -0.2929111,0.108066 -0.3030055,0.11658 -0.1550787,0.130809 0.088577,0.0085 0.1826064,0.05427 0.2136179,0.103927 0.042272,0.06768 0.081107,0.07893 0.1638753,0.04746 0.06234,-0.0237 0.1763348,-0.02177 0.2680352,0.0045 0.146818,0.0421 0.1719023,0.0323 0.3141025,-0.122932 0.1722091,-0.187977 0.2979057,-0.212251 0.417093,-0.08055 0.1708005,0.188734 0.023212,0.532653 -0.2954453,0.688451 l -0.1368543,0.06692 0.3403862,0.632314 c 0.1872112,0.347776 0.4373265,0.80978 0.5558095,1.026681 l 0.2154232,0.394366 0.097881,-0.173347 c 0.053836,-0.09534 0.2331471,-0.404947 0.3984794,-0.688013 0.3635061,-0.622377 0.6106773,-1.25854 0.594222,-1.529403 -0.00646,-0.106044 -0.015185,-0.2633 -0.019483,-0.349458 -0.00677,-0.13753 -0.024188,-0.15665 -0.1424908,-0.15665 -0.2751457,0 -0.4959602,-0.43453 -0.3135213,-0.616969 0.075041,-0.07504 0.2919369,-0.07439 0.3674311,0.0012 0.032423,0.03242 0.1354504,0.05235 0.2289522,0.0443 0.093505,-0.0081 0.2014606,0.01146 0.2398969,0.04336 0.090792,0.07535 0.089916,0.306979 -0.00161,0.382802 -0.062194,0.05161 -0.059287,0.06936 0.022674,0.138455 0.051714,0.04359 0.1208534,0.182274 0.1536379,0.3082 0.05808,0.223098 0.035329,0.41656 -0.08599,0.731379 -0.036721,0.09528 -0.036759,0.09528 0.2039494,-0.0037 0.02984,-0.01228 0.1150977,0.03 0.1894709,0.09399 l 0.1352297,0.116314 -0.1000633,0.693896 c -0.055035,0.381643 -0.094038,0.700392 -0.086674,0.708329 0.030824,0.03324 0.7079527,-0.921234 0.8298133,-1.1697 0.08985,-0.183208 0.1687784,-0.27939 0.2449569,-0.29851 0.111594,-0.028 0.1117331,-0.02894 0.019199,-0.130723 -0.1658119,-0.182302 -0.2010683,-0.289957 -0.1371863,-0.418801 0.090362,-0.182259 0.3126617,-0.181878 0.4877072,8.46e-4 0.080632,0.08416 0.190282,0.146826 0.2569142,0.146826 0.067007,0 0.1734578,0.06125 0.2513224,0.144603 0.074295,0.07953 0.1582626,0.144599 0.1865969,0.144599 0.028325,0 0.099629,0.06508 0.1584273,0.144604 0.07952,0.107558 0.14589201,0.144603 0.25907801,0.144603 0.240393,0 0.408644,0.269386 0.260672,0.417363 -0.07686,0.07686 0.3459,0.03086 1.183753,-0.128799 0.39765299,-0.07578 0.80790099,-0.15166 0.91165999,-0.168635 0.182983,-0.02992 0.185206,-0.03258 0.07397,-0.08804 -0.07073,-0.03528 -0.129961,-0.121787 -0.15455,-0.225759 -0.02669,-0.112917 -0.09575,-0.206872 -0.209095,-0.284541 -0.09308,-0.06378 -0.191321,-0.157243 -0.21833,-0.20771 -0.0704,-0.13155 -0.51510399,-0.616695 -0.70343699,-0.767418 -0.138176,-0.110579 -0.178378,-0.121066 -0.295146,-0.07699 -0.237773,0.08975 -0.466897,-0.0334 -0.718534,-0.386158 -0.187551,-0.262928 -0.100763,-0.493344 0.185819,-0.493344 0.111852,0 0.164162,0.03623 0.241462,0.167243 0.09425,0.159741 0.10811,0.165955 0.308952,0.138422 0.28908,-0.03963 0.550795,0.120858 0.97148199,0.595684 0.180818,0.204089 0.453544,0.491469 0.606064,0.638619 0.371914,0.358831 0.461981,0.643052 0.264949,0.8361 l -0.10845,0.106261 0.605557,-0.01572 c 0.918881,-0.02383 1.51287,0.158394 1.664362,0.510581 0.13062,0.303669 0.05494,1.754295 -0.224388,4.301079 -0.02473,0.225341 -0.04499,0.779525 -0.04507,1.231526 -9.4e-5,0.574766 -0.01752,0.839208 -0.05797,0.879663 -0.09072,0.09072 -0.350493,0.06947 -0.446405,-0.03651 -0.07447,-0.08229 -0.07953,-0.135082 -0.03954,-0.413245 0.04469,-0.310811 0.04331,-0.318077 -0.05464,-0.2865 -0.05527,0.01781 -0.310398,0.08897 -0.566948,0.158111 l -0.466459,0.125716 0.157297,0.09848 c 0.195849,0.122622 0.490999,0.450589 0.553538,0.615078 0.06456,0.169823 0.01437,0.325813 -0.121496,0.377464 -0.162246,0.06169 -0.228251,0.02223 -0.455451,-0.272268 -0.313354,-0.406163 -0.457331,-0.404763 -0.920998,0.009 -0.31019,0.276775 -0.45374499,0.3191 -0.58613399,0.172815 -0.146977,-0.16241 -0.09863,-0.302368 0.19737999,-0.571373 0.32818,-0.298236 0.354259,-0.291724 -0.63865599,-0.159397 -1.184002,0.157796 -1.213483,0.1602 -1.249586,0.101778 -0.01838,-0.02972 -0.07651,-0.05407 -0.129167,-0.05407 -0.05266,0 -0.14886901,-0.05312 -0.21379901,-0.11805 -0.093087,-0.09309 -0.1092397,-0.1415 -0.076379,-0.228951 0.024642,-0.06561 0.01703,-0.376646 -0.018668,-0.761613 -0.0332,-0.35789 -0.076072,-0.866183 -0.09529,-1.129545 -0.023089,-0.316525 -0.049323,-0.453142 -0.077366,-0.403035 -0.079272,0.141656 -0.2749658,0.146265 -0.565355,0.0133 -0.1503372,-0.06886 -0.3190748,-0.168145 -0.3749868,-0.220672 l -0.1016556,-0.0955 -0.029594,0.249831 c -0.034261,0.289281 -0.00769,0.362593 0.094533,0.260414 0.099982,-0.09999 0.2919208,-0.09114 0.3851558,0.01777 0.045794,0.05348 0.1151761,0.08055 0.1698148,0.06626 0.1260479,-0.03295 0.2820224,0.119404 0.2820224,0.275497 0,0.120939 -0.1285613,0.308941 -0.2367047,0.346154 -0.052967,0.01821 0.035983,0.708259 0.1699048,1.318258 0.1582388,0.72067 0.13787,0.908267 -0.1052331,0.969283 -0.1554709,0.03901 -0.3099722,-0.09452 -0.3099722,-0.267925 0,-0.07004 -0.041273,-0.321532 -0.091725,-0.558888 -0.050453,-0.237351 -0.1076559,-0.561688 -0.1271243,-0.720748 l -0.035406,-0.289207 -0.062247,0.147911 c -0.034222,0.08135 -0.1307064,0.439041 -0.2143837,0.794872 -0.083673,0.355834 -0.1697079,0.678361 -0.1911816,0.716737 -0.026441,0.04723 -0.00161,0.09912 0.07641,0.160587 0.1534618,0.120715 0.1496383,0.300198 -0.0086,0.403888 -0.1182708,0.0775 -0.1345746,0.07614 -0.3494535,-0.02903 -0.6562572,-0.321147 -1.0364145,-0.356379 -2.1293185,-0.197338 -0.3578894,0.05208 -0.8784548,0.127587 -1.1568143,0.167796 -0.2783588,0.0402 -0.7327955,0.146204 -1.009861,0.235551 l -0.503758,0.162451 0.6868765,0.06282 c 0.7458985,0.06822 0.923146,0.13791 0.923146,0.36294 0,0.149258 -0.2546293,0.33105 -0.3417126,0.243967 z m 0.5586135,-1.643792 c 0.4132532,-0.04346 1.381906,-0.207781 1.4139939,-0.239869 0.014901,-0.0149 -0.044379,-0.172021 -0.1317337,-0.349158 l -0.1588193,-0.322073 -0.1601832,0.345827 c -0.1239928,0.267696 -0.1882876,0.352883 -0.2845689,0.377046 -0.3121127,0.07834 -0.5451376,-0.158148 -0.3896544,-0.395442 0.041081,-0.0627 0.09642,-0.113997 0.122974,-0.113997 0.06746,0 0.1536502,-0.236611 0.1492369,-0.409704 -0.00208,-0.07953 0.01527,-0.209672 0.038436,-0.289207 0.023166,-0.07953 0.053882,-0.212438 0.068283,-0.295359 0.026034,-0.14981 0.024604,-0.150964 -0.2242567,-0.183977 -0.282137,-0.03741 -0.4195979,-0.134366 -0.4195979,-0.295899 0,-0.200196 0.1296016,-0.274057 0.4177026,-0.23806 0.1414068,0.01768 0.2571065,0.02304 0.2571065,0.01191 0,-0.01113 -0.043379,-0.07021 -0.096404,-0.131344 -0.1324341,-0.152705 -0.1207758,-0.293652 0.036144,-0.437122 0.072904,-0.06665 0.154845,-0.16087 0.1820906,-0.209381 0.028571,-0.05084 0.1306526,-0.101615 0.2410026,-0.119863 0.174874,-0.0289 0.1909779,-0.04407 0.1858611,-0.174907 -0.00554,-0.140972 -0.2732304,-0.8261 -0.3549547,-0.908398 -0.023743,-0.0239 -0.1079596,0.174313 -0.1945631,0.457908 -0.083992,0.275027 -0.1811864,0.575965 -0.2159884,0.66875 -0.034791,0.09279 -0.087885,0.234924 -0.1179556,0.315868 -0.0789,0.212344 -0.2765903,0.407145 -0.4131909,0.407145 -0.1752507,0 -0.2976104,-0.208653 -0.2289806,-0.390473 0.080955,-0.214469 -0.052606,-0.181587 -0.166581,0.04102 -0.06041,0.117984 -0.1786645,0.230969 -0.3405216,0.325355 l -0.2479693,0.144599 -0.00161,0.652037 c -0.00123,0.528187 0.013509,0.674669 0.078081,0.771208 0.1453572,0.217376 0.3228261,0.38428 0.4085993,0.38428 0.1082248,0 0.2347148,0.179442 0.2347148,0.332973 0,0.06529 -0.0488,0.170686 -0.1084501,0.234199 l -0.1084508,0.115483 0.120502,-0.0255 c 0.066276,-0.014 0.2506427,-0.03917 0.4097034,-0.0559 z m 2.8790328,-0.540971 0.074518,-0.301204 -0.1271612,-0.06075 c -0.163891,-0.0783 -0.1879357,-0.251656 -0.059064,-0.425957 0.1535395,-0.207674 0.1317829,-0.389642 -0.057081,-0.477396 -0.283574,-0.131758 -0.215497,-0.482006 0.093689,-0.482006 0.1287989,0 0.1308418,-0.0074 0.2063852,-0.74711 0.1197809,-1.172872 0.2812612,-1.983332 0.5354122,-2.687183 0.074188,-0.205456 0.1186014,-0.373555 0.098699,-0.373555 -0.048231,0 -0.4535356,0.510078 -0.7851453,0.988113 -0.1730894,0.249521 -0.2772538,0.453647 -0.2951546,0.578409 -0.015223,0.106039 -0.059456,0.37717 -0.098315,0.602507 -0.1722383,0.998825 -0.1945715,1.283112 -0.1102477,1.403499 0.111328,0.158942 0.1020278,0.196981 -0.115356,0.471996 -0.2136748,0.270316 -0.3063132,0.296591 -0.5022633,0.142463 -0.1195195,-0.09402 -0.1470472,-0.0975 -0.3198007,-0.04048 -0.1448413,0.0478 -0.1890295,0.08755 -0.1890295,0.170016 0,0.0592 0.029801,0.119055 0.066184,0.133023 0.090284,0.03463 0.6568261,1.16787 0.6568261,1.313816 0,0.09921 0.023942,0.117713 0.1566542,0.121001 0.086158,0.0021 0.2542571,0.02959 0.3735551,0.06103 0.2635942,0.06944 0.289219,0.04424 0.3966995,-0.390216 z M -13.720899,63.426043 c 0.05369,-0.02922 0.04772,-0.04355 -0.0282,-0.06764 -0.117259,-0.03721 -0.42796,-0.314888 -0.464048,-0.414718 -0.01437,-0.03975 -0.02783,0.03979 -0.02992,0.17681 -0.0021,0.137011 -0.01793,0.285908 -0.03516,0.330878 -0.02808,0.07314 -0.0041,0.07807 0.228952,0.04676 0.143183,-0.01924 0.290976,-0.05169 0.328434,-0.07208 z m 13.66906731,-0.189107 c 0.18557,-0.02612 0.458894,-0.06054 0.607382,-0.07653 0.253512,-0.0273 0.268621,-0.03615 0.247753,-0.145324 -0.01224,-0.06394 -1.43e-4,-0.179553 0.02681,-0.256914 0.04888,-0.140223 0.04834,-0.140751 -0.175455,-0.170449 -0.572081,-0.07592 -1.083841,-0.48153 -0.973549,-0.771621 0.02628,-0.0691 0.06822,-0.125635 0.09322,-0.125635 0.02501,0 0.0774,-0.01228 0.116441,-0.02726 0.03991,-0.01531 0.141902,0.03484 0.232894,0.1145 0.203683,0.178317 0.643236,0.342401 0.717715,0.267922 0.04608,-0.04608 0.148807,-1.121165 0.111746,-1.169423 -0.008,-0.0104 -0.382106,0.0316 -0.831349,0.09337 -0.901177,0.123895 -0.968918,0.113305 -0.968918,-0.151529 0,-0.177821 0.13933,-0.268449 0.482006,-0.313526 l 0.265104,-0.03488 -0.21239,-0.05236 c -0.134509,-0.03315 -0.247667,-0.09995 -0.308605,-0.182155 -0.09251,-0.124796 -0.09297,-0.134755 -0.01171,-0.258748 0.07631,-0.11647 0.103861,-0.12586 0.284502,-0.09696 0.744569,0.119102 1.101898,0.07587 0.924457,-0.111835 -0.04028,-0.0426 -0.126457,-0.144346 -0.19151,-0.226083 -0.141901,-0.178296 -0.639793,-0.453891 -0.820004,-0.453891 -0.198776,0 -0.315442,-0.0839 -0.315442,-0.226853 0,-0.485362 0.75146200421,-0.369224 1.403359,0.216889 l 0.235465,0.211703 V 58.80572 c 0,-0.270426 -0.02124,-0.496763 -0.0482,-0.513419 -0.09718,-0.06006 -0.05249,-0.308265 0.06994,-0.388492 0.14375599,-0.09419 0.28027899,-0.0583 0.38476199,0.101168 0.05097,0.07779 0.122971,0.11875 0.209165,0.118996 0.0723,1.8e-4 0.346932,0.108655 0.610305,0.241002 0.263377,0.132348 0.530508,0.240631 0.593628,0.240631 0.22117,0 0.301225,0.08265 0.301225,0.311004 0,0.116166 0.04435,0.31468 0.09856,0.441145 0.141451,0.329997 0.172156,0.609203 0.07579,0.689185 -0.06928,0.0575 -0.06498,0.07331 0.04304,0.158283 0.153662,0.120866 0.154333,0.29847 0.0016,0.4511 -0.12825,0.128251 -0.264405,0.149045 -0.422373,0.0645 -0.08853,-0.04739 -0.09597,-0.04306 -0.06232,0.03614 0.09508,0.223758 0.08452,0.345156 -0.03696,0.424744 -0.156421,0.10249 -0.298695,0.03905 -0.491486,-0.219173 -0.142332,-0.190634 -0.145311,-0.191857 -0.433806,-0.177883 l -0.290484,0.01409 -0.03123,0.626609 c -0.01719,0.344635 -0.04515,0.85152 -0.06215,1.12642 l -0.0309,0.499811 0.230842,-0.03361 c 0.328819,-0.04787 1.201252,-0.264626 1.400928,-0.348057 l 0.168845,-0.07054 -0.129057,-0.06695 c -0.0924,-0.04793 -0.163658,-0.05381 -0.250848,-0.02067 -0.307909,0.117067 -0.800393,-0.01486 -0.954207,-0.255571 -0.03791,-0.05931 -0.102604,-0.223368 -0.143805,-0.364578 -0.07402,-0.253688 -0.07352,-0.25813 0.04142,-0.373068 0.177919,-0.17792 0.424571,-0.05124 0.480483,0.246774 0.03209,0.17099 0.141164,0.262539 0.312833,0.262539 0.08993,0 0.09964,-0.02919 0.10028,-0.301254 0.0012,-0.462509 0.118479,-0.619478 0.408783,-0.546616 0.112765,0.02829 0.240671,0.284774 0.278613,0.558667 0.02378,0.171595 0.129032,-0.734736 0.254711,-2.193127 0.09394,-1.090026 0.101157,-1.735276 0.02051,-1.832453 -0.224396,-0.270386 -1.408677,-0.282714 -2.60214299,-0.0271 -0.384398,0.08234 -0.893236,0.170253 -1.130747,0.195379 -0.313971,0.03324 -0.465264,0.07263 -0.554307,0.144398 -0.214695,0.173049 -0.33899101,0.205595 -0.46637701,0.122127 -0.1677843,-0.109937 -0.1472479,-0.289862 0.056312,-0.493422 0.093669,-0.09367 0.16416101,-0.174522 0.15665001,-0.179664 -0.0075,-0.0052 -0.08337,-0.03709 -0.16857431,-0.071 -0.095224,-0.03791 -0.2119925,-0.150588 -0.3030293,-0.292453 -0.122442,-0.190814 -0.1772975,-0.234216 -0.3165468,-0.250475 -0.1246847,-0.01457 -0.1621354,-0.0033 -0.1441816,0.04356 0.02751,0.07169 -0.02202,0.195218 -0.1876902,0.468129 l -0.1146357,0.188845 0.1525938,0.07626 c 0.2046983,0.102298 0.2239246,0.324508 0.063685,0.736021 -0.1731387,0.444666 -0.2613714,0.739321 -0.3483602,1.163363 -0.068291,0.332904 -0.069013,0.386568 -0.00615,0.457904 0.039174,0.04444 0.08583,0.149712 0.1037185,0.233938 0.041457,0.195205 0.2266425,0.380693 0.4523939,0.453126 0.097087,0.03115 0.2090578,0.08493 0.2488212,0.119527 0.063947,0.05563 0.070813,-0.02726 0.059403,-0.717052 -0.015716,-0.950994 -0.077516,-1.416524 -0.2061884,-1.553485 -0.1330438,-0.141619 -0.1215285,-0.33906 0.02538,-0.435324 0.1115402,-0.07309 0.1301168,-0.07223 0.2754486,0.01265 0.085712,0.05006 0.1925856,0.15532 0.2374989,0.233913 0.1037136,0.181489 0.18685461,0.951559 0.18685461,1.730704 0,0.543869 0.150342,2.640948 0.220589,3.076944 0.02783,0.172807 0.03708,0.180887 0.18153,0.158312 0.0837,-0.01306 0.304017,-0.04515 0.489591,-0.07125 z M -12.608826,63.124429 c -4.09e-4,-0.0877 -0.0097,-0.09461 -0.04746,-0.03614 -0.06039,0.09345 -0.06039,0.144599 0,0.144599 0.02653,0 0.04787,-0.0488 0.04746,-0.108451 z m 0.796047,-0.03614 c -0.01638,-0.02653 -0.07061,-0.0482 -0.120501,-0.0482 -0.04989,0 -0.104116,0.0217 -0.120501,0.0482 -0.01744,0.0282 0.03258,0.0482 0.120501,0.0482 0.08792,0 0.137927,-0.02001 0.120501,-0.0482 z m -1.301417,-0.289203 c 0.0539,-0.104222 0.109653,-0.144603 0.199664,-0.144603 0.106378,0 0.120382,-0.01605 0.09451,-0.108451 -0.0167,-0.05965 -0.04393,-0.201035 -0.06049,-0.314184 -0.03496,-0.238691 0.06698,-0.396773 0.255801,-0.396773 0.06216,0 0.113031,-0.02071 0.113031,-0.04602 0,-0.150432 -1.1544,-0.124411 -1.506272,0.03393 l -0.228951,0.103043 0.0037,0.472665 c 0.0021,0.259967 0.01543,0.440129 0.02963,0.400366 0.07633,-0.21356 0.345388,-0.252149 0.522583,-0.07496 0.26549,0.26549 0.464756,0.291389 0.576677,0.07496 z m 4.8249789,-1.357227 c -0.042472,-0.06063 -0.077218,-0.09428 -0.077218,-0.07476 0,0.05374 0.1141689,0.225276 0.1356434,0.203798 0.010318,-0.01032 -0.015962,-0.0684 -0.058426,-0.129032 z m -5.5531039,-0.296353 c -0.03758,-0.02137 -0.121406,-0.14067 -0.186311,-0.265105 -0.211059,-0.404653 -0.216741,-0.403544 -0.217539,0.04255 l -8.46e-4,0.413396 0.236447,-0.07599 c 0.16572,-0.05326 0.216012,-0.08761 0.16814,-0.114849 z m 1.320861,-0.302543 c -0.01277,-0.275715 -0.02505,-0.308823 -0.114378,-0.309052 -0.178882,-4.09e-4 -0.454256,-0.408017 -0.454256,-0.672311 0,-0.0832 -0.02194,-0.09252 -0.156651,-0.06658 -0.08616,0.01658 -0.27133,0.08028 -0.411488,0.141533 l -0.254834,0.111361 0.129093,0.206721 c 0.071,0.113694 0.169409,0.26429 0.218681,0.334655 0.108791,0.155357 0.116245,0.392831 0.01552,0.493577 -0.06665,0.06666 -0.0219,0.07547 0.445857,0.08779 0.285973,0.0075 0.537241,0.0064 0.558376,-0.0025 0.02112,-0.009 0.03197,-0.155262 0.02411,-0.325102 z m 5.4594877,0.193126 c 0.05226,-0.06296 0.051206,-0.08347 -0.00615,-0.119765 -0.1745218,-0.110431 -0.3182898,-3.64e-4 -0.18006,0.137899 0.076333,0.07634 0.1105753,0.073 0.1862086,-0.01813 z m 1.0091652,-0.47108 c 0,-0.104574 0.290423,-0.962312 0.4163271,-1.229583 0.070728,-0.150145 0.1104361,-0.301531 0.09482,-0.361508 -0.014778,-0.05675 -0.1818741,-0.374316 -0.3713242,-0.705693 -0.1894547,-0.331381 -0.4414321,-0.786877 -0.5599567,-1.012215 -0.1185199,-0.225337 -0.2503436,-0.448746 -0.2929395,-0.496471 -0.063608,-0.07127 -0.067676,-0.112654 -0.022759,-0.231674 0.049231,-0.130416 0.044164,-0.148823 -0.050591,-0.184044 -0.1033702,-0.03843 -0.1058998,-0.0289 -0.1384874,0.520877 -0.018261,0.308012 -0.055143,0.766071 -0.08197,1.017921 -0.02681,0.251846 -0.062893,0.636171 -0.08014,0.854054 l -0.031354,0.396147 0.3087405,0.360399 c 0.2713228,0.316718 0.7132417,1.027839 0.7132417,1.147723 0,0.02366 0.021697,0.02959 0.0482,0.01322 0.026526,-0.01638 0.0482,-0.0565 0.0482,-0.08915 z m -0.8858921,-0.308511 c -0.037944,-0.0729 -0.125246,-0.185136 -0.1940434,-0.249406 l -0.1250776,-0.11685 v 0.22225 c 0,0.214621 0.00538,0.222918 0.1566496,0.24169 0.086158,0.01069 0.1734785,0.02292 0.1940395,0.02714 0.020552,0.0042 0.00638,-0.05193 -0.031562,-0.124836 z m 8.7091365,-0.193069 c -0.0192,-0.143003 -0.0028,-0.200524 0.07835,-0.273893 0.159213,-0.144088 0.345605,-0.05636 0.436528,0.205447 0.05888,0.16954 0.08908,0.201845 0.168701,0.180445 0.05334,-0.01432 0.170842,-0.02636 0.261109,-0.02673 0.155935,-4.09e-4 0.160143,-0.005 0.08435,-0.08881 -0.04387,-0.04848 -0.07977,-0.121504 -0.07977,-0.162275 0,-0.04077 -0.04173,-0.180048 -0.09275,-0.309505 -0.05101,-0.129462 -0.105651,-0.295032 -0.121419,-0.367935 -0.01576,-0.0729 -0.05003,-0.132553 -0.07613,-0.132553 -0.02612,0 -0.252203,-0.09761 -0.502432,-0.216901 -0.250229,-0.119298 -0.467048,-0.216904 -0.481821,-0.216904 -0.03627,0 -0.03352,0.702423 0.0047,1.192967 l 0.03095,0.397653 h 0.156969 c 0.153609,0 0.156454,-0.0037 0.132691,-0.181018 z m -5.9479447,-0.582446 c 0.1856028,-0.317798 0.1919636,-0.344602 0.3166037,-1.334893 0.1756513,-1.395557 0.1750132,-1.429933 -0.018337,-0.986479 -0.075134,0.172316 -0.2461025,0.490954 -0.3799406,0.708084 -0.1338373,0.21713 -0.3322816,0.565731 -0.4409816,0.774666 l -0.197637,0.379884 0.187052,0.406249 c 0.1028751,0.223438 0.2030606,0.449631 0.2226275,0.502648 0.034261,0.09284 0.037167,0.0923 0.078392,-0.01474 0.023535,-0.06112 0.1280416,-0.257065 0.2322145,-0.435435 z m -8.3489186,0.188256 c -0.02317,-0.195746 -0.0092,-0.266083 0.0792,-0.397657 0.127436,-0.189737 0.320178,-0.233123 0.451641,-0.10166 0.06991,0.06992 0.115041,0.07867 0.218362,0.04233 0.102871,-0.03618 0.150793,-0.02718 0.228093,0.04276 0.05382,0.04871 0.09786,0.109281 0.09786,0.134611 0,0.06192 0.297005,0.517417 0.337378,0.517417 0.01756,0 0.06272,-0.05753 0.100333,-0.127861 0.03762,-0.07032 0.18302,-0.21255 0.323116,-0.316059 0.244753,-0.180826 0.25355,-0.19516 0.224744,-0.366191 -0.06146,-0.364996 -0.03544,-0.346866 -0.49476,-0.345024 -0.43476,0.0016 -0.790042,0.05659 -1.647625,0.254339 -0.278359,0.06419 -0.657939,0.144165 -0.843509,0.177731 -0.648759,0.117358 -0.698911,0.136515 -0.698911,0.267016 0,0.06525 0.0079,0.118643 0.01744,0.118643 0.0096,0 0.160944,-0.06507 0.336347,-0.144599 0.175401,-0.07953 0.388176,-0.144603 0.472828,-0.144603 0.170636,0 0.330205,0.11604 0.330205,0.240126 0,0.0611 0.03308,0.07573 0.13683,0.0605 0.155742,-0.02284 0.296976,0.08796 0.296976,0.233021 0,0.05113 0.01388,0.09296 0.03082,0.09296 0.01695,0 0.01813,-0.107013 0.0025,-0.237806 z m 13.46270731,0.141402 c 0,-0.02653 -0.02297,-0.0482 -0.05105,-0.0482 -0.02808,0 -0.03762,0.0217 -0.02124,0.0482 0.01638,0.02653 0.03934,0.04821 0.05105,0.04821 0.01171,0 0.02124,-0.0217 0.02124,-0.04821 z m -3.72962751,5.53477 c -0.043172,-0.06589 -0.062816,-0.16069 -0.046347,-0.223663 0.030209,-0.115601 0.24009,-0.250041 0.3903133,-0.250041 0.049261,0 0.2678676,-0.06508 0.4857881,-0.144603 0.6158348,-0.224752 1.02004911,-0.187244 1.02004911,0.09466 0,0.182152 -0.12522101,0.305891 -0.27967721,0.276366 -0.066638,-0.01273 -0.3254287,0.04798 -0.5828459,0.136765 -0.2546461,0.08782 -0.5640947,0.17435 -0.6876661,0.192283 -0.2017181,0.02927 -0.2323367,0.02091 -0.2996117,-0.08176 z M 23.132939,63.360589 c -0.155987,-0.238067 0.07509,-0.513308 0.430933,-0.513308 0.204182,0 0.412294,0.129352 0.412294,0.256256 0,0.121594 -0.147202,0.26397 -0.300209,0.290368 -0.08673,0.01494 -0.226263,0.04126 -0.310067,0.05843 -0.12836,0.02632 -0.165061,0.01187 -0.232951,-0.09175 z M 8.6611573,61.492961 c -0.164948,-0.06102 -0.180253,-0.249418 -0.06768,-0.833124 0.114909,-0.595819 0.214055,-1.306653 0.323488,-2.319314 0.04012,-0.371144 0.09356,-0.820849 0.118778,-0.999345 0.07606,-0.538327 0.190838,-1.685955 0.190945,-1.909189 4.5e-5,-0.136429 -0.03348,-0.251969 -0.09631,-0.331852 -0.05301,-0.06741 -0.0964,-0.153203 -0.0964,-0.190658 0,-0.109686 0.244167,-0.304564 0.380592,-0.303762 0.42085,0.0025 0.442242,0.404399 0.146191,2.746693 -0.05194,0.410911 -0.115994,0.964015 -0.142352,1.229119 -0.06123,0.615868 -0.179986,1.480111 -0.263921,1.920609 -0.03602,0.188992 -0.05586,0.35324 -0.0441,0.364996 0.01175,0.01175 0.232546,-0.007 0.490638,-0.04156 0.6766017,-0.09075 1.3686427,-0.115569 1.6354707,-0.05866 0.190336,0.0406 0.245944,0.03611 0.31387,-0.02538 0.130235,-0.117861 0.314029,-0.04408 0.399446,0.160351 0.09511,0.227618 0.09159,0.32265 -0.01555,0.419602 -0.110383,0.0999 -0.274978,0.10073 -0.650969,0.0033 -0.209255,-0.05422 -0.428652,-0.07005 -0.754065,-0.0544 -0.5709917,0.02746 -1.3125307,0.123015 -1.5682657,0.202071 -0.115425,0.03569 -0.236405,0.04395 -0.299812,0.02051 z m 3.7950647,-0.394779 c -0.143498,-0.07223 -0.183478,-0.277765 -0.0751,-0.386139 0.135889,-0.135884 0.17151,-0.323038 0.17151,-0.901095 0,-0.455574 0.01539,-0.587226 0.07574,-0.647571 0.0937,-0.09369 0.214547,-0.09672 0.335339,-0.0084 0.07696,0.05627 0.0963,0.148925 0.117661,0.563628 0.03884,0.754183 -0.09728,1.264957 -0.370276,1.389343 -0.137489,0.06265 -0.108823,0.06374 -0.254867,-0.0097 z m 3.122074,-0.471384 c -0.04579,-0.02669 -0.146466,-0.140382 -0.223713,-0.252656 -0.174018,-0.252927 -0.696614,-1.411415 -0.826743,-1.832728 -0.08169,-0.264478 -0.118287,-0.319939 -0.238837,-0.361966 -0.30583,-0.106613 -0.181542,-0.537831 0.155012,-0.537831 0.290116,0 0.409581,0.155294 0.611824,0.795309 0.05864,0.18557 0.156556,0.445853 0.217584,0.578405 0.402136,0.873416 0.509616,1.084513 0.552167,1.084513 0.09599,0 0.285547,-0.321233 0.383969,-0.650707 0.05543,-0.18557 0.166891,-0.55962 0.247678,-0.831217 0.112376,-0.377776 0.174899,-0.512166 0.266067,-0.571901 0.109949,-0.07204 0.1285,-0.07197 0.239673,8.46e-4 0.06628,0.04343 0.123215,0.100149 0.126526,0.126048 0.0033,0.02591 0.01113,0.106735 0.01735,0.179639 0.0062,0.0729 0.02746,0.200784 0.0472,0.284183 0.02808,0.118659 0.01511,0.172377 -0.05954,0.247029 -0.05247,0.05247 -0.121254,0.104017 -0.152851,0.114549 -0.0316,0.01052 -0.100833,0.181342 -0.153855,0.379581 -0.05302,0.198235 -0.164002,0.498039 -0.246631,0.666237 -0.241563,0.491707 -0.672001,0.752161 -0.962893,0.582646 z m 4.211506,-0.02267 c -0.605995,-0.131513 -1.770373,-0.81046 -1.984728,-1.157289 -0.07107,-0.115 -0.130886,-0.162951 -0.179835,-0.14417 -0.04032,0.01547 -0.124505,-0.0054 -0.187044,-0.04636 -0.154955,-0.101529 -0.154861,-0.332303 1.8e-4,-0.433884 0.08872,-0.05813 0.119785,-0.131803 0.140588,-0.33335 0.05638,-0.546316 0.556751,-1.229168 1.120632,-1.529329 0.494978,-0.263484 1.085884,-0.217454 1.248629,0.09726 0.111218,0.215067 0.09237,0.384906 -0.07514,0.677023 -0.236701,0.412786 -1.016562,1.124386 -1.409266,1.285907 -0.122733,0.05048 -0.223233,0.106474 -0.223336,0.124428 -4.09e-4,0.104647 0.884731,0.670907 1.301238,0.832293 0.339796,0.131664 0.912327,0.226009 1.152761,0.189954 0.215276,-0.0323 0.438415,-0.194371 0.437285,-0.317639 -3.64e-4,-0.03435 -0.02952,-0.171125 -0.0649,-0.303963 -0.07148,-0.268408 -0.03033,-0.435779 0.118742,-0.483095 0.234948,-0.07457 0.431186,0.24657 0.444653,0.727667 0.01048,0.375106 -0.142798,0.631598 -0.469193,0.785023 -0.263189,0.123711 -0.876396,0.136916 -1.371259,0.02952 z m -0.918988,-2.534929 c 0.410862,-0.375512 0.665447,-0.690113 0.606322,-0.749243 -0.01506,-0.01506 -0.126617,-0.01249 -0.247913,0.0057 -0.446159,0.06691 -1.007732,0.636854 -1.10924,1.125781 l -0.03303,0.159123 0.176421,-0.07371 c 0.09703,-0.04053 0.370382,-0.250983 0.607447,-0.46765 z m -33.471756,0.255462 c -0.133097,-0.147068 -0.09018,-0.373588 0.08345,-0.440502 0.07049,-0.02718 0.136522,-0.14112 0.214321,-0.369864 0.190802,-0.560979 0.210315,-0.598118 0.353039,-0.671926 0.109486,-0.05662 0.178313,-0.06098 0.327615,-0.0208 0.103956,0.028 0.275846,0.03701 0.381975,0.02006 0.10613,-0.01698 0.259059,-0.0078 0.339846,0.02034 l 0.146884,0.05121 0.07644,-0.26296 c 0.09354,-0.321773 0.252845,-0.518613 0.54551,-0.674043 0.122471,-0.06505 0.282281,-0.165787 0.355131,-0.223871 0.10809,-0.08619 0.156851,-0.09709 0.265105,-0.05925 0.102965,0.03598 0.136081,0.08194 0.147992,0.20539 0.01269,0.131664 -0.01613,0.188705 -0.167493,0.331474 -0.100567,0.09484 -0.250184,0.200577 -0.33249,0.234966 -0.185399,0.07747 -0.233991,0.137296 -0.30974,0.381402 -0.09351,0.301327 -0.283131,0.598917 -0.400337,0.628287 -0.05869,0.01469 -0.193462,-0.0033 -0.299506,-0.03995 -0.121074,-0.04188 -0.310909,-0.05872 -0.510291,-0.04525 l -0.317488,0.02145 -0.140416,0.381234 c -0.07723,0.209673 -0.190097,0.43512 -0.250818,0.500991 -0.134783,0.146208 -0.390641,0.162107 -0.508736,0.0316 z M 12.39139,57.553453 c -0.14561,-0.160899 -0.101774,-0.330559 0.121886,-0.471748 0.242758,-0.153248 0.41983,-0.119106 0.495305,0.0955 0.04336,0.123284 0.03074,0.152167 -0.130989,0.300397 -0.199177,0.182533 -0.366089,0.208575 -0.486202,0.07585 z M -3.1690749,56.293191 c -0.1121876,-0.0696 -0.2809014,-0.353936 -0.2809014,-0.47341 0,-0.248785 0.313489,-0.333595 0.4748425,-0.128467 0.074049,0.09414 0.1238943,0.115397 0.2162251,0.09222 0.085662,-0.02149 0.1487664,-0.0012 0.2205685,0.07046 0.1226625,0.122662 0.1265145,0.20282 0.016208,0.337541 -0.096923,0.118393 -0.51427,0.18397 -0.6469616,0.101652 z m -7.1440681,-1.316805 c -0.103792,-0.07589 -0.09075,-0.368586 0.01867,-0.419323 0.03975,-0.01842 0.126527,-0.06302 0.192803,-0.09909 0.06628,-0.03606 0.2831773,-0.14929 0.482006,-0.251613 0.198828,-0.102327 0.4808019,-0.27919 0.6266081,-0.39304 0.3921679,-0.306202 0.7788468,-0.509795 0.9679079,-0.509619 0.1116439,1.06e-4 0.2581014,0.06226 0.4540108,0.192647 0.3238779,0.215579 0.3502761,0.220495 0.6405961,0.119372 0.1137391,-0.03963 0.2547238,-0.06076 0.3133045,-0.04698 0.05858,0.01376 0.3776401,-0.02059 0.7090214,-0.07637 0.3313766,-0.05578 0.6884104,-0.112953 0.7934021,-0.127047 0.1049956,-0.01409 0.2753425,-0.08151 0.3785528,-0.14981 l 0.1876494,-0.124181 0.3926592,0.129208 c 0.4709573,0.154976 0.4879208,0.157554 0.7199423,0.109445 0.1994385,-0.04136 0.3392852,0.0375 0.3864575,0.217871 0.079887,0.305494 -0.5191246,0.437277 -1.0983237,0.241633 l -0.3078478,-0.103984 -0.1832777,0.09823 c -0.1007999,0.05403 -0.2488089,0.09823 -0.3289086,0.09823 -0.080099,0 -0.2211574,0.02165 -0.3134598,0.04813 -0.2369868,0.06796 -1.6632526,0.259022 -1.9523655,0.261531 -0.1996876,0.0016 -0.2900416,-0.02964 -0.52709,-0.183004 -0.2856614,-0.18482 -0.2863042,-0.184967 -0.4338057,-0.101184 -0.081241,0.04615 -0.2995503,0.197785 -0.4851207,0.336969 -0.1855743,0.139187 -0.4966721,0.336898 -0.6913336,0.439364 -0.1946615,0.102466 -0.4224096,0.224228 -0.5061068,0.270577 -0.1809452,0.100211 -0.3194902,0.107219 -0.4359632,0.02207 z m 7.7910289,-0.661971 c -0.1774812,-0.175267 -0.1962784,-0.285261 -0.068506,-0.400892 0.093915,-0.08499 0.3224448,-0.108122 0.3663547,-0.03709 0.014493,0.0235 0.1680219,0.03132 0.3411313,0.01744 0.3524866,-0.02829 0.5057801,0.05037 0.5057801,0.259538 0,0.167064 -0.1717547,0.247933 -0.6025065,0.283693 l -0.3856025,0.03201 z"
       id="path1230" />
  </g>
</svg>
