<?xml version="1.0" encoding="UTF-8" standalone="no"?>
<!-- Created with Inkscape (http://www.inkscape.org/) -->

<svg
   width="43.805309mm"
   height="13.267779mm"
   viewBox="0 0 43.805307 13.26778"
   version="1.1"
   id="svg5"
   inkscape:version="1.1.1 (3bf5ae0d25, 2021-09-20)"
   sodipodi:docname="open_marriage.svg"
   xmlns:inkscape="http://www.inkscape.org/namespaces/inkscape"
   xmlns:sodipodi="http://sodipodi.sourceforge.net/DTD/sodipodi-0.dtd"
   xmlns="http://www.w3.org/2000/svg"
   xmlns:svg="http://www.w3.org/2000/svg">
  <sodipodi:namedview
     id="namedview7"
     pagecolor="#ffffff"
     bordercolor="#666666"
     borderopacity="1.0"
     inkscape:pageshadow="2"
     inkscape:pageopacity="0.0"
     inkscape:pagecheckerboard="0"
     inkscape:document-units="mm"
     showgrid="false"
     fit-margin-top="0"
     fit-margin-left="0"
     fit-margin-right="0"
     fit-margin-bottom="0"
     inkscape:zoom="1.0104048"
     inkscape:cx="-30.680773"
     inkscape:cy="-20.288898"
     inkscape:window-width="1920"
     inkscape:window-height="991"
     inkscape:window-x="-9"
     inkscape:window-y="-9"
     inkscape:window-maximized="1"
     inkscape:current-layer="layer1" />
  <defs
     id="defs2" />
  <g
     inkscape:label="Capa 1"
     inkscape:groupmode="layer"
     id="layer1"
     transform="translate(6.9919991,2.8375418)">
    <path
       style="fill:#000000;stroke-width:0.0335423"
       d="m 30.123759,10.409186 c -0.437968,-0.06892 -0.890953,-0.205969 -1.143245,-0.345889 -0.371875,-0.2062374 -0.531231,-0.5422232 -0.341645,-0.7203259 0.13747,-0.129147 0.319004,-0.094309 0.428061,0.082151 0.07936,0.1284017 0.165502,0.1807551 0.453882,0.275846 0.628474,0.2072304 1.285628,0.2463844 1.790904,0.1067035 0.568256,-0.1570937 0.759501,-0.2924825 0.851699,-0.6029559 0.07008,-0.2359944 0.07056,-0.7492638 7.85e-4,-1.0199636 C 32.09674,7.9224422 31.850011,7.4088976 31.720906,7.2620875 l -0.0992,-0.1128043 -0.06117,0.1035633 c -0.03365,0.05696 -0.12462,0.149121 -0.202155,0.2048028 -0.214535,0.1540691 -0.618267,0.3365229 -0.744651,0.3365229 -0.133048,0 -0.559748,-0.1780363 -0.672295,-0.2805084 -0.106849,-0.097286 -0.206375,-0.2993076 -0.206375,-0.4189102 0,-0.076775 -0.01829,-0.1029173 -0.08343,-0.1192673 -0.122518,-0.03075 -0.197038,-0.1627129 -0.170816,-0.3024883 0.03762,-0.2005266 0.24486,-0.5640638 0.467848,-0.8206839 0.317879,-0.3658224 0.556768,-0.5060774 0.862787,-0.5065528 0.187753,-3.139e-4 0.509763,0.1791757 0.680889,0.3794846 0.218436,0.2556791 0.272043,0.4132061 0.272043,0.7993973 0,0.3012856 0.0042,0.3214964 0.06034,0.2914369 0.09405,-0.050345 0.274533,0.026634 0.376801,0.1607145 0.121994,0.1599467 0.395446,0.720437 0.472421,0.9683184 0.05054,0.1627738 0.06256,0.3102838 0.06283,0.7714763 l 2.62e-4,0.5702213 -0.110931,0.2342745 c -0.12934,0.2731596 -0.165716,0.3180188 -0.397306,0.4899949 -0.186314,0.138352 -0.525567,0.271377 -0.900545,0.353117 -0.288576,0.0629 -0.936998,0.08712 -1.204726,0.04499 z m 0.627453,-3.2226088 c 0.365601,-0.1835919 0.470582,-0.3323712 0.474245,-0.6720739 0.0021,-0.1986048 -0.0091,-0.2390892 -0.102752,-0.3689669 -0.134793,-0.1870081 -0.27772,-0.2736993 -0.400455,-0.2428936 -0.181065,0.045444 -0.642896,0.6100119 -0.703579,0.8600994 -0.01894,0.078033 -0.01172,0.092242 0.04676,0.092242 0.04063,0 0.114745,0.056766 0.179734,0.1376534 0.08638,0.1075098 0.281367,0.2521283 0.35511,0.2633731 0.0053,8.11e-4 0.07327,-0.03043 0.15094,-0.069433 z m 3.464564,1.8474407 c -0.488579,-0.1735356 -0.83268,-0.5603168 -1.031002,-1.1588856 -0.06663,-0.2011097 -0.07693,-0.3009331 -0.07753,-0.7518088 -5.23e-4,-0.4618267 0.0096,-0.5583798 0.09119,-0.8642858 0.111446,-0.4176895 0.226878,-0.653708 0.474514,-0.9701948 0.348755,-0.4457285 0.723099,-0.5241955 1.261342,-0.2643945 0.450615,0.2175043 0.479655,0.2357134 0.584259,0.3663726 0.09965,0.1244632 0.103359,0.1409108 0.103291,0.4576566 0,0.3266111 -10e-4,0.3304658 -0.163765,0.6518141 -0.188193,0.3716449 -0.386562,0.5765579 -0.586289,0.6056369 -0.06709,0.00977 -0.205907,0.032771 -0.308481,0.05112 -0.102577,0.018347 -0.327799,0.03336 -0.500499,0.03336 -0.251423,0 -0.327197,-0.011697 -0.38028,-0.058699 -0.06553,-0.05803 -0.06603,-0.055864 -0.04382,0.1899523 0.04771,0.528152 0.299981,0.9742703 0.648958,1.1476097 0.137453,0.068275 0.205622,0.078995 0.478917,0.075312 0.521446,-0.00702 1.030003,-0.2120552 1.408784,-0.5679653 0.101465,-0.095339 0.218135,-0.190851 0.259267,-0.2122488 0.100016,-0.052033 0.230044,-0.015127 0.311484,0.08841 0.121723,0.1547419 0.09043,0.2366673 -0.196475,0.5144769 -0.309499,0.2996829 -0.532131,0.4296796 -1.011582,0.5906762 -0.300857,0.1010253 -0.408428,0.1203322 -0.737935,0.1324482 -0.330272,0.012145 -0.414294,0.00404 -0.584351,-0.056362 z M 34.070599,6.6383305 c 0.385686,-0.018141 0.59689,-0.052075 0.7029,-0.1129296 0.106642,-0.06122 0.281458,-0.3959011 0.314398,-0.6019076 0.02694,-0.1684895 -0.0068,-0.2201498 -0.201011,-0.3074198 -0.07539,-0.033883 -0.20794,-0.093511 -0.294558,-0.1325094 -0.210234,-0.094653 -0.239423,-0.090944 -0.395739,0.050281 -0.203616,0.183955 -0.367244,0.4811493 -0.456685,0.8294846 -0.09609,0.3742164 -0.09585,0.3682085 -0.01311,0.3239305 0.03691,-0.019753 0.191625,-0.041771 0.34381,-0.04893 z M 7.2348876,9.0134717 c -0.196677,-0.098344 -0.269829,-0.3599312 -0.145069,-0.5187704 0.05604,-0.071351 0.0641,-0.1579131 0.07461,-0.8011565 0.0065,-0.3966394 0.006,-0.8758204 -0.001,-1.064847 -0.01086,-0.2907367 -0.0039,-0.3535741 0.04526,-0.4078784 0.120147,-0.1327626 0.336283,-0.1141401 0.435666,0.037537 0.03328,0.050786 0.0757,0.3182394 0.123927,0.7813593 0.04033,0.3872783 0.08343,0.7156304 0.09576,0.7296709 0.01235,0.014041 0.104149,-0.084071 0.204023,-0.2180257 0.23877,-0.3202411 0.509928,-0.6144108 0.718786,-0.7797859 0.09289,-0.073548 0.190926,-0.1548883 0.217868,-0.1807572 0.07152,-0.068674 0.253449,-0.1383624 0.360834,-0.138218 0.137731,2.028e-4 0.288325,0.1064346 0.445026,0.313983 0.142715,0.1890251 0.3992384,0.7309484 0.4694834,0.9918214 l 0.03945,0.1464913 0.206987,-0.3153632 c 0.391795,-0.5969295 0.778103,-1.0887951 0.944924,-1.2031223 0.286434,-0.1963011 0.579076,-0.2159353 0.822034,-0.055153 0.109295,0.072327 0.167111,0.1573655 0.322276,0.4740225 0.221973,0.4529916 0.274263,0.6622726 0.301561,1.206918 0.03463,0.6910181 -0.08821,1.0565868 -0.355039,1.0565868 -0.05454,0 -0.140865,-0.037598 -0.199385,-0.086838 -0.09427,-0.079327 -0.103202,-0.1043704 -0.103202,-0.2895374 0,-0.1484691 0.01918,-0.2337199 0.07166,-0.3186468 0.06373,-0.103112 0.06918,-0.1456857 0.04925,-0.3845982 -0.01232,-0.1477578 -0.03894,-0.3464159 -0.05915,-0.441462 -0.03754,-0.1765461 -0.299884,-0.7371651 -0.363309,-0.7763636 -0.06036,-0.037302 -0.24623,0.1082261 -0.38608,0.3022745 -0.07379,0.102393 -0.185252,0.2498038 -0.247686,0.3275798 -0.06243,0.077776 -0.211147,0.2923514 -0.330475,0.4768348 -0.119328,0.1844835 -0.260696,0.3982683 -0.31415,0.4750776 -0.05345,0.076809 -0.09719,0.1615645 -0.09719,0.1883457 0,0.02678 -0.03129,0.088463 -0.06952,0.1370718 -0.06983,0.088774 -0.218232,0.1174392 -0.348734,0.067361 -0.06887,-0.026428 -0.2437534,-0.37367 -0.3863974,-0.7672277 -0.17351,-0.4787055 -0.269154,-0.6962438 -0.357711,-0.8135932 -0.07294,-0.096649 -0.09087,-0.1046919 -0.156031,-0.069965 -0.129963,0.06927 -0.496985,0.4401416 -0.683403,0.6905791 -0.289532,0.3889545 -0.672452,0.7464291 -0.799561,0.7464291 -0.07631,0 -0.08329,0.012605 -0.08329,0.1504116 0,0.1174915 -0.0202,0.1722897 -0.09224,0.250371 -0.116678,0.1264406 -0.229814,0.1510335 -0.370708,0.080583 z M 22.861453,8.6785233 c -0.125452,-0.1594886 -0.08047,-0.3219165 0.117471,-0.4241942 0.08415,-0.043482 0.111252,-0.087138 0.147257,-0.2372219 0.07046,-0.2937317 0.0326,-0.5986475 -0.115441,-0.929703 -0.170143,-0.3804713 -0.181801,-0.4737298 -0.07283,-0.582695 0.119226,-0.119225 0.269863,-0.1149647 0.385635,0.010907 0.04891,0.053176 0.149305,0.2380786 0.223098,0.4108947 l 0.134171,0.3142112 v 0.4695942 c 0,0.4190659 -0.0083,0.4875951 -0.07711,0.6368883 -0.133163,0.2889116 -0.301229,0.4196985 -0.539325,0.4196985 -0.104163,0 -0.148636,-0.01937 -0.20292,-0.08838 z M -1.7443594,8.6416969 c -0.0369,-0.00924 -0.106201,-0.044546 -0.154009,-0.078462 -0.07819,-0.055468 -0.09411,-0.056632 -0.158428,-0.011582 -0.108488,0.075987 -0.386692,0.077849 -0.469259,0.00314 -0.084713,-0.07665 -0.115797,-0.194937 -0.077955,-0.2966441 0.032776,-0.088093 -0.041429,-0.2133136 -0.336579,-0.5679724 -0.156645,-0.1882269 -0.244416,-0.3275523 -0.505022,-0.8016519 -0.055774,-0.1014659 -0.150499,-0.2599538 -0.210497,-0.3521957 -0.129077,-0.1984396 -0.308984,-0.5518198 -0.435452,-0.855332 -0.04997,-0.1199141 -0.102383,-0.2302066 -0.116482,-0.2450937 -0.0141,-0.014889 -0.152319,0.037942 -0.307157,0.1173987 -0.279492,0.1434247 -0.284061,0.1444615 -0.633718,0.143836 -0.351252,-6.279e-4 -0.352894,-0.00102 -0.613901,-0.1443844 -0.27937,-0.1534566 -0.30129,-0.1691001 -0.590359,-0.4212949 -0.25091,-0.2189018 -0.523218,-0.6240374 -0.588877,-0.8761166 -0.06044,-0.2320295 -0.06651,-0.5600664 -0.01556,-0.8406838 0.152565,-0.840343 0.666313,-1.469617 1.394188,-1.7076923 l 0.168811,-0.055215 -0.0423,-0.1630927 c -0.07925,-0.3055212 -0.123224,-0.8212472 -0.120154,-1.409247 0.0047,-0.9019269 0.119282,-1.5690458 0.354437,-2.0637081 0.117328,-0.246807 0.183604,-0.3387631 0.358772,-0.4977905 0.118173,-0.107283 0.278977,-0.2328432 0.357343,-0.2790223 0.130648,-0.076987 0.169657,-0.083004 0.469595,-0.072431 0.287049,0.01012 0.355865,0.025116 0.561906,0.1224474 0.33263,0.1571319 0.771328,0.4632064 0.920536,0.6422455 0.06989,0.083866 0.214346,0.2958778 0.32101,0.471137 0.106664,0.1752591 0.260881,0.4209856 0.342707,0.5460584 0.1756,0.268412 0.466091,0.8733682 0.598567,1.2465318 l 0.09406,0.2649439 0.160782,-0.1818207 c 0.08843,-0.1000012 0.20718303,-0.2648379 0.26389703,-0.3663038 0.354055,-0.6334246 0.775584,-1.2471285 0.971072,-1.4137774 0.276209,-0.2354628 0.521772,-0.3591791 0.81696497,-0.4115908 0.369245,-0.06556 0.913903,-0.066343 1.006555,-0.00144 0.03853,0.026986 0.115797,0.049066 0.171708,0.049066 0.154591,0 0.526902,0.1159493 0.674412,0.2100327 0.18158,0.1158139 0.263809,0.2124233 0.363672,0.4272737 0.07704,0.1657573 0.08578,0.2258089 0.08608,0.591613 2.62e-4,0.3641269 -0.01355,0.4615567 -0.131077,0.9224171 -0.07227,0.2834079 -0.16407,0.5907576 -0.203993,0.6829992 -0.078,0.1802122 -0.169148,0.4318811 -0.157868,0.4358763 0.0038,0.00133 0.06728,0.022968 0.14107,0.048054 0.07379,0.025084 0.215529,0.097438 0.314969,0.1607831 0.302022,0.1923948 0.472086,0.3969713 0.678982,0.8167697 0.383836,0.7788195 0.498688,1.169952 0.498688,1.6983062 0,0.4754555 -0.161159,0.7328917 -0.625237,0.9987628 l -0.273044,0.1564255 -0.565519,0.049887 c -0.546266,0.048188 -1.343308,0.046606 -1.524225,-0.00303 -0.07934,-0.021767 -0.0916,-0.010685 -0.146143,0.132147 -0.03275,0.085748 -0.107319,0.2190957 -0.165715,0.2963286 -0.145309,0.192184 -0.40055997,0.584892 -0.47280297,0.7274165 -0.03273,0.064569 -0.113541,0.1853219 -0.179585,0.2683396 -0.224202,0.281829 -0.860187,0.8924549 -1.062325,1.0199673 -0.224511,0.1416271 -0.63377503,0.5254666 -0.70595903,0.6621052 -0.0258,0.048843 -0.112468,0.1205404 -0.19259,0.1593264 -0.14658,0.070958 -0.185783,0.076787 -0.308978,0.045941 z m 0.0077,-0.5791852 c 0.03496,0 0.155248,-0.1036441 0.273213,-0.2354006 0.118396,-0.1322396 0.331606,-0.3158131 0.48651703,-0.4188934 0.151667,-0.1009209 0.345801,-0.2553639 0.43141,-0.3432065 0.08561,-0.087843 0.187489,-0.1899019 0.2264,-0.2267984 0.285209,-0.2704415 0.430119,-0.4455434 0.610704,-0.7379338 0.113938,-0.1844834 0.272685,-0.4295075 0.35277,-0.5444984 0.08009,-0.1149909 0.174451,-0.2763571 0.209701,-0.3585922 l 0.06409,-0.1495179 -0.140511,-0.080561 c -0.07728,-0.044309 -0.166967,-0.090029 -0.199303,-0.1015993 -0.03234,-0.011572 -0.260372,-0.1558442 -0.506749,-0.3206076 -0.522612,-0.3494938 -0.595285,-0.3893707 -0.868935,-0.4767909 -0.112622,-0.035979 -0.29916903,-0.118207 -0.41454503,-0.1827295 l -0.209777,-0.1173141 -0.08436,0.084362 c -0.09116,0.091159 -0.242948,0.1111899 -0.361557,0.047713 -0.06097,-0.032628 -0.11318,0.00743 -0.475773,0.3650012 -0.428511,0.4225732 -0.640274,0.5770478 -1.086227,0.7923678 l -0.271765,0.1312172 0.06153,0.1560946 c 0.08447,0.2143062 0.397887,0.844729 0.450617,0.906397 0.02366,0.027673 0.114955,0.1786137 0.202875,0.3354243 0.08792,0.156811 0.19816,0.352648 0.244975,0.4351936 0.04682,0.082546 0.192176,0.2811415 0.323023,0.4413249 0.130846,0.1601832 0.295434,0.3756945 0.365751,0.4789134 0.109202,0.1602991 0.13701,0.1827678 0.190663,0.1540532 0.03455,-0.018489 0.09092,-0.033618 0.125269,-0.033618 z m -2.968354,-3.0243818 c 0.161718,-0.076853 0.293968,-0.1560967 0.293887,-0.1760977 -1.27e-4,-0.036638 -0.0689,-0.2329517 -0.265312,-0.7575281 -0.05871,-0.1568109 -0.142871,-0.4058636 -0.187019,-0.5534503 -0.04415,-0.1475866 -0.116274,-0.3815453 -0.160276,-0.5199077 -0.044,-0.1383626 -0.115557,-0.3723211 -0.159009,-0.519908 -0.04345,-0.1475866 -0.08915,-0.2804777 -0.101552,-0.2953132 -0.0124,-0.014837 -0.121478,0.012631 -0.242392,0.061036 -0.675849,0.2705612 -1.129519,1.359251 -0.826908,1.9843629 0.145265,0.3000792 0.653434,0.7511812 0.969885,0.860969 0.239235,0.082999 0.357911,0.068283 0.678696,-0.084163 z m 7.625795,-0.2421211 c 0.497865,-0.042433 0.508866,-0.045101 0.694785,-0.1685067 0.103901,-0.068965 0.221712,-0.1784661 0.261803,-0.243335 C 4.0319566,4.1340399 3.8938496,3.5039452 3.5172206,2.7410949 3.3247086,2.3511624 3.1859296,2.1798831 2.9541656,2.0461804 2.6753436,1.8853301 2.6640066,1.8898525 2.5209446,2.2189903 c -0.218695,0.5031469 -0.417695,1.0203521 -0.493166,1.28175 -0.108013,0.3741088 -0.14976,0.4959209 -0.29893,0.872237 -0.07465,0.1883288 -0.135732,0.3546491 -0.135732,0.3696005 0,0.1017811 0.516493,0.122567 1.327665,0.053431 z m -6.448366,-0.2973811 c 0.304183,-0.1583413 0.389158,-0.2257791 0.842736,-0.6688134 0.551402,-0.5385855 0.555476,-0.5478505 0.264183,-0.6010992 -0.21435,-0.039183 -0.292071,-0.1312308 -0.270723,-0.3206267 0.01401,-0.1243021 0.0037,-0.1519011 -0.08878,-0.2378525 -0.258688,-0.2404035 -0.585698,-0.4104901 -1.078969,-0.5612003 -0.267398,-0.081699 -0.331443,-0.08923 -0.584986,-0.068784 -0.156593,0.012628 -0.289297,0.027543 -0.294899,0.033145 -0.0056,0.0056 0.01897,0.098861 0.0546,0.2072424 0.03563,0.108381 0.135877,0.4310149 0.222766,0.7169642 0.08689,0.2859492 0.195359,0.6255666 0.241046,0.7547049 0.232615,0.657518 0.330723,0.9219525 0.342137,0.9221733 0.0069,1.395e-4 0.164828,-0.079 0.350892,-0.1758541 z M 1.3520136,3.817895 c 0.05517,-0.165211 0.155828,-0.4739656 0.223696,-0.6861215 0.06787,-0.212156 0.211139,-0.5895086 0.318382,-0.8385611 l 0.194988,-0.4528229 -0.206054,-0.018567 c -0.415402,-0.03743 -0.92088897,0.116084 -1.45213697,0.4410075 -0.113448,0.069387 -0.385141,0.2192161 -0.603764,0.3329539 -0.218622,0.1137374 -0.424933,0.2312996 -0.458468,0.26125 -0.03354,0.02995 -0.111026,0.085151 -0.1722,0.1226688 -0.34884203,0.2139407 -0.46414703,0.3197822 -0.34837103,0.3197822 0.02144,0 0.108236,0.04395 0.19287003,0.097667 0.08463,0.053717 0.230251,0.1199745 0.323599,0.1472395 0.245299,0.071647 0.556328,0.2357717 0.920408,0.4856821 0.175258,0.1203013 0.424311,0.276095 0.55345,0.3462081 L 1.0732096,4.503761 1.1624596,4.3110195 c 0.04909,-0.1060079 0.134387,-0.3279142 0.189552,-0.493125 z m -2.901854,-0.997754 c 0.29017,-0.2257082 0.78473203,-0.5379447 1.10617003,-0.6983694 0.188591,-0.094123 0.463648,-0.2446088 0.611233,-0.3344113 0.317874,-0.193417 0.730306,-0.376704 1.02717997,-0.4564827 0.158629,-0.042628 0.327719,-0.055854 0.654459,-0.051192 l 0.440568,0.00629 0.04019,-0.1085302 c 0.0221,-0.059691 0.06343,-0.1613594 0.09183,-0.2259285 0.09606,-0.2183843 0.177446,-0.4791865 0.281345,-0.9015384 0.08627,-0.3506985 0.101611,-0.4721934 0.09212,-0.7296981 -0.01013,-0.2748269 -0.02064,-0.3188497 -0.09524,-0.398629 -0.118718,-0.1269671 -0.224395,-0.1744219 -0.489377,-0.219755 -0.127482,-0.021809 -0.261796,-0.055316 -0.298475,-0.074459 -0.07229,-0.037728 -0.589301,-0.0408 -0.802571,-0.00477 -0.07249,0.012247 -0.23411697,0.08785 -0.35916897,0.1680062 -0.257625,0.1651336 -0.426468,0.3839402 -0.872496,1.1306825 -0.143067,0.2395239 -0.33265,0.5261314 -0.421296,0.6369066 -0.249356,0.3116044 -0.437499,0.6200908 -0.46109903,0.7560361 -0.04971,0.2863618 -0.170929,0.4055753 -0.363298,0.3572935 -0.149259,-0.037461 -0.196967,-0.1259186 -0.229068,-0.4247224 -0.04763,-0.443343 -0.150648,-0.8079855 -0.357225,-1.2644141 -0.04501,-0.099446 -0.111373,-0.2497225 -0.147477,-0.333948 -0.0361,-0.084225 -0.122339,-0.2368188 -0.191635,-0.339097 -0.0693,-0.1022779 -0.177367,-0.2765246 -0.240158,-0.3872147 -0.111302,-0.1962064 -0.340287,-0.532223 -0.459741,-0.674629 -0.182224,-0.2172359 -0.81973,-0.549604 -1.054256,-0.5496435 -0.329683,-5.59e-5 -0.685929,0.4334687 -0.816494,0.9936121 -0.160214,0.6873381 -0.201194,1.6283437 -0.10061,2.3102914 0.08644,0.5860713 0.02455,0.5241381 0.498469,0.498821 0.399958,-0.021367 0.414066,-0.019643 0.796013,0.097211 0.718186,0.219726 1.036246,0.419902 1.575817,0.9917668 0.191497,0.2029581 0.363629,0.3601539 0.382517,0.3493243 0.01889,-0.010831 0.09168,-0.064295 0.161771,-0.1188111 z M 16.68721,8.6356966 c -0.217976,-0.0437 -0.485298,-0.1950221 -0.684526,-0.3874834 l -0.19816,-0.1914324 -0.08511,0.1118787 c -0.244682,0.3216282 -0.470145,0.4640737 -0.734542,0.4640737 -0.501079,0 -0.841287,-0.3754899 -0.873632,-0.9642329 -0.01057,-0.1922206 -0.0024,-0.2920752 0.02687,-0.3272939 0.03481,-0.04194 0.02686,-0.065888 -0.04611,-0.1388561 -0.121675,-0.121674 -0.120003,-0.2873523 0.0041,-0.4030305 0.154699,-0.1442366 0.353979,-0.2697215 0.56362,-0.3549061 0.1098,-0.044615 0.247491,-0.1289761 0.305985,-0.1874693 0.05849,-0.058493 0.130902,-0.1063516 0.16091,-0.1063516 0.08869,0 0.246197,0.095067 0.267215,0.1612857 0.01073,0.033767 0.0648,0.094894 0.120176,0.1358374 0.169806,0.1255432 0.401446,0.5629462 0.401943,0.7589899 2.62e-4,0.1089694 0.138856,0.307565 0.399018,0.57183 0.326671,0.3318241 0.406254,0.3539691 0.948973,0.2640617 0.10367,-0.017175 0.137846,-0.00654 0.20964,0.065257 0.103419,0.1034199 0.116239,0.2856578 0.02585,0.3674591 -0.143745,0.1300886 -0.556613,0.2116184 -0.812176,0.1603826 z M 15.173073,7.9587511 c 0.133854,-0.139301 0.232095,-0.3835755 0.194092,-0.4826062 -0.01099,-0.028606 -0.09706,-0.1722026 -0.191292,-0.3191046 L 15.004539,6.8899448 14.88153,6.9410267 c -0.154763,0.064268 -0.374577,0.2078418 -0.374577,0.2446588 0,0.015328 0.03019,0.055188 0.06708,0.088579 0.05076,0.045938 0.06708,0.1033095 0.06708,0.2357786 0,0.3217755 0.145046,0.5821779 0.325792,0.5848951 0.044,6.541e-4 0.127941,-0.054785 0.206158,-0.136187 z m 3.000345,0.6749294 c -0.04043,-0.016984 -0.09931,-0.070257 -0.130845,-0.1183815 -0.04679,-0.071409 -0.05082,-0.1087366 -0.0219,-0.2029801 0.04511,-0.1469668 -0.0043,-0.3442255 -0.225052,-0.897843 -0.261695,-0.6564099 -0.287209,-0.8416477 -0.134908,-0.9794782 0.08325,-0.075341 0.306241,-0.076392 0.483618,-0.00228 0.09925,0.041469 0.25336,0.053941 0.681557,0.05516 l 0.553306,0.00157 0.09633,0.096329 c 0.124404,0.1244038 0.124823,0.2458686 0.0013,0.3694185 l -0.09506,0.095056 -0.57415,-0.00981 -0.574147,-0.00981 0.06827,0.1721307 c 0.227239,0.572978 0.273489,0.7429043 0.27706,1.017968 0.003,0.2339226 -0.0066,0.2858082 -0.06362,0.3429946 -0.08002,0.080227 -0.239547,0.1128843 -0.341739,0.069957 z m 2.008052,-0.07858 C 20.12232,8.4921315 20.10846,8.436697 20.1081,8.2616043 20.10786,8.142879 20.07552,7.8570639 20.03622,7.6264597 19.926378,6.9818609 19.922268,6.8267042 20.00966,6.6235666 20.0528,6.5232932 20.134681,6.410844 20.20528,6.3549299 c 0.116751,-0.092469 0.417255,-0.2043374 0.548896,-0.2043374 0.03478,0 0.112709,-0.037735 0.173178,-0.083856 0.201747,-0.1538808 0.461618,-0.098377 0.576122,0.1230473 0.09276,0.1793692 -0.02608,0.3968602 -0.21685,0.3968602 -0.05309,0 -0.147429,0.020783 -0.20964,0.046184 -0.06221,0.025401 -0.186702,0.056798 -0.276647,0.069772 -0.21735,0.031349 -0.338633,0.1470409 -0.311772,0.2974034 0.113117,0.6332498 0.155377,0.9556239 0.15596,1.1898166 5.24e-4,0.2511909 -0.0073,0.2862564 -0.08163,0.3605813 -0.108939,0.1089391 -0.281492,0.111065 -0.381418,0.0047 z m 5.394389,-0.370165 c -0.168265,-0.045408 -0.61827,-0.3321556 -0.816245,-0.5201189 -0.133134,-0.1263997 -0.3241,-0.4602608 -0.3241,-0.5666161 0,-0.086176 0.0937,-0.2087002 0.186613,-0.2440265 0.14076,-0.053517 0.270786,0.021644 0.386093,0.2231797 0.162794,0.2845315 0.60454,0.5882389 0.855598,0.5882389 0.182442,0 0.256889,-0.056643 0.310754,-0.236434 C 26.235422,7.2260689 26.224632,7.19433 26.029422,7.0022174 25.92831,6.9027086 25.814957,6.7612601 25.777527,6.6878882 25.686901,6.5102475 25.562801,6.4530148 25.215032,6.4284726 c -0.241738,-0.01706 -0.303259,-0.033367 -0.367238,-0.097348 -0.104968,-0.1049671 -0.10108,-0.259983 0.0093,-0.3703495 0.08409,-0.08409 0.09387,-0.085637 0.410896,-0.064989 0.695338,0.045289 0.693316,0.044801 0.869181,0.2094693 0.366621,0.3432853 0.421009,0.4077882 0.525551,0.6232746 0.09143,0.1884549 0.16393,0.2734048 0.438928,0.514301 0.181171,0.1587076 0.368607,0.3046353 0.416523,0.3242839 0.04792,0.019648 0.177738,0.03268 0.288496,0.02896 0.248093,-0.00834 0.352069,0.065888 0.352069,0.2513189 0,0.1689368 -0.122224,0.2716922 -0.358249,0.3011817 -0.302492,0.037794 -0.600009,-0.08363 -0.932841,-0.3807108 L 26.70021,7.6184266 26.641177,7.7538 C 26.479356,8.1248886 26.028891,8.3071932 25.575861,8.1849358 Z M 23.077046,5.6474561 c -0.01141,-0.01845 -0.09408,-0.033542 -0.183719,-0.033542 -0.210935,0 -0.26108,-0.021356 -0.32066,-0.136569 -0.141199,-0.2730539 0.0307,-0.5371651 0.31504,-0.4840349 0.06724,0.012563 0.137346,0.034505 0.155796,0.048759 0.01844,0.014253 0.07389,0.035539 0.123198,0.047302 0.123226,0.029394 0.284372,0.1714345 0.309904,0.2731645 0.02433,0.096992 -0.05117,0.2663329 -0.132723,0.2976268 -0.08399,0.032229 -0.243769,0.024621 -0.266836,-0.012706 z M 14.359421,4.7397468 c -0.07409,-0.088055 -0.08595,-0.1330904 -0.08321,-0.3159845 0.0018,-0.1173118 -0.0062,-0.2284576 -0.01763,-0.2469912 -0.04535,-0.073376 -0.276487,-1.3796018 -0.386716,-2.1854405 -0.02145,-0.1568109 -0.05352,-0.3756756 -0.07127,-0.4863654 -0.05093,-0.3175888 -0.0986,-0.9123536 -0.09863,-1.2304915 -6.8e-5,-0.5549151 0.161706,-1.0333738 0.431901,-1.2774775 0.445885,-0.4028293 1.461396,-0.2442368 2.139554,0.334134 0.197488,0.1684298 0.434096,0.5117598 0.495127,0.7184568 l 0.04138,0.140139 0.07951,-0.1306278 c 0.214682,-0.3526759 0.521127,-0.59253 0.938328,-0.7344298 0.319812,-0.1087745 0.875018,-0.1295509 1.012853,-0.037902 0.138443,0.092054 0.177241,0.2508278 0.113685,0.4652499 -0.160303,0.5408375 -0.66813,1.0442762 -1.250678,1.2398756 -0.125492,0.042136 -0.234363,0.080384 -0.241937,0.084996 -0.03649,0.022217 0.135507,0.1613121 0.315652,0.2552772 0.180179,0.093983 0.229756,0.10458 0.473449,0.1011969 0.220466,-0.00306 0.328074,-0.02487 0.566213,-0.1147476 0.271655,-0.1025298 0.300695,-0.1072231 0.381881,-0.061718 0.228236,0.1279307 0.199178,0.3835515 -0.05844,0.5139998 -0.550641,0.2788313 -1.194971,0.2840917 -1.678971,0.013709 C 17.213135,1.6458739 16.898323,1.3404997 16.808663,1.1513686 16.684515,0.8894925 16.658269,0.8766685 16.520727,1.0106752 16.361792,1.1655208 16.084164,1.3009668 15.798331,1.363107 15.484867,1.431254 14.725112,1.418742 14.493032,1.341609 14.402362,1.311474 14.323886,1.291106 14.318645,1.296347 c -0.0052,0.00524 0.0034,0.069418 0.0192,0.1426153 0.0158,0.073198 0.04556,0.2689342 0.06613,0.4349693 0.07853,0.6339885 0.312321,1.9414583 0.407088,2.2766288 0.0202,0.071452 0.03928,0.2173235 0.0424,0.3241581 0.0048,0.1638839 -0.007,0.2078026 -0.07565,0.2809819 -0.119826,0.1278106 -0.303327,0.1208135 -0.41841,-0.015954 z m 1.56238,-3.9795047 c 0.20288,-0.092057 0.376403,-0.3193853 0.348912,-0.457097 -0.09625,-0.4821704 -0.71153,-0.9262502 -1.359128,-0.9809618 -0.407824,-0.034454 -0.576526,0.1479286 -0.640882,0.6928486 -0.04022,0.3405765 -0.0123,0.7048572 0.05213,0.6801323 0.02386,-0.00916 0.109018,0.012634 0.189223,0.048425 0.08021,0.035792 0.168474,0.074187 0.196149,0.085323 0.02767,0.011135 0.276725,0.01627 0.55345,0.011409 0.429149,-0.00754 0.526224,-0.019313 0.660143,-0.080079 z m 1.910452,-0.4326817 c 0.1859,-0.1123134 0.389628,-0.3085801 0.463408,-0.4464359 0.0345,-0.064465 0.0287,-0.070012 -0.0727,-0.069543 -0.293872,0.00136 -0.644022,0.1975616 -0.816616,0.4575842 -0.168616,0.254029 -0.159127,0.2890953 0.06073,0.2244268 0.09685,-0.028488 0.261185,-0.103203 0.36518,-0.1660318 z M 9.6203926,3.2278682 C 9.3665256,3.1913952 9.0710676,3.0612222 8.7350246,2.83779 8.3734396,2.5973761 8.2259456,2.3997448 8.0907886,1.9745594 7.9663646,1.5831391 7.8976706,0.6810322 7.9629216,0.2953993 c 0.05184,-0.3063864 0.161154,-0.63656 0.265839,-0.8029803 0.04642,-0.073793 0.14768,-0.2700165 0.225023,-0.4360516 0.07734,-0.1660352 0.203043,-0.3770758 0.279331,-0.4689794 0.07629,-0.091903 0.138707,-0.1914491 0.138707,-0.2212128 0,-0.054931 0.08429,-0.1461519 0.196324,-0.2124756 0.03393,-0.020085 0.163113,-0.1119909 0.287072,-0.2042328 0.279067,-0.207662 0.8311284,-0.4942743 1.1434134,-0.593622 0.345807,-0.1100128 0.861197,-0.1045496 1.140444,0.01209 0.29028,0.1212476 0.478872,0.2521904 0.692631,0.4809057 0.336508,0.3600563 0.525946,0.7220038 0.665534,1.2715926 0.08139,0.3204663 0.08591,0.6606864 0.01528,1.1508331 -0.06628,0.4599615 -0.171833,0.7818992 -0.404339,1.2332579 -0.311249,0.6042145 -0.535048,0.8823277 -0.969108,1.2042987 -0.461111,0.3420362 -0.678487,0.4286132 -1.274614,0.5076565 -0.4067304,0.05393 -0.4439904,0.054501 -0.7440684,0.011388 z M 10.398004,2.6600408 c 0.461147,-0.063794 0.735353,-0.2053303 1.165562,-0.6016254 0.27678,-0.2549609 0.65121,-0.8995414 0.808605,-1.3920113 0.09259,-0.2897218 0.163456,-0.8208285 0.145446,-1.090129 -0.01857,-0.2777819 -0.142652,-0.6860954 -0.295578,-0.9727306 -0.212623,-0.3985236 -0.658118,-0.7367661 -1.040345,-0.7898795 -0.442868,-0.06154 -1.6157894,0.4984398 -1.7582664,0.8394364 -0.02572,0.061577 -0.08112,0.1398651 -0.123095,0.1739748 -0.138404,0.1124739 -0.176747,0.1870963 -0.193713,0.3769982 -0.01549,0.1733069 -0.0258,0.1925476 -0.13417,0.2506381 -0.11464,0.061444 -0.292868,0.3071417 -0.370046,0.5101385 -0.09137,0.2403162 -0.138892,0.6359768 -0.116498,0.9698926 0.05568,0.8302972 0.179855,1.1860679 0.489061,1.4012422 0.290677,0.2022799 0.556961,0.3269553 0.762478,0.3569921 0.198689,0.02904 0.220362,0.027959 0.6605594,-0.032937 z M 20.355224,1.900619 C 20.213053,1.873626 20.159279,1.7681588 20.156035,1.5099368 20.151535,1.1514615 20.081065,0.6371297 19.989921,0.2974373 19.897411,-0.047324 19.791933,-0.6602318 19.799426,-0.809463 c 0.0059,-0.1172511 0.141082,-0.2515682 0.253206,-0.2515682 0.09911,0 0.220607,0.088337 0.258469,0.1879206 0.01685,0.044288 0.07668,0.3031381 0.132988,0.5752222 0.12962,0.626381 0.124702,0.6121736 0.211775,0.611693 0.08243,-4.447e-4 0.314438,-0.1253331 0.471782,-0.2539375 0.589942,-0.4821855 0.713257,-0.5545017 0.984884,-0.5775624 0.247693,-0.021029 0.358047,0.034832 0.475162,0.2405226 0.113882,0.2000151 0.253258,0.6214638 0.300957,0.9100346 0.111608,0.6752106 0.111744,0.6770197 0.0583,0.7803828 -0.09539,0.184462 -0.372649,0.2211615 -0.471754,0.062444 -0.02451,-0.039243 -0.05479,-0.1921036 -0.06732,-0.3396903 -0.03645,-0.4297329 -0.173099,-0.9815091 -0.268248,-1.0831819 -0.04488,-0.047961 -0.118455,-0.00201 -0.615126,0.3841297 -0.290353,0.2257422 -0.51766,0.3526947 -0.73747,0.4118838 l -0.142175,0.038284 0.0202,0.1412133 c 0.01112,0.077668 0.03375,0.1940431 0.05031,0.2586124 0.05859,0.2283906 0.03823,0.3931805 -0.06175,0.4999836 -0.09771,0.1043788 -0.180765,0.1360256 -0.29838,0.1136959 z"
       id="path2252" />
  </g>
</svg>
