<?xml version="1.0" encoding="UTF-8" standalone="no"?>
<!-- Created with Inkscape (http://www.inkscape.org/) -->

<svg
   width="135.00699"
   height="64.587326"
   viewBox="0 0 17.860298 8.5443645"
   version="1.1"
   id="svg5"
   inkscape:version="1.1.1 (3bf5ae0d25, 2021-09-20)"
   sodipodi:docname="vr.svg"
   xmlns:inkscape="http://www.inkscape.org/namespaces/inkscape"
   xmlns:sodipodi="http://sodipodi.sourceforge.net/DTD/sodipodi-0.dtd"
   xmlns="http://www.w3.org/2000/svg"
   xmlns:svg="http://www.w3.org/2000/svg">
  <sodipodi:namedview
     id="namedview7"
     pagecolor="#ffffff"
     bordercolor="#666666"
     borderopacity="1.0"
     inkscape:pageshadow="2"
     inkscape:pageopacity="0.0"
     inkscape:pagecheckerboard="0"
     inkscape:document-units="mm"
     showgrid="false"
     inkscape:zoom="2.8578563"
     inkscape:cx="28.692835"
     inkscape:cy="-44.963772"
     inkscape:window-width="1920"
     inkscape:window-height="991"
     inkscape:window-x="-9"
     inkscape:window-y="-9"
     inkscape:window-maximized="1"
     inkscape:current-layer="layer1"
     fit-margin-top="0"
     fit-margin-left="0"
     fit-margin-right="0"
     fit-margin-bottom="0"
     units="px" />
  <defs
     id="defs2" />
  <g
     inkscape:label="Capa 1"
     inkscape:groupmode="layer"
     id="layer1"
     transform="translate(151.8153,45.381742)">
    <path
       style="fill:#000000;stroke-width:0.0150493"
       d="m -135.13911,-36.851248 c -0.0398,-0.01929 -0.0714,-0.08995 -0.0608,-0.136248 0.008,-0.0378 0.0194,-0.06554 0.1792,-0.462882 0.0616,-0.153126 0.14145,-0.356292 0.1775,-0.451477 0.0506,-0.133451 0.39208,-0.998887 0.43178,-1.094113 0.004,-0.0105 -0.0194,-0.0052 -0.0567,0.01294 -0.15066,0.07279 -0.38553,-0.01904 -0.62043,-0.242592 -0.15424,-0.146757 -0.18303,-0.199855 -0.19861,-0.366037 -0.0102,-0.109238 -0.009,-0.115766 0.028,-0.15273 0.047,-0.04703 0.11196,-0.05038 0.15735,-0.0081 0.0342,0.03183 0.0404,0.05104 0.0557,0.168137 0.008,0.06218 0.0216,0.08334 0.11238,0.17499 0.10218,0.103212 0.23144,0.187064 0.31744,0.205954 0.0348,0.0077 0.0545,0.0014 0.0907,-0.02908 0.0582,-0.04901 0.10451,-0.04918 0.16223,-6.09e-4 l 0.0455,0.03822 0.0149,-0.04951 c 0.008,-0.02723 0.0321,-0.09692 0.0532,-0.154858 0.0211,-0.05794 0.0384,-0.133635 0.0386,-0.168211 4.7e-4,-0.11535 0.11796,-0.163612 0.20987,-0.08629 0.0348,0.02926 0.0463,0.05154 0.0463,0.08944 0,0.06194 -0.0656,0.260531 -0.15895,0.481095 -0.0928,0.219267 -0.31906,0.777988 -0.35347,0.872856 -0.015,0.04138 -0.0589,0.156512 -0.0975,0.255837 -0.0386,0.09933 -0.10641,0.275402 -0.15062,0.391282 -0.0442,0.115878 -0.10852,0.27841 -0.14293,0.361181 -0.0343,0.08277 -0.0721,0.18172 -0.0836,0.219887 -0.0368,0.121137 -0.11274,0.171625 -0.19691,0.13093 z m -16.26159,-0.424335 c -0.0435,-0.01898 -0.10055,-0.0836 -0.13758,-0.155816 -0.0375,-0.07325 -0.0593,-0.275423 -0.0505,-0.470054 0.007,-0.15109 0.0139,-0.18803 0.0556,-0.286338 0.0263,-0.06208 0.0539,-0.13255 0.0615,-0.156605 0.007,-0.02405 0.0662,-0.09875 0.13062,-0.166004 0.11293,-0.117999 0.23393,-0.271237 0.2986,-0.378144 0.0171,-0.02827 0.0447,-0.0667 0.0611,-0.08541 0.0717,-0.08097 0.0825,-0.112012 0.0642,-0.18441 -0.011,-0.0439 -0.0144,-0.151662 -0.009,-0.30489 0.007,-0.214676 0.0122,-0.249735 0.0547,-0.372428 0.067,-0.193807 0.0897,-0.243337 0.16326,-0.356749 0.12809,-0.197371 0.29415,-0.310425 0.54859,-0.373508 0.0685,-0.01698 0.1612,-0.04174 0.20597,-0.05503 0.0646,-0.01916 0.11746,-0.02211 0.25584,-0.01428 0.23203,0.01315 0.29069,0.04191 0.48591,0.238328 0.16296,0.163964 0.19441,0.211006 0.28236,0.422442 0.0336,0.08093 0.0815,0.175062 0.10615,0.209185 0.0247,0.03412 0.0449,0.06804 0.0449,0.07537 0,0.0073 0.031,0.07786 0.0688,0.156722 0.0378,0.07887 0.0727,0.167037 0.0774,0.19593 0.009,0.0584 -0.0165,0.121163 -0.0552,0.133464 -0.0206,0.0065 -0.0246,0.03091 -0.0239,0.148133 6.1e-4,0.127265 -0.003,0.147886 -0.0434,0.22192 -0.0243,0.04489 -0.0717,0.118036 -0.10534,0.162547 -0.11243,0.148463 -0.10644,0.132168 -0.0627,0.170599 0.0966,0.08499 0.0483,0.205216 -0.0862,0.21428 -0.0487,0.0034 -0.0818,0.01485 -0.10082,0.03526 -0.0156,0.01671 -0.0528,0.03844 -0.0826,0.0483 -0.0465,0.01535 -0.0667,0.01348 -0.13992,-0.01296 -0.0508,-0.01828 -0.1176,-0.02999 -0.16401,-0.02871 -0.0524,0.0015 -0.0874,-0.0057 -0.10535,-0.02142 -0.0148,-0.01298 -0.0586,-0.02815 -0.0974,-0.03372 -0.12636,-0.01819 -0.18666,-0.09945 -0.1403,-0.189105 0.0312,-0.06039 0.0797,-0.0693 0.21684,-0.03984 0.11723,0.02519 0.24674,0.03076 0.28735,0.01235 0.0124,-0.0056 0.0241,-0.03055 0.0258,-0.05538 0.004,-0.05185 0.0519,-0.09782 0.10248,-0.09782 0.0425,0 0.12718,-0.09302 0.20733,-0.227522 0.057,-0.09567 0.0571,-0.09649 0.0473,-0.216431 -0.005,-0.06622 -0.0194,-0.143231 -0.0309,-0.171142 -0.028,-0.06793 -0.0264,-0.136455 0.004,-0.170009 0.0231,-0.0256 0.023,-0.03187 -0.003,-0.09148 -0.0155,-0.0352 -0.043,-0.08431 -0.0612,-0.109142 -0.0292,-0.03956 -0.0547,-0.09437 -0.16684,-0.357722 -0.0284,-0.06682 -0.26211,-0.313071 -0.32923,-0.346974 -0.0532,-0.02687 -0.27702,-0.0517 -0.27702,-0.03071 0,0.0076 0.0304,0.03032 0.0677,0.05067 0.0373,0.02034 0.0677,0.04107 0.0677,0.04605 0,0.005 0.0288,0.03009 0.064,0.05578 0.10014,0.07318 0.24453,0.215443 0.28996,0.285684 0.0228,0.03518 0.0461,0.06395 0.0519,0.06395 0.005,0 0.0199,0.01861 0.0314,0.04138 0.0115,0.02277 0.0384,0.06847 0.0596,0.101583 0.0212,0.0331 0.0469,0.07914 0.0569,0.10229 0.0229,0.05286 0.0237,0.182556 0.002,0.22602 -0.0406,0.07948 -0.13023,0.108215 -0.19831,0.06361 -0.0222,-0.01455 -0.041,-0.01727 -0.0559,-0.008 -0.0369,0.02285 0.069,0.103838 0.13673,0.104609 0.11584,0.0014 0.16056,0.130541 0.0733,0.211996 -0.0252,0.02358 -0.0785,0.09232 -0.11835,0.152767 -0.0853,0.129384 -0.13303,0.176286 -0.23304,0.229034 -0.0857,0.04518 -0.10073,0.04673 -0.15954,0.01631 -0.0413,-0.02137 -0.0478,-0.02011 -0.12341,0.02341 -0.0439,0.02528 -0.0916,0.04977 -0.10609,0.05442 -0.0145,0.0046 -0.0263,0.0143 -0.0263,0.02144 0,0.02353 -0.11814,0.0738 -0.17346,0.0738 -0.073,0 -0.10608,-0.02022 -0.12583,-0.07687 -0.0125,-0.03572 -0.0119,-0.05706 0.003,-0.08651 0.0173,-0.03611 0.0492,-0.05753 0.23688,-0.15884 0.0373,-0.02011 0.10835,-0.07089 0.15801,-0.112831 0.0497,-0.04194 0.12235,-0.09836 0.16151,-0.125353 0.06,-0.04139 0.0713,-0.05676 0.0715,-0.098 2.3e-4,-0.05635 0.002,-0.05596 -0.0975,-0.02553 -0.0584,0.01791 -0.11239,0.02082 -0.24185,0.01301 -0.12793,-0.0077 -0.20034,-0.004 -0.31198,0.01613 -0.08,0.0144 -0.15544,0.02231 -0.16775,0.0176 -0.0122,-0.0047 -0.0566,0.0015 -0.0985,0.01401 l -0.0761,0.0226 0.053,0.05 c 0.0292,0.0275 0.053,0.06045 0.053,0.07322 0,0.02689 0.0829,0.101144 0.11293,0.101144 0.0384,0 0.0827,0.07626 0.0827,0.142045 0,0.05121 -0.009,0.07129 -0.0489,0.109256 -0.0269,0.02558 -0.0827,0.06355 -0.12417,0.08438 -0.0992,0.04993 -0.15587,0.112899 -0.23282,0.258764 -0.0349,0.06622 -0.0722,0.130553 -0.0831,0.142968 -0.0288,0.03314 -0.1486,0.278491 -0.19002,0.389109 -0.025,0.06681 -0.071,0.137919 -0.15245,0.235824 -0.0641,0.07709 -0.11662,0.146437 -0.11662,0.154093 0,0.02026 -0.0477,0.05828 -0.0841,0.0671 -0.0173,0.0041 -0.0488,6.1e-5 -0.0699,-0.0092 z m 0.12353,-0.415038 c 0.026,-0.03282 0.0643,-0.10158 0.0851,-0.152824 0.0208,-0.05124 0.0644,-0.145392 0.097,-0.209218 0.0325,-0.06383 0.0591,-0.120503 0.0591,-0.12595 0,-0.0055 0.0221,-0.04204 0.0491,-0.08131 0.027,-0.03927 0.0693,-0.111909 0.0938,-0.161416 0.0268,-0.05411 0.0875,-0.133402 0.15202,-0.198784 l 0.10735,-0.108773 -0.0524,-0.0612 c -0.0288,-0.03367 -0.06,-0.05867 -0.0692,-0.05558 -0.009,0.003 -0.044,0.04353 -0.0773,0.08987 -0.12847,0.179221 -0.2415,0.323068 -0.3168,0.403148 -0.14688,0.156244 -0.20259,0.307775 -0.20259,0.550983 0,0.09389 0.006,0.17071 0.0138,0.17071 0.008,0 0.0351,-0.02684 0.061,-0.05965 z m 0.76043,-1.754609 c 0.11085,-0.08666 0.3379,-0.204684 0.4557,-0.236883 0.14609,-0.03993 0.37182,-0.04293 0.5219,-0.0069 0.0576,0.01381 0.10637,0.02349 0.10835,0.0215 0.0101,-0.01009 -0.13353,-0.194926 -0.20715,-0.266605 -0.15388,-0.149818 -0.28188,-0.23216 -0.3933,-0.252972 -0.0691,-0.0129 -0.0693,-0.01277 -0.20962,0.09111 -0.15437,0.114357 -0.2633,0.227479 -0.35211,0.365667 -0.0555,0.08631 -0.0582,0.09684 -0.0642,0.238559 l -0.006,0.148264 0.0432,-0.02733 c 0.0237,-0.01503 0.0703,-0.04851 0.1034,-0.07439 z m 0.84263,0.02556 0.0751,-0.02914 -0.0676,-0.01834 c -0.10532,-0.02858 -0.29245,-0.0039 -0.43631,0.05753 -0.0282,0.01205 0.19436,0.03076 0.28594,0.02405 0.0373,-0.0027 0.10153,-0.01808 0.14284,-0.03411 z m 3.69472,1.924145 c -0.0124,-0.008 -0.0416,-0.0147 -0.0647,-0.01481 -0.0916,-5e-4 -0.2261,-0.09447 -0.39836,-0.278352 -0.0309,-0.03295 -0.0974,-0.104057 -0.14795,-0.158018 -0.0505,-0.05396 -0.1534,-0.163747 -0.22867,-0.243972 -0.0753,-0.08023 -0.14772,-0.166914 -0.16103,-0.192643 -0.0173,-0.0334 -0.0317,-0.04437 -0.0507,-0.03837 -0.23255,0.0738 -0.32751,0.09149 -0.38318,0.07136 -0.0274,-0.0099 -0.0995,-0.01805 -0.16014,-0.01805 -0.10118,0 -0.11716,-0.0045 -0.19457,-0.05457 -0.13782,-0.0892 -0.2007,-0.169652 -0.27027,-0.345806 -0.0795,-0.20153 -0.0988,-0.319836 -0.079,-0.487173 0.008,-0.07054 0.0194,-0.168903 0.0245,-0.218566 0.005,-0.04967 0.0189,-0.123442 0.0306,-0.163955 0.0324,-0.111811 0.20279,-0.323775 0.26206,-0.326012 0.0238,-8.73e-4 0.078,-0.03562 0.17252,-0.110608 0.0336,-0.02669 0.0856,-0.04921 0.13339,-0.05776 0.0431,-0.0077 0.10534,-0.01961 0.13844,-0.02647 0.21066,-0.04362 0.26691,-0.04935 0.33389,-0.03402 0.0425,0.0097 0.0867,0.01068 0.11521,0.0026 0.0663,-0.01903 0.2822,-0.0016 0.43129,0.03471 0.16312,0.0398 0.25352,0.08535 0.37866,0.190794 0.0551,0.04646 0.12755,0.106537 0.1609,0.133497 0.0803,0.06489 0.21753,0.273743 0.25676,0.390697 0.036,0.107367 0.0404,0.239485 0.0138,0.413926 -0.0144,0.09434 -0.0138,0.127941 0.003,0.178435 0.0177,0.05352 0.0175,0.06773 -0.002,0.101787 -0.0484,0.08609 -0.15873,0.07967 -0.22146,-0.01288 -0.0381,-0.05624 -0.0384,-0.07005 -0.009,-0.425867 0.008,-0.09327 0.004,-0.132131 -0.017,-0.188116 -0.0381,-0.100781 -0.12825,-0.228506 -0.20684,-0.292904 l -0.0676,-0.05538 0.046,0.116289 c 0.0259,0.06544 0.0472,0.149195 0.0489,0.191535 0.003,0.07306 0.0189,0.150734 0.0618,0.296287 0.0114,0.0388 0.0207,0.08672 0.0207,0.106484 0,0.09006 -0.14598,0.13726 -0.21045,0.06805 -0.0318,-0.03412 -0.0457,-0.07559 -0.0753,-0.225075 -0.0128,-0.06488 -0.0263,-0.09154 -0.0564,-0.111233 -0.0218,-0.01424 -0.0603,-0.04788 -0.0857,-0.07474 -0.0389,-0.04111 -0.0606,-0.05034 -0.1365,-0.05829 -0.0497,-0.0052 -0.12754,-0.01656 -0.17306,-0.02527 -0.0455,-0.0087 -0.11595,-0.01948 -0.15648,-0.02396 -0.061,-0.0067 -0.0723,-0.0043 -0.0651,0.01411 0.005,0.01224 0.0131,0.0527 0.0188,0.08991 0.0106,0.0705 -0.0171,0.152526 -0.0559,0.165452 -0.0103,0.0034 0.0138,0.01443 0.0535,0.02443 0.0396,0.01 0.10937,0.03996 0.15482,0.0666 0.0455,0.02662 0.0974,0.05678 0.11553,0.06701 0.0476,0.02686 0.13072,0.02462 0.13072,-0.0036 0,-0.03971 0.0573,-0.08277 0.11024,-0.08277 0.0528,0 0.0624,0.0075 0.16274,0.127918 0.0345,0.04138 0.0754,0.08428 0.0911,0.09533 0.0157,0.01104 0.0467,0.03725 0.0693,0.05821 0.0224,0.02097 0.0707,0.06273 0.10724,0.09279 0.0571,0.04701 0.24718,0.287769 0.34009,0.430886 0.0566,0.08725 0.14293,0.346304 0.15289,0.459002 0.006,0.07005 6.1e-4,0.09543 -0.0353,0.165132 -0.048,0.09286 -0.12266,0.145531 -0.26476,0.186842 -0.0957,0.02781 -0.12979,0.02975 -0.16158,0.0092 z m 0.14902,-0.264531 c 0.0326,-0.01307 0.0632,-0.034 0.0681,-0.04652 0.0206,-0.05359 -0.0689,-0.309441 -0.1491,-0.426359 -0.1873,-0.273066 -0.26232,-0.347706 -0.44124,-0.43899 -0.2412,-0.123051 -0.48061,-0.145324 -0.36968,-0.03439 0.0508,0.05089 0.0506,0.159862 -6.1e-4,0.19803 l -0.0363,0.02703 0.11444,0.120395 c 0.29837,0.313854 0.5231,0.543784 0.551,0.563748 0.0286,0.02045 0.14352,0.05747 0.18559,0.05978 0.0102,5.46e-4 0.0453,-0.0097 0.0778,-0.02273 z m -1.37885,-0.871275 c 0.0283,-0.01185 0.0624,-0.03803 0.0755,-0.05818 l 0.0241,-0.03663 -0.14594,-0.006 c -0.12653,-0.0052 -0.1567,-0.0119 -0.22661,-0.05015 -0.0998,-0.05459 -0.16734,-0.131716 -0.20353,-0.232389 -0.0336,-0.09362 -0.0365,-0.196755 -0.0115,-0.414656 0.0181,-0.157051 0.0245,-0.18976 0.0601,-0.304152 l 0.015,-0.04832 -0.057,0.03774 c -0.10695,0.07078 -0.14844,0.139823 -0.17261,0.28727 -0.0484,0.295242 -0.047,0.344377 0.0151,0.531427 0.0587,0.176706 0.0985,0.240129 0.17734,0.282332 0.0931,0.04983 0.34332,0.05635 0.45014,0.01173 z m -0.13806,-0.39773 c -0.0815,-0.07612 -0.0542,-0.19463 0.051,-0.22101 0.0211,-0.0053 0.05,-0.0065 0.0643,-0.0027 0.0237,0.0062 0.0257,-0.0072 0.0221,-0.143947 -0.004,-0.138396 -6.1e-4,-0.155345 0.0329,-0.206476 0.0217,-0.03271 0.0656,-0.0696 0.10641,-0.08937 0.0644,-0.03118 0.0786,-0.03255 0.19287,-0.01846 0.0679,0.0084 0.16396,0.02583 0.21362,0.03882 0.10149,0.02655 0.21822,0.03209 0.21822,0.01035 0,-0.01629 -0.12734,-0.07595 -0.16212,-0.07595 -0.0126,0 -0.0744,-0.02524 -0.13729,-0.05608 -0.10187,-0.04992 -0.1285,-0.05642 -0.24236,-0.05913 -0.23494,-0.0056 -0.38304,0.0755 -0.43004,0.235456 -0.0236,0.08012 -0.0567,0.358188 -0.0529,0.443946 0.004,0.08722 0.0796,0.188278 0.14126,0.188278 0.0243,0 0.0215,-0.0068 -0.0179,-0.04365 z m 10.06961,0.667292 c -0.0388,-0.02721 -0.0785,-0.09758 -0.0785,-0.139278 0,-0.01585 0.0139,-0.04644 0.0308,-0.06798 0.0403,-0.05122 0.0608,-0.277518 0.0434,-0.479856 -0.0102,-0.119294 -0.0224,-0.167545 -0.066,-0.261719 -0.0632,-0.136887 -0.0651,-0.161003 -0.0164,-0.209728 0.0898,-0.08986 0.1846,-0.02658 0.26681,0.17823 l 0.0495,0.12344 1.3e-4,0.300985 c 1.2e-4,0.25227 -0.005,0.318886 -0.0294,0.411586 -0.041,0.153208 -0.11335,0.205285 -0.20038,0.144323 z m 1.07838,-0.03522 c -0.0342,-0.02767 -0.0353,-0.03622 -0.0368,-0.2596 -0.002,-0.243125 -0.0232,-0.52536 -0.0619,-0.804737 l -0.0231,-0.167422 -0.0565,-0.01693 c -0.0311,-0.0093 -0.0692,-0.01709 -0.0848,-0.01731 -0.0341,-4.33e-4 -0.17998,-0.04824 -0.2526,-0.0827 -0.0816,-0.03874 -0.11196,-0.165324 -0.0561,-0.234306 0.0374,-0.0462 0.12313,-0.04741 0.17104,-0.0024 0.0615,0.05777 0.22218,0.105904 0.22218,0.06656 0,-0.0068 -0.0128,-0.0864 -0.0287,-0.176829 -0.0158,-0.09042 -0.0333,-0.198272 -0.0388,-0.239658 -0.0111,-0.08266 -0.0574,-0.276471 -0.0922,-0.385982 -0.017,-0.05327 -0.033,-0.07439 -0.0673,-0.0886 -0.0881,-0.03651 -0.10217,-0.138611 -0.0277,-0.2013 0.0932,-0.07841 0.20928,-0.03765 0.27779,0.09755 0.0552,0.109007 0.12417,0.375036 0.15765,0.608426 0.007,0.04967 0.0268,0.171562 0.0437,0.270887 0.0169,0.09933 0.0309,0.185837 0.0311,0.19225 6.1e-4,0.02185 0.1692,0.07246 0.38862,0.116658 0.0522,0.01051 0.11144,0.03214 0.13169,0.04807 0.051,0.04012 0.0503,0.11997 -0.002,0.171755 -0.0346,0.03458 -0.0458,0.03729 -0.11665,0.02821 -0.0431,-0.0056 -0.0987,-0.01584 -0.12351,-0.02291 -0.0249,-0.0071 -0.0847,-0.02273 -0.13304,-0.0348 l -0.0879,-0.02193 0.01,0.107475 c 0.005,0.05911 0.0191,0.198898 0.0305,0.310638 0.0289,0.281299 0.0434,0.573788 0.0316,0.636422 -0.0206,0.110223 -0.13009,0.164477 -0.20665,0.102475 z m -2.17502,-0.05329 c -0.0744,-0.04651 -0.20667,-0.101846 -0.42891,-0.179513 -0.17669,-0.06175 -0.35166,-0.123531 -0.38884,-0.137296 -0.0668,-0.02472 -0.0679,-0.02461 -0.0903,0.0094 -0.0538,0.08158 -0.0981,0.120311 -0.18823,0.164703 -0.12525,0.06167 -0.30566,0.07706 -0.43037,0.03673 -0.0943,-0.03049 -0.21762,-0.104138 -0.23047,-0.137613 -0.0183,-0.04769 -0.008,-0.09843 0.0281,-0.134186 0.0466,-0.0467 0.0918,-0.04662 0.18365,2.51e-4 0.14035,0.07165 0.26636,0.07223 0.37397,0.0017 0.0482,-0.03154 0.0397,-0.04173 -0.0602,-0.07349 -0.11282,-0.03579 -0.2172,-0.08481 -0.24957,-0.117181 -0.0197,-0.0197 -0.0289,-0.04987 -0.0289,-0.09522 0,-0.05526 0.008,-0.07275 0.0451,-0.104305 0.0249,-0.02086 0.0569,-0.0412 0.0715,-0.04522 0.0487,-0.01344 0.17657,-0.02991 0.20701,-0.02666 0.092,0.0098 0.22315,0.09986 0.28779,0.197525 0.0289,0.04373 0.0537,0.06102 0.10812,0.07576 0.0389,0.01051 0.0775,0.02436 0.086,0.03081 0.008,0.0065 0.15613,0.05963 0.32815,0.118179 0.17203,0.05856 0.33922,0.119958 0.37154,0.136446 0.0323,0.01649 0.0658,0.02998 0.0744,0.02998 0.0235,0 0.0195,-0.478117 -0.006,-0.744938 -0.0119,-0.124157 -0.0261,-0.323936 -0.0312,-0.443953 -0.005,-0.120018 -0.026,-0.352644 -0.0459,-0.516947 -0.0334,-0.274832 -0.0391,-0.30099 -0.0722,-0.32693 -0.0407,-0.03204 -0.0698,-0.128715 -0.0698,-0.232442 0,-0.119737 0.0978,-0.187921 0.20173,-0.140586 0.0687,0.03131 0.11473,0.174625 0.15154,0.471967 0.0133,0.107602 0.0311,0.243046 0.0394,0.300985 0.008,0.05794 0.0218,0.227244 0.0298,0.376232 0.008,0.148986 0.0241,0.37924 0.0356,0.511674 0.0239,0.272643 0.0199,0.867743 -0.006,0.947276 -0.0222,0.06734 -0.0618,0.09993 -0.13079,0.107639 -0.0482,0.0054 -0.0752,-0.0046 -0.16526,-0.0608 z m -2.26686,-0.09971 c -0.11363,-0.02746 -0.24662,-0.117042 -0.32467,-0.218714 -0.0544,-0.07079 -0.1075,-0.212812 -0.1075,-0.287238 0,-0.03479 -0.008,-0.05373 -0.0263,-0.06014 -0.11956,-0.0424 -0.13479,-0.185553 -0.0253,-0.237516 0.0479,-0.02277 0.0517,-0.02951 0.0518,-0.09528 2.3e-4,-0.135547 0.10547,-0.302034 0.23202,-0.367227 0.17788,-0.09163 0.45197,-0.02424 0.52114,0.128139 0.0608,0.13372 0.0255,0.285761 -0.0939,0.405102 -0.09,0.09 -0.27753,0.190511 -0.35842,0.192122 -0.0124,2.51e-4 -0.0315,0.0061 -0.0425,0.01311 -0.0534,0.03382 0.0557,0.209346 0.16541,0.266445 0.0564,0.02935 0.19132,0.04254 0.25506,0.02496 0.062,-0.01714 0.13803,0.0069 0.15407,0.04869 0.028,0.07289 -6.2e-4,0.146204 -0.0667,0.170864 -0.0569,0.02123 -0.27103,0.03192 -0.33411,0.01666 z m -0.0169,-0.842644 c 0.11787,-0.07284 0.16327,-0.181473 0.0878,-0.21015 -0.0971,-0.03691 -0.18512,-0.0087 -0.2363,0.07562 -0.0251,0.04147 -0.0481,0.172239 -0.0341,0.194791 0.0107,0.01715 0.11091,-0.01596 0.18258,-0.06026 z m -1.87373,0.72178 c -0.0703,-0.02783 -0.0713,-0.03148 -0.12767,-0.442457 -0.0125,-0.09105 -0.0268,-0.212948 -0.0318,-0.270887 -0.005,-0.05794 -0.0202,-0.166293 -0.0339,-0.240788 -0.0372,-0.204191 -0.0366,-1.019539 6.1e-4,-1.188891 0.0772,-0.349305 0.10168,-0.410346 0.18885,-0.469086 0.0857,-0.05771 0.16725,-0.06036 0.27661,-0.0089 0.16664,0.07832 0.31632,0.186991 0.47104,0.341974 0.21466,0.215046 0.27777,0.353861 0.23425,0.515234 -0.0357,0.13253 -0.25779,0.287005 -0.47128,0.32785 -0.0602,0.01152 -0.12123,0.02476 -0.13572,0.02943 -0.0145,0.0046 -0.0367,0.01175 -0.0494,0.01573 -0.0494,0.01549 0.0427,0.136547 0.30938,0.406626 0.3243,0.328482 0.55881,0.596902 0.60923,0.697296 0.0478,0.09537 0.0488,0.167187 0.003,0.210561 -0.0729,0.06853 -0.19144,0.02211 -0.22069,-0.08646 -0.0194,-0.07238 -0.31057,-0.409915 -0.54817,-0.635642 -0.28785,-0.273483 -0.42975,-0.474533 -0.43017,-0.609502 -2.2e-4,-0.05631 0.007,-0.06948 0.0767,-0.13176 0.079,-0.0711 0.10916,-0.08302 0.34283,-0.135951 0.13636,-0.03089 0.28753,-0.125002 0.28753,-0.179013 0,-0.111589 -0.38176,-0.476547 -0.57557,-0.550232 -0.0566,-0.02152 -0.0592,-0.01538 -0.13193,0.307058 -0.009,0.04139 -0.0205,0.231007 -0.0249,0.421379 -0.007,0.326376 0.004,0.542393 0.0386,0.775036 0.008,0.0538 0.022,0.165542 0.0307,0.248313 0.009,0.08277 0.0266,0.2216 0.0396,0.30851 0.0427,0.282892 0.0427,0.274863 0.004,0.310541 -0.0453,0.0414 -0.0862,0.05204 -0.13154,0.0341 z m 4.91152,-1.404924 c -0.0316,-0.03164 -0.0368,-0.05055 -0.0361,-0.131682 0.002,-0.134506 0.0375,-0.219867 0.1094,-0.257137 0.0499,-0.02588 0.0653,-0.02749 0.11639,-0.01219 0.0953,0.02857 0.12257,0.130691 0.0524,0.196614 -0.0286,0.02681 -0.0337,0.041 -0.0225,0.06183 0.0682,0.127324 -0.11545,0.246585 -0.21947,0.142564 z m -13.65988,-0.636516 c -0.0607,-0.06918 -0.0722,-0.120177 -0.0779,-0.345739 -0.003,-0.122303 -0.0109,-0.347636 -0.0174,-0.500739 l -0.0117,-0.278368 -0.0717,-0.06449 c -0.0687,-0.0618 -0.10365,-0.126945 -0.10259,-0.19143 0.002,-0.06875 -0.0281,-0.363204 -0.0385,-0.387788 -0.006,-0.01463 -0.003,-0.04685 0.007,-0.07161 0.017,-0.04109 0.0155,-0.04753 -0.0184,-0.07413 -0.0695,-0.05467 -0.19208,-0.249577 -0.20187,-0.320989 -0.0111,-0.08116 0.0233,-0.164157 0.0785,-0.189326 0.054,-0.02464 0.0675,-0.02213 0.14482,0.02686 0.0657,0.04167 0.0706,0.04261 0.0932,0.01763 0.0131,-0.0145 0.0239,-0.04045 0.0239,-0.05764 0,-0.01911 0.0293,-0.05581 0.0753,-0.09427 0.0661,-0.05539 0.0753,-0.06994 0.0753,-0.120455 0,-0.04471 0.009,-0.06547 0.0429,-0.09359 0.0273,-0.02302 0.0469,-0.05765 0.0539,-0.09539 0.0138,-0.07527 0.0568,-0.167556 0.10322,-0.222178 0.0283,-0.03331 0.0652,-0.04976 0.17014,-0.07592 l 0.13399,-0.03339 0.0576,-0.08595 c 0.0364,-0.05423 0.11134,-0.128962 0.20317,-0.202494 0.2648,-0.212029 0.32573,-0.271453 0.47041,-0.458633 0.10219,-0.132233 0.12314,-0.147013 0.2084,-0.147013 0.0796,0 0.12138,0.03999 0.12138,0.116361 0,0.04823 -0.0112,0.06682 -0.0796,0.131679 -0.10739,0.102006 -0.19125,0.205522 -0.19132,0.236154 -3e-5,0.01385 -0.0206,0.04094 -0.0458,0.0602 -0.0557,0.0426 -0.1287,0.113278 -0.18197,0.176252 -0.0235,0.0277 -0.0542,0.04701 -0.0753,0.04721 -0.0196,2.28e-4 -0.0526,0.01396 -0.0733,0.0306 l -0.0376,0.03026 0.0601,-0.0091 c 0.0331,-0.0051 0.111,-0.01874 0.17307,-0.03052 0.062,-0.01178 0.16705,-0.0252 0.23327,-0.02984 0.39841,-0.02787 0.53264,-0.03188 0.60469,-0.01804 0.0718,0.0138 0.18539,0.0057 0.18539,-0.0132 0,-0.02674 -0.0884,-0.221476 -0.13222,-0.291351 -0.0722,-0.114987 -0.21216,-0.25607 -0.25411,-0.25607 -0.064,0 -0.10964,-0.03419 -0.14773,-0.110631 -0.0208,-0.04173 -0.0379,-0.08723 -0.0379,-0.101131 0,-0.01596 -0.0165,-0.02855 -0.0446,-0.03419 -0.073,-0.0146 -0.10581,-0.05928 -0.10581,-0.144165 0,-0.0585 0.008,-0.08423 0.0404,-0.122293 l 0.0405,-0.0482 0.13635,0.0071 c 0.14327,0.0075 0.18744,0.02291 0.3003,0.104724 l 0.0617,0.04469 0.009,-0.05664 c 0.0113,-0.06815 0.0593,-0.111213 0.12396,-0.11105 0.0371,9.6e-5 0.0682,0.01993 0.14506,0.09241 0.0538,0.05076 0.13692,0.126357 0.18472,0.167992 0.0477,0.04163 0.10187,0.09994 0.12016,0.129563 0.0339,0.05492 0.27422,0.357612 0.3056,0.384947 0.01,0.0083 0.0594,0.07741 0.11094,0.153625 0.0515,0.07622 0.10498,0.141778 0.1188,0.14569 0.0138,0.0039 0.13008,0.0075 0.25838,0.008 0.20091,9.12e-4 0.3343,0.0061 0.459,0.01862 0.0166,0.0015 0.0859,0.0018 0.15426,4.56e-4 l 0.12416,-0.0027 v -0.04613 c 0,-0.06327 0.0209,-0.09689 0.0738,-0.118798 0.087,-0.03603 0.23274,0.04623 0.25059,0.141461 0.006,0.03125 0.0219,0.05568 0.0429,0.06525 0.0185,0.0084 0.0657,0.04309 0.10491,0.07706 0.0392,0.03397 0.0768,0.06176 0.0836,0.06176 0.0113,0 0.13809,0.09445 0.25212,0.187787 0.0263,0.02158 0.0562,0.0642 0.0662,0.09467 0.0101,0.03049 0.0307,0.0759 0.046,0.100933 0.0383,0.06269 0.0348,0.11769 -0.0107,0.171685 -0.0292,0.03478 -0.035,0.05215 -0.0241,0.07264 0.008,0.0148 0.019,0.05798 0.0248,0.09592 0.005,0.03794 0.0148,0.07594 0.0203,0.08443 0.005,0.0085 0.0524,0.02611 0.10425,0.03916 0.12729,0.03204 0.25492,0.113116 0.31956,0.203007 0.0518,0.07195 0.0538,0.07313 0.12136,0.06668 0.061,-0.0058 0.0739,-0.0014 0.11483,0.03959 0.052,0.05204 0.0667,0.115049 0.047,0.202366 -0.0169,0.07481 -0.0924,0.18592 -0.13591,0.199723 -0.0182,0.0058 -0.0707,0.0359 -0.11659,0.0669 -0.1628,0.109987 -0.21976,0.126231 -0.28423,0.08107 -0.0189,-0.01326 -0.0371,-0.02147 -0.0403,-0.01825 -0.003,0.0033 0.003,0.09704 0.0138,0.208463 0.0115,0.118463 0.0168,0.292753 0.0123,0.4197 l -0.007,0.217106 -0.0799,0.07925 c -0.0547,0.05419 -0.1004,0.08482 -0.14472,0.09686 -0.0357,0.0097 -0.0817,0.02346 -0.10246,0.03061 -0.18624,0.0644 -0.876,0.07302 -1.07099,0.01338 -0.0285,-0.0087 -0.0548,-0.0046 -0.0903,0.01431 -0.0275,0.01461 -0.0957,0.03073 -0.15135,0.03579 -0.13501,0.01228 -0.19514,-0.01288 -0.24937,-0.104415 -0.10616,-0.179154 -0.23534,-0.363926 -0.28588,-0.408893 -0.0307,-0.02732 -0.1052,-0.09061 -0.16553,-0.140653 -0.12404,-0.102869 -0.0994,-0.105261 -0.25543,0.02478 -0.17932,0.14946 -0.23788,0.192646 -0.29781,0.219627 -0.0335,0.0151 -0.11737,0.08213 -0.18631,0.148971 -0.069,0.06684 -0.15613,0.13957 -0.19378,0.16163 -0.0777,0.04552 -0.32323,0.105003 -0.51457,0.124646 -0.16419,0.01686 -0.2643,0.03612 -0.35571,0.06844 -0.10776,0.03811 -0.31251,0.04579 -0.41633,0.0156 -0.058,-0.01687 -0.10986,-0.02152 -0.16598,-0.01492 -0.0706,0.0083 -0.0859,0.0053 -0.11358,-0.02236 -0.0413,-0.04123 -0.0417,-0.120755 -0.002,-0.172373 0.0578,-0.07348 0.22714,-0.09286 0.33416,-0.03824 0.0526,0.02683 0.0787,0.03052 0.16118,0.02282 0.0542,-0.0051 0.13567,-0.0219 0.1812,-0.03744 0.0455,-0.01553 0.15388,-0.0364 0.24078,-0.04636 0.19326,-0.02214 0.18584,-0.02089 0.36064,-0.06069 0.15739,-0.03583 0.18843,-0.05567 0.38431,-0.245866 0.0579,-0.05626 0.12304,-0.106024 0.14467,-0.110596 0.08,-0.01691 0.33461,-0.233772 0.48776,-0.415465 0.013,-0.01547 0.0431,-0.02634 0.0729,-0.02634 0.041,0 0.0676,0.01615 0.13921,0.08448 0.0794,0.0757 0.17035,0.150331 0.29146,0.239074 0.0745,0.0546 0.18613,0.202311 0.28568,0.378054 l 0.0607,0.107168 0.068,-0.0127 c 0.0374,-0.007 0.0809,-0.01965 0.0968,-0.02815 0.0373,-0.01997 0.1599,-0.01996 0.19722,1.5e-5 0.0335,0.0179 0.21956,0.03561 0.3077,0.02927 0.0331,-0.0024 0.0873,-0.0034 0.12039,-0.0022 0.28113,0.0098 0.46415,-0.01239 0.58067,-0.07054 l 0.0814,-0.04067 0.0101,-0.165054 c 0.005,-0.09078 0.004,-0.226004 -0.004,-0.300497 -0.0182,-0.179592 -0.0525,-0.456272 -0.0725,-0.586923 -0.009,-0.05794 -0.0263,-0.183223 -0.0386,-0.27841 -0.0123,-0.09519 -0.0278,-0.199843 -0.0342,-0.232568 l -0.0117,-0.05951 -0.23313,-0.02957 c -0.34691,-0.044 -0.51676,-0.03839 -0.90281,0.02976 -0.0704,0.01244 -0.17194,0.0254 -0.22573,0.02886 -0.0538,0.0034 -0.14861,0.01361 -0.2107,0.02256 -0.13688,0.01976 -0.2666,0.02517 -0.91886,0.03822 -0.4236,0.0085 -0.52549,0.0064 -0.63206,-0.01327 -0.18559,-0.03415 -0.32987,-0.05324 -0.5334,-0.07054 -0.0993,-0.0085 -0.23815,-0.02231 -0.3085,-0.03081 -0.0703,-0.0085 -0.21934,-0.01899 -0.33109,-0.02332 -0.11174,-0.0043 -0.2181,-0.01519 -0.23635,-0.02414 -0.043,-0.02111 -0.11556,0.02134 -0.10323,0.06039 0.0144,0.04551 0.0381,0.308443 0.0384,0.425249 2.2e-4,0.104563 0.004,0.116971 0.0416,0.1526 0.0228,0.02132 0.0693,0.05277 0.10349,0.06989 0.0341,0.0171 0.0663,0.04211 0.0715,0.05555 0.0206,0.05354 0.009,0.114225 -0.0294,0.152534 -0.0345,0.0345 -0.0472,0.0379 -0.11286,0.03012 l -0.074,-0.0087 -4.7e-4,0.123449 c -2.2e-4,0.06789 -0.004,0.188104 -0.009,0.267129 -0.01,0.15843 0.0157,0.710223 0.0427,0.928597 0.0169,0.136727 0.0166,0.139902 -0.0181,0.176829 -0.0431,0.04587 -0.1333,0.05188 -0.1689,0.01127 z m 5.20289,-1.713733 c 0.0331,-0.002 0.0635,-0.004 0.0675,-0.0046 0.004,-5.7e-4 -0.0116,-0.01862 -0.0348,-0.04012 -0.0656,-0.06084 -0.0765,-0.105389 -0.0426,-0.173971 l 0.0287,-0.05813 -0.0667,-0.045 c -0.10501,-0.07087 -0.11532,-0.06454 -0.10252,0.06291 0.006,0.05933 0.0169,0.128718 0.0241,0.154156 0.007,0.02545 0.0132,0.06565 0.0132,0.08935 0,0.0356 0.004,0.04101 0.0263,0.03105 0.0145,-0.0066 0.0534,-0.01366 0.0866,-0.01563 z m -5.29747,-0.382462 c -0.01,-0.04363 -0.0127,-0.04579 -0.0343,-0.02412 -0.0217,0.02166 -0.0212,0.0265 0.004,0.05442 0.0352,0.0388 0.0436,0.0303 0.0303,-0.03031 z m 3.02742,-0.444616 c 0.0592,-0.002 0.15744,-0.011 0.21822,-0.01979 0.0608,-0.0087 0.16465,-0.0228 0.23087,-0.03121 0.0662,-0.0084 0.19828,-0.02519 0.29346,-0.03729 0.0952,-0.01212 0.21031,-0.02956 0.25584,-0.03877 0.0992,-0.02006 0.31521,-0.01214 0.57187,0.021 0.25714,0.03318 0.25607,0.03326 0.25472,-0.01685 -0.003,-0.108295 -0.0476,-0.155571 -0.35243,-0.372882 l -0.10499,-0.07483 -0.29369,-0.002 c -0.16153,-0.0012 -0.39042,-0.0069 -0.50866,-0.0127 -0.11823,-0.0058 -0.22552,-0.0066 -0.23843,-0.0015 -0.02,0.0077 -0.0172,0.01963 0.018,0.08042 0.0229,0.03929 0.0463,0.07481 0.0522,0.07895 0.006,0.0041 0.0251,0.03122 0.0426,0.0602 0.096,0.158325 -0.0517,0.3439 -0.18241,0.229151 -0.0145,-0.0127 -0.0263,-0.03851 -0.0263,-0.05732 0,-0.01881 -0.0348,-0.09055 -0.0774,-0.159446 -0.0425,-0.06889 -0.0907,-0.147273 -0.10683,-0.174173 -0.0249,-0.04142 -0.039,-0.04937 -0.0919,-0.05194 -0.092,-0.0045 -0.1544,-2.27e-4 -0.2845,0.01931 l -0.11668,0.01753 0.0452,0.07899 c 0.048,0.08392 0.0558,0.135946 0.026,0.17384 -0.0566,0.07185 -0.15496,0.09539 -0.21699,0.05194 -0.0321,-0.0225 -0.0692,-0.108165 -0.0632,-0.145777 0.002,-0.01084 -0.013,-0.0551 -0.033,-0.09834 -0.0357,-0.0776 -0.0368,-0.07848 -0.0888,-0.06772 -0.029,0.006 -0.10007,0.01009 -0.15802,0.009 -0.33004,-0.0057 -0.43027,-0.0038 -0.51167,0.0094 -0.0497,0.0081 -0.13202,0.01482 -0.18303,0.01486 -0.051,4.4e-5 -0.14581,0.01078 -0.21068,0.02385 -0.0649,0.01308 -0.1586,0.02926 -0.20826,0.03596 -0.20581,0.02783 -0.27697,0.04747 -0.28703,0.0792 -0.005,0.01681 -0.0563,0.07731 -0.11321,0.134471 -0.0582,0.05853 -0.0954,0.106469 -0.0849,0.109728 0.0102,0.0032 0.10666,0.01357 0.21426,0.02306 0.1076,0.0095 0.2767,0.02697 0.37579,0.03881 0.0991,0.01184 0.21576,0.02154 0.25932,0.02154 0.0835,0 0.23282,0.02022 0.39576,0.05358 0.0761,0.01557 0.21812,0.01799 0.6396,0.01086 0.29797,-0.0051 0.59024,-0.01091 0.64949,-0.01302 z m -0.30337,-0.810952 c 0.0579,-0.0065 0.11065,-0.01479 0.11713,-0.01855 0.0156,-0.009 -0.0417,-0.103946 -0.10266,-0.170021 -0.0578,-0.06267 -0.2177,-0.262463 -0.29653,-0.370478 -0.0818,-0.112123 -0.098,-0.122847 -0.11555,-0.07664 -0.0178,0.04681 -0.0717,0.08593 -0.11844,0.08593 h -0.0354 l 0.0312,0.04371 c 0.0171,0.02404 0.0311,0.04821 0.0311,0.05372 0,0.0056 0.0203,0.03954 0.0452,0.07564 0.0249,0.03609 0.0452,0.07054 0.0452,0.07655 0,0.006 0.0336,0.07928 0.0745,0.16283 l 0.0746,0.151902 0.0722,-0.0014 c 0.0397,-9.11e-4 0.11956,-0.0067 0.1775,-0.01314 z m -1.1459,1.663611 c -0.0798,-0.03469 -0.10932,-0.166118 -0.0495,-0.220295 0.0271,-0.02452 0.0601,-0.02862 0.25279,-0.03147 0.15021,-0.0022 0.28203,-0.01408 0.40904,-0.03682 0.10307,-0.01844 0.22803,-0.03536 0.27769,-0.03758 0.0497,-0.0022 0.13092,-0.01046 0.1806,-0.0183 0.0497,-0.0078 0.17832,-0.01162 0.28592,-0.0084 0.45144,0.01357 0.73454,0.01163 0.92945,-0.0064 0.21625,-0.01993 0.24987,-0.01525 0.29283,0.04071 0.0277,0.03603 0.023,0.113925 -0.009,0.153892 -0.0267,0.03309 -0.0436,0.03638 -0.24456,0.04809 -0.11869,0.0069 -0.32416,0.0103 -0.4566,0.0076 -0.66204,-0.01383 -0.82515,-0.0052 -1.26413,0.0671 -0.12416,0.02044 -0.25282,0.03681 -0.28594,0.03638 -0.0331,-4.56e-4 -0.11099,0.0038 -0.17306,0.0094 -0.062,0.0056 -0.12737,0.0038 -0.14512,-0.0038 z m 7.02013,-0.08766 c -0.021,-0.02277 -0.0498,-0.07524 -0.0641,-0.116633 -0.0425,-0.123822 -0.1416,-0.57268 -0.17451,-0.790084 -0.0298,-0.196739 -0.0841,-0.491165 -0.12769,-0.692267 -0.0117,-0.0538 -0.0256,-0.124909 -0.0309,-0.158017 -0.0178,-0.110464 -0.0542,-0.240531 -0.0737,-0.263361 -0.0107,-0.01241 -0.0332,-0.0666 -0.05,-0.120393 -0.0757,-0.241087 -0.0472,-0.345176 0.0945,-0.345176 0.11637,0 0.13637,0.03957 0.21014,0.415585 0.0289,0.147509 0.0627,0.315605 0.0751,0.373542 0.0556,0.260484 0.0927,0.461575 0.12934,0.69979 0.0396,0.258448 0.13761,0.693822 0.15469,0.688127 0.015,-0.0051 0.0551,-0.0764 0.0906,-0.161403 0.0457,-0.109725 0.25065,-0.74422 0.25065,-0.776202 0,-0.0082 0.0169,-0.06549 0.0375,-0.127282 0.0206,-0.06179 0.0507,-0.200933 0.0668,-0.309214 0.016,-0.108279 0.0466,-0.246596 0.0678,-0.307368 0.0212,-0.06077 0.0386,-0.125326 0.0386,-0.143448 0,-0.04972 0.0705,-0.112298 0.12663,-0.112298 0.12486,0 0.15207,0.08739 0.0845,0.271334 -0.0273,0.07428 -0.0593,0.209112 -0.0767,0.323113 -0.0165,0.1076 -0.0427,0.232887 -0.0581,0.278409 -0.0156,0.04552 -0.0394,0.12679 -0.0529,0.180593 -0.0384,0.152328 -0.12681,0.435282 -0.21622,0.692265 -0.0764,0.219459 -0.17963,0.392406 -0.29464,0.493375 -0.0732,0.06426 -0.15173,0.06691 -0.20707,0.007 z m 1.58284,-0.116456 c -0.035,-0.03727 -0.0351,-0.03816 -0.0154,-0.187244 0.0286,-0.215752 0.0126,-0.406675 -0.0526,-0.630963 -0.029,-0.09972 -0.0527,-0.200772 -0.0527,-0.224555 0,-0.09189 0.12956,-0.144667 0.19484,-0.07938 0.0162,0.01612 0.0367,0.05844 0.0457,0.09406 0.009,0.03562 0.0228,0.08 0.0305,0.09862 0.0529,0.125849 0.0798,0.292723 0.0869,0.537999 0.0107,0.365054 0.0135,0.338633 -0.0403,0.38655 -0.063,0.05634 -0.14698,0.05842 -0.19725,0.0049 z m 3.06988,-0.12853 c -0.24608,-0.134792 -0.28426,-0.172542 -0.33446,-0.33065 -0.0534,-0.168158 -0.0183,-0.270885 0.0924,-0.270885 0.0718,0 0.10207,0.03237 0.12041,0.128966 0.0252,0.132856 0.0348,0.145061 0.17357,0.222982 l 0.13075,0.07339 0.11419,-0.01035 c 0.0628,-0.0057 0.13245,-0.01978 0.15475,-0.03133 0.10507,-0.05433 0.28572,-0.31396 0.28575,-0.410679 0,-0.04824 0.0646,-0.108425 0.11638,-0.108425 0.0593,0 0.10176,0.03413 0.14152,0.113764 0.0287,0.05754 0.0314,0.07525 0.0173,0.112694 -0.0145,0.0383 -0.0132,0.04443 0.009,0.04443 0.014,0 0.0404,0.01048 0.0587,0.02325 0.048,0.03366 0.17137,0.04427 0.25532,0.02199 0.0813,-0.02159 0.1847,-0.085 0.1847,-0.11325 0,-0.01034 -0.0476,-0.0364 -0.10562,-0.05793 -0.0919,-0.03406 -0.12006,-0.03793 -0.2165,-0.02978 -0.14184,0.012 -0.18316,9.11e-4 -0.21281,-0.05626 -0.0455,-0.08783 0.0132,-0.185674 0.13442,-0.224455 0.0591,-0.01892 0.20167,-0.01391 0.34032,0.01194 0.1044,0.01947 0.2702,0.104867 0.29814,0.153547 0.0132,0.02311 0.0582,0.05983 0.10001,0.08161 0.0777,0.04053 0.0889,0.04713 0.30915,0.182146 0.13343,0.08178 0.4437,0.248003 0.46296,0.24801 0.006,3e-6 0.009,-0.40802 0.006,-0.906716 -0.003,-0.542236 0.002,-1.015248 0.0114,-1.176703 0.0148,-0.243794 0.0195,-0.273352 0.0489,-0.304748 0.0455,-0.04843 0.12222,-0.04668 0.17285,0.0039 0.0358,0.03584 0.0379,0.04507 0.0277,0.124155 -0.006,0.047 -0.0132,0.601998 -0.0158,1.233342 -0.003,0.794498 -0.01,1.163611 -0.0216,1.198943 -0.0221,0.0669 -0.0734,0.09866 -0.15924,0.09866 -0.0857,0 -0.3407,-0.123819 -0.69771,-0.338855 l -0.23608,-0.142193 -0.099,0.0966 c -0.13283,0.129597 -0.24222,0.166579 -0.48957,0.165507 -0.15779,-6.71e-4 -0.17149,-0.0031 -0.20892,-0.03762 -0.022,-0.02029 -0.0514,-0.05492 -0.065,-0.07695 l -0.0249,-0.04004 -0.0888,0.112835 c -0.16733,0.212577 -0.24872,0.256236 -0.50037,0.268401 l -0.17726,0.0086 z m -1.23629,-0.09195 c -0.0595,-0.02159 -0.0785,-0.08167 -0.059,-0.187019 0.009,-0.04802 0.0162,-0.240132 0.0162,-0.426915 l -3e-5,-0.339606 -0.0714,-0.04506 c -0.091,-0.05741 -0.22704,-0.179408 -0.27102,-0.243152 -0.041,-0.05939 -0.0845,-0.219614 -0.0711,-0.26185 0.0151,-0.04789 0.0693,-0.08954 0.11616,-0.08954 0.0518,0 0.11187,0.05541 0.125,0.115336 0.0192,0.08767 0.0421,0.125931 0.10654,0.178797 l 0.0662,0.0543 -0.007,-0.125309 c -0.004,-0.06892 -0.0112,-0.24382 -0.0158,-0.38867 -0.01,-0.305969 -0.02,-0.364069 -0.0761,-0.422525 -0.0874,-0.09123 -0.0237,-0.218423 0.10793,-0.215596 0.0916,0.002 0.1377,0.04827 0.16531,0.165952 0.0215,0.09176 0.05,0.55654 0.0557,0.907428 l 0.003,0.201996 0.0888,0.02014 c 0.14347,0.03255 0.25966,0.09124 0.28058,0.141734 0.0248,0.05969 -0.003,0.125128 -0.0642,0.150413 -0.0407,0.01687 -0.0596,0.01425 -0.16347,-0.02267 -0.0646,-0.02295 -0.12496,-0.03707 -0.13417,-0.03138 -0.0114,0.0071 -0.0136,0.04768 -0.006,0.128406 0.005,0.06494 0.005,0.237714 -6.1e-4,0.383958 -0.0108,0.259582 -0.012,0.266897 -0.0508,0.308214 -0.0473,0.05041 -0.0858,0.06216 -0.13976,0.04259 z m -1.23043,-0.01446 c -0.0538,-0.02126 -0.0738,-0.05683 -0.0843,-0.148996 -0.005,-0.04552 -0.0221,-0.147107 -0.0375,-0.225741 -0.0439,-0.222767 -0.054,-0.420438 -0.0246,-0.47741 0.0439,-0.08486 0.0898,-0.108383 0.21036,-0.107738 0.16763,9.11e-4 0.32539,-0.02743 0.38967,-0.06997 0.10703,-0.07084 0.22293,-0.03176 0.22184,0.0748 -6.1e-4,0.09828 -0.14496,0.192212 -0.32309,0.210858 -0.058,0.0061 -0.14259,0.01549 -0.18811,0.02095 l -0.0827,0.0099 0.005,0.08277 c 0.003,0.04552 0.0172,0.143719 0.0323,0.218216 0.015,0.07449 0.032,0.182872 0.0376,0.240841 0.01,0.09787 0.008,0.107692 -0.0248,0.137478 -0.0452,0.04135 -0.0862,0.05197 -0.13147,0.03404 z m -0.83264,-1.301248 c -0.0423,-0.02293 -0.0483,-0.03811 -0.0641,-0.159992 -0.0154,-0.11926 0.0477,-0.194375 0.15048,-0.17934 0.0394,0.0058 0.0978,0.06053 0.0978,0.09175 0,0.01353 0.01,0.03775 0.0221,0.05381 0.0474,0.06268 0.0168,0.151326 -0.0673,0.194839 -0.0539,0.02786 -0.086,0.02762 -0.13884,-9.11e-4 z m -6.07732,-0.08145 c -0.0129,-0.0077 -0.0502,-0.0385 -0.0827,-0.06869 -0.065,-0.0602 -0.20885,-0.157388 -0.23308,-0.157388 -0.008,0 -0.098,-0.04003 -0.19912,-0.08896 -0.13307,-0.06439 -0.23065,-0.09971 -0.3534,-0.127918 -0.0933,-0.02143 -0.18263,-0.03897 -0.19857,-0.03897 -0.0383,0 -0.10358,-0.05983 -0.10681,-0.09782 -0.008,-0.09434 0.0319,-0.142901 0.11754,-0.143092 0.11913,-2.27e-4 0.45167,0.09482 0.61146,0.174844 0.0589,0.02951 0.14281,0.06629 0.1864,0.08171 0.10157,0.03595 0.38557,0.230552 0.40785,0.279465 0.0334,0.07329 0.01,0.15628 -0.0531,0.18481 -0.0439,0.01997 -0.065,0.0204 -0.0964,0.002 z"
       id="path2550" />
  </g>
</svg>
